<?xml version="1.0" encoding="UTF-8" standalone="no"?>
<!-- Created with Inkscape (http://www.inkscape.org/) -->

<svg
   width="0.33333334in"
   height="0.33333302in"
   viewBox="0 0 8.4666669 8.4666588"
   version="1.1"
   id="svg538"
   xml:space="preserve"
   xmlns="http://www.w3.org/2000/svg"
   xmlns:svg="http://www.w3.org/2000/svg"><defs
     id="defs535" /><g
     id="layer7"
     transform="translate(-41.436282,19.448758)"
     style="display:inline"><g
       id="layer1-9"
       transform="matrix(0.12499999,0,0,0.12499999,10.160452,-21.862364)"
       style="stroke-width:8"><g
         id="g29"
         transform="matrix(0.50000014,0,0,0.50000014,206.79494,-79.219158)"
         style="stroke-width:16"><rect
           style="display:inline;fill:none;fill-opacity:1;stroke:none;stroke-width:2.11667;stroke-linecap:square;stroke-opacity:1;-inkscape-stroke:none;paint-order:stroke fill markers"
           id="rect2-9-1-4"
           width="67.73333"
           height="67.73333"
           x="250.20667"
           y="19.308825"
           transform="matrix(1.9999994,0,0,1.9999994,-413.58976,158.43829)" /><path
           d="m 187.15339,257.59257 c 0.84666,0.84666 1.27,1.83444 1.27,2.96333 v 8.46667 c 0,1.19944 -0.42334,2.2225 -1.27,3.06916 -0.84667,0.77611 -1.83444,1.16417 -2.96334,1.16417 h -59.26664 c -1.19944,0 -2.2225,-0.38806 -3.06917,-1.16417 -0.7761,-0.84666 -1.16417,-1.86972 -1.16417,-3.06916 v -8.36084 c 0,-1.19944 0.38807,-2.2225 1.16417,-3.06916 0.84667,-0.84667 1.86973,-1.27 3.06917,-1.27 h 59.26664 c 1.1289,0 2.11667,0.42333 2.96334,1.27"
           style="display:inline;fill:#000000;fill-opacity:1;stroke:none;stroke-width:4.23332"
           id="path1-3-8" /></g></g></g></svg>
