<?xml version="1.0" encoding="UTF-8" standalone="no"?>
<!-- Created with Inkscape (http://www.inkscape.org/) -->

<svg
   width="0.33333334in"
   height="0.33333331in"
   viewBox="0 0 8.4666669 8.4666663"
   version="1.1"
   id="svg538"
   inkscape:version="1.3 (0e150ed6c4, 2023-07-21)"
   sodipodi:docname="assets.svg"
   xml:space="preserve"
   inkscape:export-filename="siteLogo.pdf"
   inkscape:export-xdpi="96"
   inkscape:export-ydpi="96"
   xmlns:inkscape="http://www.inkscape.org/namespaces/inkscape"
   xmlns:sodipodi="http://sodipodi.sourceforge.net/DTD/sodipodi-0.dtd"
   xmlns="http://www.w3.org/2000/svg"
   xmlns:svg="http://www.w3.org/2000/svg"><sodipodi:namedview
     id="namedview540"
     pagecolor="#ffffff"
     bordercolor="#666666"
     borderopacity="1.0"
     inkscape:showpageshadow="2"
     inkscape:pageopacity="0.0"
     inkscape:pagecheckerboard="true"
     inkscape:deskcolor="#d1d1d1"
     inkscape:document-units="px"
     showgrid="true"
     inkscape:zoom="2.9278846"
     inkscape:cx="110.31855"
     inkscape:cy="413.60919"
     inkscape:window-width="1920"
     inkscape:window-height="1027"
     inkscape:window-x="1775"
     inkscape:window-y="29"
     inkscape:window-maximized="1"
     inkscape:current-layer="layer1-9"
     showguides="true"><inkscape:grid
       id="grid4"
       units="px"
       originx="-223.99996"
       originy="-352"
       spacingx="4.2333333"
       spacingy="4.2333333"
       empcolor="#0099e5"
       empopacity="0.30196078"
       color="#0099e5"
       opacity="0.14901961"
       empspacing="2"
       dotted="false"
       gridanglex="30"
       gridanglez="30"
       visible="true"
       enabled="true" /><sodipodi:guide
       position="281.61736,355.55669"
       orientation="0,-1"
       id="guide16"
       inkscape:locked="false" /><sodipodi:guide
       position="268.23333,355.60002"
       orientation="1,0"
       id="guide15"
       inkscape:locked="false" /><sodipodi:guide
       position="280.93333,355.60002"
       orientation="1,0"
       id="guide17"
       inkscape:locked="false" /><sodipodi:guide
       position="42.333331,232.83336"
       orientation="1,0"
       id="guide18"
       inkscape:locked="false" /><sodipodi:guide
       position="55.033331,232.83336"
       orientation="1,0"
       id="guide19"
       inkscape:locked="false" /><sodipodi:guide
       position="-51.371499,338.73019"
       orientation="0,-1"
       id="guide20"
       inkscape:locked="false" /><inkscape:page
       x="4.592257e-06"
       y="-2.2837694e-06"
       width="8.4666672"
       height="8.4666662"
       id="page2"
       margin="0"
       bleed="0" /></sodipodi:namedview><defs
     id="defs535" /><g
     inkscape:groupmode="layer"
     id="layer7"
     inkscape:label="010"
     transform="translate(-54.136279,19.448758)"
     style="display:inline"
     inkscape:highlight-color="#7a9c96"><g
       inkscape:label="audio_controls"
       id="layer1-9"
       transform="matrix(0.12499999,0,0,0.12499999,10.160452,-21.862364)"
       style="stroke-width:8"><path
         d="m 262.99469,175.99508 4.86834,-6.985 3.175,2.75166 0.10583,0.10584 c 4.65667,4.72723 6.985,10.40693 6.985,17.03916 0,6.70277 -2.32833,12.3825 -6.985,17.03917 l -0.21167,0.21167 -3.06916,2.64583 -4.86834,-6.985 1.905,-1.5875 0.10584,-0.10583 c 3.10444,-3.10444 4.65666,-6.8439 4.65666,-11.21834 0,-4.30389 -1.55222,-8.00806 -4.65666,-11.1125 l -0.10584,-0.21166 -1.905,-1.5875 m -14.39333,-21.2725 c 1.12889,0 2.11667,0.42333 2.96333,1.27 0.84667,0.84666 1.27,1.83443 1.27,2.96333 v 59.26667 c 0,1.19943 -0.42333,2.2225 -1.27,3.06916 -0.84666,0.77611 -1.83444,1.16417 -2.96333,1.16417 h -4.23333 l -25.4,-25.4 h -8.46667 v -16.93333 h 8.46667 l 25.4,-25.4 h 4.23333"
         style="display:inline;fill:#000000;fill-opacity:1;stroke:none;stroke-width:2.11666"
         id="path1-9-2"
         inkscape:label="vol" /><g
         id="g30"
         transform="translate(1.1029053e-5,-101.54709)"
         inkscape:label="plus"><rect
           style="display:inline;fill:none;fill-opacity:1;stroke:none;stroke-width:2.11667;stroke-linecap:square;stroke-opacity:1;-inkscape-stroke:none;paint-order:stroke fill markers"
           id="rect2-9-1-4-8"
           width="67.73333"
           height="67.73333"
           x="351.80667"
           y="19.308825"
           inkscape:label="box"
           inkscape:export-filename="../main/static/assets/img/icons/play.svg"
           inkscape:export-xdpi="96"
           inkscape:export-ydpi="96"
           transform="translate(-1.1182057e-5,101.5471)" /><path
           d="m 370.85665,150.48926 h 10.58334 v -10.53042 c 0,-0.59972 0.19403,-1.11125 0.58208,-1.53459 0.42333,-0.42333 0.93486,-0.635 1.53458,-0.635 h 4.23334 c 0.56445,0 1.05833,0.21167 1.48167,0.635 0.42333,0.42334 0.635,0.91723 0.635,1.48167 v 10.58334 h 10.58333 c 0.56445,0 1.05833,0.21166 1.48167,0.635 0.42333,0.42333 0.635,0.91722 0.635,1.48166 v 4.23334 c 0,0.59972 -0.21167,1.11125 -0.635,1.53458 -0.42334,0.38805 -0.91722,0.58208 -1.48167,0.58208 h -10.58333 v 10.58334 c 0,0.59972 -0.21167,1.11125 -0.635,1.53458 -0.42334,0.38806 -0.91722,0.58209 -1.48167,0.58209 h -4.23334 c -0.59972,0 -1.11125,-0.19403 -1.53458,-0.58209 -0.38805,-0.42333 -0.58208,-0.93486 -0.58208,-1.53458 v -10.58334 h -10.58334 c -0.59972,0 -1.11125,-0.19403 -1.53458,-0.58208 -0.38805,-0.42333 -0.58208,-0.93486 -0.58208,-1.53458 v -4.18042 c 0,-0.59972 0.19403,-1.11125 0.58208,-1.53458 0.42333,-0.42334 0.93486,-0.635 1.53458,-0.635"
           style="display:inline;fill:#000000;fill-opacity:1;stroke:none;stroke-width:2.11666"
           id="path1-2-2"
           sodipodi:nodetypes="ccscsssscsssscscscsscscscsscc"
           inkscape:label="icon" /></g><g
         id="g29"
         transform="matrix(0.50000014,0,0,0.50000014,206.79494,-79.219158)"
         style="stroke-width:16"
         inkscape:label="minus"><rect
           style="display:inline;fill:none;fill-opacity:1;stroke:none;stroke-width:2.11667;stroke-linecap:square;stroke-opacity:1;-inkscape-stroke:none;paint-order:stroke fill markers"
           id="rect2-9-1-4"
           width="67.73333"
           height="67.73333"
           x="250.20667"
           y="19.308825"
           inkscape:label="box"
           inkscape:export-filename="../main/static/assets/img/icons/play.svg"
           inkscape:export-xdpi="96"
           inkscape:export-ydpi="96"
           transform="matrix(1.9999994,0,0,1.9999994,-413.58976,158.43829)" /><path
           d="m 187.15339,257.59257 c 0.84666,0.84666 1.27,1.83444 1.27,2.96333 v 8.46667 c 0,1.19944 -0.42334,2.2225 -1.27,3.06916 -0.84667,0.77611 -1.83444,1.16417 -2.96334,1.16417 h -59.26664 c -1.19944,0 -2.2225,-0.38806 -3.06917,-1.16417 -0.7761,-0.84666 -1.16417,-1.86972 -1.16417,-3.06916 v -8.36084 c 0,-1.19944 0.38807,-2.2225 1.16417,-3.06916 0.84667,-0.84667 1.86973,-1.27 3.06917,-1.27 h 59.26664 c 1.1289,0 2.11667,0.42333 2.96334,1.27"
           style="display:inline;fill:#000000;fill-opacity:1;stroke:none;stroke-width:4.23332"
           id="path1-3-8"
           inkscape:label="icon" /></g><g
         id="g22"
         inkscape:label="stop"
         inkscape:export-filename="../main/static/assets/img/icons/stop.svg"
         inkscape:export-xdpi="96"
         inkscape:export-ydpi="96"><rect
           style="display:inline;fill:none;fill-opacity:1;stroke:none;stroke-width:2.11667;stroke-linecap:square;stroke-opacity:1;-inkscape-stroke:none;paint-order:stroke fill markers"
           id="rect2-9-1"
           width="67.73333"
           height="67.73333"
           x="148.60667"
           y="19.308825"
           inkscape:label="box"
           inkscape:export-filename="../main/static/assets/img/icons/play.svg"
           inkscape:export-xdpi="96"
           inkscape:export-ydpi="96" /><path
           d="m 198.72934,36.919494 c 0.45156,0.45155 0.67733,0.97836 0.67733,1.58044 v 29.35111 c 0,0.6397 -0.22577,1.18534 -0.67733,1.63689 -0.45155,0.41392 -0.97836,0.62089 -1.58044,0.62089 h -29.35111 c -0.63971,0 -1.18534,-0.20697 -1.63689,-0.62089 -0.41393,-0.45155 -0.6209,-0.99719 -0.6209,-1.63689 v -29.29467 c 0,-0.63969 0.20697,-1.18533 0.6209,-1.63688 0.45155,-0.45156 0.99718,-0.67734 1.63689,-0.67734 h 29.35111 c 0.60208,0 1.12889,0.22578 1.58044,0.67734"
           style="display:inline;fill:#000000;fill-opacity:1;stroke:none;stroke-width:2.11666"
           id="path1-6-9"
           inkscape:label="icon" /></g><g
         id="g21"
         inkscape:label="pause"
         inkscape:export-filename="../main/static/assets/img/icons/pause.svg"
         inkscape:export-xdpi="96"
         inkscape:export-ydpi="96"><rect
           style="display:inline;fill:none;fill-opacity:1;stroke:none;stroke-width:2.11667;stroke-linecap:square;stroke-opacity:1;-inkscape-stroke:none;paint-order:stroke fill markers"
           id="rect2-9"
           width="67.73333"
           height="67.73333"
           x="47.006672"
           y="19.308825"
           inkscape:label="box"
           inkscape:export-filename="../main/static/assets/img/icons/play.svg"
           inkscape:export-xdpi="96"
           inkscape:export-ydpi="96" /><path
           d="m 97.806669,38.35882 v 29.633338 c 0,0.59972 -0.241905,1.111251 -0.725715,1.534585 -0.48381,0.388056 -1.04825,0.582081 -1.69333,0.582081 h -9.6762 c -0.68539,0 -1.27,-0.194025 -1.7538,-0.582081 -0.44349,-0.423334 -0.66524,-0.934865 -0.66524,-1.534585 V 38.411739 c 0,-0.599724 0.22175,-1.111249 0.66524,-1.534584 0.4838,-0.423335 1.06841,-0.635001 1.7538,-0.635001 h 9.6762 c 0.64508,0 1.20952,0.211666 1.69333,0.635001 0.48381,0.423335 0.725715,0.91722 0.725715,1.481665 M 77.728564,36.877155 c 0.48382,0.423335 0.72572,0.91722 0.72572,1.481665 v 29.633338 c 0,0.59972 -0.2419,1.111251 -0.72572,1.534585 -0.4838,0.388056 -1.04824,0.582081 -1.69333,0.582081 h -9.67619 c -0.68539,0 -1.27,-0.194025 -1.7538,-0.582081 -0.4435,-0.423334 -0.66524,-0.934865 -0.66524,-1.534585 V 38.411739 c 0,-0.599724 0.22174,-1.111249 0.66524,-1.534584 0.4838,-0.423335 1.06841,-0.635001 1.7538,-0.635001 h 9.67619 c 0.64509,0 1.20953,0.211666 1.69333,0.635001"
           style="display:inline;fill:#000000;fill-opacity:1;stroke:none;stroke-width:2.11666"
           id="path1-37"
           inkscape:label="icon" /></g><g
         id="g18"
         inkscape:label="play"
         inkscape:export-filename="../main/static/assets/img/icons/play.svg"
         inkscape:export-xdpi="96"
         inkscape:export-ydpi="96"><rect
           style="display:inline;fill:none;fill-opacity:1;stroke:none;stroke-width:2.11667;stroke-linecap:square;stroke-opacity:1;-inkscape-stroke:none;paint-order:stroke fill markers"
           id="rect2"
           width="67.73333"
           height="67.73333"
           x="-54.593338"
           y="19.308779"
           inkscape:label="box"
           inkscape:export-filename="../main/static/assets/img/icons/play.svg"
           inkscape:export-xdpi="96"
           inkscape:export-ydpi="96" /><path
           d="m -36.728675,36.877111 c 0.677334,-0.423337 1.495785,-0.635002 2.455334,-0.635002 h 3.386665 L -3.7933386,53.175444 -30.886676,70.108778 h -3.386665 c -0.959549,0 -1.778,-0.19403 -2.455334,-0.582085 -0.620881,-0.42333 -0.931333,-0.93486 -0.931333,-1.534578 V 38.411691 c 0,-0.59972 0.310452,-1.11125 0.931333,-1.53458"
           style="display:inline;fill:#000000;fill-opacity:1;stroke:none;stroke-width:2.11666"
           id="path1-73"
           inkscape:label="icon" /></g></g></g></svg>
