<?xml version="1.0" encoding="UTF-8" standalone="no"?>
<!-- Created with Inkscape (http://www.inkscape.org/) -->

<svg
   version="1.1"
   id="svg1"
   width="14.014899"
   height="11.999966"
   viewBox="0 0 14.014899 11.999966"
   xmlns="http://www.w3.org/2000/svg"
   xmlns:svg="http://www.w3.org/2000/svg">
  <defs
     id="defs1" />
  <g
     id="g1"
     transform="translate(-291.15812,-115.92377)">
    <path
       style="fill:#222222;stroke-width:0.999999;fill-opacity:1"
       d="m 292.91217,127.88191 c -0.77729,-0.17069 -1.43427,-0.78285 -1.67693,-1.56251 l -0.0768,-0.24661 v -3.64438 c 0,-4.10963 -0.0181,-3.75788 0.21834,-4.2472 0.23948,-0.49565 0.72722,-0.94499 1.22154,-1.12539 0.37533,-0.13697 0.22285,-0.13053 3.35534,-0.14165 1.99259,-0.007 2.96332,-0.001 3.02988,0.0183 0.14872,0.0436 0.17607,0.12112 0.17607,0.49901 0,0.31735 -0.002,0.32532 -0.076,0.39976 l -0.076,0.076 -2.95187,0.0137 -2.95188,0.0137 -0.15761,0.0636 c -0.26007,0.10501 -0.53288,0.34928 -0.65295,0.58465 -0.13952,0.27347 -0.13417,0.12037 -0.13449,3.84807 -3.3e-4,3.34833 0.002,3.48835 0.0517,3.63358 0.15287,0.44435 0.54298,0.7766 0.99367,0.84631 0.10886,0.0168 1.44221,0.0236 3.57147,0.0182 2.93275,-0.007 3.41276,-0.0143 3.50737,-0.0496 0.4688,-0.17516 0.79881,-0.56361 0.86445,-1.01752 0.0137,-0.095 0.0252,-0.76214 0.0255,-1.48245 l 5.5e-4,-1.30966 0.0673,-0.0673 c 0.0646,-0.0646 0.0817,-0.0673 0.42597,-0.0673 0.34615,0 0.36111,0.002 0.42726,0.0686 l 0.0686,0.0686 -0.009,1.51387 c -0.0102,1.67943 -0.005,1.63186 -0.20149,2.0482 -0.29631,0.62944 -0.8945,1.10535 -1.56909,1.24833 -0.26018,0.0551 -7.21935,0.0543 -7.47076,-8.8e-4 z m 4.65822,-3.3291 c -0.0301,-0.0127 -0.27984,-0.25006 -0.55488,-0.52742 -0.4775,-0.48153 -0.50007,-0.50913 -0.50007,-0.61159 0,-0.10576 0.0369,-0.14426 2.58162,-2.68988 l 2.58162,-2.58258 -0.72918,-0.73378 c -0.63656,-0.64058 -0.73331,-0.74911 -0.76167,-0.85442 -0.0616,-0.22869 0.0429,-0.47411 0.24589,-0.57767 0.10774,-0.055 0.14284,-0.0557 2.26957,-0.0485 l 2.16013,0.007 0.10359,0.079 c 0.057,0.0435 0.12664,0.12978 0.15481,0.19181 0.0486,0.10701 0.0512,0.22018 0.0512,2.20899 0,1.9888 -0.003,2.10197 -0.0512,2.20898 -0.0763,0.16795 -0.21974,0.26522 -0.41168,0.2791 -0.11266,0.008 -0.18387,-0.002 -0.25078,-0.0357 -0.0514,-0.0259 -0.41421,-0.36622 -0.80625,-0.7562 l -0.71279,-0.70907 -2.54796,2.55071 c -1.48334,1.48495 -2.5848,2.56676 -2.63613,2.58912 -0.0995,0.0433 -0.10959,0.044 -0.18584,0.0118 z"
       id="path1" />
  </g>
</svg>
