<?xml version="1.0" encoding="UTF-8" standalone="no"?>
<!-- Created with Inkscape (http://www.inkscape.org/) -->

<svg
   version="1.1"
   id="svg2"
   width="96"
   height="96"
   viewBox="0 0 96 96.000003"
   sodipodi:docname="box-001.svg"
   inkscape:version="1.2.2 (b0a8486541, 2022-12-01)"
   xmlns:inkscape="http://www.inkscape.org/namespaces/inkscape"
   xmlns:sodipodi="http://sodipodi.sourceforge.net/DTD/sodipodi-0.dtd"
   xmlns="http://www.w3.org/2000/svg"
   xmlns:svg="http://www.w3.org/2000/svg">
  <sodipodi:namedview
     id="namedview6"
     pagecolor="#ffffff"
     bordercolor="#666666"
     borderopacity="1.0"
     inkscape:showpageshadow="2"
     inkscape:pageopacity="0.0"
     inkscape:pagecheckerboard="0"
     inkscape:deskcolor="#d1d1d1"
     showgrid="false"
     inkscape:zoom="2.7473111"
     inkscape:cx="67.884558"
     inkscape:cy="99.733882"
     inkscape:window-width="1920"
     inkscape:window-height="1023"
     inkscape:window-x="1775"
     inkscape:window-y="29"
     inkscape:window-maximized="1"
     inkscape:current-layer="svg2" />
  <defs
     id="defs6" />
  <g
     id="g8"
     transform="matrix(0.66666669,0,0,0.89231419,-455.16934,-503.78132)">
    <path
       style="fill:#000000;stroke-width:0.075244"
       d="m 690.45293,672.08328 c -0.0171,-0.0518 -0.0418,-0.38191 -0.0549,-0.73368 -0.0301,-0.81202 -0.21634,-1.21273 -0.86504,-1.86143 -0.84346,-0.84345 -2.44255,-1.75357 -3.93514,-2.23967 -0.35177,-0.11455 -0.64825,-0.21518 -0.65886,-0.2236 -0.0106,-0.008 -0.30562,-3.20134 -0.65559,-7.09536 l -0.6363,-7.08005 0.18189,-0.53478 c 0.28259,-0.83086 0.55666,-1.88498 0.83041,-3.19388 0.2871,-1.37278 0.31919,-1.22763 -0.41871,-1.89403 -0.31532,-0.28476 -1.11864,-0.89335 -1.48584,-1.12565 -0.0117,-0.007 0.0971,-0.46666 0.24178,-1.0205 0.89561,-3.42757 1.61009,-9.3317 2.42558,-20.04372 0.26302,-3.4549 0.32591,-8.39824 0.14191,-11.15546 -0.78666,-11.78853 -1.70609,-19.39474 -2.79097,-23.08887 -0.039,-0.13293 0.0494,-0.22668 0.54253,-0.57536 0.32405,-0.22911 0.81789,-0.63169 1.09742,-0.89461 l 0.50825,-0.47805 -0.21856,-1.05341 c -0.26339,-1.26956 -0.52855,-2.3152 -0.82821,-3.26602 l -0.22305,-0.70771 0.63211,-7.03369 c 0.34765,-3.86853 0.64711,-7.04869 0.66546,-7.06704 0.0183,-0.0184 0.36189,-0.14776 0.76344,-0.28759 2.14694,-0.7476 4.00573,-2.04419 4.52298,-3.15499 0.14253,-0.30608 0.17661,-0.50558 0.17721,-1.03735 l 7.5e-4,-0.65838 h 64.3336 64.3336 v 0.66242 c 0,0.56715 0.0291,0.72137 0.20226,1.07223 0.53959,1.09325 2.53546,2.46711 4.53811,3.12382 0.35176,0.11535 0.66596,0.23176 0.69822,0.2587 0.0322,0.0269 0.34319,3.21538 0.69099,7.08543 l 0.63235,7.03644 -0.22314,0.70771 c -0.29508,0.9359 -0.64118,2.30264 -0.86516,3.4165 l -0.18155,0.90293 0.50826,0.48088 c 0.27954,0.26449 0.77068,0.66516 1.0914,0.89038 0.32073,0.22523 0.58244,0.43208 0.58156,0.45967 -9e-4,0.0276 -0.0861,0.33798 -0.18946,0.68974 -0.94828,3.22791 -1.97357,12.09039 -2.6724,23.09991 -0.14484,2.28183 -0.0557,7.47199 0.18224,10.6094 0.80948,10.67407 1.52025,16.53943 2.42482,20.00992 0.23277,0.89306 0.24975,1.0185 0.14577,1.07669 -0.30879,0.1728 -1.32323,0.99078 -1.67292,1.34894 l -0.39153,0.40099 0.25253,1.20449 c 0.27583,1.31565 0.54993,2.36947 0.83212,3.19912 l 0.18189,0.53478 -0.6363,7.08005 c -0.34997,3.89402 -0.64499,7.08694 -0.65559,7.09536 -0.0106,0.008 -0.30709,0.10905 -0.65886,0.2236 -1.49656,0.4874 -3.14188,1.42545 -3.95647,2.25574 -0.64332,0.65572 -0.81247,1.03386 -0.85914,1.92061 l -0.0376,0.71481 -64.27952,0.0189 c -51.38621,0.0151 -64.28575,-2e-5 -64.31064,-0.0752 z m 5.98009,-1.73206 c -1.97402,-0.8948 -2.9744,-1.46337 -4.21366,-2.39482 -2.78596,-2.09399 -4.59548,-4.79722 -5.40969,-8.0815 -0.18808,-0.75866 -0.3841,-2.08105 -0.3841,-2.59121 0,-0.21439 -0.0279,-0.37257 -0.062,-0.3515 -0.0341,0.0211 -0.15728,0.42092 -0.27375,0.88855 l -0.21176,0.85025 0.31228,3.46123 c 0.17175,1.90367 0.31187,3.49674 0.31137,3.54016 -5.3e-4,0.0434 0.12607,0.12388 0.28126,0.17881 1.21727,0.43087 2.94657,1.45835 3.80325,2.25974 0.55561,0.51974 1.12064,1.31302 1.29636,1.82002 0.0624,0.18019 0.12885,0.36994 0.14755,0.42167 0.0262,0.0726 0.55425,0.0929 2.3125,0.089 1.76137,-0.004 2.2358,-0.0245 2.09038,-0.0904 z m 115.55023,-0.25533 c 1.93145,-0.71128 4.01057,-1.87184 5.48758,-3.06314 0.81329,-0.65596 1.90744,-1.81722 2.53213,-2.68742 0.60707,-0.84567 1.46316,-2.53829 1.78535,-3.52988 0.12774,-0.39315 0.32188,-1.13807 0.43142,-1.65537 0.18177,-0.85843 0.1996,-1.09494 0.20424,-2.70879 l 0.005,-1.76823 -0.28329,-0.68813 c -0.64686,-1.57127 -0.48578,-3.34824 0.45098,-4.97518 l 0.33507,-0.58194 -0.19502,-1.31677 c -0.36055,-2.43433 -0.55298,-4.38792 -0.73375,-7.44915 -0.13017,-2.20426 -0.12184,-8.76216 0.0142,-11.21135 0.15853,-2.85316 0.15852,-17.40402 -10e-6,-20.20301 -0.13579,-2.39743 -0.14385,-9.12857 -0.0135,-11.24898 0.20137,-3.27523 0.42892,-5.53623 0.77287,-7.67936 l 0.16374,-1.02028 -0.30703,-0.50907 c -0.686,-1.1374 -1.03175,-2.65602 -0.86289,-3.79004 0.0485,-0.32566 0.22569,-0.93136 0.40163,-1.37285 l 0.31484,-0.79006 0.002,-1.46726 c 0.002,-1.61171 -0.092,-2.36994 -0.47178,-3.79982 -0.46731,-1.75957 -1.22774,-3.28024 -2.36903,-4.73742 -0.53369,-0.68142 -1.80587,-1.93968 -2.48608,-2.4589 -1.56034,-1.19102 -3.54857,-2.23215 -5.60098,-2.93295 l -0.63495,-0.21677 h -56.19907 -56.19907 l -1.01106,0.37889 c -5.44456,2.04035 -8.8499,5.4829 -10.07043,10.18046 -0.32187,1.23881 -0.43373,2.32044 -0.40122,3.87971 l 0.0292,1.39979 0.27311,0.64639 c 0.64809,1.53388 0.51491,3.11547 -0.41251,4.8988 l -0.37942,0.72957 0.15834,0.96342 c 0.3392,2.06387 0.58596,4.52193 0.77653,7.73538 0.12293,2.07284 0.11468,9.26869 -0.0126,10.98562 -0.12599,1.69966 -0.19127,17.25543 -0.0794,18.92079 0.0432,0.64314 0.11867,2.54507 0.16771,4.2265 0.16634,5.7038 -0.12873,11.50886 -0.81053,15.94555 l -0.19134,1.24512 0.41514,0.78647 c 0.4757,0.90116 0.70643,1.65347 0.77363,2.52243 0.0603,0.78036 -0.0528,1.41964 -0.4226,2.38751 -0.26028,0.68126 -0.29875,0.86872 -0.34281,1.67031 -0.0879,1.59902 0.17399,3.53345 0.68761,5.07897 1.40686,4.23336 4.62162,7.29955 9.69824,9.25004 l 0.97817,0.37582 56.3395,0.003 56.33951,0.003 0.9525,-0.35078 z m 5.6009,-0.0856 c 0.32697,-0.96211 1.25636,-1.99653 2.56312,-2.85272 0.71172,-0.46633 1.98612,-1.11096 2.56395,-1.29693 0.17382,-0.0559 0.28217,-0.13801 0.28217,-0.2137 0,-0.0676 0.14003,-1.66484 0.31116,-3.54945 l 0.31117,-3.42655 -0.2092,-0.84087 c -0.11506,-0.46249 -0.23137,-0.87676 -0.25848,-0.92062 -0.0271,-0.0439 -0.0906,0.33347 -0.14108,0.83848 -0.18724,1.87269 -0.63875,3.43634 -1.48324,5.13667 -0.70458,1.41865 -1.3345,2.30431 -2.48064,3.48778 -1.62028,1.67306 -3.16344,2.69975 -5.9819,3.97986 -0.14455,0.0657 0.34165,0.0821 2.09968,0.0711 l 2.28779,-0.0143 z m -131.72931,-14.5936 c 0.0737,-0.23796 0.31602,-0.90861 0.53857,-1.49033 0.48825,-1.27628 0.56334,-1.81402 0.37981,-2.71982 -0.1224,-0.60407 -0.41169,-1.413 -0.48066,-1.34403 -0.0199,0.0199 -0.16485,0.53709 -0.32206,1.14924 -0.1572,0.61216 -0.35339,1.32721 -0.43597,1.58899 -0.14672,0.46513 -0.14736,0.50758 -0.028,1.86229 0.0672,0.76247 0.14287,1.38631 0.16825,1.38631 0.0254,0 0.10643,-0.19469 0.1801,-0.43265 z m 138.13369,-0.96297 c 0.1166,-1.32383 0.11606,-1.41576 -0.0105,-1.78705 -0.0734,-0.21528 -0.26097,-0.89931 -0.41683,-1.52008 -0.15587,-0.62076 -0.29924,-1.17944 -0.3186,-1.24152 -0.0352,-0.11275 -0.32301,0.51178 -0.42714,0.92676 -0.12252,0.48826 -0.18002,1.2849 -0.12486,1.72971 0.0337,0.27198 0.23761,0.94235 0.47514,1.56232 0.22884,0.59724 0.45833,1.22981 0.50999,1.4057 0.0517,0.17588 0.11552,0.31978 0.1419,0.31978 0.0264,0 0.1033,-0.62803 0.17091,-1.39562 z m -138.74108,-8.83756 c 0.29162,-2.27597 0.45712,-4.40675 0.57568,-7.41153 0.0767,-1.94474 0.10422,-6.63742 0.0385,-6.5717 -0.0205,0.0205 -0.12265,0.89801 -0.22705,1.95007 -0.48746,4.91218 -1.01912,8.63095 -1.58049,11.05499 -0.11021,0.47592 -0.2058,0.90552 -0.21242,0.95467 -0.0148,0.11013 1.1737,1.08302 1.23857,1.01384 0.0257,-0.0274 0.10092,-0.47304 0.1672,-0.99034 z m 139.99384,0.41854 c 0.32576,-0.25964 0.45229,-0.40694 0.42016,-0.48909 -0.0793,-0.20284 -0.41399,-1.73102 -0.60384,-2.75746 -0.38291,-2.07021 -0.83365,-5.53363 -1.198,-9.20515 -0.1044,-1.05206 -0.20657,-1.9296 -0.22704,-1.95007 -0.13189,-0.13188 0.0106,7.06795 0.19105,9.6567 0.12923,1.85348 0.46408,4.98248 0.56635,5.29215 0.036,0.10911 -0.005,0.13578 0.85132,-0.54708 z M 685.87412,601.542 c -0.0611,-4.58322 -0.16379,-6.41277 -0.54584,-9.72528 -0.10262,-0.88976 -0.20226,-1.66235 -0.22142,-1.71687 -0.0231,-0.0659 -0.19766,0.039 -0.52006,0.31252 -0.26687,0.2264 -0.55316,0.45923 -0.63619,0.51738 -0.15048,0.1054 -0.15049,0.1076 -0.005,0.66566 0.38084,1.46211 0.82068,4.07953 1.19961,7.13864 0.1853,1.49594 0.67853,6.10444 0.67853,6.33984 0,0.0336 0.0221,0.061 0.0492,0.061 0.0271,0 0.0276,-1.6168 0.001,-3.5929 z m 137.94619,1.97137 c 0.54088,-5.51169 1.17948,-9.87517 1.76617,-12.06798 0.1063,-0.3973 0.10468,-0.41227 -0.0568,-0.52505 -0.0914,-0.0639 -0.37833,-0.29594 -0.63766,-0.51575 -0.30564,-0.25907 -0.48328,-0.36552 -0.50501,-0.30263 -0.12781,0.37001 -0.50703,4.23962 -0.64366,6.568 -0.09,1.53415 -0.19134,8.52459 -0.12263,8.46115 0.0247,-0.0228 0.11446,-0.75076 0.19954,-1.61774 z m -0.41413,-17.37757 c 0.072,-0.33107 0.2604,-1.03378 0.41869,-1.56156 l 0.28779,-0.9596 -0.13362,-1.41058 c -0.0735,-0.77582 -0.15541,-1.35979 -0.18204,-1.29772 -0.0266,0.0621 -0.16472,0.43454 -0.30687,0.82769 -0.14216,0.39315 -0.37834,1.02296 -0.52485,1.39957 -0.43748,1.12463 -0.43688,2.08477 0.002,3.26895 0.22732,0.61329 0.25054,0.59917 0.43883,-0.26675 z m -136.71013,-0.3636 c 0.0699,-0.26852 0.12092,-0.7653 0.12095,-1.1789 5e-5,-0.69927 -0.0106,-0.74264 -0.49094,-1.99397 -0.27004,-0.70353 -0.51425,-1.37258 -0.54267,-1.48678 -0.0284,-0.1142 -0.075,-0.22206 -0.10356,-0.23969 -0.0285,-0.0176 -0.10827,0.60658 -0.1772,1.38714 l -0.12531,1.41919 0.17424,0.51349 c 0.0958,0.28241 0.28345,0.95366 0.41691,1.49165 0.13347,0.538 0.26074,1.02897 0.28282,1.09104 0.0513,0.14419 0.2806,-0.37305 0.44476,-1.00317 z m 0.029,-8.40232 c 0.76496,-3.77515 2.91751,-6.91397 6.30746,-9.19743 0.7745,-0.52169 3.16401,-1.7882 3.37381,-1.7882 0.0561,0 0.10192,-0.0338 0.10192,-0.0752 0,-0.0484 -0.7867,-0.0752 -2.20961,-0.0752 h -2.20962 l -0.15785,0.43265 c -0.54743,1.50039 -2.25568,2.96822 -4.6272,3.97597 -0.41967,0.17833 -0.77125,0.35132 -0.78128,0.38443 -0.0748,0.24685 -0.62418,6.97231 -0.58883,7.20836 0.0248,0.16554 0.13595,0.62265 0.24701,1.01579 l 0.20193,0.71482 0.0911,-0.90293 c 0.0501,-0.49661 0.16313,-1.25845 0.25118,-1.69298 z m 136.72084,1.38497 0.1674,-0.68424 -0.31632,-3.52942 c -0.17397,-1.94119 -0.32797,-3.54113 -0.34223,-3.55542 -0.0142,-0.0143 -0.39287,-0.18438 -0.84138,-0.37796 -2.33372,-1.00724 -4.00936,-2.45863 -4.55036,-3.94139 l -0.15785,-0.43265 h -2.20962 c -1.42291,0 -2.20961,0.0268 -2.20961,0.0752 0,0.0414 0.0423,0.0754 0.094,0.0756 0.0517,1.8e-4 0.60196,0.25111 1.22272,0.55764 4.66941,2.30569 7.575,5.87702 8.50057,10.44825 0.10295,0.50842 0.21057,1.27893 0.23916,1.71225 0.0474,0.71924 0.06,0.76818 0.14403,0.56211 0.0506,-0.12416 0.16738,-0.53364 0.25944,-0.90997 z"
       id="path293" />
  </g>
</svg>
