<?xml version="1.0" encoding="UTF-8" standalone="no"?>
<!-- Created with Inkscape (http://www.inkscape.org/) -->

<svg
   version="1.1"
   id="svg1390"
   width="143.62202"
   height="43.67532"
   viewBox="0 0 143.62202 43.67532"
   xmlns="http://www.w3.org/2000/svg"
   xmlns:svg="http://www.w3.org/2000/svg">
  <defs
     id="defs1394" />
  <g
     id="g1396"
     transform="translate(-874.94598,-467.42919)">
    <path
       style="fill:#000000;stroke-width:0.0758495"
       d="m 894.25073,510.95803 c -0.20008,-0.20008 -0.19258,-0.29242 0.071,-0.87371 l 0.22269,-0.49113 -0.1658,-0.0335 c -0.0912,-0.0184 -0.47948,-0.0537 -0.86287,-0.0785 -1.96102,-0.12646 -4.57012,-0.78194 -6.3845,-1.60398 l -0.48266,-0.21867 2.30305,-0.001 c 1.7253,-10e-4 2.60749,-0.0362 3.51664,-0.1397 1.14633,-0.13054 3.74769,-0.53756 3.78424,-0.59209 0.009,-0.0139 0.12587,-0.16665 0.25907,-0.33952 0.1332,-0.17287 0.24218,-0.32951 0.24218,-0.34808 0,-0.0186 -0.28159,0.0282 -0.62576,0.10391 -2.35066,0.51718 -4.23384,0.74693 -6.54201,0.79815 -2.60573,0.0578 -4.33703,-0.13357 -6.30258,-0.69673 -2.56733,-0.73558 -4.88281,-2.15444 -6.15597,-3.77222 -0.57217,-0.72703 -0.55298,-0.73785 0.17642,-0.0995 1.43362,1.25471 3.34148,2.32386 4.73348,2.65259 0.43713,0.10324 0.8029,0.17959 0.8128,0.16969 0.01,-0.01 -0.32525,-0.30495 -0.7448,-0.65564 -3.7795,-3.15921 -6.27278,-7.70007 -7.01732,-12.78024 -0.20279,-1.38368 -0.18577,-4.1991 0.0339,-5.61286 0.60632,-3.90152 2.19937,-7.38405 4.71949,-10.31716 0.68075,-0.79231 1.87682,-1.95777 2.55979,-2.49427 0.26053,-0.20466 0.46258,-0.38323 0.44899,-0.39682 -0.0136,-0.0136 -0.38087,0.0609 -0.81619,0.16544 -1.54548,0.37125 -3.548,1.53631 -5.06864,2.94891 l -0.33296,0.30931 0.14334,-0.26285 c 0.0788,-0.14457 0.50173,-0.6248 0.93976,-1.06719 2.53416,-2.55934 6.32849,-3.86582 11.22573,-3.8653 2.25669,2.3e-4 4.26641,0.21123 6.58818,0.69164 0.59901,0.12394 1.11878,0.21521 1.15505,0.20282 0.0363,-0.0124 -0.0552,-0.17541 -0.20317,-0.36226 l -0.26911,-0.33973 -1.00431,-0.16545 c -2.65075,-0.43666 -4.43199,-0.58008 -6.78653,-0.5464 -1.00044,0.0143 -1.81134,0.0184 -1.80201,0.009 0.0878,-0.0873 2.25346,-0.89339 2.89749,-1.07844 1.4331,-0.41176 2.507,-0.59942 4.63084,-0.80918 l 0.38998,-0.0385 -0.23273,-0.52381 c -0.19745,-0.44437 -0.21959,-0.55265 -0.14606,-0.71404 0.0973,-0.21361 0.43176,-0.33169 0.61556,-0.21735 0.0666,0.0414 0.37892,0.50185 0.69416,1.02321 2.23598,3.69804 4.93611,6.43239 7.37401,7.46746 1.03532,0.43957 3.58461,1.05037 4.76331,1.14126 0.77179,0.0595 0.76163,0.0245 -0.26032,-0.89853 -2.35482,-2.12681 -4.88729,-3.49849 -7.81551,-4.23318 -1.12892,-0.28324 -1.14515,-0.29031 -1.45658,-0.6343 -0.43826,-0.48407 -0.84642,-1.11722 -1.06159,-1.64675 -0.28631,-0.70462 -0.28337,-0.7093 0.40552,-0.64714 2.00756,0.18117 4.44444,0.86762 6.54201,1.84283 0.74945,0.34843 3.21916,1.90654 3.95909,2.49773 l 0.50794,0.40584 h 52.25697 52.25697 l 0.4548,0.73998 c 0.9077,1.4771 2.5004,3.46433 3.3958,4.23694 0.4927,0.42516 1.1458,0.85641 1.5305,1.01063 l 0.2465,0.0988 v 9.38583 9.38583 l -0.3487,0.13318 c -0.5035,0.19228 -1.4415,0.92689 -2.1587,1.69055 -0.7383,0.78624 -2.0055,2.45828 -2.6606,3.51083 l -0.4693,0.754 h -52.25362 -52.2536 l -0.52445,0.41035 c -0.86391,0.67597 -3.3123,2.19251 -4.20507,2.60463 -1.90171,0.87787 -4.29442,1.53329 -6.31447,1.72968 -0.63982,0.0622 -0.64215,0.0586 -0.39124,-0.61209 0.19207,-0.51334 0.78503,-1.4134 1.18193,-1.79404 0.2548,-0.24437 0.39648,-0.3034 1.16243,-0.48438 3.09645,-0.73163 5.98016,-2.31395 8.26093,-4.53285 l 0.63805,-0.62075 -0.2588,-0.0261 c -0.71093,-0.0719 -3.93161,0.63896 -5.10115,1.12585 -0.6854,0.28533 -1.69994,0.90912 -2.43915,1.49972 -1.63505,1.30633 -3.63353,3.73173 -5.04545,6.12327 -0.22167,0.37546 -0.45385,0.74238 -0.51597,0.81538 -0.15041,0.17678 -0.43328,0.16813 -0.62037,-0.019 z m -3.97457,-5.1169 c 2.26718,-0.11357 5.27473,-0.67622 7.72912,-1.44595 0.71865,-0.22538 0.90797,-0.32139 1.36529,-0.69239 2.48507,-2.01598 5.38637,-3.10095 8.71376,-3.25859 l 1.07082,-0.0507 0.26348,-0.34954 c 2.42632,-3.21878 3.64277,-6.81823 3.64277,-10.77884 0,-3.55585 -1.0029,-6.88143 -2.95199,-9.7887 -0.37604,-0.56092 -0.74459,-1.08967 -0.81899,-1.175 -0.11997,-0.1376 -0.28538,-0.16547 -1.46263,-0.24643 -2.22964,-0.15333 -3.83523,-0.56655 -5.65079,-1.4543 -0.97725,-0.47784 -1.95683,-1.1002 -2.80263,-1.7806 -0.59279,-0.47687 -1.07582,-0.65975 -3.13409,-1.1866 -2.04099,-0.52242 -3.9805,-0.83061 -6.13854,-0.97541 -1.236,-0.0829 -1.23391,-0.0835 -2.85615,0.73011 -4.63723,2.32566 -8.07897,6.63842 -9.30737,11.66286 -0.36946,1.51118 -0.48062,2.48753 -0.47977,4.21407 8.6e-4,1.77351 0.12257,2.78503 0.52606,4.37221 1.08512,4.26846 3.71338,7.96403 7.40984,10.41893 1.43216,0.95113 3.43678,1.91886 3.84592,1.85661 0.10671,-0.0162 0.57286,-0.0485 1.03589,-0.0717 z m 25.66752,-2.96896 c -0.96433,-0.42038 -3.39864,-1.12315 -4.19345,-1.21062 l -0.39544,-0.0435 -0.37925,0.47224 c -0.20859,0.25973 -0.45852,0.56929 -0.55541,0.6879 l -0.17616,0.21567 2.98259,-0.003 c 2.74052,-0.003 2.96105,-0.0124 2.71712,-0.1187 z m 89.46442,-0.4333 c 5.9194,-2.5219 9.6879,-5.28648 11.1569,-8.18479 l 0.2585,-0.51009 v -4.4844 -4.48439 l -0.3215,-0.61838 c -1.0248,-1.97113 -3.2221,-3.95777 -6.3863,-5.7739 -1.5005,-0.86123 -3.8214,-1.96326 -5.4536,-2.58947 l -0.6702,-0.25713 h -42.73285 -42.73286 l -1.11296,0.49857 c -1.27482,0.57106 -3.422,1.30481 -4.56042,1.5584 -0.4276,0.0952 -0.77745,0.20232 -0.77745,0.23794 0,0.0356 0.13168,0.25914 0.29262,0.49673 1.62966,2.40573 2.80355,5.75624 3.12429,8.91736 0.11608,1.14408 0.0529,3.97552 -0.11201,5.01581 -0.44236,2.79136 -1.49669,5.58283 -2.97313,7.87175 -0.18247,0.28289 -0.33133,0.53889 -0.3308,0.56887 5.3e-4,0.03 0.57226,0.19523 1.27048,0.3672 1.37186,0.33787 2.88195,0.87191 4.26556,1.50849 l 0.87227,0.40131 42.85495,-0.0114 42.85491,-0.0114 z m 7.1403,-0.29442 c 1.2878,-1.85828 2.9516,-3.70529 3.8769,-4.30388 l 0.3982,-0.2576 v -0.94286 -0.94286 l -0.3586,0.48158 c -0.5116,0.68705 -1.7489,1.91134 -2.659,2.63111 -1.7694,1.39925 -4.2371,2.82645 -7.0704,4.08912 -0.144,0.0642 0.4614,0.0857 2.5173,0.0896 l 2.707,0.005 0.5886,-0.84939 z m 4.2751,-20.25976 v -0.93319 l -0.4361,-0.30911 c -1.1792,-0.83572 -2.7916,-2.65686 -4.0037,-4.52201 l -0.3767,-0.57949 -2.7305,-3e-4 -2.7306,-3e-4 0.5689,0.25157 c 2.3666,1.04661 4.8161,2.47329 6.5989,3.84337 0.8498,0.65314 2.4295,2.21925 2.8066,2.78246 0.1459,0.21794 0.2738,0.39713 0.2842,0.39821 0.011,10e-4 0.019,-0.41798 0.019,-0.93123 z m -103.85806,-5.28461 c 0.86851,-0.21208 2.45696,-0.71589 2.99666,-0.95045 0.21864,-0.095 -0.0962,-0.10771 -2.7371,-0.11034 l -2.98416,-0.003 0.32943,0.38726 c 0.18118,0.213 0.43182,0.52126 0.55697,0.68502 0.21842,0.2858 0.24144,0.29609 0.5739,0.25669 0.1905,-0.0226 0.75943,-0.14193 1.2643,-0.26521 z"
       id="path1880" />
  </g>
</svg>
