<?xml version="1.0" encoding="UTF-8" standalone="no"?>
<svg
   aria-hidden="true"
   focusable="false"
   data-prefix="fas"
   data-icon="dice-d20"
   class="svg-inline--fa fa-dice-d20 fa-w-15"
   role="img"
   viewBox="0 0 256 256"
   version="1.1"
   id="svg4"
   sodipodi:docname="dice-d20-solid.svg"
   width="256"
   height="256"
   inkscape:version="1.2.2 (b0a8486541, 2022-12-01)"
   xmlns:inkscape="http://www.inkscape.org/namespaces/inkscape"
   xmlns:sodipodi="http://sodipodi.sourceforge.net/DTD/sodipodi-0.dtd"
   xmlns="http://www.w3.org/2000/svg"
   xmlns:svg="http://www.w3.org/2000/svg">
  <defs
     id="defs8" />
  <sodipodi:namedview
     id="namedview6"
     pagecolor="#505050"
     bordercolor="#ffffff"
     borderopacity="1"
     inkscape:showpageshadow="0"
     inkscape:pageopacity="0"
     inkscape:pagecheckerboard="1"
     inkscape:deskcolor="#505050"
     showgrid="false"
     inkscape:zoom="0.91673137"
     inkscape:cx="32.179547"
     inkscape:cy="143.98984"
     inkscape:window-width="1920"
     inkscape:window-height="1015"
     inkscape:window-x="0"
     inkscape:window-y="37"
     inkscape:window-maximized="1"
     inkscape:current-layer="svg4" />
  <path
     fill="currentColor"
     d="M 61.374116,107.5286 8.5998064,185.47259 c -1.53998,2.49997 0.05,5.74993 2.9649596,6.06993 l 104.128654,11.03485 z m -49.66935,50.18435 37.64451,-61.1742 -38.31951,-22.9897 C 9.6947864,72.74906 7.9998064,73.70904 7.9998064,75.26402 v 81.40395 c 0,2.01497 2.6449696,2.76496 3.7049596,1.04498 z m 5.41992,54.0843 97.198744,43.82943 c 2.64997,1.22499 5.67493,-0.71499 5.67493,-3.62995 V 219.16216 L 18.224676,208.0123 c -2.22497,-0.24999 -3.11496,2.79497 -1.09999,3.78495 z M 57.734166,82.90892 97.698646,11.43985 c 2.16997,-3.52995 -1.79498,-7.6249 -5.38993,-5.56993 l -75.40402,49.30436 c -1.23499,0.80999 -1.19499,2.62997 0.065,3.38996 z m 70.264094,5.08994 h 54.60429 L 134.81317,3.80995 C 133.24819,1.26998 130.62322,0 127.99826,0 c -2.62497,0 -5.24993,1.26998 -6.81491,3.80995 L 73.393966,87.99886 Z m 116.96848,-14.44981 -38.3195,22.9947 37.64451,61.1742 c 1.05499,1.71998 3.70495,0.96999 3.70495,-1.04998 V 75.26402 c 0,-1.55498 -1.69498,-2.51496 -3.02996,-1.71497 z m -46.70439,9.35987 40.76447,-24.34968 c 1.26498,-0.75999 1.29998,-2.57997 0.065,-3.38996 L 163.68779,5.86992 c -3.59495,-2.05497 -7.5599,2.03998 -5.38993,5.56993 z m 39.50948,125.10338 -101.77368,11.14486 v 32.83457 c 0,2.91996 3.02496,4.85494 5.67493,3.62995 l 97.19874,-43.82943 c 2.01497,-0.98498 1.12499,-4.02994 -1.09999,-3.77995 z M 194.62239,107.5286 140.3081,202.57737 244.43675,191.54252 c 2.91496,-0.325 4.50494,-3.56996 2.96496,-6.06993 z m -66.62413,-3.52995 H 77.783906 l 50.214354,87.87386 50.21435,-87.87386 z"
     id="path2"
     style="stroke-width:0.499994" />
</svg>
