<?xml version="1.0" encoding="UTF-8" standalone="no"?>
<!-- Created with Inkscape (http://www.inkscape.org/) -->

<svg
   width="14.43125mm"
   height="16.933119mm"
   viewBox="0 0 14.431249 16.933119"
   version="1.1"
   id="svg1"
   xmlns="http://www.w3.org/2000/svg"
   xmlns:svg="http://www.w3.org/2000/svg">
  <defs
     id="defs1" />
  <g
     id="layer1"
     transform="translate(-100.01207,-92.868223)">
    <path
       style="display:inline;fill:#000000;stroke-width:0.0650835"
       d="m 104.79596,109.78907 c -0.43193,-0.0373 -1.13891,-0.14178 -1.42364,-0.21039 -0.27228,-0.0656 -0.44246,-0.12354 -0.91582,-0.31186 -0.31118,-0.1238 -0.40743,-0.16853 -0.39495,-0.18356 0.009,-0.011 0.0884,-0.0575 0.17631,-0.10345 0.28693,-0.15005 0.6524,-0.24756 0.9278,-0.24756 0.10812,0 0.11887,-0.002 0.1,-0.0255 -0.0263,-0.0317 -0.42234,-0.34618 -0.57898,-0.45975 l -0.11616,-0.0842 h -1.10035 -1.10036 l 0.008,-0.0366 c 0.008,-0.0358 0.0737,-0.74666 0.0737,-0.79925 0,-0.0217 -0.0186,-0.0265 -0.10265,-0.0265 -0.12822,0 -0.17314,0.0263 -0.14609,0.0857 0.0102,0.0222 0.0426,0.068 0.0721,0.10167 0.0516,0.0587 0.0521,0.0607 0.0134,0.0491 -0.13793,-0.0413 -0.2762,-0.18552 -0.2762,-0.28792 0,-0.0645 0.0834,-0.15218 0.17423,-0.18313 0.0416,-0.0142 0.12177,-0.0257 0.17817,-0.0257 0.12348,0 0.11167,0.0326 0.13487,-0.37208 l 0.0171,-0.29886 -0.0579,-0.0954 c -0.14491,-0.23856 -0.27173,-0.56251 -0.31784,-0.81193 -0.0282,-0.1527 -0.0236,-0.45564 0.009,-0.6099 0.0526,-0.24698 0.18817,-0.52261 0.36159,-0.73552 0.0685,-0.0842 0.07,-0.0884 0.07,-0.20756 0,-0.19553 -0.0919,-1.66362 -0.17174,-2.74239 -0.0992,-1.341141 -0.20657,-2.312955 -0.2901,-2.625741 l -0.0366,-0.137196 0.0987,-0.06497 c 0.0543,-0.03574 0.16244,-0.120852 0.24031,-0.189146 0.33589,-0.294618 0.48327,-0.562731 0.49698,-0.9041 l 0.007,-0.170837 -0.099,-0.263051 c -0.0545,-0.144678 -0.099,-0.272441 -0.099,-0.283919 0,-0.01277 -0.006,-0.01487 -0.014,-0.0054 -0.008,0.0085 -0.0226,0.11816 -0.0332,0.243684 l -0.0193,0.228227 0.0576,0.200172 c 0.0317,0.110094 0.0576,0.21649 0.0576,0.236435 0,0.07679 -0.23074,0.391071 -0.26109,0.355621 -0.006,-0.0066 -0.0345,-0.114613 -0.0641,-0.239862 -0.0295,-0.12525 -0.0736,-0.29126 -0.0979,-0.368908 l -0.0442,-0.141182 0.10317,-1.144233 c 0.0568,-0.629328 0.10388,-1.162539 0.10473,-1.18491 8e-4,-0.02237 0.019,0.05816 0.0403,0.178974 0.0213,0.120806 0.0648,0.318492 0.0966,0.439299 0.0318,0.120806 0.0806,0.311172 0.10841,0.42303 0.0899,0.361574 0.17782,0.653708 0.26931,0.894869 0.13788,0.363423 0.13824,0.364862 0.13855,0.561326 3.5e-4,0.261891 -0.0713,0.491895 -0.22633,0.726194 -0.0386,0.05842 -0.0399,0.06725 -0.0234,0.164018 0.0261,0.153178 0.0642,0.593389 0.0873,1.005287 0.0264,0.472318 0.0258,2.823099 -8e-4,3.734039 -0.0347,1.18371 -0.10476,2.99024 -0.12568,3.24197 -0.006,0.0649 -0.0164,0.11399 -0.0245,0.10901 -0.0282,-0.0175 -0.14949,-0.2365 -0.22689,-0.40995 l -0.0782,-0.17528 0.0157,-0.49292 c 0.009,-0.2711 0.0135,-0.52731 0.0107,-0.56935 l -0.005,-0.0765 -0.0506,0.0976 c -0.36246,0.69925 -0.0772,1.52581 0.83417,2.41708 0.2648,0.25896 0.50512,0.45182 0.6835,0.54852 0.38768,0.21018 1.00828,0.65476 1.46984,1.05297 l 0.15467,0.13343 0.20327,0.0111 c 0.11181,0.006 0.26901,0.0158 0.34933,0.0214 l 0.14606,0.0103 -0.19003,-0.18269 c -0.10453,-0.10048 -0.22875,-0.23344 -0.27607,-0.29548 l -0.086,-0.11278 h -0.30432 -0.30432 l -0.21488,-0.17085 -0.21488,-0.17083 h 0.19959 c 0.19924,0 0.19958,-7e-5 0.18912,-0.0366 -0.0608,-0.21239 -0.11129,-0.43427 -0.12667,-0.55609 l -0.0187,-0.14849 -0.11513,0.11511 c -0.18617,0.18615 -0.39003,0.26751 -0.60967,0.24331 -0.0782,-0.009 -0.0986,-0.0153 -0.0749,-0.0249 0.0179,-0.007 0.0517,-0.0136 0.0751,-0.0142 0.0784,-0.002 0.27423,-0.11483 0.38029,-0.21888 0.0969,-0.0951 0.24241,-0.29998 0.31464,-0.4431 0.0186,-0.0369 0.0479,-0.13568 0.0652,-0.21966 0.0573,-0.27905 0.17727,-0.53388 0.33068,-0.7025 l 0.0771,-0.0847 -0.0646,0.1518 c -0.13863,0.32548 -0.19795,0.61443 -0.19762,0.96272 3.5e-4,0.32776 0.0619,0.66371 0.13619,0.74277 0.0333,0.0354 0.17132,0.0907 0.19416,0.0777 0.006,-0.003 -0.0109,-0.0661 -0.0355,-0.14036 -0.0948,-0.28472 -0.12226,-0.65427 -0.0707,-0.95046 0.0538,-0.30868 0.19967,-0.65073 0.39362,-0.9225 0.11522,-0.16145 0.37623,-0.43596 0.54062,-0.56859 0.59287,-0.47833 1.38801,-0.79241 2.2798,-0.90051 0.2975,-0.0361 0.89032,-0.0356 1.19448,8e-4 1.39527,0.16767 2.53342,0.84642 3.00867,1.79428 0.24344,0.48555 0.29027,1.03606 0.13074,1.53715 -0.0219,0.069 -0.0399,0.13224 -0.0399,0.14065 0,0.021 0.10452,-0.004 0.1547,-0.0368 0.0613,-0.0402 0.0853,-0.0874 0.12056,-0.23764 0.11589,-0.49389 0.062,-1.04819 -0.14699,-1.511 -0.0574,-0.12717 -0.0577,-0.13133 -0.005,-0.0819 0.14974,0.13901 0.31094,0.48052 0.36422,0.77161 0.0358,0.19557 0.24905,0.5329 0.42758,0.67633 0.097,0.078 0.26082,0.16101 0.32091,0.16273 0.0224,7.4e-4 0.0554,0.007 0.0732,0.0141 0.024,0.01 0.006,0.016 -0.0665,0.0246 -0.21757,0.0256 -0.42641,-0.0553 -0.60991,-0.23623 -0.0628,-0.062 -0.11752,-0.11264 -0.12155,-0.11264 -0.004,0 -0.007,0.0253 -0.007,0.0562 0,0.0797 -0.058,0.37008 -0.10585,0.52993 -0.0223,0.0745 -0.0405,0.13772 -0.0405,0.14034 0,0.002 0.0877,0.007 0.19484,0.009 l 0.19485,0.005 -0.20945,0.16677 -0.20945,0.16678 -0.30674,7.4e-4 -0.30673,7.5e-4 -0.0732,0.0984 c -0.0402,0.0542 -0.16388,0.18675 -0.27471,0.29471 l -0.2015,0.19629 0.14455,-0.0102 c 0.0795,-0.006 0.23567,-0.0151 0.34704,-0.0213 l 0.20247,-0.0111 0.20621,-0.17302 c 0.47479,-0.39839 1.02187,-0.78953 1.40635,-1.0055 0.19256,-0.10815 0.348,-0.22648 0.59653,-0.45411 0.59944,-0.549 0.98869,-1.15545 1.07163,-1.66964 0.0246,-0.15285 0.0129,-0.43856 -0.0236,-0.57323 -0.0283,-0.10456 -0.15132,-0.37597 -0.16443,-0.36286 -0.004,0.004 -4.9e-4,0.26265 0.008,0.57404 l 0.0162,0.56615 -0.10289,0.21397 c -0.0566,0.11768 -0.12885,0.25252 -0.16058,0.29964 l -0.0577,0.0857 -0.0104,-0.16765 c -0.029,-0.46888 -0.0919,-2.12269 -0.12601,-3.31593 -0.0253,-0.88415 -0.0256,-3.073866 -5e-4,-3.563204 0.0235,-0.459625 0.0447,-0.725351 0.0779,-0.978083 l 0.0248,-0.18897 -0.083,-0.144572 c -0.0457,-0.07962 -0.10264,-0.203255 -0.12665,-0.274843 -0.0393,-0.117187 -0.0437,-0.153684 -0.0438,-0.366084 l -2e-4,-0.235919 0.0915,-0.235921 c 0.11734,-0.302622 0.21161,-0.599114 0.26463,-0.832244 0.0231,-0.101558 0.0715,-0.290817 0.10756,-0.420573 0.0721,-0.259681 0.16085,-0.675511 0.16309,-0.764706 7.5e-4,-0.03132 0.005,-0.04962 0.008,-0.04067 0.004,0.0089 0.0542,0.544585 0.11225,1.190305 l 0.10552,1.174035 -0.0329,0.09505 c -0.0394,0.114164 -0.11828,0.413722 -0.14594,0.554689 -0.0109,0.05593 -0.0257,0.10169 -0.0326,0.10169 -0.0236,0 -0.16084,-0.164675 -0.21259,-0.255131 -0.0506,-0.08832 -0.0511,-0.09181 -0.0312,-0.181854 0.0112,-0.05049 0.0386,-0.150365 0.0611,-0.221943 0.0407,-0.129676 0.0408,-0.131029 0.0202,-0.379147 -0.0114,-0.136954 -0.0257,-0.243127 -0.0318,-0.235942 -0.01,0.01115 -0.11375,0.28342 -0.19179,0.501174 -0.0167,0.04658 -0.0212,0.111336 -0.0159,0.227784 0.006,0.134046 0.0169,0.187065 0.0612,0.301003 0.0295,0.07606 0.0816,0.182643 0.11571,0.23684 0.0775,0.123129 0.39016,0.428903 0.5476,0.535467 0.0854,0.05782 0.11568,0.08723 0.1085,0.105441 -0.13217,0.33514 -0.30662,2.182598 -0.4653,4.927978 -0.0326,0.56433 -0.0342,0.64429 -0.0132,0.67713 0.013,0.0205 0.0614,0.0869 0.10731,0.14752 0.18507,0.24429 0.30021,0.53142 0.33361,0.83196 0.0173,0.15527 0.0164,0.20793 -0.006,0.36608 -0.0415,0.29361 -0.14717,0.58784 -0.30994,0.86289 l -0.074,0.12497 0.0148,0.24925 c 0.008,0.13709 0.0189,0.28679 0.0239,0.33268 l 0.009,0.0834 0.1333,0.007 c 0.20166,0.011 0.32043,0.0881 0.32043,0.20816 0,0.10701 -0.13025,0.24157 -0.27621,0.28537 -0.0386,0.0116 -0.0381,0.01 0.0134,-0.0491 0.0817,-0.0931 0.0976,-0.13699 0.0597,-0.16475 -0.0324,-0.0237 -0.23628,-0.0327 -0.23616,-0.0104 2e-4,0.0384 0.0662,0.73825 0.0743,0.7891 l 0.01,0.061 h -1.10055 -1.10055 l -0.12523,0.0918 c -0.19804,0.14516 -0.57266,0.44858 -0.57266,0.46381 0,0.008 0.0494,0.0139 0.10982,0.0139 0.15366,7e-5 0.38279,0.04 0.56951,0.0992 0.1725,0.0546 0.42386,0.17192 0.50077,0.23362 l 0.0483,0.0388 -0.0488,0.0186 c -0.0269,0.0102 -0.23186,0.0907 -0.45557,0.17875 -0.57159,0.225 -0.75952,0.2789 -1.247,0.35766 -0.82587,0.13344 -1.43071,0.17618 -1.63393,0.11544 -0.0445,-0.0133 -0.0428,-0.0143 0.0254,-0.0157 0.27002,-0.006 0.62459,-0.12357 0.90197,-0.30101 0.0896,-0.0573 0.51356,-0.43922 0.51356,-0.46263 0,-0.0175 -0.36751,0.0112 -0.51252,0.0401 -0.27688,0.055 -0.50882,0.17529 -0.67902,0.35195 l -0.0938,0.0973 -0.19119,0.0222 c -1.45988,0.16931 -1.64521,0.18329 -2.05947,0.15538 -0.16263,-0.011 -0.60377,-0.0554 -0.98032,-0.0986 l -0.68464,-0.0786 -0.12075,-0.12035 c -0.20305,-0.20239 -0.48412,-0.32098 -0.84077,-0.35475 -0.23319,-0.0221 -0.32945,-0.0271 -0.32923,-0.0171 3.4e-4,0.0205 0.396,0.37941 0.49237,0.44676 0.23754,0.16606 0.57474,0.28815 0.86283,0.3124 0.11217,0.009 0.1256,0.0134 0.0845,0.0253 -0.0752,0.0216 -0.43599,0.0286 -0.62641,0.0122 z m -0.83995,-0.41561 c 0.0153,-0.006 0.0257,-0.0161 0.023,-0.0226 -0.002,-0.006 -0.0926,-0.0942 -0.2,-0.19477 l -0.19525,-0.18278 -0.26032,0.01 c -0.24941,0.009 -0.41963,0.0313 -0.5776,0.075 l -0.0732,0.0202 0.0732,0.0318 c 0.22362,0.0969 0.70148,0.24036 0.90942,0.27306 0.0932,0.0146 0.25077,0.01 0.30069,-0.009 z m 6.83558,0.009 c 0.20565,-0.0293 0.55707,-0.13147 0.89321,-0.25981 0.11116,-0.0425 0.1052,-0.0498 -0.0716,-0.0877 -0.17002,-0.0365 -0.38599,-0.0584 -0.5776,-0.0585 l -0.16271,-6e-5 -0.20001,0.18908 c -0.11001,0.104 -0.19641,0.19269 -0.192,0.1971 0.0116,0.0116 0.1086,0.0332 0.1561,0.0348 0.0224,7.4e-4 0.0919,-0.006 0.15456,-0.0149 z m -2.99514,-0.12298 c 1.29651,-0.14283 2.39737,-0.82208 2.7601,-1.70302 0.13795,-0.33505 0.16581,-0.72794 0.0758,-1.06955 -0.23256,-0.88291 -1.18712,-1.61237 -2.4359,-1.86149 -0.3705,-0.0739 -0.4746,-0.0828 -0.96808,-0.0828 -0.49184,0 -0.59972,0.009 -0.96019,0.0814 -1.5218,0.30524 -2.55569,1.29014 -2.49225,2.37417 0.0641,1.09515 1.1996,2.01946 2.76095,2.24739 0.37949,0.0554 0.83687,0.0605 1.25955,0.0139 z m -5.79898,-1.4713 c -0.0687,-0.0543 -0.58521,-0.30418 -0.7403,-0.3581 -0.15987,-0.0556 -0.4255,-0.11881 -0.44598,-0.10616 -0.007,0.004 -0.0178,0.0796 -0.0239,0.16713 -0.006,0.0876 -0.0155,0.19762 -0.021,0.2446 l -0.01,0.0854 0.64085,-2.6e-4 0.64085,-2.5e-4 z m 11.6984,0.004 c 3e-5,-0.0389 -0.0369,-0.46673 -0.0407,-0.47205 -0.002,-0.002 -0.0595,0.006 -0.12841,0.0197 -0.25608,0.049 -0.63776,0.20248 -0.95509,0.38408 -0.0797,0.0456 -0.14488,0.086 -0.14488,0.0898 0,0.004 0.28554,0.007 0.63454,0.007 0.59347,0 0.63454,-0.002 0.63457,-0.0285 z m -0.1668,-0.7055 0.10169,-0.0178 -2e-4,-0.0919 c -2.4e-4,-0.17936 -0.004,-0.18023 -0.1439,-0.032 -0.0684,0.0726 -0.13356,0.14511 -0.14483,0.1611 -0.019,0.0269 -0.0165,0.0279 0.0326,0.0138 0.0292,-0.008 0.0988,-0.0233 0.15472,-0.0331 z m -12.53505,-0.11937 c -0.1394,-0.14923 -0.14391,-0.15246 -0.15389,-0.10982 -0.006,0.0242 -0.0111,0.0816 -0.0122,0.12765 l -0.002,0.0837 0.1261,0.0241 c 0.0693,0.0132 0.13947,0.025 0.15581,0.0261 0.0196,0.002 -0.0192,-0.0503 -0.11389,-0.1517 z m 12.77536,-6.0778 c 0.10335,-1.096738 0.18113,-1.732598 0.26168,-2.139329 0.023,-0.116216 0.0448,-0.216109 0.0485,-0.22198 0.007,-0.01125 -0.21952,-0.200426 -0.22825,-0.190663 -0.0218,0.02435 -0.0944,0.862549 -0.12316,1.421185 -0.0168,0.327167 -0.0366,1.834257 -0.0234,1.773467 0.004,-0.0179 0.033,-0.3071 0.0646,-0.64268 z m -13.024,-0.70776 c -0.01,-0.286359 -0.0288,-0.685388 -0.0423,-0.886738 -0.0234,-0.349288 -0.0833,-0.943811 -0.0964,-0.956881 -0.007,-0.0073 -0.20947,0.158065 -0.21707,0.17751 -0.003,0.0073 0.0135,0.106951 0.0363,0.221423 0.082,0.411066 0.15979,1.043862 0.26475,2.154676 l 0.0621,0.65671 0.005,-0.42302 c 0.003,-0.23266 -0.003,-0.65733 -0.0126,-0.94368 z m 0.0176,-5.039176 c -0.0754,-0.249192 -0.19731,-0.964407 -0.19729,-1.157648 l 1e-5,-0.06726 0.13423,-0.04597 c 0.43488,-0.148923 0.8259,-0.41484 0.9394,-0.638846 0.0317,-0.06256 0.0417,-0.110798 0.0464,-0.222263 l 0.006,-0.142364 h 5.53645 5.53645 l 0.007,0.142364 c 0.006,0.117711 0.0149,0.157066 0.0531,0.227257 0.12438,0.228265 0.51245,0.491032 0.93246,0.631375 l 0.13423,0.04485 -6e-5,0.09128 c -2e-4,0.261559 -0.19717,1.290591 -0.23903,1.248729 -0.005,-0.005 -0.0258,-0.247876 -0.0463,-0.539834 -0.0206,-0.291958 -0.0398,-0.533117 -0.0427,-0.535908 -0.003,-0.0028 -0.0875,-0.04171 -0.18777,-0.08649 -0.43708,-0.195157 -0.73457,-0.435955 -0.85843,-0.694839 -0.03,-0.06264 -0.0586,-0.126704 -0.0636,-0.142366 -0.009,-0.02704 -0.27131,-0.02844 -5.22021,-0.02794 l -5.21108,5.25e-4 -0.0713,0.149962 c -0.059,0.123907 -0.0943,0.172912 -0.20339,0.282038 -0.18443,0.184458 -0.45999,0.357086 -0.76038,0.476352 l -0.0914,0.0363 -0.01,0.100668 c -0.006,0.05537 -0.0221,0.294694 -0.0372,0.531833 -0.0151,0.237141 -0.0325,0.436911 -0.0386,0.443933 -0.006,0.007 -0.0272,-0.04057 -0.0469,-0.105757 z"
       id="path293" />
  </g>
</svg>
