<?xml version="1.0" encoding="UTF-8" standalone="no"?>
<!-- Created with Inkscape (http://www.inkscape.org/) -->

<svg
   width="18.663532mm"
   height="8.4673843mm"
   viewBox="0 0 18.663532 8.4673844"
   version="1.1"
   id="svg1"
   xmlns:inkscape="http://www.inkscape.org/namespaces/inkscape"
   xmlns:sodipodi="http://sodipodi.sourceforge.net/DTD/sodipodi-0.dtd"
   xmlns="http://www.w3.org/2000/svg"
   xmlns:svg="http://www.w3.org/2000/svg">
  <sodipodi:namedview
     id="namedview1"
     pagecolor="#ffffff"
     bordercolor="#666666"
     borderopacity="1.0"
     inkscape:showpageshadow="2"
     inkscape:pageopacity="0.0"
     inkscape:pagecheckerboard="0"
     inkscape:deskcolor="#d1d1d1"
     inkscape:document-units="mm" />
  <defs
     id="defs1" />
  <g
     inkscape:label="Layer 1"
     inkscape:groupmode="layer"
     id="layer1"
     transform="translate(-95.779167,-144.19782)">
    <path
       style="display:inline;fill:#000000;fill-opacity:1;stroke:none;stroke-width:0.087955"
       d="m 109.02445,152.65406 c -0.38928,-0.0639 -0.70074,-0.29237 -0.87153,-0.63923 -0.0639,-0.1297 -0.0902,-0.21688 -0.11787,-0.38945 l -0.006,-0.0388 -0.0383,0.0436 c -0.045,0.0513 -0.10749,0.17649 -0.12576,0.25205 -0.0174,0.0721 -0.0151,0.22273 0.005,0.30439 0.0216,0.0888 0.0643,0.17623 0.11328,0.23187 0.022,0.025 0.0341,0.0453 0.027,0.0453 -0.0214,-2.2e-4 -0.15546,-0.0616 -0.21985,-0.10075 -0.1296,-0.0787 -0.27715,-0.24509 -0.33661,-0.37953 -0.0601,-0.13599 -0.0676,-0.18448 -0.0631,-0.41145 0.008,-0.39106 0.006,-0.48471 -0.0123,-0.55256 -0.0235,-0.0885 -0.066,-0.17535 -0.11867,-0.2424 -0.0604,-0.0768 -0.35326,-0.32086 -0.79973,-0.66628 -0.2348,-0.18166 -0.33831,-0.28689 -0.39464,-0.40123 -0.0467,-0.0949 -0.0566,-0.13464 -0.0754,-0.30279 -0.0223,-0.19973 -0.0485,-0.24068 -0.25377,-0.3967 -0.20487,-0.15569 -0.26207,-0.2287 -0.28381,-0.36225 -0.01,-0.0613 0.001,-0.1578 0.024,-0.21024 l 0.0134,-0.0306 7.9e-4,0.0298 c 0.004,0.13366 0.1146,0.2513 0.28192,0.29869 0.0293,0.008 0.11912,0.0216 0.19954,0.0295 0.28628,0.0281 0.34398,0.0775 0.39601,0.33865 0.026,0.13056 0.0601,0.1849 0.13091,0.20863 0.0183,0.006 0.10341,0.0154 0.18904,0.0206 0.16436,0.01 0.26086,0.0302 0.34317,0.0719 0.0447,0.0226 0.24068,0.17443 0.79646,0.61685 0.15729,0.12521 0.3131,0.24844 0.34626,0.27386 0.12977,0.0995 0.2822,0.14698 0.40446,0.12603 0.16002,-0.0274 0.2839,-0.13264 0.33535,-0.28486 0.0175,-0.0518 0.0202,-0.0768 0.0161,-0.14946 -0.003,-0.048 -0.008,-0.0977 -0.0122,-0.11049 l -0.007,-0.0232 0.0327,0.0184 c 0.0581,0.0327 0.16949,0.15225 0.21652,0.23239 0.0248,0.0423 0.059,0.11827 0.0759,0.16892 0.0297,0.0885 0.0309,0.0983 0.0311,0.25205 2.2e-4,0.14863 -0.002,0.16549 -0.0261,0.23826 -0.0317,0.0941 -0.0861,0.18125 -0.15342,0.24545 l -0.0497,0.0474 0.0396,0.007 c 0.0218,0.004 0.0888,0.007 0.14888,0.007 0.38219,7.8e-4 0.7045,-0.19092 0.76408,-0.45441 0.0284,-0.12554 0.003,-0.26995 -0.0666,-0.37698 -0.0711,-0.10952 -0.21809,-0.2244 -0.32863,-0.25679 -0.0744,-0.0218 -0.036,-0.0317 0.0971,-0.0249 0.72909,0.0369 1.25224,0.58198 1.14559,1.1936 -0.0338,0.19373 -0.12627,0.36746 -0.27603,0.51852 -0.17484,0.17638 -0.37719,0.28383 -0.64282,0.34135 -0.0809,0.0175 -0.13083,0.0215 -0.27622,0.0219 l -0.17745,4.4e-4 0.0272,0.0219 c 0.0451,0.0362 0.16882,0.0968 0.26066,0.12757 0.17075,0.0572 0.384,0.0754 0.5168,0.0441 0.0341,-0.008 0.0641,-0.0125 0.0666,-0.01 0.003,0.003 -0.0232,0.0336 -0.0571,0.069 -0.14644,0.15259 -0.42924,0.29126 -0.72099,0.35351 -0.12354,0.0264 -0.41519,0.0348 -0.53317,0.0154 z m -4.67252,-0.14651 c -0.33805,-0.048 -0.67934,-0.17522 -0.94756,-0.35323 -0.12033,-0.0799 -0.30401,-0.2521 -0.42506,-0.3986 -0.0857,-0.10368 -0.11145,-0.12549 -0.14829,-0.12549 -0.0295,0 -0.0613,0.0383 -0.0699,0.0844 -0.008,0.0424 0.009,0.14508 0.0386,0.23962 l 0.023,0.0723 -0.0262,-0.0193 c -0.0606,-0.0448 -0.2192,-0.23399 -0.30374,-0.36235 -0.3581,-0.54368 -0.42855,-1.27251 -0.19584,-2.02605 0.0512,-0.16576 0.0572,-0.19659 0.0447,-0.22951 -0.0237,-0.0623 -0.10471,-0.0338 -0.21108,0.0743 -0.0818,0.0832 -0.0816,0.0834 -0.0514,-0.0662 0.0541,-0.26806 0.18959,-0.54284 0.38982,-0.7907 0.11896,-0.14725 0.40779,-0.41498 0.43722,-0.40528 0.006,0.002 0.0165,0.0142 0.0233,0.0271 0.0154,0.0295 0.0106,0.0732 -0.0316,0.28521 -0.0268,0.13451 -0.0366,0.22063 -0.0536,0.46854 -0.0114,0.16705 -0.0194,0.30492 -0.0176,0.30637 0.002,0.001 0.10358,-0.10386 0.2262,-0.23402 0.22705,-0.24097 0.28904,-0.29805 0.42654,-0.39268 0.1315,-0.0905 0.35947,-0.21851 0.37014,-0.20784 0.003,0.003 -6.4e-4,0.0145 -0.007,0.0266 -0.0115,0.0215 -0.11763,0.57244 -0.11147,0.5786 0.002,0.002 0.10721,-0.0654 0.23445,-0.14924 0.12725,-0.0838 0.25316,-0.16094 0.27982,-0.17146 0.0608,-0.024 0.22319,-0.0336 0.28494,-0.0168 l 0.0426,0.0115 -0.0533,0.055 c -0.29434,0.30362 -0.49334,0.67255 -0.56563,1.04863 -0.0244,0.12686 -0.025,0.38879 -0.001,0.50409 0.0763,0.36871 0.28698,0.65469 0.58215,0.79025 0.24581,0.11289 0.52472,0.11792 0.78726,0.0142 0.3143,-0.1242 0.67683,-0.43991 0.91255,-0.79473 0.0301,-0.0453 0.0559,-0.084 0.0572,-0.0859 0.003,-0.004 0.3018,0.22984 0.52208,0.40931 0.17734,0.1445 0.24734,0.20786 0.24733,0.22389 0,0.0186 -0.13667,0.25101 -0.22825,0.38817 -0.378,0.56611 -0.85908,0.94738 -1.41726,1.12322 -0.10347,0.0326 -0.26203,0.0687 -0.39022,0.0888 -0.14263,0.0224 -0.54308,0.028 -0.67374,0.009 z m -8.380472,-0.84148 c 0.008,-0.008 0.134504,-0.0815 0.281126,-0.16432 0.49,-0.27672 0.53743,-0.3053 0.598176,-0.36047 0.06951,-0.0631 0.109074,-0.13556 0.135341,-0.24779 0.01588,-0.0678 0.01723,-0.2059 0.02017,-2.06483 0.002,-1.29299 -2.86e-4,-2.02614 -0.0066,-2.08906 -0.02522,-0.24998 -0.08177,-0.34524 -0.301125,-0.50728 -0.469942,-0.34716 -0.777755,-0.75636 -0.886129,-1.17801 -0.024,-0.0934 -0.04103,-0.21958 -0.02962,-0.21958 0.0037,0 0.03789,0.0194 0.07599,0.0432 0.09085,0.0566 0.289098,0.15071 0.398681,0.18921 0.378764,0.13307 0.719639,0.155 2.41381,0.15533 1.150666,2.2e-4 1.315207,0.006 1.683942,0.0633 0.88963,0.13736 1.6545,0.58716 2.16212,1.27148 0.0923,0.12438 0.16777,0.24599 0.24802,0.39944 0.0687,0.13147 0.17754,0.38833 0.16979,0.40088 -0.003,0.004 -0.0536,0.0323 -0.11317,0.0621 -0.21845,0.1094 -0.43557,0.24126 -0.53968,0.32774 -0.0548,0.0455 -0.61197,0.57913 -0.60842,0.58268 0.001,10e-4 0.16619,-0.0298 0.36611,-0.0695 0.34189,-0.0679 0.53464,-0.10227 0.54057,-0.0965 10e-4,0.001 -0.0394,0.0435 -0.0907,0.0936 -0.34931,0.34106 -0.58101,0.75628 -0.64317,1.15261 -0.0121,0.0771 -0.0895,0.89339 -0.0852,0.89775 0.002,0.002 0.0482,-0.0567 0.1032,-0.12983 l 0.10007,-0.13297 -0.006,0.0476 c -0.0287,0.22563 -0.0293,0.48142 -0.001,0.69453 0.009,0.0673 0.01,0.10517 0.004,0.11289 -0.0196,0.0237 -0.19458,0.15085 -0.29591,0.21498 -0.45895,0.29049 -0.92569,0.45463 -1.47646,0.51923 -0.308874,0.0362 -0.352067,0.037 -2.302329,0.0412 -1.667118,0.004 -1.927134,0.002 -1.914568,-0.01 z m 3.969338,-1.58109 c 0.329874,-0.0551 0.577044,-0.1698 0.782864,-0.3634 0.10642,-0.1001 0.19152,-0.21734 0.26465,-0.36459 0.14161,-0.28516 0.19676,-0.5753 0.18603,-0.97869 -0.006,-0.20957 -0.0243,-0.3578 -0.0645,-0.51024 -0.14877,-0.56428 -0.51106,-0.91565 -1.06689,-1.03473 -0.160698,-0.0344 -0.267621,-0.0404 -0.721822,-0.0404 h -0.441459 v 1.65859 1.65859 l 0.482277,-0.004 c 0.388469,-0.004 0.501063,-0.008 0.578857,-0.0206 z m 10.949714,1.52498 c 0.1333,-0.20546 0.19159,-0.41935 0.18143,-0.66571 -0.008,-0.20222 -0.0606,-0.37064 -0.16817,-0.54197 -0.0568,-0.0905 -0.17223,-0.23201 -0.21917,-0.26875 l -0.0288,-0.0225 0.25549,-0.006 c 0.27482,-0.006 0.40964,-0.0222 0.5712,-0.069 0.2336,-0.0677 0.42213,-0.17635 0.58162,-0.33515 0.21951,-0.21856 0.35286,-0.50649 0.41314,-0.89209 0.0244,-0.15626 0.0243,-0.55892 -2.2e-4,-0.71455 -0.0625,-0.39655 -0.19142,-0.67411 -0.41786,-0.89964 -0.18341,-0.18268 -0.39746,-0.29604 -0.67426,-0.35711 -0.1784,-0.0394 -0.27279,-0.0451 -0.74606,-0.0451 h -0.44631 v 0.0497 0.0497 l -0.0363,-0.006 c -0.11395,-0.0189 -0.27587,-0.0276 -0.41927,-0.0226 -0.36684,0.0129 -0.69493,0.085 -0.92602,0.20356 -0.0559,0.0286 -0.10154,0.0486 -0.10154,0.0444 0,-0.004 0.0509,-0.0605 0.11308,-0.12496 l 0.11308,-0.11729 -0.0523,0.0206 c -0.17485,0.0689 -0.38069,0.16573 -0.49229,0.23153 -0.028,0.0165 -0.0528,0.03 -0.0553,0.03 -0.002,0 -0.004,-0.0665 -0.004,-0.14783 0,-0.34452 -0.0404,-0.51708 -0.14844,-0.63492 -0.0223,-0.0243 -0.0929,-0.0834 -0.15692,-0.13129 -0.46024,-0.34432 -0.72906,-0.68501 -0.86727,-1.09916 -0.0349,-0.10455 -0.0694,-0.2863 -0.0568,-0.29894 0.003,-0.003 0.0353,0.0131 0.072,0.0354 0.21336,0.12975 0.49172,0.23537 0.724,0.27472 0.34921,0.0592 0.73529,0.0726 2.09592,0.0728 1.21194,2.3e-4 1.38412,0.008 1.79824,0.0835 1.03307,0.18783 1.90612,0.83457 2.34094,1.73415 0.14928,0.30882 0.24679,0.64747 0.29282,1.01698 0.0196,0.15744 0.0224,0.56485 0.005,0.71825 -0.0492,0.43037 -0.15996,0.80424 -0.34512,1.16474 -0.25449,0.4955 -0.63372,0.89324 -1.14957,1.20571 -0.56662,0.34321 -1.12559,0.49758 -1.88385,0.52026 l -0.20193,0.006 z m -1.42498,-0.80312 c 0,-0.005 0.007,-0.0388 0.0163,-0.0751 0.0178,-0.0721 0.0207,-0.33521 0.005,-0.48045 -0.005,-0.051 -0.005,-0.0751 0.002,-0.0751 0.006,0 0.0363,0.0125 0.0683,0.0276 0.0829,0.0394 0.15318,0.10648 0.19004,0.18134 0.0278,0.0564 0.0302,0.0686 0.0259,0.12878 -0.009,0.12269 -0.0694,0.19952 -0.21096,0.26736 -0.0741,0.0355 -0.0971,0.0416 -0.0971,0.0256 z m -1.04963,-0.62511 c -0.0308,-0.0127 -0.0624,-0.0284 -0.0703,-0.0349 -0.0123,-0.0102 -0.0143,-0.1008 -0.0143,-0.66091 v -0.64905 l 0.072,-0.0938 c 0.11495,-0.14972 0.22868,-0.27395 0.30152,-0.32937 0.1519,-0.11555 0.33542,-0.17741 0.53287,-0.1796 0.19872,-0.002 0.31427,0.0351 0.47362,0.153 l 0.0859,0.0635 0.0479,-0.0412 c 0.12289,-0.1057 0.16693,-0.13307 0.28651,-0.17808 l 0.0609,-0.0229 v 0.81319 0.81318 l -0.0721,-0.0229 c -0.12353,-0.0392 -0.26595,-0.0637 -0.40289,-0.0693 -0.11432,-0.005 -0.37321,0.007 -0.50408,0.0224 -0.0404,0.005 -0.0478,0.002 -0.10016,-0.0387 -0.0605,-0.047 -0.6161,-0.36872 -0.62367,-0.36115 -0.002,0.002 0.0448,0.13473 0.10519,0.29388 0.1,0.26375 0.1097,0.29509 0.10966,0.35402 0,0.0561 -0.004,0.0702 -0.0292,0.10664 -0.0576,0.0829 -0.15321,0.10578 -0.25939,0.0621 z m -3.55018,-0.57935 c 0.0768,-0.0572 0.16419,-0.15288 0.19478,-0.21326 0.0135,-0.0267 0.0232,-0.0499 0.0215,-0.0515 -0.002,-0.002 -0.0343,0.005 -0.0725,0.0149 -0.0749,0.0191 -0.25528,0.0361 -0.25528,0.024 0,-0.004 0.0194,-0.0245 0.0431,-0.0453 0.0617,-0.0543 0.11834,-0.14594 0.14736,-0.2384 0.0217,-0.0691 0.0245,-0.0923 0.0206,-0.16964 -0.006,-0.12184 -0.0314,-0.18449 -0.10649,-0.26481 -0.11923,-0.12745 -0.32719,-0.18896 -0.53949,-0.15957 -0.0814,0.0113 -0.19982,0.0484 -0.24139,0.0756 -0.0344,0.0225 -0.0353,0.009 -0.004,-0.0543 0.0927,-0.18686 0.26674,-0.36236 0.45817,-0.46203 l 0.0786,-0.0409 -0.11007,-0.0303 c -0.0902,-0.0249 -0.28248,-0.0684 -0.30743,-0.0697 -0.0134,-6.6e-4 0.0361,-0.0322 0.10679,-0.068 0.16431,-0.0833 0.44161,-0.1589 0.62819,-0.17126 0.15118,-0.01 0.0645,-0.0249 -0.14985,-0.0257 -0.20899,-7.9e-4 -0.30475,0.0125 -0.48955,0.0682 -0.19326,0.0582 -0.37679,0.15822 -0.47357,0.25807 l -0.0422,0.0435 0.0519,0.006 c 0.0852,0.0106 0.22117,0.0341 0.29391,0.0507 l 0.0682,0.0156 -0.0872,0.0232 c -0.28798,0.0766 -0.73794,0.32453 -0.96213,0.53002 -0.0227,0.0208 -0.0412,0.033 -0.0412,0.0272 0,-0.006 0.0137,-0.0729 0.0305,-0.14907 0.0225,-0.10233 0.0307,-0.16504 0.0315,-0.24026 9.6e-4,-0.0929 -10e-4,-0.10659 -0.026,-0.15687 -0.0814,-0.16578 -0.30568,-0.22557 -0.65153,-0.17369 -0.064,0.01 -0.11749,0.0166 -0.11891,0.0155 -0.006,-0.005 0.15253,-0.12213 0.23973,-0.17701 0.053,-0.0334 0.20819,-0.11952 0.34483,-0.19146 0.26324,-0.13859 0.33775,-0.18354 0.3888,-0.23459 0.0578,-0.0578 0.0515,-0.13081 -0.0207,-0.23955 -0.0463,-0.0698 -0.18785,-0.20361 -0.28284,-0.26743 l -0.0759,-0.051 0.19388,0.006 c 0.18919,0.005 0.32969,0.0213 0.43737,0.0494 0.0293,0.008 0.0517,0.011 0.0498,0.007 -0.0343,-0.064 -0.0773,-0.16553 -0.091,-0.21492 -0.0218,-0.0781 -0.0248,-0.3105 -0.005,-0.37741 l 0.0128,-0.043 0.0314,0.0588 c 0.0449,0.084 0.0912,0.14399 0.16712,0.21663 0.12685,0.12132 0.21611,0.18142 0.53166,0.358 0.1173,0.0656 0.24162,0.13701 0.27628,0.1586 0.15407,0.096 0.26741,0.19663 0.33473,0.29725 0.0299,0.0446 0.0346,0.0486 0.0293,0.0242 -0.009,-0.0423 -0.0575,-0.14283 -0.0936,-0.1954 -0.0698,-0.10146 -0.18625,-0.21381 -0.30527,-0.29455 -0.0653,-0.0443 -0.0696,-0.0496 -0.0844,-0.10311 -0.0262,-0.0948 -0.0356,-0.17667 -0.0357,-0.31057 -1.2e-4,-0.22151 0.04,-0.43181 0.1107,-0.57955 0.0568,-0.1188 0.0583,-0.11877 0.0709,0.002 0.0369,0.35335 0.21189,0.59799 0.77839,1.08848 0.3927,0.34001 0.49084,0.43813 0.594,0.59386 0.0272,0.0411 0.0514,0.0728 0.0536,0.0706 0.009,-0.009 -0.0778,-0.17355 -0.1334,-0.25475 -0.11304,-0.16504 -0.21951,-0.27385 -0.56794,-0.58042 -0.0853,-0.0751 -0.18607,-0.16865 -0.22391,-0.20798 -0.0862,-0.0896 -0.0962,-0.12223 -0.0954,-0.30902 6.7e-4,-0.15153 0.0233,-0.2629 0.0748,-0.36748 l 0.0313,-0.0636 0.007,0.0726 c 0.0333,0.34304 0.20731,0.59779 0.7097,1.03903 0.22399,0.19674 0.39136,0.36319 0.47075,0.46818 0.16944,0.22407 0.24473,0.43173 0.22862,0.63053 l -0.006,0.0779 0.0354,0.0128 c 0.0762,0.0276 0.14948,0.12052 0.14948,0.18969 0,0.0189 0.004,0.0343 0.01,0.0343 0.005,0 0.0324,-0.0113 0.0598,-0.0252 0.0594,-0.0301 0.1437,-0.10734 0.18697,-0.17134 l 0.0313,-0.0463 0.006,0.0608 c 0.024,0.25646 -0.10035,0.58582 -0.29627,0.7848 -0.0506,0.0514 -0.16309,0.13396 -0.18251,0.13396 -0.004,0 -0.004,-0.0142 0.001,-0.0314 0.005,-0.0173 0.009,-0.0629 0.009,-0.10142 0,-0.23397 -0.16688,-0.34324 -0.54771,-0.35865 l -0.13572,-0.006 0.0476,-0.0952 c 0.0404,-0.0807 0.0477,-0.10397 0.0484,-0.15313 0.002,-0.11034 -0.0546,-0.13638 -0.30987,-0.14398 -0.23397,-0.007 -0.43811,0.0147 -0.68277,0.0723 l -0.11148,0.0263 0.13691,0.0114 c 0.12402,0.0104 0.28134,0.0358 0.29286,0.0473 0.003,0.002 -0.0132,0.0428 -0.0349,0.0895 -0.0938,0.20229 -0.0991,0.36822 -0.0126,0.39837 0.0384,0.0134 0.081,6.6e-4 0.13018,-0.0388 0.0298,-0.024 0.037,-0.0268 0.0314,-0.0123 -0.037,0.0955 -0.061,0.29093 -0.0422,0.34358 0.0226,0.0633 0.1252,0.0936 0.23263,0.0687 0.02,-0.005 0.0363,-0.006 0.0363,-0.004 0,0.0196 -0.0644,0.1065 -0.11725,0.15823 -0.13919,0.13626 -0.3978,0.25102 -0.60495,0.26846 l -0.0679,0.006 z m 1.09057,-1.59387 c 0,-0.003 -0.0163,-0.037 -0.0361,-0.0751 -0.0521,-0.0999 -0.18592,-0.23253 -0.28557,-0.28311 -0.041,-0.0208 -0.0776,-0.0347 -0.0814,-0.031 -0.004,0.004 0.003,0.0342 0.0152,0.0677 0.0644,0.17788 0.13735,0.26619 0.25477,0.30845 0.0481,0.0173 0.13312,0.0257 0.13312,0.0131 z m 1.55094,1.47727 c -0.27397,-0.21809 -0.35371,-0.27112 -0.46846,-0.31158 -0.0163,-0.006 -0.0152,-0.01 0.0124,-0.0474 0.13074,-0.17777 0.44869,-0.50783 0.65487,-0.67981 0.49723,-0.41475 0.97857,-0.64381 1.48803,-0.70815 l 0.10179,-0.0128 -0.14426,-0.001 c -0.30498,-0.003 -0.62307,0.0802 -0.98025,0.25524 -0.27691,0.1357 -0.50491,0.29399 -0.70011,0.48605 -0.0601,0.0592 -0.10934,0.10389 -0.10934,0.0994 0,-0.0235 0.0481,-0.14259 0.0977,-0.24203 0.16862,-0.3378 0.47375,-0.68786 0.78379,-0.89919 0.12975,-0.0884 0.13286,-0.0886 0.072,-0.004 -0.0968,0.13478 -0.13688,0.24148 -0.0996,0.26506 0.0268,0.0169 0.0815,0.009 0.13059,-0.0193 0.027,-0.0155 0.11856,-0.0833 0.20357,-0.15085 0.25767,-0.2046 0.41599,-0.30181 0.57541,-0.35332 0.0689,-0.0223 0.17825,-0.0434 0.19526,-0.0377 0.006,0.002 -0.019,0.0201 -0.0557,0.0402 -0.19609,0.10749 -0.28543,0.21844 -0.22474,0.27913 0.0274,0.0274 0.075,0.0216 0.2379,-0.0292 0.16779,-0.0524 0.22751,-0.0668 0.34473,-0.0835 0.39194,-0.0557 0.81354,0.0526 1.2047,0.3094 0.14833,0.0974 0.36979,0.28501 0.31169,0.26407 -0.0935,-0.0337 -0.43499,-0.0323 -0.63159,0.003 -0.28983,0.0515 -0.55248,0.14054 -0.67603,0.2293 -0.0432,0.031 -0.0497,0.033 -0.0641,0.02 -0.0306,-0.0277 -0.18133,-0.0933 -0.26323,-0.11465 -0.069,-0.0179 -0.10929,-0.0215 -0.24719,-0.0218 -0.17234,-4.2e-4 -0.21756,0.006 -0.35868,0.05 -0.17346,0.0542 -0.30123,0.13333 -0.44205,0.27358 -0.24062,0.23968 -0.521,0.64424 -0.73906,1.06642 l -0.089,0.17233 z m 2.58841,-2.36476 c -0.0507,-0.009 -0.11609,-0.0169 -0.14541,-0.0179 -0.0293,-10e-4 -0.0642,-0.005 -0.0776,-0.009 -0.0214,-0.006 -0.0156,-0.0103 0.0485,-0.0367 0.0972,-0.0401 0.26127,-0.094 0.26735,-0.0879 0.003,0.003 0.004,0.0414 0.002,0.0861 l -0.003,0.0812 z m -4.09088,-0.29799 c -0.25722,-0.23016 -0.36311,-0.33491 -0.45988,-0.45494 -0.0568,-0.0705 -0.0571,-0.0712 -0.0415,-0.0976 0.0304,-0.0514 0.0823,-0.19208 0.10433,-0.28271 0.032,-0.1316 0.0326,-0.34494 0.001,-0.47085 -0.0633,-0.25404 -0.22959,-0.4342 -0.45721,-0.49527 -0.0437,-0.0117 -0.0986,-0.0168 -0.17934,-0.0167 -0.10454,2e-4 -0.12479,0.003 -0.19987,0.0297 -0.27053,0.0955 -0.44236,0.33388 -0.46388,0.64342 -0.006,0.0904 -0.0143,0.12981 -0.0423,0.20842 -0.0593,0.1664 -0.10101,0.43741 -0.092,0.59782 0.002,0.0364 6.1e-4,0.0662 -0.003,0.0662 -0.004,0 -0.0465,-0.0265 -0.0949,-0.0589 -0.1048,-0.0701 -0.21784,-0.1776 -0.2643,-0.25135 -0.0185,-0.0293 -0.0892,-0.18201 -0.15727,-0.33929 -0.068,-0.15729 -0.12517,-0.28752 -0.12699,-0.28941 -0.006,-0.006 -0.20681,0.62231 -0.21797,0.68202 -0.006,0.032 -0.01,0.11402 -0.008,0.18229 0.003,0.12243 0.003,0.12383 -0.015,0.10179 -0.0263,-0.0325 -0.0968,-0.17632 -0.12531,-0.25579 -0.0567,-0.15793 -0.0699,-0.25134 -0.0696,-0.49361 3.3e-4,-0.24076 0.0128,-0.33094 0.0688,-0.49924 0.16478,-0.4952 0.60376,-0.89393 1.16206,-1.05552 0.24857,-0.0719 0.62003,-0.0953 0.93063,-0.0584 0.60796,0.0721 1.08035,0.37821 1.31989,0.85516 0.11979,0.23852 0.18255,0.56437 0.15839,0.82238 -0.0238,0.25462 -0.11432,0.53949 -0.2582,0.81292 -0.0527,0.10018 -0.20542,0.33965 -0.21612,0.33891 -0.003,-2.1e-4 -0.11672,-0.0999 -0.25267,-0.22156 z"
       id="path1"
       inkscape:label="logo"
       inkscape:export-filename="../static/assets/engine/dnd/logo.svg"
       inkscape:export-xdpi="48"
       inkscape:export-ydpi="48" />
  </g>
</svg>
