<?xml version="1.0" encoding="UTF-8" standalone="no"?>
<!-- Created with Inkscape (http://www.inkscape.org/) -->

<svg
   width="0.33333302in"
   height="0.33333459in"
   viewBox="0 0 8.4666586 8.4666989"
   version="1.1"
   id="svg538"
   inkscape:version="1.3 (0e150ed6c4, 2023-07-21)"
   sodipodi:docname="design_doc.svg"
   xml:space="preserve"
   inkscape:export-filename="siteLogo.pdf"
   inkscape:export-xdpi="96"
   inkscape:export-ydpi="96"
   xmlns:inkscape="http://www.inkscape.org/namespaces/inkscape"
   xmlns:sodipodi="http://sodipodi.sourceforge.net/DTD/sodipodi-0.dtd"
   xmlns="http://www.w3.org/2000/svg"
   xmlns:svg="http://www.w3.org/2000/svg"><sodipodi:namedview
     id="namedview540"
     pagecolor="#ffffff"
     bordercolor="#666666"
     borderopacity="1.0"
     inkscape:showpageshadow="2"
     inkscape:pageopacity="0.0"
     inkscape:pagecheckerboard="true"
     inkscape:deskcolor="#d1d1d1"
     inkscape:document-units="px"
     showgrid="true"
     inkscape:zoom="0.7632575"
     inkscape:cx="408.11915"
     inkscape:cy="528.00005"
     inkscape:window-width="1920"
     inkscape:window-height="1027"
     inkscape:window-x="1775"
     inkscape:window-y="29"
     inkscape:window-maximized="1"
     inkscape:current-layer="layer14"
     showguides="true"><inkscape:grid
       id="grid4"
       units="px"
       originx="-287.99997"
       originy="-1132.2452"
       spacingx="4.2333333"
       spacingy="4.2333333"
       empcolor="#0099e5"
       empopacity="0.30196078"
       color="#0099e5"
       opacity="0.14901961"
       empspacing="2"
       dotted="false"
       gridanglex="30"
       gridanglez="30"
       visible="true"
       enabled="true" /><sodipodi:guide
       position="25.400022,562.03987"
       orientation="0,-1"
       id="guide16"
       inkscape:locked="false" /><inkscape:page
       x="9.6736312e-07"
       y="-1.837347e-07"
       width="8.4666586"
       height="8.4666986"
       id="page2"
       margin="0"
       bleed="0" /></sodipodi:namedview><defs
     id="defs535"><rect
       x="31.999998"
       y="1132.2452"
       width="31.999998"
       height="31.999998"
       id="rect14-9-2-7" /></defs><g
     inkscape:groupmode="layer"
     id="layer1"
     inkscape:label="012-Icons"
     transform="translate(-76.199978,-299.57318)"><g
       id="g26"
       inkscape:label="d12"
       transform="translate(16.933415)"><path
         d="m 63.499995,304.10237 -1.795693,0.89776 0.972674,3.03974 h 1.645875 l 0.972668,-3.03974 z m 0.264581,-0.45938 1.799831,0.89991 2.044237,-2.04423 -0.850468,-1.70061 -2.9936,1.07768 z m -0.529162,0 v -1.76725 l -2.9936,-1.07768 -0.850468,1.70077 2.044237,2.04424 z m 3.014262,-3.22411 -1.467944,-0.73389 a 1.0562496,1.0562496 0 0 0 -0.473268,-0.11179 h -1.617101 c -0.164375,0 -0.326268,0.0382 -0.473274,0.11179 l -1.467775,0.73389 2.749681,0.98987 z m -0.400675,4.5877 -0.909676,2.84279 1.420151,-0.71008 a 1.0586639,1.0586639 0 0 0 0.473275,-0.47327 l 0.788787,-1.57758 a 1.0594907,1.0594907 0 0 0 0.111787,-0.47327 v -1.49275 z m -6.582336,-1.88432 v 1.49274 c 0,0.16437 0.03819,0.32643 0.111781,0.47328 l 0.788793,1.57757 a 1.0578701,1.0578701 0 0 0 0.473269,0.47328 l 1.420156,0.71007 -0.909675,-2.84278 z"
         id="path1-360"
         style="stroke-width:0.264583"
         inkscape:label="die" /><text
         xml:space="preserve"
         transform="matrix(0.26458333,0,0,0.26458333,50.774597,0.50564308)"
         id="text11-1-6-5"
         style="font-style:normal;font-variant:normal;font-weight:normal;font-stretch:normal;font-size:24px;line-height:1.35;font-family:'a Apple Tea';-inkscape-font-specification:'a Apple Tea';font-variant-ligatures:none;font-variant-position:normal;font-variant-caps:normal;font-variant-numeric:normal;font-variant-alternates:normal;font-variant-east-asian:normal;font-feature-settings:normal;font-variation-settings:normal;text-indent:0;text-align:center;text-decoration-line:none;text-decoration-style:solid;text-decoration-color:#000000;letter-spacing:normal;word-spacing:normal;text-transform:none;writing-mode:lr-tb;direction:ltr;text-orientation:mixed;dominant-baseline:auto;baseline-shift:baseline;white-space:pre;shape-inside:url(#rect14-9-2-7);vector-effect:none;fill:#ffffff;fill-opacity:1;stroke:#000000;stroke-width:1;stroke-linecap:square;stroke-linejoin:miter;stroke-miterlimit:4;stroke-dasharray:none;stroke-dashoffset:0;stroke-opacity:1;-inkscape-stroke:none;paint-order:stroke fill markers;stop-color:#000000"
         x="6.3720002"
         y="0"
         inkscape:label="num"><tspan
           x="36.288002"
           y="1155.6461"
           id="tspan1">12</tspan></text></g></g></svg>
