<?xml version="1.0" encoding="UTF-8" standalone="no"?>
<!-- Created with Inkscape (http://www.inkscape.org/) -->

<svg
   width="0.32741705in"
   height="0.33333459in"
   viewBox="0 0 8.316393 8.4666989"
   version="1.1"
   id="svg538"
   inkscape:version="1.3 (0e150ed6c4, 2023-07-21)"
   sodipodi:docname="design_doc.svg"
   xml:space="preserve"
   inkscape:export-filename="siteLogo.pdf"
   inkscape:export-xdpi="96"
   inkscape:export-ydpi="96"
   xmlns:inkscape="http://www.inkscape.org/namespaces/inkscape"
   xmlns:sodipodi="http://sodipodi.sourceforge.net/DTD/sodipodi-0.dtd"
   xmlns="http://www.w3.org/2000/svg"
   xmlns:svg="http://www.w3.org/2000/svg"><sodipodi:namedview
     id="namedview540"
     pagecolor="#ffffff"
     bordercolor="#666666"
     borderopacity="1.0"
     inkscape:showpageshadow="2"
     inkscape:pageopacity="0.0"
     inkscape:pagecheckerboard="true"
     inkscape:deskcolor="#d1d1d1"
     inkscape:document-units="px"
     showgrid="true"
     inkscape:zoom="0.7632575"
     inkscape:cx="408.11915"
     inkscape:cy="528.00005"
     inkscape:window-width="1920"
     inkscape:window-height="1027"
     inkscape:window-x="1775"
     inkscape:window-y="29"
     inkscape:window-maximized="1"
     inkscape:current-layer="layer14"
     showguides="true"><inkscape:grid
       id="grid4"
       units="px"
       originx="-351.99957"
       originy="-1132.2452"
       spacingx="4.2333333"
       spacingy="4.2333333"
       empcolor="#0099e5"
       empopacity="0.30196078"
       color="#0099e5"
       opacity="0.14901961"
       empspacing="2"
       dotted="false"
       gridanglex="30"
       gridanglez="30"
       visible="true"
       enabled="true" /><sodipodi:guide
       position="8.466795,562.03987"
       orientation="0,-1"
       id="guide16"
       inkscape:locked="false" /><inkscape:page
       x="-2.6973546e-05"
       y="-1.837347e-07"
       width="8.3163929"
       height="8.4666986"
       id="page2"
       margin="0"
       bleed="0" /></sodipodi:namedview><defs
     id="defs535"><rect
       x="31.999998"
       y="1132.2452"
       width="41.046333"
       height="30.768387"
       id="rect14-9-2-7-5" /></defs><g
     inkscape:groupmode="layer"
     id="layer1"
     inkscape:label="012-Icons"
     transform="translate(-93.133205,-299.57318)"><g
       id="g28"
       inkscape:label="d20"
       transform="translate(0.76131433)"><path
         d="m 94.326685,303.12949 -1.745397,2.57783 c -0.05094,0.0827 0.0019,0.19017 0.09806,0.20076 l 3.443844,0.36495 z m -1.642711,1.65975 1.245016,-2.02322 -1.26734,-0.76033 c -0.04413,-0.0264 -0.100205,0.005 -0.100205,0.0567 v 2.69227 c 0,0.0666 0.08747,0.0914 0.122529,0.0346 z m 0.179254,1.78872 3.214647,1.44957 c 0.08764,0.0405 0.187685,-0.0236 0.187685,-0.12006 v -1.08593 l -3.365951,-0.36876 c -0.07359,-0.008 -0.103024,0.0924 -0.03637,0.12518 z m 1.343077,-4.26272 1.321739,-2.36369 c 0.07177,-0.11674 -0.05937,-0.25217 -0.17826,-0.18421 l -2.493831,1.63064 c -0.04081,0.0268 -0.0395,0.087 0.0019,0.11212 z m 2.323839,0.16834 h 1.805921 l -1.580536,-2.78437 c -0.05175,-0.084 -0.138573,-0.12601 -0.225385,-0.12601 -0.08682,0 -0.173635,0.042 -0.225391,0.12601 l -1.580536,2.78437 z m 3.868486,-0.47789 -1.267338,0.7605 1.245018,2.02321 c 0.0349,0.0569 0.12254,0.0321 0.12254,-0.0347 v -2.69227 c 0,-0.0514 -0.0561,-0.0832 -0.10022,-0.0568 z m -1.544647,0.30955 1.348197,-0.80531 c 0.0418,-0.0251 0.043,-0.0853 0.002,-0.11211 l -2.493832,-1.63048 c -0.118892,-0.068 -0.250028,0.0675 -0.17826,0.18421 z m 1.306697,4.13754 -3.365958,0.36859 v 1.08594 c 0,0.0966 0.100042,0.16057 0.187685,0.12005 l 3.214653,-1.44957 c 0.0666,-0.0326 0.0372,-0.13328 -0.0364,-0.12501 z m -1.427083,-3.32329 -1.796333,3.14354 3.443836,-0.36495 c 0.0964,-0.0107 0.149,-0.11808 0.0981,-0.20076 z m -2.203453,-0.11674 h -1.660735 l 1.660735,2.90624 1.660735,-2.90624 z"
         id="path1-6"
         style="stroke-width:0.264583"
         inkscape:label="die" /><text
         xml:space="preserve"
         transform="matrix(0.26458333,0,0,0.26458333,82.655604,0.50564608)"
         id="text11-1-6-5-5"
         style="font-style:normal;font-variant:normal;font-weight:normal;font-stretch:normal;font-size:24px;line-height:1.35;font-family:'a Apple Tea';-inkscape-font-specification:'a Apple Tea';font-variant-ligatures:none;font-variant-position:normal;font-variant-caps:normal;font-variant-numeric:normal;font-variant-alternates:normal;font-variant-east-asian:normal;font-feature-settings:normal;font-variation-settings:normal;text-indent:0;text-align:center;text-decoration-line:none;text-decoration-style:solid;text-decoration-color:#000000;letter-spacing:normal;word-spacing:normal;text-transform:none;writing-mode:lr-tb;direction:ltr;text-orientation:mixed;dominant-baseline:auto;baseline-shift:baseline;white-space:pre;shape-inside:url(#rect14-9-2-7-5);vector-effect:none;fill:#ffffff;fill-opacity:1;stroke:#000000;stroke-width:1;stroke-linecap:square;stroke-linejoin:miter;stroke-miterlimit:4;stroke-dasharray:none;stroke-dashoffset:0;stroke-opacity:1;-inkscape-stroke:none;paint-order:stroke fill markers;stop-color:#000000"
         x="6.3720002"
         y="0"
         inkscape:label="num"><tspan
           x="36.479439"
           y="1155.6461"
           id="tspan1">20</tspan></text></g></g></svg>
