<?xml version="1.0" encoding="UTF-8" standalone="no"?>
<!-- Created with Inkscape (http://www.inkscape.org/) -->

<svg
   version="1.1"
   id="svg1"
   width="14.014899"
   height="11.999966"
   viewBox="0 0 14.014899 11.999966"
   sodipodi:docname="ext-link.svg"
   inkscape:version="1.3 (0e150ed6c4, 2023-07-21)"
   xmlns:inkscape="http://www.inkscape.org/namespaces/inkscape"
   xmlns:sodipodi="http://sodipodi.sourceforge.net/DTD/sodipodi-0.dtd"
   xmlns="http://www.w3.org/2000/svg"
   xmlns:svg="http://www.w3.org/2000/svg">
  <sodipodi:namedview
     id="namedview1"
     pagecolor="#000000"
     bordercolor="#666666"
     borderopacity="1.0"
     inkscape:showpageshadow="2"
     inkscape:pageopacity="0.0"
     inkscape:pagecheckerboard="true"
     inkscape:deskcolor="#d1d1d1"
     inkscape:zoom="45.522982"
     inkscape:cx="5.8212356"
     inkscape:cy="5.4477978"
     inkscape:window-width="1920"
     inkscape:window-height="1027"
     inkscape:window-x="1775"
     inkscape:window-y="29"
     inkscape:window-maximized="1"
     inkscape:current-layer="svg1" />
  <defs
     id="defs1" />
  <path
     style="fill:#ffffff;fill-opacity:1;stroke-width:0.999999"
     d="M 1.75405,11.95814 C 0.97676,11.78745 0.31978,11.17529 0.07712,10.39563 L 3.2e-4,10.14902 V 6.50464 c 0,-4.10963 -0.0181,-3.75788 0.21834,-4.2472 C 0.45814,1.76179 0.94588,1.31245 1.4402,1.13205 1.81553,0.99508 1.66305,1.00152 4.79554,0.9904 c 1.99259,-0.007 2.96332,-0.001 3.02988,0.0183 0.14872,0.0436 0.17607,0.12112 0.17607,0.49901 0,0.31735 -0.002,0.32532 -0.076,0.39976 l -0.076,0.076 -2.95187,0.0137 -2.95188,0.0137 -0.15761,0.0636 C 1.52806,2.17948 1.25525,2.42375 1.13518,2.65912 0.99566,2.93259 1.00101,2.77949 1.00069,6.50719 c -3.3e-4,3.34833 0.002,3.48835 0.0517,3.63358 0.15287,0.44435 0.54298,0.7766 0.99367,0.84631 0.10886,0.0168 1.44221,0.0236 3.57147,0.0182 2.93275,-0.007 3.41276,-0.0143 3.50737,-0.0496 0.4688,-0.17516 0.79881,-0.56361 0.86445,-1.01752 0.0137,-0.095 0.0252,-0.76214 0.0255,-1.48245 l 5.5e-4,-1.30966 0.0673,-0.0673 c 0.0646,-0.0646 0.0817,-0.0673 0.42597,-0.0673 0.34615,0 0.36111,0.002 0.42726,0.0686 l 0.0686,0.0686 -0.009,1.51387 c -0.0102,1.67943 -0.005,1.63186 -0.20149,2.0482 -0.29631,0.62944 -0.8945,1.10535 -1.56909,1.24833 -0.26018,0.0551 -7.21935,0.0543 -7.47076,-8.8e-4 z M 6.41227,8.62904 C 6.38217,8.61634 6.13243,8.37898 5.85739,8.10162 5.37989,7.62009 5.35732,7.59249 5.35732,7.49003 c 0,-0.10576 0.0369,-0.14426 2.58162,-2.68988 L 10.52056,2.21757 9.79138,1.48379 C 9.15482,0.84321 9.05807,0.73468 9.02971,0.62937 8.96811,0.40068 9.07261,0.15526 9.2756,0.0517 9.38334,-0.0033 9.41844,-0.004 11.54517,0.0032 l 2.16013,0.007 0.10359,0.079 c 0.057,0.0435 0.12664,0.12978 0.15481,0.19181 0.0486,0.10701 0.0512,0.22018 0.0512,2.20899 0,1.9888 -0.003,2.10197 -0.0512,2.20898 -0.0763,0.16795 -0.21974,0.26522 -0.41168,0.2791 -0.11266,0.008 -0.18387,-0.002 -0.25078,-0.0357 -0.0514,-0.0259 -0.41421,-0.36622 -0.80625,-0.7562 L 11.7822,3.47711 9.23424,6.02782 C 7.7509,7.51277 6.64944,8.59458 6.59811,8.61694 c -0.0995,0.0433 -0.10959,0.044 -0.18584,0.0118 z"
     id="path1"
     inkscape:label="ext-link" />
</svg>
