<?xml version="1.0" encoding="UTF-8" standalone="no"?>
<!-- Created with Inkscape (http://www.inkscape.org/) -->

<svg
   width="0.33333334in"
   height="0.33333334in"
   viewBox="0 0 8.4666668 8.4666672"
   version="1.1"
   id="svg538"
   inkscape:version="1.3 (0e150ed6c4, 2023-07-21)"
   sodipodi:docname="assets.svg"
   xml:space="preserve"
   inkscape:export-filename="../static/assets/img/siteLogo.svg"
   inkscape:export-xdpi="96"
   inkscape:export-ydpi="96"
   xmlns:inkscape="http://www.inkscape.org/namespaces/inkscape"
   xmlns:sodipodi="http://sodipodi.sourceforge.net/DTD/sodipodi-0.dtd"
   xmlns="http://www.w3.org/2000/svg"
   xmlns:svg="http://www.w3.org/2000/svg"><sodipodi:namedview
     id="namedview540"
     pagecolor="#ffffff"
     bordercolor="#666666"
     borderopacity="1.0"
     inkscape:showpageshadow="2"
     inkscape:pageopacity="0.0"
     inkscape:pagecheckerboard="true"
     inkscape:deskcolor="#d1d1d1"
     inkscape:document-units="px"
     showgrid="true"
     inkscape:zoom="0.5"
     inkscape:cx="-217"
     inkscape:cy="598"
     inkscape:window-width="1920"
     inkscape:window-height="1027"
     inkscape:window-x="1775"
     inkscape:window-y="29"
     inkscape:window-maximized="1"
     inkscape:current-layer="layer8"
     showguides="true"><inkscape:grid
       id="grid4"
       units="px"
       originx="-352.00003"
       originy="-294.4929"
       spacingx="4.2333335"
       spacingy="4.2333335"
       empcolor="#0099e5"
       empopacity="0.30196078"
       color="#0099e5"
       opacity="0.14901961"
       empspacing="2"
       dotted="false"
       gridanglex="30"
       gridanglez="30"
       visible="true" /></sodipodi:namedview><defs
     id="defs535" /><g
     inkscape:groupmode="layer"
     id="layer7"
     inkscape:label="PAGE"
     transform="translate(-93.133347,-77.917925)"><rect
       style="font-variation-settings:normal;opacity:1;vector-effect:none;fill:#ffffff;fill-opacity:1;stroke-width:0.264583;stroke-linecap:butt;stroke-linejoin:miter;stroke-miterlimit:4;stroke-dasharray:none;stroke-dashoffset:0;stroke-opacity:1;-inkscape-stroke:none;paint-order:stroke fill markers"
       id="rect4"
       width="143.93335"
       height="289.60004"
       x="0"
       y="-111.80003"
       inkscape:label="BACKGROUND"
       sodipodi:insensitive="true" /><g
       inkscape:label="STATIC"
       inkscape:groupmode="layer"
       id="layer1"
       transform="translate(-1.3218059,-1.0580903)"
       style="display:inline"><g
         inkscape:groupmode="layer"
         id="layer3"
         inkscape:label="ASSETS"><g
           inkscape:groupmode="layer"
           id="layer4"
           inkscape:label="ENGINE"
           transform="translate(26.124729,123.94585)"><g
             inkscape:groupmode="layer"
             id="layer2"
             inkscape:label="DND"
             transform="translate(-40.665748,-65.159137)"
             style="display:inline"><path
               style="display:inline;fill:#000000;stroke-width:0.264583"
               d="m 108.99617,24.422633 v -4.233334 h 4.23333 4.23334 v 4.233334 4.233332 h -4.23334 -4.23333 z m 7.91634,3.672967 c 0,-0.03243 -0.14429,-0.363772 -0.25184,-0.57832 -0.39341,-0.784797 -1.07634,-1.80752 -2.03114,-3.04173 -0.36311,-0.46937 -1.0658,-1.344085 -1.07975,-1.344085 -0.008,0 -0.0896,0.07569 -0.18157,0.168207 l -0.16722,0.168205 0.25238,0.266761 c 0.70938,0.749782 1.08282,1.171667 1.40531,1.587577 0.37711,0.486365 0.61633,0.887398 0.64554,1.082208 0.0331,0.220565 -0.1236,0.360192 -0.34268,0.305402 -0.44151,-0.110412 -1.46466,-0.90178 -2.57926,-1.994947 -0.16388,-0.160735 -0.307,-0.292245 -0.31803,-0.292245 -0.0391,0 -0.33536,0.31655 -0.31454,0.336029 0.0577,0.05399 0.93647,0.773413 1.25863,1.030405 1.32452,1.056621 2.50418,1.835981 3.25967,2.153553 0.38743,0.162862 0.4445,0.1825 0.4445,0.15298 z m -1.70506,-1.70976 c -0.0256,-0.08348 -0.1603,-0.316437 -0.30302,-0.523875 -0.32862,-0.47765 -0.82235,-1.054395 -1.59445,-1.862547 l -0.31334,-0.327966 -0.26607,0.26607 -0.26607,0.26607 0.29254,0.286258 c 0.68668,0.671918 1.4707,1.344423 1.92238,1.648943 0.16322,0.110042 0.48967,0.292782 0.5253,0.294055 0.01,2.49e-4 0.0108,-0.0208 0.003,-0.04701 z m -2.66023,-2.667337 1.29667,-1.296799 -0.13814,-0.136905 -0.13813,-0.136905 -1.30122,1.301096 -1.30123,1.301095 0.13143,0.132608 c 0.0723,0.07293 0.1365,0.132607 0.14269,0.132607 0.006,0 0.59476,-0.58356 1.30793,-1.296797 z m -0.48263,-0.469871 0.1995,-0.200332 -0.0713,-0.101292 c -0.0392,-0.05571 -0.0727,-0.103528 -0.0743,-0.106258 -0.002,-0.0027 -0.16782,0.05006 -0.36919,0.117308 l -0.36614,0.122272 0.14933,0.122168 c 0.17424,0.142547 0.30606,0.242965 0.32165,0.24502 0.006,7.49e-4 0.10078,-0.0887 0.2105,-0.198886 z m -0.51913,-0.525829 c 0.18556,-0.06202 0.34047,-0.122022 0.34424,-0.133351 0.008,-0.0245 -0.48491,-0.51632 -0.51765,-0.51632 -0.0207,0 -0.40738,0.53337 -0.40738,0.561876 0,0.0068 0.0404,0.05927 0.0898,0.116615 0.0552,0.06411 0.1021,0.100349 0.12171,0.0941 0.0175,-0.0056 0.18372,-0.06091 0.36927,-0.122917 z m -0.58109,-0.593032 c 0.0962,-0.137653 0.16662,-0.257402 0.15642,-0.266109 -0.0102,-0.0087 -0.0573,-0.04558 -0.10478,-0.08193 l -0.0862,-0.0661 -0.19685,0.197674 c -0.13711,0.137682 -0.19171,0.206385 -0.1799,0.226378 0.0573,0.09708 0.2076,0.272661 0.22073,0.257939 0.009,-0.0097 0.0944,-0.130193 0.19062,-0.267846 z m -0.43907,-0.411015 c 0.27658,-0.276398 0.50287,-0.512286 0.50287,-0.524193 0,-0.01191 -0.1191,-0.140461 -0.26466,-0.285675 l -0.26466,-0.264026 -0.51844,0.518116 -0.51844,0.518115 0.2695,0.270103 c 0.14823,0.148557 0.27433,0.270103 0.28023,0.270103 0.006,0 0.23702,-0.226144 0.5136,-0.502543 z"
               id="path1-3"
               inkscape:label="simple_weapon" /></g></g></g></g></g></svg>
