<?xml version="1.0" encoding="UTF-8" standalone="no"?>
<!-- Created with Inkscape (http://www.inkscape.org/) -->

<svg
   width="0.33330631in"
   height="0.33330601in"
   viewBox="0 0 8.4659803 8.465973"
   version="1.1"
   id="svg538"
   inkscape:version="1.3 (0e150ed6c4, 2023-07-21)"
   sodipodi:docname="assets.svg"
   xml:space="preserve"
   inkscape:export-filename="../static/assets/img/siteLogo.svg"
   inkscape:export-xdpi="96"
   inkscape:export-ydpi="96"
   xmlns:inkscape="http://www.inkscape.org/namespaces/inkscape"
   xmlns:sodipodi="http://sodipodi.sourceforge.net/DTD/sodipodi-0.dtd"
   xmlns="http://www.w3.org/2000/svg"
   xmlns:svg="http://www.w3.org/2000/svg"><sodipodi:namedview
     id="namedview540"
     pagecolor="#ffffff"
     bordercolor="#666666"
     borderopacity="1.0"
     inkscape:showpageshadow="2"
     inkscape:pageopacity="0.0"
     inkscape:pagecheckerboard="true"
     inkscape:deskcolor="#d1d1d1"
     inkscape:document-units="px"
     showgrid="true"
     inkscape:zoom="0.5"
     inkscape:cx="-217"
     inkscape:cy="598"
     inkscape:window-width="1920"
     inkscape:window-height="1027"
     inkscape:window-x="1775"
     inkscape:window-y="29"
     inkscape:window-maximized="1"
     inkscape:current-layer="layer8"
     showguides="true"><inkscape:grid
       id="grid4"
       units="px"
       originx="-352"
       originy="-342.49289"
       spacingx="4.2333335"
       spacingy="4.2333335"
       empcolor="#0099e5"
       empopacity="0.30196078"
       color="#0099e5"
       opacity="0.14901961"
       empspacing="2"
       dotted="false"
       gridanglex="30"
       gridanglez="30"
       visible="true" /></sodipodi:namedview><defs
     id="defs535" /><g
     inkscape:groupmode="layer"
     id="layer7"
     inkscape:label="PAGE"
     transform="translate(-93.133339,-90.617922)"><rect
       style="font-variation-settings:normal;opacity:1;vector-effect:none;fill:#ffffff;fill-opacity:1;stroke-width:0.264583;stroke-linecap:butt;stroke-linejoin:miter;stroke-miterlimit:4;stroke-dasharray:none;stroke-dashoffset:0;stroke-opacity:1;-inkscape-stroke:none;paint-order:stroke fill markers"
       id="rect4"
       width="143.93335"
       height="289.60004"
       x="0"
       y="-111.80003"
       inkscape:label="BACKGROUND"
       sodipodi:insensitive="true" /><g
       inkscape:label="STATIC"
       inkscape:groupmode="layer"
       id="layer1"
       transform="translate(-1.3218059,-1.0580903)"
       style="display:inline"><g
         inkscape:groupmode="layer"
         id="layer3"
         inkscape:label="ASSETS"><g
           inkscape:groupmode="layer"
           id="layer4"
           inkscape:label="ENGINE"
           transform="translate(26.124729,123.94585)"><g
             inkscape:groupmode="layer"
             id="layer2"
             inkscape:label="DND"
             transform="translate(-40.665748,-65.159137)"
             style="display:inline"><path
               style="display:inline;fill:#000000;stroke-width:0.264583"
               d="m 93.13334,105.05127 v -4.23333 l 4.227989,0.005 4.227991,0.005 0.005,4.22799 0.005,4.22799 H 97.366673 93.13334 Z m 7.85274,3.59756 c 0,-0.0121 -0.0485,-0.29544 -0.10777,-0.6297 l -0.10776,-0.60775 -1.633986,-1.6359 -1.63398,-1.6359 -0.07788,0.0326 c -0.09284,0.0388 -0.256327,0.0409 -0.341871,0.004 l -0.06155,-0.0263 -0.002,-0.23207 c -0.0017,-0.20334 -0.0088,-0.24659 -0.05701,-0.34944 -0.03028,-0.0646 -0.0866,-0.15331 -0.125158,-0.19722 l -0.0701,-0.0798 0.06682,-0.0668 0.06682,-0.0668 0.122448,0.12117 c 0.06735,0.0667 0.130422,0.12117 0.140167,0.12117 0.01559,0 0.200666,-0.12554 0.255406,-0.17325 0.0122,-0.0106 -0.03853,-0.0771 -0.126574,-0.1658 l -0.14693,-0.14806 0.100008,-0.10001 0.100007,-0.10001 0.166693,0.16572 0.166692,0.16571 0.145622,-0.0905 c 0.08009,-0.0498 0.149927,-0.0939 0.15519,-0.0981 0.0053,-0.004 -0.132747,-0.15008 -0.306689,-0.32431 l -0.31626,-0.31679 -0.444717,0.44291 -0.444717,0.44291 -0.190498,-0.0106 c -0.138541,-0.008 -0.219362,-0.002 -0.29633,0.0225 l -0.105832,0.0331 -0.550175,-0.5499 -0.550176,-0.54989 0.1109,-0.1109 0.1109,-0.1109 -0.195176,-0.19599 -0.195176,-0.19599 -0.111351,0.10996 -0.111352,0.10997 -0.06442,-0.0617 -0.06442,-0.0617 -0.205015,0.20502 -0.205016,0.20501 0.06172,0.0644 0.06172,0.0644 -0.114948,0.11639 -0.114948,0.11639 0.195063,0.19507 0.195062,0.19506 0.117046,-0.11559 0.117045,-0.11559 0.550362,0.55036 0.550362,0.55036 -0.03464,0.10166 c -0.02612,0.0766 -0.03206,0.14944 -0.02414,0.2959 l 0.0105,0.19425 -0.441939,0.44472 -0.441938,0.44472 0.316788,0.31626 c 0.174233,0.17394 0.320174,0.31195 0.324312,0.30669 0.0041,-0.005 0.04827,-0.0751 0.09806,-0.1552 l 0.09054,-0.14562 -0.165714,-0.16669 -0.165715,-0.16669 0.100008,-0.10001 0.100006,-0.10001 0.148064,0.14693 c 0.08872,0.088 0.155173,0.13877 0.165802,0.12658 0.0098,-0.0112 0.05384,-0.0708 0.09796,-0.13238 0.09096,-0.12702 0.09707,-0.10498 -0.08208,-0.29567 l -0.08474,-0.0902 0.06777,-0.0678 0.06777,-0.0678 0.06916,0.0669 c 0.03804,0.0368 0.126312,0.0936 0.196161,0.12621 0.115488,0.054 0.148561,0.0594 0.364902,0.0594 h 0.237902 l 0.02139,0.0614 c 0.03236,0.0928 0.02571,0.28162 -0.01252,0.35555 l -0.03391,0.0656 1.63726,1.63603 1.637262,1.63603 0.582071,0.10499 c 0.63347,0.11425 0.67733,0.1199 0.67733,0.0872 z m -2.482562,-2.25953 -1.476305,-1.47641 0.101303,-0.0998 0.101303,-0.0998 1.465383,1.4655 c 0.805962,0.80602 1.465388,1.47539 1.465388,1.48749 0,0.0121 -0.0407,0.0619 -0.0904,0.1107 l -0.09038,0.0887 z m -2.402981,-1.97475 c -0.40044,-0.0774 -0.5514,-0.58667 -0.264095,-0.89096 0.07784,-0.0824 0.244286,-0.14743 0.377578,-0.14743 0.123772,0 0.28358,0.0595 0.365984,0.13634 0.09318,0.0869 0.156916,0.24423 0.156916,0.38745 0,0.34081 -0.296216,0.58034 -0.636383,0.5146 z"
               id="path1-36"
               inkscape:label="martial_weapon"
               transform="translate(15.862826,-67.928642)"
               inkscape:export-filename="../dnd5/static/weapons/WEAPONMARTL.svg"
               inkscape:export-xdpi="96"
               inkscape:export-ydpi="96" /></g></g></g></g></g></svg>
