<?xml version="1.0" encoding="UTF-8" standalone="no"?>
<!-- Created with Inkscape (http://www.inkscape.org/) -->

<svg
   width="0.33333325in"
   height="0.33333331in"
   viewBox="0 0 8.4666646 8.4666663"
   version="1.1"
   id="svg538"
   xml:space="preserve"
   xmlns="http://www.w3.org/2000/svg"
   xmlns:svg="http://www.w3.org/2000/svg"><defs
     id="defs535" /><g
     id="layer7"
     transform="translate(-16.036289,19.448766)"
     style="display:inline"><g
       id="layer1-9"
       transform="matrix(0.12499999,0,0,0.12499999,10.160452,-21.862364)"
       style="stroke-width:8"><g
         id="g21"><rect
           style="display:inline;fill:none;fill-opacity:1;stroke:none;stroke-width:2.11667;stroke-linecap:square;stroke-opacity:1;-inkscape-stroke:none;paint-order:stroke fill markers"
           id="rect2-9"
           width="67.73333"
           height="67.73333"
           x="47.006672"
           y="19.308825" /><path
           d="m 97.806669,38.35882 v 29.633338 c 0,0.59972 -0.241905,1.111251 -0.725715,1.534585 -0.48381,0.388056 -1.04825,0.582081 -1.69333,0.582081 h -9.6762 c -0.68539,0 -1.27,-0.194025 -1.7538,-0.582081 -0.44349,-0.423334 -0.66524,-0.934865 -0.66524,-1.534585 V 38.411739 c 0,-0.599724 0.22175,-1.111249 0.66524,-1.534584 0.4838,-0.423335 1.06841,-0.635001 1.7538,-0.635001 h 9.6762 c 0.64508,0 1.20952,0.211666 1.69333,0.635001 0.48381,0.423335 0.725715,0.91722 0.725715,1.481665 M 77.728564,36.877155 c 0.48382,0.423335 0.72572,0.91722 0.72572,1.481665 v 29.633338 c 0,0.59972 -0.2419,1.111251 -0.72572,1.534585 -0.4838,0.388056 -1.04824,0.582081 -1.69333,0.582081 h -9.67619 c -0.68539,0 -1.27,-0.194025 -1.7538,-0.582081 -0.4435,-0.423334 -0.66524,-0.934865 -0.66524,-1.534585 V 38.411739 c 0,-0.599724 0.22174,-1.111249 0.66524,-1.534584 0.4838,-0.423335 1.06841,-0.635001 1.7538,-0.635001 h 9.67619 c 0.64509,0 1.20953,0.211666 1.69333,0.635001"
           style="display:inline;fill:#000000;fill-opacity:1;stroke:none;stroke-width:2.11666"
           id="path1-37" /></g></g></g></svg>
