<?xml version="1.0" encoding="UTF-8" standalone="no"?>
<!-- Created with Inkscape (http://www.inkscape.org/) -->

<svg
   width="0.33333325in"
   height="0.33333331in"
   viewBox="0 0 8.4666646 8.4666663"
   version="1.1"
   id="svg538"
   xml:space="preserve"
   xmlns="http://www.w3.org/2000/svg"
   xmlns:svg="http://www.w3.org/2000/svg"><defs
     id="defs535" /><g
     id="layer7"
     transform="translate(-28.736286,19.448766)"
     style="display:inline"><g
       id="layer1-9"
       transform="matrix(0.12499999,0,0,0.12499999,10.160452,-21.862364)"
       style="stroke-width:8"><g
         id="g32"><rect
           style="display:inline;fill:none;fill-opacity:1;stroke:none;stroke-width:2.11667;stroke-linecap:square;stroke-opacity:1;-inkscape-stroke:none;paint-order:stroke fill markers"
           id="rect2-9-1"
           width="67.73333"
           height="67.73333"
           x="148.60667"
           y="19.308825" /><path
           d="m 198.72934,36.919494 c 0.45156,0.45155 0.67733,0.97836 0.67733,1.58044 v 29.35111 c 0,0.6397 -0.22577,1.18534 -0.67733,1.63689 -0.45155,0.41392 -0.97836,0.62089 -1.58044,0.62089 h -29.35111 c -0.63971,0 -1.18534,-0.20697 -1.63689,-0.62089 -0.41393,-0.45155 -0.6209,-0.99719 -0.6209,-1.63689 v -29.29467 c 0,-0.63969 0.20697,-1.18533 0.6209,-1.63688 0.45155,-0.45156 0.99718,-0.67734 1.63689,-0.67734 h 29.35111 c 0.60208,0 1.12889,0.22578 1.58044,0.67734"
           style="display:inline;fill:#000000;fill-opacity:1;stroke:none;stroke-width:2.11666"
           id="path1-6-9" /></g></g></g></svg>
