<?xml version="1.0" encoding="UTF-8" standalone="no"?>
<!-- Created with Inkscape (http://www.inkscape.org/) -->

<svg
   width="0.33333316in"
   height="0.33333331in"
   viewBox="0 0 8.4666624 8.4666663"
   version="1.1"
   id="svg538"
   xml:space="preserve"
   xmlns="http://www.w3.org/2000/svg"
   xmlns:svg="http://www.w3.org/2000/svg"><defs
     id="defs535" /><g
     id="layer7"
     transform="translate(-54.138416,19.448766)"
     style="display:inline"><g
       id="layer1-9"
       transform="matrix(0.12499999,0,0,0.12499999,10.160452,-21.862364)"
       style="stroke-width:8"><g
         id="g31"
         transform="translate(-101.58289)"><rect
           style="display:inline;fill:none;fill-opacity:1;stroke:none;stroke-width:2.11667;stroke-linecap:square;stroke-opacity:1;-inkscape-stroke:none;paint-order:stroke fill markers"
           id="rect2-9-1-4-8-5"
           width="67.73333"
           height="67.73333"
           x="453.40668"
           y="19.308825" /><path
           d="m 496.62776,46.878404 2.43798,-3.4925 1.58998,1.37583 0.053,0.0529 c 2.33198,2.36362 3.49796,5.20347 3.49796,8.51958 0,3.35139 -1.16598,6.19125 -3.49796,8.51959 l -0.106,0.10583 -1.53698,1.32292 -2.43798,-3.4925 0.95399,-0.79375 0.053,-0.0529 c 1.55465,-1.55222 2.33197,-3.42195 2.33197,-5.60917 0,-2.15194 -0.77732,-4.00403 -2.33197,-5.55625 l -0.053,-0.10583 -0.95399,-0.79375 m -7.20793,-10.63625 c 0.56533,0 1.05999,0.21167 1.48398,0.635 0.424,0.42333 0.636,0.91722 0.636,1.48167 v 29.63333 c 0,0.59972 -0.212,1.11125 -0.636,1.53458 -0.42399,0.38806 -0.91865,0.58209 -1.48398,0.58209 h -2.11998 l -12.71988,-12.7 h -4.23996 v -8.46667 h 4.23996 l 12.71988,-12.7 h 2.11998"
           style="display:inline;fill:#000000;fill-opacity:1;stroke:none;stroke-width:2.11666"
           id="path1-9-2" /></g></g></g></svg>
