<?xml version="1.0" encoding="UTF-8" standalone="no"?>
<!-- Created with Inkscape (http://www.inkscape.org/) -->

<svg
   width="1.1459059in"
   height="0.33333558in"
   viewBox="0 0 29.106009 8.4667239"
   version="1.1"
   id="svg538"
   inkscape:version="1.3 (0e150ed6c4, 2023-07-21)"
   sodipodi:docname="assets.svg"
   xml:space="preserve"
   inkscape:export-filename="siteLogo.pdf"
   inkscape:export-xdpi="96"
   inkscape:export-ydpi="96"
   xmlns:inkscape="http://www.inkscape.org/namespaces/inkscape"
   xmlns:sodipodi="http://sodipodi.sourceforge.net/DTD/sodipodi-0.dtd"
   xmlns="http://www.w3.org/2000/svg"
   xmlns:svg="http://www.w3.org/2000/svg"><sodipodi:namedview
     id="namedview540"
     pagecolor="#ffffff"
     bordercolor="#666666"
     borderopacity="1.0"
     inkscape:showpageshadow="2"
     inkscape:pageopacity="0.0"
     inkscape:pagecheckerboard="true"
     inkscape:deskcolor="#d1d1d1"
     inkscape:document-units="px"
     showgrid="true"
     inkscape:zoom="2.8176779"
     inkscape:cx="1326.9792"
     inkscape:cy="329.88157"
     inkscape:window-width="1920"
     inkscape:window-height="1019"
     inkscape:window-x="0"
     inkscape:window-y="37"
     inkscape:window-maximized="1"
     inkscape:current-layer="g8"
     showguides="true"><inkscape:grid
       id="grid4"
       units="px"
       originx="-1285.7953"
       originy="-256.00008"
       spacingx="4.2333333"
       spacingy="4.2333333"
       empcolor="#0099e5"
       empopacity="0.30196078"
       color="#0099e5"
       opacity="0.14901961"
       empspacing="2"
       dotted="false"
       gridanglex="30"
       gridanglez="30"
       visible="true"
       enabled="true" /><sodipodi:guide
       position="0.68401216,330.15671"
       orientation="0,-1"
       id="guide16"
       inkscape:locked="false" /><sodipodi:guide
       position="-12.700018,330.20004"
       orientation="1,0"
       id="guide15"
       inkscape:locked="false" /><sodipodi:guide
       position="-1.7840548e-05,330.20004"
       orientation="1,0"
       id="guide17"
       inkscape:locked="false" /><sodipodi:guide
       position="-238.60002,207.43338"
       orientation="1,0"
       id="guide18"
       inkscape:locked="false" /><sodipodi:guide
       position="-225.90002,207.43338"
       orientation="1,0"
       id="guide19"
       inkscape:locked="false" /><sodipodi:guide
       position="-332.30485,313.33021"
       orientation="0,-1"
       id="guide20"
       inkscape:locked="false" /><inkscape:page
       x="-5.3424542e-06"
       y="-6.2548829e-06"
       width="29.106009"
       height="8.4667234"
       id="page2"
       margin="0"
       bleed="0" /></sodipodi:namedview><defs
     id="defs535" /><g
     inkscape:groupmode="layer"
     id="layer1"
     inkscape:label="020"
     transform="translate(-114.30002,-341.90656)"
     style="display:inline"><g
       id="g8"
       inkscape:groupmode="layer"
       inkscape:label="SMB"
       transform="translate(106.21754,42.760911)"><g
         id="g3"
         inkscape:label="logo"><text
           xml:space="preserve"
           style="font-style:normal;font-variant:normal;font-weight:normal;font-stretch:normal;font-size:7.53168px;line-height:1;font-family:QUBE;-inkscape-font-specification:QUBE;stroke-width:0.176523"
           x="18.947678"
           y="305.75473"
           id="text3"
           inkscape:label="text"><tspan
             sodipodi:role="line"
             id="tspan3"
             style="font-style:normal;font-variant:normal;font-weight:normal;font-stretch:normal;font-family:QUBE;-inkscape-font-specification:QUBE;stroke-width:0.176523"
             x="18.947678"
             y="305.75473">SMB</tspan></text><path
           style="fill:#000000;stroke-width:0.00885435"
           d="m 12.389656,307.60406 c -0.01228,-0.004 -0.09185,-0.0139 -0.177094,-0.0219 -0.161759,-0.0148 -0.423892,-0.0461 -0.458217,-0.0546 -0.01971,-0.005 -0.01992,-0.007 -0.01992,-0.13511 v -0.13016 l -0.06904,-0.0411 c -0.05996,-0.0357 -0.109033,-0.0597 -0.121892,-0.0597 -0.0031,0 -0.0041,0.0717 -0.0041,0.15939 0,0.18497 0.01362,0.16975 -0.119549,0.13428 l -0.08855,-0.0235 -0.0031,-0.16552 -0.0031,-0.16553 0.07255,-0.0806 c 0.05191,-0.0577 0.07647,-0.079 0.08648,-0.0748 0.02074,0.008 0.248624,0.0835 0.253805,0.0835 0.0031,0 0.0031,-0.0267 0.0031,-0.0592 l -0.0031,-0.0592 -0.149819,-0.0514 c -0.170035,-0.0584 -0.276065,-0.10042 -0.447842,-0.1777 -0.17623,-0.0793 -0.158508,-0.0558 -0.161375,-0.21332 l -0.0027,-0.13407 -0.09298,-0.0683 c -0.05115,-0.0376 -0.14278,-0.10373 -0.203644,-0.14706 l -0.110697,-0.0788 -0.003,0.0274 c -0.0027,0.0183 0.0027,0.0305 0.01147,0.0363 0.0079,0.005 0.05903,0.042 0.113618,0.0825 0.05458,0.0405 0.130111,0.0963 0.167875,0.12396 l 0.06867,0.0504 -0.0027,0.13458 c -0.0027,0.0882 -0.0058,0.13819 -0.01256,0.14497 -0.0079,0.008 -0.03623,-0.004 -0.119516,-0.05 -0.06004,-0.0332 -0.133852,-0.0753 -0.163997,-0.0936 -0.03018,-0.0183 -0.0752,-0.0437 -0.100075,-0.0562 l -0.04524,-0.0229 0.0027,0.05 0.0027,0.0501 0.106245,0.0548 c 0.05843,0.0301 0.150781,0.0754 0.205201,0.10062 l 0.09893,0.0458 -0.04339,0.0644 -0.04339,0.0644 -2.18e-4,0.20147 c -1.64e-4,0.15512 -0.0027,0.20142 -0.0112,0.20146 -0.006,0 -0.09565,-0.0404 -0.19903,-0.0898 -0.160311,-0.0766 -0.190047,-0.0881 -0.201979,-0.0781 -0.0076,0.006 -0.06168,0.0776 -0.119953,0.1584 -0.05825,0.0807 -0.111352,0.15386 -0.11796,0.16254 -0.0112,0.0145 -0.02922,0.004 -0.241053,-0.13166 -0.12596,-0.0811 -0.2327523,-0.15086 -0.2372849,-0.15509 -0.00464,-0.004 -0.019113,-0.0938 -0.032684,-0.19912 -0.013375,-0.10529 -0.025666,-0.1925 -0.027029,-0.19378 -0.00268,-0.003 -0.2476609,-0.15922 -0.2767143,-0.1773 -0.01065,-0.006 -0.018298,-0.0411 -0.030176,-0.13511 -0.013922,-0.1113 -0.018566,-0.12912 -0.038525,-0.15054 -0.042519,-0.0456 -0.2428011,-0.31627 -0.3225875,-0.43598 -0.1002091,-0.15035 -0.1557235,-0.24266 -0.2509654,-0.41736 -0.041508,-0.0762 -0.088444,-0.15351 -0.1043062,-0.17195 -0.015841,-0.0183 -0.033045,-0.0497 -0.038174,-0.0697 -0.00516,-0.0199 -0.036833,-0.13773 -0.070477,-0.26191 -0.033644,-0.12419 -0.067659,-0.25567 -0.075637,-0.2922 -0.012013,-0.0546 -0.020475,-0.0726 -0.04833,-0.10186 -0.032003,-0.0334 -0.1296464,-0.22303 -0.1951249,-0.37883 l -0.025119,-0.0601 0.1149019,-0.16127 c 0.094068,-0.13202 0.114164,-0.16558 0.1106964,-0.18486 -0.00268,-0.0128 -0.00898,-0.10258 -0.014469,-0.19922 -0.011744,-0.20075 -0.00599,-0.48181 0.013654,-0.6538 0.00733,-0.0633 0.013385,-0.11949 0.013385,-0.12483 1.094e-4,-0.005 -0.063046,-0.0463 -0.1403505,-0.0911 -0.077278,-0.0448 -0.1472856,-0.0864 -0.1555325,-0.0924 -0.013922,-0.0103 -0.011744,-0.024 0.029598,-0.18333 0.046854,-0.18097 0.117578,-0.45043 0.1730624,-0.65934 0.018019,-0.0682 0.04836,-0.1835 0.067226,-0.25623 0.018845,-0.0728 0.039784,-0.1353 0.046451,-0.13905 0.0066,-0.004 0.04964,-0.0381 0.095544,-0.0763 0.045873,-0.0382 0.1372101,-0.11264 0.2029342,-0.16536 0.06575,-0.0527 0.1296464,-0.10519 0.1420162,-0.11668 l 0.022395,-0.0208 0.041312,0.0221 c 0.022663,0.012 0.046472,0.0219 0.052777,0.0216 0.0063,-2.5e-4 0.039289,-0.0429 0.073284,-0.0948 0.1982106,-0.30282 0.533523,-0.64963 0.876753,-0.90679 0.4247641,-0.31819 0.9110751,-0.55575 1.4191661,-0.69323 0.219242,-0.0593 0.547672,-0.11507 0.812127,-0.13784 0.489673,-0.0422 1.150485,0.0344 1.62478,0.18805 0.801611,0.25984 1.519287,0.7689 2.014956,1.4292 0.05521,0.0736 0.113182,0.15428 0.128724,0.17932 l 0.02828,0.0455 0.03963,-0.0221 c 0.02188,-0.0123 0.04314,-0.0221 0.04747,-0.0221 0.0041,0 0.07255,0.0532 0.151635,0.11817 0.07905,0.065 0.185268,0.15169 0.236054,0.1926 0.06399,0.0515 0.09329,0.081 0.09536,0.096 0.0031,0.0118 0.01858,0.0796 0.03777,0.15053 0.140892,0.52328 0.255466,0.95698 0.269419,1.02 0.0052,0.0221 0,0.027 -0.107639,0.0876 -0.06203,0.0353 -0.133048,0.0771 -0.157827,0.093 l -0.045,0.0287 0.01115,0.0874 c 0.03106,0.2398 0.03684,0.63327 0.01259,0.84443 l -0.0083,0.0752 0.05697,0.0841 c 0.03137,0.0462 0.08266,0.11897 0.113997,0.1616 l 0.05707,0.0774 -0.09691,0.21031 c -0.06987,0.15158 -0.104606,0.21703 -0.124431,0.2343 -0.02508,0.0219 -0.0322,0.0421 -0.08256,0.23464 -0.113449,0.4337 -0.116153,0.44268 -0.14409,0.4781 -0.01445,0.0186 -0.06491,0.10279 -0.111892,0.18729 -0.106659,0.1919 -0.14732,0.25926 -0.244227,0.40441 -0.0838,0.12558 -0.272866,0.3816 -0.321598,0.43556 -0.02931,0.0325 -0.03086,0.0376 -0.04087,0.13983 -0.0062,0.0584 -0.01177,0.11411 -0.01362,0.12383 -0.0031,0.0172 -0.04396,0.0465 -0.217189,0.15714 l -0.07585,0.0484 -0.02508,0.19449 -0.02508,0.19447 -0.155887,0.10083 c -0.222132,0.14376 -0.320762,0.20531 -0.323414,0.2019 -0.01063,-0.0136 -0.08824,-0.12184 -0.159623,-0.22225 -0.04768,-0.0671 -0.08917,-0.12328 -0.09226,-0.12503 -0.0031,-0.003 -0.05346,0.0202 -0.111871,0.049 -0.121066,0.0596 -0.275921,0.13145 -0.283021,0.13145 -0.0031,0 -0.0041,-0.0872 -0.0041,-0.19368 v -0.19365 l -0.04427,-0.0678 c -0.02435,-0.0374 -0.04407,-0.0707 -0.04386,-0.0742 2.47e-4,-0.003 0.09381,-0.0522 0.207879,-0.10822 l 0.207405,-0.10186 1.96e-4,-0.0512 c 2.48e-4,-0.0601 0.01992,-0.065 -0.158859,0.0405 -0.190273,0.11222 -0.259511,0.14892 -0.272019,0.14414 -0.0093,-0.003 -0.01177,-0.0364 -0.01177,-0.14094 v -0.13648 l 0.181532,-0.13489 c 0.164297,-0.12211 0.181491,-0.13738 0.181491,-0.16092 v -0.0259 l -0.05088,0.0367 c -0.02807,0.0202 -0.08483,0.0601 -0.126185,0.0888 -0.04138,0.0286 -0.111127,0.0791 -0.154957,0.11209 -0.07038,0.0531 -0.07978,0.0635 -0.08081,0.0889 0,0.0158 -0.0031,0.0748 -0.0031,0.13122 v 0.10248 l -0.126175,0.0602 c -0.13634,0.065 -0.293073,0.13011 -0.445956,0.18513 -0.05294,0.0191 -0.119291,0.0433 -0.14728,0.0541 l -0.05098,0.0194 v 0.0571 0.0571 l 0.02436,-0.006 c 0.01342,-0.003 0.07792,-0.0254 0.143327,-0.0491 0.113512,-0.0414 0.119652,-0.0427 0.133388,-0.0276 0.0083,0.008 0.03911,0.0443 0.06915,0.0789 l 0.0547,0.0632 -1.34e-4,0.15817 c -5.2e-5,0.087 -0.0031,0.16261 -0.0062,0.168 -0.0062,0.009 -0.170768,0.0566 -0.195753,0.0566 -0.0083,0 -0.01032,-0.039 -0.0083,-0.1594 0.0031,-0.0876 0,-0.15939 -0.0052,-0.15936 -0.0041,0 -0.04324,0.0186 -0.087,0.0411 -0.0547,0.0283 -0.08215,0.0479 -0.08772,0.0625 -0.0041,0.0118 -0.0083,0.075 -0.0083,0.14044 0,0.0654 -0.0031,0.11894 -0.0062,0.11894 -0.0031,0 -0.07637,0.0103 -0.161594,0.0216 -0.08525,0.012 -0.22628,0.0283 -0.313445,0.0364 -0.08721,0.008 -0.170789,0.0183 -0.185866,0.0227 -0.03364,0.009 -0.09959,0.009 -0.129343,0 z m 0.10958,-0.14076 c 0.02074,-0.0142 0.04324,-0.033 0.05026,-0.0419 0.0072,-0.008 -0.0031,-0.004 -0.02271,0.0109 -0.0194,0.015 -0.04531,0.0337 -0.05728,0.0419 -0.01197,0.008 -0.01889,0.0148 -0.01496,0.0148 0.0041,0 0.02405,-0.0118 0.04448,-0.0257 z m -0.08741,-0.0134 c -0.03086,-0.0249 -0.0839,-0.0565 -0.0708,-0.0422 0.01661,0.0181 0.07967,0.0632 0.08855,0.0634 0.0052,1.2e-4 -0.0031,-0.009 -0.01775,-0.0213 z m -0.09009,-0.0769 c -0.0031,-0.0151 -0.0062,-0.11774 -0.0062,-0.228 v -0.20048 l 0.144555,-0.003 0.144555,-0.003 -0.0031,0.23043 c -0.0031,0.12676 -0.0031,0.23046 -2.17e-4,0.23046 0.0031,0 0.01445,-0.006 0.02879,-0.0134 l 0.02621,-0.0136 v -0.18973 -0.18972 l 0.03829,-0.0265 c 0.05563,-0.0383 0.130138,-0.12219 0.162389,-0.18293 0.09887,-0.1863 0.06615,-0.41165 -0.08112,-0.55749 -0.09206,-0.0911 -0.185918,-0.12836 -0.323456,-0.12836 -0.132108,0 -0.2282,0.0397 -0.318491,0.13194 -0.09608,0.0981 -0.132821,0.18922 -0.132821,0.32987 0,0.1429 0.05542,0.26434 0.164246,0.36017 0.02405,0.021 0.05459,0.0448 0.06801,0.0527 l 0.02456,0.0144 v 0.1886 0.18861 l 0.02879,0.0174 c 0.0385,0.0235 0.04252,0.0224 0.03612,-0.0103 z m -0.07379,-0.9732 c 0,-0.0235 0.07503,-0.0887 0.122573,-0.10663 0.09175,-0.0346 0.21916,-0.004 0.267211,0.0629 0.02735,0.0381 0.0161,0.0421 -0.02487,0.009 -0.09071,-0.0729 -0.231275,-0.0688 -0.315767,0.009 -0.03911,0.036 -0.04912,0.0413 -0.04912,0.0257 z m 2.863235,0.67298 c 0.01259,-0.012 0.02126,-0.13006 0.03736,-0.51516 0.0083,-0.20116 0.01806,-0.36772 0.02105,-0.37015 0.01145,-0.009 0.04469,-0.0722 0.04469,-0.0849 0,-0.007 -0.01827,0.004 -0.04376,0.0293 l -0.04365,0.0424 -0.01259,0.38751 c -0.0072,0.21316 -0.01507,0.39009 -0.01827,0.39318 -0.0031,0.003 -0.01393,-0.005 -0.02405,-0.0177 -0.01032,-0.0128 -0.02456,-0.0235 -0.0321,-0.0235 -0.0093,0 -0.01177,-0.004 -0.0072,-0.0156 0.03106,-0.0715 0.03808,-0.11417 0.04789,-0.29441 0.0062,-0.10472 0.01362,-0.24761 0.01744,-0.31756 l 0.0072,-0.12722 0.05315,-0.0473 c 0.02921,-0.0259 0.05924,-0.0605 0.06657,-0.0765 0.01259,-0.027 0.03137,-0.2372 0.02126,-0.2372 -0.0031,0 -0.02436,0.0128 -0.04881,0.0288 -0.02456,0.0158 -0.09175,0.0592 -0.149529,0.0964 l -0.105049,0.0676 -0.01115,0.31311 c -0.0062,0.17221 -0.01362,0.35839 -0.01641,0.41371 l -0.0052,0.10062 -0.142481,0.0929 c -0.07833,0.0511 -0.145896,0.0961 -0.150066,0.1 -0.0041,0.004 0.03344,0.0668 0.08349,0.13961 l 0.09113,0.13246 0.155556,-0.10144 c 0.08556,-0.0558 0.159034,-0.10474 0.163266,-0.10876 z m -0.352218,0.11459 -0.04035,-0.0607 0.02859,-0.0216 c 0.04025,-0.0303 0.233979,-0.1557 0.250172,-0.16192 0.0161,-0.006 0.09278,0.0671 0.09278,0.0887 0,0.015 -0.04066,0.0465 -0.197611,0.1529 l -0.09329,0.0633 z m -4.600623,0.0298 c 0.02185,-0.0324 0.06092,-0.0886 0.0867,-0.12482 0.02567,-0.0362 0.04571,-0.0689 0.04428,-0.0727 -0.0027,-0.004 -0.06935,-0.051 -0.150918,-0.10507 l -0.1482957,-0.0983 v -0.0643 c 0,-0.0354 -0.00733,-0.22134 -0.015563,-0.41327 l -0.014748,-0.34897 -0.1252231,-0.0805 c -0.068836,-0.0443 -0.1380027,-0.0879 -0.153676,-0.097 l -0.028484,-0.0166 0.0065,0.1051 c 0.00578,0.0908 0.0098,0.11077 0.030341,0.1469 0.013107,0.0229 0.041663,0.0554 0.06351,0.0721 l 0.039702,0.0303 0.015563,0.32161 c 0.016378,0.34101 0.017204,0.34593 0.066514,0.41957 l 0.017751,0.0265 -0.035419,0.0297 c -0.019392,0.0164 -0.036812,0.0283 -0.038525,0.0265 -0.0065,-0.006 -0.023489,-0.32278 -0.029898,-0.55894 -0.0065,-0.24068 -0.00712,-0.24616 -0.026492,-0.25971 -0.010919,-0.007 -0.029567,-0.0246 -0.04159,-0.0374 -0.021022,-0.0227 -0.021848,-0.0229 -0.021848,-0.004 0,0.0106 0.0098,0.031 0.022116,0.0454 0.021569,0.0254 0.022384,0.0323 0.030961,0.22424 0.017472,0.38828 0.036699,0.66709 0.047215,0.68255 0.0096,0.0139 0.3051658,0.2108 0.3157878,0.21031 0.0027,-10e-5 0.0224,-0.0267 0.04438,-0.0592 z m -0.132814,-0.0211 c -0.1492794,-0.10324 -0.2035894,-0.14559 -0.2034263,-0.15865 1.641e-4,-0.0128 0.074759,-0.0974 0.085905,-0.0974 0.00299,0 0.068423,0.042 0.1453473,0.0933 l 0.139914,0.0933 -0.03962,0.0538 c -0.02185,0.0296 -0.03959,0.0573 -0.03959,0.0616 0,0.0134 -0.01065,0.007 -0.08853,-0.0459 z m 2.482427,-0.0166 c 0.02271,-0.024 0.04107,-0.048 0.04107,-0.0532 0,-0.0103 -0.156382,-0.0131 -0.181501,-0.003 -0.01197,0.005 -0.0062,0.0148 0.0322,0.0531 0.0259,0.0262 0.0515,0.0475 0.05707,0.0475 0.0062,0 0.02869,-0.0197 0.05119,-0.0439 z m 2.161668,-0.3858 c 0.04871,-0.0335 0.09082,-0.0642 0.0936,-0.0682 0.0031,-0.004 0.01032,-0.10976 0.01558,-0.23504 0.0062,-0.12525 0.0128,-0.24868 0.01558,-0.27423 0.0031,-0.0292 0.0031,-0.0464 -0.0041,-0.0464 -0.0052,0 -0.07606,0.0448 -0.157796,0.0996 l -0.148631,0.0996 -0.0062,0.0797 c -0.0031,0.0439 -0.0062,0.17017 -0.0062,0.28076 v 0.20105 l 0.05532,-0.0379 c 0.03044,-0.0207 0.09515,-0.0653 0.143874,-0.0989 z m -4.234839,-0.15275 -0.0027,-0.26812 -0.160201,-0.10635 c -0.08811,-0.0585 -0.161731,-0.10488 -0.163561,-0.10299 -0.0027,0.003 0.0035,0.12789 0.01175,0.28018 l 0.01502,0.27685 0.08451,0.0601 c 0.124622,0.0885 0.207876,0.14115 0.212901,0.13445 0.0027,-0.003 0.0033,-0.12655 0.0027,-0.27403 z m 1.038644,-0.42695 c 0.0062,0 0.144937,0.0867 0.229418,0.1433 l 0.07028,0.0471 -0.0031,0.13792 c -0.0031,0.11689 -3.1e-5,0.13969 0.01176,0.14958 0.0072,0.006 0.01693,0.008 0.02054,0.005 0.0083,-0.008 0.01393,-0.48304 0.0062,-0.53293 l -0.0052,-0.0365 -0.170335,-0.0929 c -0.09371,-0.0511 -0.17888,-0.0956 -0.189283,-0.0989 -0.01042,-0.003 -0.06006,-0.0469 -0.110395,-0.0969 -0.05057,-0.0503 -0.153843,-0.13714 -0.230924,-0.19428 -0.133579,-0.0991 -0.158591,-0.12624 -0.131476,-0.14301 0.01392,-0.008 0.22314,0.14644 0.441639,0.3269 l 0.08215,0.0679 -0.0031,-0.11703 -0.0031,-0.11703 -0.194411,-0.13926 c -0.106928,-0.0766 -0.195919,-0.14374 -0.197722,-0.1492 -0.0027,-0.005 0.0767,0.0435 0.174512,0.10881 0.189117,0.12626 0.257488,0.16769 0.257488,0.15603 0,-0.0109 -0.05996,-0.062 -0.128713,-0.10934 -0.03395,-0.0234 -0.112965,-0.0781 -0.175629,-0.12175 -0.06264,-0.0436 -0.118183,-0.0793 -0.123288,-0.0793 -0.0052,0 -0.01556,0.006 -0.02349,0.0128 -0.01256,0.0115 -0.0243,0.006 -0.106955,-0.0528 -0.05098,-0.0362 -0.09707,-0.0658 -0.102418,-0.0661 -0.0088,-2.1e-4 -0.107556,0.1975 -0.12222,0.2446 -0.0052,0.0169 0.0065,0.0262 0.107284,0.0834 0.201487,0.11444 0.299299,0.18374 0.282693,0.20034 -0.0027,0.003 -0.09423,-0.0406 -0.205009,-0.0945 -0.195098,-0.0951 -0.202388,-0.0978 -0.233463,-0.0879 -0.0595,0.0189 -0.160447,0.0629 -0.160447,0.0698 0,0.004 0.06873,0.0545 0.152748,0.11269 0.084,0.0582 0.241381,0.16718 0.349756,0.24214 l 0.197006,0.13634 v 0.23185 0.23185 l 0.112883,0.076 0.112913,0.076 0.0031,-0.26544 c 0,-0.14598 0.0041,-0.26541 0.0072,-0.26541 z m 2.109953,0.44248 0.08576,-0.0578 0.0031,-0.23442 c 0.0031,-0.23013 0.0031,-0.23467 0.02209,-0.24848 0.01063,-0.007 0.147043,-0.10114 0.302877,-0.20758 0.155825,-0.10644 0.306582,-0.21033 0.335004,-0.2309 0.05986,-0.0433 0.0644,-0.0371 -0.0644,-0.0873 l -0.08349,-0.0326 -0.08029,0.0377 c -0.04417,0.0207 -0.13503,0.0649 -0.201925,0.0981 -0.06687,0.0332 -0.123667,0.0605 -0.126185,0.0605 -0.0031,0 -0.0041,-0.005 -0.0041,-0.0118 0,-0.0189 0.320452,-0.22162 0.380361,-0.24062 0.01393,-0.004 0.01744,-0.0106 0.01311,-0.0235 -0.0072,-0.0229 -0.107124,-0.2464 -0.11247,-0.25175 -0.0031,-0.003 -0.04892,0.0259 -0.10379,0.063 -0.09412,0.0634 -0.100622,0.0663 -0.115937,0.0523 -0.01889,-0.0172 -0.02209,-0.0156 -0.167631,0.0834 -0.205145,0.13934 -0.283351,0.19889 -0.283351,0.21572 0,0.0118 0.02745,-0.005 0.23174,-0.1403 0.105544,-0.0701 0.194422,-0.12733 0.197528,-0.12733 0.01558,0 -0.01827,0.0265 -0.166176,0.12968 -0.08865,0.0619 -0.176207,0.12413 -0.194473,0.13828 l -0.03323,0.0257 v 0.11509 0.1151 l 0.02105,-0.0161 c 0.01176,-0.009 0.0935,-0.0745 0.181966,-0.14582 0.158342,-0.12753 0.299491,-0.22903 0.318491,-0.22903 0.0052,0 0.0093,0.007 0.0093,0.0158 0,0.0103 -0.04768,0.0514 -0.129725,0.1126 -0.07131,0.0532 -0.173967,0.14027 -0.228004,0.1933 -0.07833,0.0769 -0.112603,0.10362 -0.169024,0.13204 -0.09691,0.0488 -0.289161,0.15655 -0.306252,0.17157 -0.01207,0.0106 -0.01424,0.0506 -0.01558,0.30226 l -0.0031,0.28999 0.0227,-0.0254 c 0.02239,-0.0249 0.02271,-0.0275 0.02126,-0.15495 v -0.12965 l 0.02972,-0.024 c 0.03695,-0.0297 0.255115,-0.16648 0.26558,-0.16648 0.0041,0 0.0072,0.11777 0.0072,0.26172 v 0.2617 l 0.02735,-0.0161 c 0.01507,-0.008 0.06574,-0.042 0.112882,-0.0738 z M 10.910954,306.538 v -0.0479 l -0.148322,-0.1042 c -0.08156,-0.0573 -0.17918,-0.12566 -0.216943,-0.15188 l -0.06862,-0.0477 v 0.0624 0.0624 l 0.04199,0.0304 c 0.05327,0.0386 0.377089,0.24122 0.389677,0.24374 0,2.4e-4 0.0027,-0.0211 0.0027,-0.0475 z m 3.124216,0.0313 c 0.0128,-0.009 0.09525,-0.0614 0.182894,-0.11596 0.23141,-0.14416 0.21691,-0.13052 0.21691,-0.20425 0,-0.0338 -0.0031,-0.0615 -0.0041,-0.0615 -0.0041,0 -0.332011,0.23084 -0.381455,0.2689 -0.0194,0.0151 -0.03829,0.0314 -0.0419,0.0363 -0.0072,0.0109 -0.0093,0.0932 -0.0031,0.0932 0.0031,0 0.01579,-0.007 0.02879,-0.0166 z m -4.4247497,-0.33073 c -0.010114,-0.23424 -0.027524,-0.8356 -0.027606,-0.9562 l -2.68e-5,-0.0596 -0.086339,-0.0559 c -0.047452,-0.0307 -0.1401039,-0.0894 -0.2058559,-0.13028 -0.06575,-0.0409 -0.2030167,-0.12719 -0.3050576,-0.19179 -0.1020668,-0.0646 -0.1869328,-0.1161 -0.1886532,-0.11441 -0.00268,0.003 0.00516,0.0535 0.015016,0.11499 0.010114,0.0615 0.018298,0.12358 0.018298,0.13788 0,0.0143 0.00495,0.0305 0.011197,0.0359 0.013654,0.0123 0.468126,0.31838 0.4726587,0.31838 0.00268,0 0.0033,-0.0259 0.0033,-0.0574 v -0.0574 l -0.1261788,-0.0825 c -0.069383,-0.0453 -0.1609661,-0.1042 -0.2034812,-0.13079 -0.068887,-0.0431 -0.0912,-0.0623 -0.070993,-0.0613 0.00351,1.9e-4 0.098269,0.059 0.2102791,0.1308 l 0.2036442,0.13043 0.00433,0.0769 c 0.00268,0.0423 0.00846,0.0803 0.013375,0.0845 0.00495,0.004 0.045491,0.0346 0.09025,0.0673 l 0.081426,0.0596 0.00268,0.11181 0.00268,0.11182 -0.059744,0.0729 -0.059774,0.0729 v 0.12252 c 0,0.0674 0.00351,0.1776 0.0065,0.2449 l 0.00547,0.12244 0.097402,0.0645 c 0.053572,0.0355 0.099012,0.063 0.1009727,0.0614 0.00268,-0.003 0,-0.11167 -0.00681,-0.24446 z m 5.8188007,0.15715 c 0.05852,-0.0388 0.05604,-0.0267 0.06471,-0.32057 l 0.0062,-0.20539 -0.06099,-0.0723 -0.06099,-0.0724 0.0031,-0.10747 c 0.0031,-0.12315 -0.0062,-0.10713 0.1154,-0.19511 l 0.07224,-0.0522 v -0.0732 -0.0732 l 0.042,-0.0298 c 0.05728,-0.0407 0.353777,-0.22817 0.371548,-0.23497 0.04035,-0.0156 -0.01445,0.024 -0.181006,0.1306 -0.101138,0.0647 -0.190861,0.12362 -0.199386,0.1309 -0.01197,0.0103 -0.01558,0.027 -0.01558,0.0733 v 0.0601 l 0.09515,-0.0669 c 0.05232,-0.0367 0.157476,-0.10827 0.233577,-0.15883 0.07606,-0.0506 0.142367,-0.0969 0.147258,-0.103 0.0052,-0.006 0.01362,-0.0509 0.01971,-0.0996 0.0062,-0.0487 0.01362,-0.11162 0.01723,-0.1398 0.0041,-0.0352 0.0031,-0.05 -0.0031,-0.0476 -0.0052,0.003 -0.07121,0.0427 -0.146743,0.0903 -0.07544,0.0477 -0.189035,0.11925 -0.252329,0.15903 -0.268965,0.169 -0.320184,0.20178 -0.346211,0.22153 l -0.02745,0.0207 -0.0062,0.1887 c -0.0031,0.10382 -0.0093,0.33815 -0.01445,0.52078 -0.0041,0.18262 -0.01094,0.38116 -0.01393,0.44123 l -0.0052,0.10919 0.04861,-0.0311 c 0.02673,-0.0172 0.07038,-0.0456 0.09701,-0.0633 z m -0.748141,-0.40497 0.0031,-0.0998 0.03695,-0.0265 c 0.02023,-0.0145 0.102892,-0.0713 0.183359,-0.1261 l 0.14633,-0.0996 0.0062,-0.0421 c 0.0031,-0.0232 0.0062,-0.11383 0.0072,-0.20148 0,-0.0876 0.0041,-0.18726 0.0072,-0.22137 0.0041,-0.0502 0.0031,-0.0684 -0.01042,-0.0956 -0.01476,-0.0305 -0.156919,-0.24884 -0.193101,-0.29629 l -0.01527,-0.0199 -0.02797,0.0435 -0.02797,0.0435 0.07266,0.10789 0.07265,0.10788 v 0.11638 c 0,0.064 -0.0041,0.18215 -0.0072,0.26251 l -0.0062,0.14609 -0.05676,0.0354 c -0.03127,0.0194 -0.103408,0.0676 -0.160396,0.10692 l -0.103625,0.0715 -0.0031,0.16597 -0.0031,0.16596 0.03777,-0.0224 0.03787,-0.0227 z m -4.381168,0.0131 c -2.8e-5,-0.067 -0.0027,-0.14221 -0.0055,-0.1672 l -0.0055,-0.0454 -0.152665,-0.1035 -0.1526651,-0.10349 -0.00547,-0.0636 c -0.00299,-0.035 -0.00599,-0.15165 -0.0065,-0.25929 v -0.19573 l 0.024304,-0.0389 c 0.013374,-0.0213 0.045759,-0.0718 0.071922,-0.11214 0.03481,-0.0537 0.04506,-0.0762 0.0382,-0.0841 -0.0052,-0.006 -0.01884,-0.024 -0.03014,-0.04 l -0.02075,-0.0291 -0.111571,0.16634 -0.1115705,0.16638 0.00733,0.26822 0.00733,0.26822 0.021022,0.015 c 0.011466,0.008 0.094884,0.0649 0.1851595,0.12583 0.09027,0.0609 0.164515,0.11665 0.164979,0.12394 0,0.007 0.0027,0.0521 0.0027,0.0995 l 0.0027,0.0862 0.0332,0.0219 c 0.0183,0.012 0.03618,0.0221 0.03984,0.0221 0.0035,0 0.0065,-0.0543 0.0065,-0.12121 z m 0.54854,0.10783 c -0.01283,-0.0153 -0.252849,-0.19141 -0.283349,-0.20774 -0.03804,-0.0202 -0.0073,0.008 0.0604,0.0564 0.03768,0.0267 0.104362,0.0746 0.148187,0.10644 0.08563,0.062 0.09251,0.0663 0.07476,0.0448 z m 3.37922,-0.10259 c 0.124596,-0.089 0.192173,-0.1451 0.11829,-0.0983 -0.04809,0.0304 -0.240212,0.16845 -0.269584,0.19366 -0.05139,0.0441 0.01177,0.004 0.151294,-0.0952 z m -1.277928,-0.0211 c 0.02405,-0.0221 0.02435,-0.0237 0.02435,-0.13502 -5.1e-5,-0.0619 -0.0031,-0.13337 -0.0062,-0.15881 l -0.0052,-0.0462 -0.02983,0.0325 -0.02983,0.0325 1.14e-4,0.1156 c 1.03e-4,0.11561 0.0062,0.18199 0.01661,0.18199 0.0031,0 0.01641,-0.0103 0.02983,-0.0224 z m -0.960439,0.003 c 0.0052,-0.006 0.01042,-0.0717 0.01177,-0.15065 l 0.0031,-0.13956 -0.02735,-0.0274 -0.02735,-0.0273 -0.0041,0.15361 c -0.0031,0.12911 -0.0031,0.15751 0.0093,0.17798 0.01558,0.027 0.02157,0.0294 0.03478,0.0134 z m 0.659316,-0.25397 0.06863,-0.0643 v -0.12345 -0.12342 l -0.07936,0.08 -0.07936,0.08 h -0.0998 -0.0998 l -0.08432,-0.084 -0.08421,-0.084 0.0041,0.12604 0.0041,0.12604 0.06161,0.0576 c 0.03395,0.0317 0.06605,0.0615 0.07152,0.0664 0.0062,0.005 0.06079,0.008 0.128724,0.008 h 0.118888 z m 3.140383,-0.17326 c 0.08091,-0.0974 0.167001,-0.20236 0.191243,-0.23324 0.02436,-0.0309 0.05893,-0.0745 0.07699,-0.0969 0.01806,-0.0224 0.03127,-0.0425 0.0291,-0.0446 -0.0041,-0.004 -0.335231,0.21139 -0.430228,0.27955 l -0.05243,0.0376 v 0.13421 0.13421 l 0.01909,-0.0169 c 0.01032,-0.009 0.08524,-0.0965 0.166206,-0.19395 z m -6.487982,0.0652 v -0.12717 l -0.2202185,-0.14744 c -0.2364934,-0.15836 -0.268905,-0.17913 -0.268905,-0.17236 0,0.0202 0.4753894,0.58671 0.484564,0.57752 0.00268,-0.003 0.00351,-0.0606 0.00413,-0.13055 z m 6.260112,0 c 0.0031,-0.0536 0,-0.0974 -0.0031,-0.0974 -0.0031,0 -0.0093,0.004 -0.01558,0.0106 -0.01125,0.0112 -0.01527,0.14426 -0.0052,0.17017 0.01311,0.0338 0.02023,0.007 0.02291,-0.0834 z m -6.192749,-0.003 c 0.00268,-0.0681 -1.641e-4,-0.0865 -0.011466,-0.0959 -0.01256,-0.0104 -0.013922,-0.003 -0.01256,0.0876 0,0.0698 0.00433,0.0983 0.011466,0.0959 0.0063,-0.003 0.010919,-0.0345 0.01256,-0.0876 z m 0.4440418,-0.1578 c 0,-0.0998 -0.00382,-0.22333 -0.00846,-0.27447 l -0.00846,-0.093 0.044511,-0.0919 c 0.024572,-0.0506 0.043335,-0.0932 0.04191,-0.0946 -0.00268,-0.003 -0.094997,0.11838 -0.1218649,0.15931 -0.011466,0.0174 -0.012291,0.0557 -0.0065,0.2761 0.00382,0.14074 0.00898,0.27282 0.011744,0.29352 l 0.00495,0.0377 0.021301,-0.0156 0.021301,-0.0156 z m 5.3319162,0.13505 c 0,-0.0426 0.0031,-0.1771 0.0062,-0.29885 l 0.0062,-0.22135 -0.02023,-0.0221 c -0.01125,-0.0123 -0.04076,-0.0489 -0.06584,-0.0817 -0.02508,-0.0328 -0.04675,-0.0584 -0.0483,-0.0569 -0.0031,0.003 0.01692,0.0403 0.04087,0.0863 l 0.04365,0.0835 -0.0083,0.13718 c -0.01311,0.22715 -0.01094,0.40865 0.0052,0.43183 0.0072,0.0109 0.01961,0.0196 0.02652,0.0196 0.01032,0 0.01311,-0.0164 0.01362,-0.0775 z m -3.259427,-0.30802 v -0.23499 l -0.116401,-0.1192 c -0.100622,-0.103 -0.140355,-0.13527 -0.140355,-0.11392 0,0.0109 0.04169,0.0631 0.125989,0.15813 l 0.08679,0.0978 v 0.18672 c 0,0.17402 2.48e-4,0.18925 0.01775,0.22357 0.01042,0.0202 0.02074,0.0369 0.02291,0.0369 0.0031,0 0.0041,-0.10573 0.0041,-0.23496 z m 1.170991,0.19733 c 0.02105,-0.0368 0.02157,-0.0415 0.01992,-0.21746 l -0.0031,-0.17984 0.02374,-0.0327 c 0.01311,-0.0181 0.06037,-0.0763 0.104904,-0.12971 0.04458,-0.0534 0.08101,-0.10021 0.08101,-0.10402 0,-0.0352 -0.129704,0.0835 -0.232431,0.21273 l -0.02425,0.0307 v 0.22901 c 0,0.12594 0.0031,0.22899 0.0031,0.22899 0.0031,0 0.01342,-0.0169 0.02508,-0.0377 z m 0.148332,-0.16943 c 0,-0.15971 -0.02074,-0.12869 0.181491,-0.27128 0.07792,-0.0549 0.14631,-0.10346 0.151965,-0.10783 0.0062,-0.005 0.01259,-0.004 0.01579,0 0.0062,0.0103 -0.04066,0.0481 -0.20531,0.16888 l -0.108455,0.0796 v 0.1031 c 0,0.0995 0,0.10268 0.01662,0.0909 0.0093,-0.006 0.06595,-0.0482 0.126175,-0.0924 0.114471,-0.0839 0.222018,-0.15848 0.425996,-0.29547 l 0.121758,-0.0817 v -0.20957 c 0,-0.11529 -0.0041,-0.1918 -0.0062,-0.17006 -0.0052,0.0351 -0.01125,0.0444 -0.05841,0.0828 -0.104399,0.0849 -0.276963,0.21716 -0.429444,0.32909 -0.08524,0.0625 -0.177642,0.13202 -0.205362,0.15436 l -0.05036,0.0407 v 0.0805 c 0,0.11235 0.0093,0.24299 0.01858,0.23741 0.0041,-0.003 0.0072,-0.0655 0.0072,-0.13986 z m -1.469667,-0.0846 0.0031,-0.0925 -0.04004,-0.0315 c -0.02209,-0.0172 -0.09464,-0.0713 -0.161357,-0.12003 -0.219861,-0.16048 -0.344126,-0.25424 -0.442836,-0.33417 l -0.0974,-0.0788 -0.0052,-0.0458 c -0.0027,-0.0251 -0.0058,0.0498 -0.0065,0.16667 l -0.0027,0.2125 0.06829,0.0443 c 0.114189,0.074 0.566947,0.39225 0.611292,0.42966 0.0083,0.007 0.01125,-0.0128 0.01125,-0.0972 0,-0.0652 -0.0031,-0.10659 -0.0093,-0.10659 -0.01228,0 -0.309894,-0.22225 -0.309894,-0.23153 0,-0.0186 0.03261,0 0.185949,0.11067 l 0.163802,0.11747 0.0052,0.13671 c 0.0031,0.0752 0.0062,0.13872 0.0083,0.14115 0.0052,0.008 0.01579,-0.12662 0.01806,-0.22085 z m -1.05383,-0.28308 v -0.34451 l -0.07872,-0.0628 c -0.04328,-0.0345 -0.08113,-0.0627 -0.0841,-0.0627 -0.003,0 -0.0055,0.0156 -0.0055,0.0348 0,0.032 0.0041,0.0379 0.05093,0.0735 l 0.05093,0.0387 0.0027,0.30946 0.0027,0.30947 0.02878,0.024 c 0.01584,0.0131 0.02976,0.0244 0.03099,0.0244 0,10e-5 0.0027,-0.15483 0.0027,-0.34433 z m 3.612577,-0.015 v -0.30367 l 0.04861,-0.0335 c 0.04995,-0.0345 0.0611,-0.0535 0.05604,-0.0955 -0.0031,-0.0237 -0.0031,-0.0235 -0.08483,0.0408 l -0.08184,0.0649 v 0.34357 0.34356 l 0.03096,-0.0282 0.03096,-0.0282 z m -1.717765,0.19982 c 0.107093,-0.09 0.275157,-0.24906 0.241575,-0.22849 -0.01094,0.006 -0.04066,0.0265 -0.06646,0.0445 -0.191243,0.13268 -0.283351,0.19335 -0.293609,0.19335 -0.0062,0 -0.02157,-0.007 -0.03303,-0.0164 -0.01177,-0.009 -0.0968,-0.0671 -0.189345,-0.12905 -0.186052,-0.1246 -0.182966,-0.11858 0.03984,0.0779 0.141573,0.12485 0.180129,0.15502 0.190367,0.14907 0.0052,-0.003 0.0547,-0.0437 0.110673,-0.0908 z M 9.7762194,304.9501 c 0.069682,-0.0985 0.080962,-0.11932 0.06447,-0.11932 -0.0142,0 -0.4782294,-0.30449 -0.5191056,-0.34054 -0.045987,-0.0405 -0.022395,-0.027 0.3497564,0.20161 0.031642,0.0194 0.086452,0.0548 0.1217824,0.0785 0.073511,0.0495 0.090714,0.0576 0.090714,0.0429 0,-0.0186 0.011466,-0.0104 -0.2744748,-0.19554 -0.2954464,-0.19133 -0.4066063,-0.26579 -0.4134609,-0.27687 -0.00351,-0.006 0.0033,-0.004 0.015295,0.004 0.012013,0.008 0.1054816,0.0672 0.2077403,0.13186 0.1022628,0.0647 0.2257893,0.14396 0.2744748,0.17611 0.1039522,0.0687 0.10185,0.0676 0.10185,0.0534 0,-0.0145 0.053489,-0.10062 0.219618,-0.35344 0.07522,-0.11444 0.138685,-0.21304 0.141034,-0.21913 0.003,-0.008 -0.0082,-0.0112 -0.04014,-0.0112 -0.05234,0 -0.03413,-0.0219 -0.2481797,0.29662 -0.075306,0.112 -0.138111,0.20511 -0.1395589,0.20687 -0.00268,0.003 -0.034624,-0.0156 -0.073697,-0.0387 -0.06542,-0.0386 -0.07026,-0.0435 -0.061271,-0.0608 0.00547,-0.0103 0.05704,-0.103 0.1148193,-0.20591 0.057803,-0.10289 0.105072,-0.19255 0.1050441,-0.19922 -2.68e-5,-0.0113 -0.2437836,-0.16782 -0.2712797,-0.17437 -0.0065,-0.003 -0.012013,-0.004 -0.012013,-0.006 0,-0.003 0.018019,-0.0475 0.039867,-0.10207 0.021848,-0.0545 0.039836,-0.10072 0.039836,-0.10268 0,-0.0123 -0.023757,2e-5 -0.031456,0.0164 -0.00516,0.0109 -0.070095,0.1368 -0.1443918,0.27977 -0.074326,0.14297 -0.1338787,0.26101 -0.1323772,0.26229 0.00268,0 0.048577,0.0329 0.1045808,0.0704 0.056008,0.0374 0.1088945,0.0763 0.1175232,0.0865 0.00877,0.0103 0.017204,0.0169 0.018845,0.015 0.015842,-0.0177 0.1381925,-0.27513 0.1340428,-0.28187 -0.0063,-0.0104 -0.174401,-0.12612 -0.1777045,-0.12249 0,0 -0.026492,0.0539 -0.056358,0.11675 -0.029763,0.0628 -0.056142,0.11231 -0.058598,0.10985 -0.00495,-0.005 0.057422,-0.14909 0.107748,-0.249 0.027441,-0.0545 0.033035,-0.061 0.038969,-0.045 0.00382,0.0103 0.013654,0.0213 0.021569,0.0242 0.00815,0.003 0.051632,0.0296 0.096803,0.0588 l 0.082056,0.0531 -0.084946,0.16616 c -0.04672,0.0913 -0.089373,0.1735 -0.094719,0.18248 -0.00898,0.0151 -0.021301,0.008 -0.1461113,-0.0744 -0.074976,-0.0499 -0.1721893,-0.11946 -0.216014,-0.15457 -0.04481,-0.0359 -0.1533477,-0.1057 -0.2479065,-0.15944 -0.092541,-0.0526 -0.1701954,-0.0973 -0.172598,-0.0995 -0.00464,-0.004 0.063015,-0.13849 0.1855127,-0.36862 0.041178,-0.0774 0.076318,-0.13648 0.078041,-0.13129 0.00268,0.005 -0.034428,0.0804 -0.080384,0.16711 -0.1468491,0.27704 -0.1683657,0.323 -0.1551775,0.33176 0.022395,0.0148 0.2907219,0.16675 0.2945724,0.16675 0.00578,0 0.2794718,-0.54218 0.2794718,-0.55345 0,-0.008 -0.304812,-0.16451 -0.3199383,-0.16394 -0.00299,1.1e-4 -0.00795,0.008 -0.010382,0.0186 -0.00464,0.0174 -0.00599,0.0174 -0.03159,0.004 -0.018845,-0.0103 -0.052045,-0.0139 -0.1124983,-0.0139 -0.084646,0 -0.08607,0 -0.1183148,0.0294 -0.029,0.0262 -0.038907,0.0297 -0.089424,0.0316 -0.031208,0 -0.057236,0.003 -0.057783,0.004 -0.042457,0.0711 -0.3025994,0.49508 -0.3253451,0.53025 l -0.032581,0.0505 0.050868,0.0387 c 0.064305,0.0489 0.5332764,0.36657 0.8123385,0.55023 0.1168958,0.0769 0.2902038,0.19103 0.3851723,0.25361 0.094966,0.0625 0.1750284,0.114 0.1779222,0.11424 0.00299,2.5e-4 0.037762,-0.0455 0.077494,-0.10155 z m -0.6134993,-0.62874 c -0.0096,-0.007 -0.012838,-0.0131 -0.00764,-0.0131 0.00516,0 0.014469,0.006 0.020475,0.0134 0.013654,0.0166 0.0096,0.0166 -0.012828,0 z m -0.7052748,-0.35678 c 0.00764,-0.0141 0.082076,-0.13699 0.2197283,-0.36236 0.021569,-0.0353 0.041291,-0.0642 0.04383,-0.0642 0.00516,0 -0.022116,0.0478 -0.09123,0.15939 -0.025666,0.0414 -0.074842,0.12208 -0.1094404,0.17931 -0.034573,0.0572 -0.064821,0.10404 -0.067195,0.10404 -0.00268,0 0,-0.007 0.00433,-0.0161 z m 7.2171487,0.78101 c 0.521748,-0.34616 0.956269,-0.64016 0.956269,-0.64704 0,0 -0.03251,-0.0532 -0.07224,-0.11537 -0.03973,-0.0622 -0.112088,-0.17885 -0.160799,-0.25921 -0.143822,-0.2372 -0.129787,-0.22136 -0.195836,-0.22136 -0.05274,0 -0.058,-0.003 -0.08679,-0.0316 l -0.03075,-0.0317 -0.09206,0.0106 c -0.05067,0.006 -0.102789,0.0161 -0.115947,0.0229 -0.03189,0.0164 -0.03364,0.0158 -0.03364,-0.0103 0,-0.0123 -0.0031,-0.0221 -0.0052,-0.0221 -0.01063,0 -0.304621,0.15264 -0.304425,0.15813 8.2e-5,0.003 0.04396,0.0913 0.09752,0.19605 0.05356,0.10472 0.116216,0.22822 0.13923,0.27451 0.02291,0.0462 0.04273,0.0856 0.04365,0.0873 0.0031,0.003 0.02652,-0.0103 0.179777,-0.0997 0.05604,-0.0327 0.105215,-0.0629 0.109363,-0.067 0.0041,-0.004 -0.02209,-0.0627 -0.05851,-0.13006 -0.125081,-0.23217 -0.195093,-0.36873 -0.186279,-0.36327 0.0093,0.006 0.08431,0.13781 0.168889,0.2982 0.02952,0.056 0.06491,0.12258 0.07874,0.14794 0.03013,0.0555 0.04273,0.0422 -0.138766,0.14532 -0.143956,0.0817 -0.194907,0.11564 -0.265631,0.17678 -0.04159,0.0359 -0.32229,0.22948 -0.332857,0.22948 -0.0031,0 -0.0031,-0.005 -0.0031,-0.0113 -2.1e-5,-0.006 -0.03984,-0.0863 -0.08834,-0.17825 -0.04851,-0.092 -0.08659,-0.17003 -0.08442,-0.17353 0.0031,-0.003 0.04572,-0.0319 0.0968,-0.0631 0.05109,-0.0312 0.09309,-0.0616 0.09329,-0.0677 1.86e-4,-0.006 0.0031,-0.0109 0.0072,-0.0109 0.0072,1.3e-4 0.144441,0.2829 0.143543,0.29651 0,0.005 -0.02652,-0.0422 -0.058,-0.10464 -0.03158,-0.0624 -0.0612,-0.11225 -0.06574,-0.11069 -0.0227,0.007 -0.168044,0.11706 -0.168044,0.12634 0,0.006 0.01827,0.0443 0.04046,0.0852 0.02208,0.041 0.04634,0.0885 0.05356,0.10557 0.0072,0.0169 0.01909,0.0399 0.02621,0.0508 l 0.0128,0.0196 0.03808,-0.0287 c 0.02105,-0.0158 0.07255,-0.0506 0.114688,-0.0773 0.04211,-0.0267 0.07678,-0.0526 0.07689,-0.0575 0,-0.0103 -0.252597,-0.49931 -0.277882,-0.53792 -0.02209,-0.0335 -0.03468,-0.0307 -0.01909,0.004 0.0072,0.0158 0.02755,0.0624 0.04572,0.10359 0.01909,0.0435 0.02921,0.0761 0.02374,0.0779 -0.0052,0.003 -0.06956,0.0428 -0.143275,0.0914 l -0.133956,0.0883 0.02157,0.0374 c 0.01197,0.0204 0.05748,0.10114 0.101241,0.17905 0.04376,0.0779 0.08772,0.1546 0.09763,0.17044 l 0.01806,0.0288 -0.02838,0.0142 c -0.01558,0.008 -0.04933,0.0284 -0.07493,0.0457 -0.0257,0.0174 -0.04778,0.0298 -0.04943,0.0279 -0.0031,-0.003 -0.06512,-0.0961 -0.141035,-0.20892 -0.07596,-0.11288 -0.153183,-0.22543 -0.171615,-0.25014 -0.0323,-0.0432 -0.03509,-0.0449 -0.07689,-0.0449 -0.03715,0 -0.04252,0.003 -0.03757,0.0151 0.0041,0.0109 0.349979,0.5363 0.374303,0.56876 0.0031,0.003 0.03767,-0.0199 0.08019,-0.0492 0.04252,-0.0292 0.09722,-0.0645 0.121593,-0.0784 0.02435,-0.0139 0.117959,-0.0737 0.208065,-0.13267 0.09009,-0.059 0.169788,-0.11048 0.177074,-0.11436 0.06636,-0.0352 -0.274331,0.19567 -0.434862,0.29473 -0.160809,0.0992 -0.26462,0.17127 -0.26462,0.18363 0,0.0136 0.01889,0.0161 0.03148,0.004 0.01125,-0.0106 0.286767,-0.18475 0.398008,-0.25135 0.04871,-0.0292 0.09753,-0.0588 0.108455,-0.0661 0.03622,-0.0237 0.01992,0.003 -0.01806,0.0283 -0.07967,0.0555 -0.272072,0.18172 -0.364912,0.23928 -0.132676,0.0822 -0.126835,0.0744 -0.09154,0.12254 0.01641,0.0221 0.04943,0.0684 0.07379,0.10269 0.03003,0.0423 0.04851,0.0609 0.05759,0.0577 0.0072,-0.003 0.214484,-0.13822 0.460425,-0.30137 z m 0.703332,-0.86841 c -0.0934,-0.14857 -0.207085,-0.33992 -0.198808,-0.33485 0.0041,0.003 0.05026,0.0753 0.102685,0.16176 0.05243,0.0864 0.110891,0.18036 0.129973,0.20873 0.01909,0.0284 0.03282,0.0535 0.03055,0.0558 -0.0031,0.003 -0.03127,-0.0388 -0.0644,-0.0914 z m -3.778212,1.01844 c 0.07678,-0.0569 0.199417,-0.14774 0.272463,-0.202 0.07307,-0.0543 0.144008,-0.10601 0.157682,-0.11493 l 0.02487,-0.0161 -0.03591,-0.0366 -0.03592,-0.0366 v -0.48718 -0.48719 l -0.0485,-0.0419 -0.0485,-0.0419 -0.0031,0.17501 -0.0031,0.175 -0.172099,0.15297 -0.17211,0.15293 h -0.07843 -0.07843 l -0.121345,-0.1034 c -0.06667,-0.0569 -0.146216,-0.12747 -0.176671,-0.1569 l -0.05532,-0.0536 v -0.16626 c 0,-0.0914 -0.0031,-0.16629 -0.0052,-0.16629 -0.0031,0 -0.02487,0.0166 -0.04871,0.0368 l -0.04365,0.0368 v 0.48419 0.48415 l -0.0355,0.0374 -0.0355,0.0374 0.02456,0.0202 c 0.01342,0.0109 0.08225,0.0615 0.152863,0.11218 0.07059,0.0507 0.184174,0.13413 0.252349,0.18554 0.109941,0.0829 0.163916,0.12203 0.170252,0.12347 0,2.5e-4 0.06481,-0.046 0.141666,-0.10289 z m -0.329049,-0.28337 -0.04046,-0.0458 v -0.0714 -0.0715 h 0.235858 0.235837 l -0.0062,0.0772 c -0.0062,0.0741 -0.0072,0.0787 -0.04149,0.11539 l -0.03519,0.0382 -0.153926,0.003 -0.153925,0.003 z m -0.0742,-0.54578 -0.126597,-0.12681 0.0031,-0.0456 0.0031,-0.0456 0.04427,0.042 c 0.02436,0.0229 0.0901,0.0828 0.146062,0.13258 l 0.10186,0.0906 h 0.09185 0.09175 l 0.08091,-0.0725 c 0.04448,-0.0398 0.109745,-0.10052 0.14505,-0.13483 l 0.06419,-0.0623 v 0.0496 0.0496 l -0.126175,0.12482 -0.126185,0.12481 -0.132914,1.6e-4 -0.132955,1.7e-4 z m 3.98537,0.75384 c 0.01827,-0.0109 0.03509,-0.0279 0.03715,-0.0378 0.0083,-0.039 0.01424,-0.1288 0.0093,-0.1288 -0.0031,0 -0.029,0.0161 -0.058,0.0357 -0.04654,0.0316 -0.05263,0.0391 -0.05263,0.0651 0,0.0161 -0.0031,0.0488 -0.0062,0.0726 l -0.0062,0.0431 0.02126,-0.015 c 0.01177,-0.008 0.03643,-0.024 0.0549,-0.0349 z m -7.3934841,-0.027 c -0.00268,-0.0305 -0.00846,-0.0625 -0.013107,-0.0714 -0.00764,-0.0148 -0.082706,-0.068 -0.096009,-0.068 -0.0098,0 0.014748,0.13611 0.025119,0.13955 0.00516,0.003 0.024851,0.0148 0.043335,0.0286 0.018566,0.0139 0.036368,0.0257 0.039568,0.0259 0.0033,0 0.00351,-0.0244 0,-0.0547 z m 1.1728259,-0.12176 c 0.024304,-0.0414 0.076101,-0.12705 0.1148742,-0.19038 0.232042,-0.3788 0.265764,-0.43828 0.24848,-0.43828 -0.01392,0 -0.06802,0.0702 -0.18677,0.24248 -0.11815,0.17139 -0.2804539,0.42246 -0.280427,0.43383 2.78e-5,0.012 0.046534,0.0405 0.054067,0.0329 0.00299,-0.003 0.025398,-0.0392 0.049774,-0.0806 z m 5.0711022,0.0694 c 0.01228,-0.006 0.0227,-0.0166 0.0224,-0.0243 0,-0.0224 -0.341341,-0.52648 -0.427876,-0.63201 -0.08421,-0.10279 -0.03416,-0.005 0.162327,0.3169 0.167765,0.27486 0.214402,0.34973 0.217735,0.34973 0.0031,0 0.0128,-0.005 0.02539,-0.0103 z m -1.371482,-0.38817 c 0.03478,-0.0317 0.10021,-0.0911 0.14535,-0.13221 0.06956,-0.0633 0.07947,-0.0756 0.06522,-0.0809 -0.0093,-0.003 -0.02209,-0.0126 -0.02879,-0.0204 -0.0062,-0.008 -0.01496,-0.0142 -0.01878,-0.0142 -0.0083,0 -0.181997,0.15498 -0.280648,0.24989 l -0.06419,0.0617 0.02374,0.0251 0.02374,0.0251 0.0356,-0.0282 c 0.01961,-0.0156 0.06409,-0.0541 0.09887,-0.0858 z m -2.249832,0.08 0.02508,-0.0262 -0.01858,-0.0159 c -0.01032,-0.008 -0.09041,-0.0788 -0.178333,-0.1558 l -0.159874,-0.14002 -0.02878,0.0267 c -0.02512,0.0235 -0.02703,0.0285 -0.01556,0.0389 0.02749,0.0251 0.245501,0.21626 0.292086,0.25616 0.02673,0.0229 0.05098,0.0418 0.05367,0.0419 0.0031,10e-5 0.01641,-0.0118 0.03013,-0.0259 z m 0.1818,-0.0981 c 0,-0.009 -0.459964,-0.42469 -0.469275,-0.42412 -0.0071,0 -0.141661,0.18232 -0.141661,0.19144 0,0.005 0.0043,0.0128 0.01011,0.0183 0.0073,0.007 0.0172,1.4e-4 0.03763,-0.0281 0.0153,-0.021 0.03962,-0.0543 0.05423,-0.0743 0.01447,-0.0199 0.03159,-0.0364 0.03776,-0.0366 0.02321,0 0.418237,0.37289 0.418237,0.39557 0,0.0112 0.0062,0.008 0.02652,-0.0106 0.01476,-0.0139 0.02652,-0.0282 0.02652,-0.0315 z m 1.770873,0.0465 c 0,-0.008 0.197828,-0.20536 0.287768,-0.28665 0.03406,-0.0308 0.07534,-0.0689 0.09164,-0.0847 0.01641,-0.0159 0.03426,-0.0288 0.03994,-0.0288 0.01032,0 0.102995,0.11518 0.112118,0.1389 0.0041,0.0103 0.0072,0.0103 0.02043,0 0.01476,-0.0109 0.01228,-0.0166 -0.03561,-0.083 -0.02838,-0.0392 -0.06233,-0.0849 -0.07565,-0.10145 l -0.02405,-0.0301 -0.05119,0.0493 c -0.02817,0.027 -0.128858,0.11971 -0.223824,0.2057 -0.09495,0.086 -0.178065,0.16266 -0.18467,0.17039 -0.01042,0.012 -0.0093,0.0172 0.0083,0.0356 0.02023,0.0216 0.03478,0.0276 0.03478,0.0145 z m -1.522941,-0.45266 v -0.44211 l -0.117278,-0.0958 c -0.146898,-0.11999 -0.17049,-0.13866 -0.312155,-0.24657 -0.263227,-0.20053 -0.309345,-0.23443 -0.319175,-0.23443 -0.01638,0 -0.117031,0.11207 -0.276277,0.30725 l -0.0465,0.057 v 0.1273 0.12733 l 0.06419,0.0489 c 0.03531,0.027 0.145894,0.10942 0.245722,0.18339 0.09983,0.074 0.231295,0.17449 0.292195,0.22341 0.06089,0.0489 0.14054,0.11289 0.177073,0.14207 0.121861,0.0974 0.269966,0.22208 0.277149,0.2333 0.0041,0.006 0.0093,0.0113 0.01125,0.0113 0.0031,0 0.0041,-0.19895 0.0041,-0.44208 z m -0.31104,-0.23786 -0.08525,-0.0683 -0.05821,-0.15602 c -0.03199,-0.0858 -0.06079,-0.16632 -0.06388,-0.17891 -0.0031,-0.0126 -0.02023,-0.0338 -0.03808,-0.0473 -0.01775,-0.0134 -0.07719,-0.0616 -0.131975,-0.10706 -0.09068,-0.0752 -0.113151,-0.0995 -0.0921,-0.0995 0.0088,0 0.136092,0.0949 0.231544,0.17259 0.03653,0.0297 0.106246,0.0863 0.154968,0.12563 0.04871,0.0394 0.105235,0.087 0.125596,0.10585 l 0.03705,0.0342 0.0072,0.14389 c 0.0041,0.0792 0.0052,0.14374 0.0031,0.14355 -0.0031,-1.9e-4 -0.04283,-0.0311 -0.08968,-0.0686 z m 1.695535,0.55313 c 0.274755,-0.2296 0.453903,-0.36989 0.791456,-0.61981 l 0.11733,-0.0869 0.0031,-0.0902 c 0.0031,-0.19007 0.01032,-0.17047 -0.105926,-0.30664 -0.156733,-0.18366 -0.19919,-0.23071 -0.208251,-0.23071 -0.01723,0 -0.414315,0.3017 -0.632535,0.48063 l -0.117165,0.0961 -0.0031,0.44214 c 0,0.24319 0,0.44216 0,0.44216 0.0031,0 0.07152,-0.0571 0.154957,-0.1268 z m 0.0676,-0.62683 0.0041,-0.1427 0.04242,-0.0384 c 0.138332,-0.12514 0.50024,-0.40451 0.51346,-0.39635 0.01032,0.006 -0.01527,0.0291 -0.169055,0.15352 l -0.09309,0.0753 -0.02436,0.0708 c -0.01342,0.0389 -0.04221,0.11824 -0.06399,0.17626 l -0.03963,0.10548 -0.08525,0.0693 c -0.04685,0.0382 -0.08617,0.0695 -0.08731,0.0695 0,0 -1.65e-4,-0.0642 0.0031,-0.1427 z m 0.980222,0.3977 0.02921,-0.0283 v -0.32414 -0.32414 l -0.02962,-0.0287 -0.02962,-0.0287 -0.0062,0.0947 c -0.0072,0.127 -0.0072,0.66754 0,0.66754 0.0031,0 0.0194,-0.0128 0.0354,-0.0283 z m -3.593519,-0.35682 c -0.0027,-0.20695 -0.005,-0.37628 -0.0071,-0.37631 -0.0027,-2e-5 -0.01911,0.0148 -0.03763,0.0327 l -0.03358,0.0328 v 0.30994 0.30995 l 0.0328,0.0335 c 0.01802,0.0186 0.03637,0.0336 0.04076,0.0336 0.0046,0 0.0065,-0.15602 0.005,-0.37629 z m 1.927086,0.17035 c 0.07307,-0.0578 0.145784,-0.11662 0.161594,-0.1308 l 0.02879,-0.0257 v -0.36332 -0.36331 H 12.456077 12.11517 v 0.3656 0.36557 l 0.03767,0.0314 c 0.168157,0.14033 0.299956,0.23833 0.311319,0.23147 0.0052,-0.003 0.06946,-0.053 0.142449,-0.11086 z m -0.254702,-0.0492 -0.103904,-0.0767 v -0.34323 -0.34323 h 0.208097 0.208065 v 0.34454 0.34454 l -0.09453,0.0693 c -0.05201,0.0382 -0.09887,0.0721 -0.104203,0.0753 -0.0052,0.003 -0.05635,-0.0286 -0.113501,-0.0707 z m -1.966328,-0.22831 0.0027,-0.0275 -0.171396,-0.005 c -0.164844,-0.004 -0.172517,-0.006 -0.200614,-0.027 -0.01611,-0.012 -0.1228479,-0.0785 -0.2372854,-0.14784 -0.1144375,-0.0692 -0.2097331,-0.12745 -0.2117817,-0.12939 -0.00268,-0.003 -0.011197,-0.05 -0.020207,-0.10701 -0.00898,-0.057 -0.017472,-0.10425 -0.018566,-0.10513 0,0 -0.1015816,-0.0523 -0.2233052,-0.11449 -0.1217545,-0.0621 -0.2811375,-0.1438 -0.3541797,-0.18156 -0.073046,-0.0378 -0.2374212,-0.12156 -0.3652378,-0.18619 -0.1278445,-0.0646 -0.2324252,-0.12186 -0.2324252,-0.12719 0,-0.0109 0.066514,-0.23808 0.1105055,-0.37722 0.01611,-0.0512 0.046554,-0.15406 0.067494,-0.22869 l 0.038123,-0.13573 -0.035037,-0.0299 c -0.041776,-0.0358 -0.044996,-0.0364 -0.050435,-0.0106 -0.00268,0.0109 -0.05254,0.19273 -0.1115974,0.4039 -0.059062,0.21122 -0.1053712,0.38723 -0.1029439,0.39116 0.00815,0.0131 0.1449378,0.0839 0.6461308,0.33433 l 0.4958408,0.24782 0.028019,0.14421 c 0.023478,0.12139 0.031291,0.14681 0.048711,0.16079 0.021848,0.0174 0.3178361,0.2146 0.392544,0.26134 l 0.044263,0.0277 0.2302392,-0.003 0.230213,-0.003 z m 4.614252,0.0169 c 0.06461,-0.0398 0.161377,-0.10259 0.295416,-0.19123 l 0.147444,-0.0975 0.02322,-0.12488 c 0.0128,-0.0687 0.02539,-0.13556 0.02797,-0.14862 0.0041,-0.0211 0.0321,-0.0375 0.236663,-0.14078 0.127537,-0.0644 0.291649,-0.1477 0.364695,-0.18511 0.07307,-0.0375 0.225455,-0.11525 0.338668,-0.17292 0.113233,-0.0577 0.205856,-0.10952 0.205856,-0.11523 0,-0.0142 -0.219758,-0.79006 -0.226414,-0.79942 -0.0062,-0.008 -0.074,0.0495 -0.07431,0.0631 0,0.0211 0.0323,0.13772 0.101241,0.36031 0.09319,0.30108 0.113946,0.37183 0.110148,0.37545 -0.0031,0.003 -0.08535,0.0444 -0.185155,0.0943 -0.0998,0.0499 -0.247251,0.12547 -0.327614,0.16783 -0.0804,0.0423 -0.193896,0.10206 -0.25236,0.13273 -0.05841,0.0307 -0.126144,0.0666 -0.150499,0.0798 -0.02436,0.0131 -0.09113,0.0488 -0.148332,0.0792 -0.05717,0.0303 -0.104358,0.0558 -0.104771,0.0566 0,0 -0.0072,0.0489 -0.01579,0.10679 l -0.01507,0.10532 -0.190119,0.11318 c -0.104616,0.0622 -0.215558,0.12941 -0.246549,0.14925 -0.05243,0.0335 -0.06079,0.036 -0.119539,0.0361 -0.03478,3e-5 -0.10797,0.003 -0.16277,0.006 l -0.09959,0.006 v 0.0296 0.0296 h 0.221667 c 0.191987,0 0.224888,-0.003 0.245724,-0.0148 z m 0.754313,-0.13557 c 0.03911,-0.0196 0.071,-0.0369 0.071,-0.0385 0,-0.008 -0.02879,-0.0857 -0.03168,-0.0857 -0.01393,0 -0.210191,0.10333 -0.21371,0.11252 -0.0031,0.006 -0.0031,0.0292 0.0031,0.0507 l 0.0062,0.0391 0.04799,-0.0213 c 0.02652,-0.0118 0.08009,-0.0374 0.119105,-0.057 z m -6.4280739,0.0405 c 0,-0.0166 0.00268,-0.0359 0.00464,-0.0427 0.00351,-0.009 -0.030692,-0.0294 -0.1202261,-0.0723 -0.068753,-0.0329 -0.1260962,-0.0585 -0.1274348,-0.0569 -0.00268,0.003 -0.00877,0.0221 -0.016657,0.0452 l -0.014201,0.0422 0.072551,0.0366 c 0.087433,0.0442 0.1643522,0.0763 0.185459,0.0774 0.011744,0 0.015563,-0.006 0.015563,-0.0295 z m -0.7072665,-0.10259 c 0.024572,-0.0194 0.050621,-0.0387 0.0577,-0.0426 0.016388,-0.009 0.035037,-0.0912 0.042488,-0.18756 0.0033,-0.0414 0.00795,-0.0878 0.010651,-0.10332 0.00464,-0.027 0.00268,-0.0294 -0.064522,-0.0686 l -0.069414,-0.0407 -0.0063,0.0232 c -0.0098,0.0369 -0.028019,0.45493 -0.01966,0.45493 0.00268,0 0.024304,-0.0158 0.049062,-0.0354 z m 7.7105054,-0.0996 c 0,-0.12577 -0.01311,-0.30573 -0.02209,-0.33274 -0.0031,-0.008 -0.02539,-2.2e-4 -0.08143,0.0299 -0.04262,0.0229 -0.08029,0.0442 -0.08359,0.0472 -0.0031,0.003 0.0031,0.045 0.01094,0.0934 0.01445,0.074 0.02291,0.0964 0.05428,0.14167 0.03777,0.0546 0.11602,0.1555 0.120715,0.15555 0.0031,3e-5 0.0031,-0.0607 0,-0.135 z m -7.3751126,0.0227 v -0.0667 l -0.024304,0.0161 c -0.013375,0.008 -0.035553,0.0216 -0.049258,0.0285 -0.025666,0.0128 -0.041477,0.0415 -0.041508,0.0754 -2.69e-5,0.0183 0.0033,0.0191 0.057535,0.0164 l 0.057587,-0.003 z m 7.1131146,0.0371 c -0.0083,-0.0254 -0.01889,-0.0399 -0.02828,-0.04 -0.0083,-10e-5 -0.03788,-0.0103 -0.06636,-0.0216 l -0.0516,-0.0213 0.0062,0.0458 c 0.01032,0.0804 0.0062,0.0768 0.08421,0.0768 h 0.06966 z m -5.653143,-0.0685 c 0.03457,-0.0523 0.09145,-0.14193 0.12637,-0.19922 0.03492,-0.0573 0.120608,-0.19086 0.190373,-0.29689 l 0.126889,-0.19272 -0.05971,-0.0639 c -0.15616,-0.16697 -0.270571,-0.28493 -0.469246,-0.48383 l -0.215659,-0.2159 -0.03102,-0.28879 c -0.01693,-0.15883 -0.03375,-0.2912 -0.03713,-0.29419 -0.01256,-0.0109 -0.7165503,-0.15014 -0.9105286,-0.18002 l -0.089786,-0.0139 -0.1005909,0.0676 c -0.055347,0.0372 -0.1279529,0.0888 -0.1613748,0.11471 -0.033396,0.0259 -0.065285,0.049 -0.070828,0.0513 -0.00712,0.003 -0.0065,0.006 0.00268,0.0126 0.010114,0.007 0.1964634,0.0696 0.4353047,0.146 l 0.06641,0.0213 0.043004,-0.0362 0.043004,-0.0362 -0.038587,-0.0118 c -0.021301,-0.006 -0.1136728,-0.0311 -0.2054472,-0.0547 -0.091798,-0.0237 -0.169021,-0.0452 -0.1716423,-0.0478 -0.00795,-0.008 0.080466,-0.0843 0.097866,-0.0846 0.015295,0 0.4406288,0.0935 0.5322938,0.11749 l 0.043716,0.0115 -0.074708,0.0579 c -0.1912487,0.14806 -0.1959175,0.15101 -0.2295583,0.14479 -0.017204,-0.003 -0.1127718,-0.0318 -0.2126001,-0.0637 -0.099858,-0.0319 -0.2336811,-0.0736 -0.2974393,-0.0928 l -0.1159391,-0.0349 -0.066627,0.0471 -0.066648,0.0471 -0.00382,0.062 c -0.00433,0.0701 -0.00495,0.0694 0.070198,0.10663 0.041394,0.0204 0.046503,0.0262 0.046637,0.0512 8.15e-5,0.0156 0.00599,0.0659 0.012828,0.11225 l 0.012838,0.0841 -0.048144,0.13282 c -0.026492,0.0731 -0.073727,0.19991 -0.1050172,0.28188 l -0.056875,0.14905 0.2005316,0.0989 c 0.1785507,0.088 0.284633,0.13497 0.284633,0.12593 0,-0.003 -0.019939,-0.0158 -0.044294,-0.0315 -0.024304,-0.0156 -0.044263,-0.0299 -0.044263,-0.0318 0,-0.004 0.077628,-0.22234 0.1241581,-0.34896 0.031043,-0.0845 0.032849,-0.094 0.01966,-0.10406 -0.019392,-0.0148 -0.037627,-0.0139 -0.037627,0.003 0,0.007 -0.032333,0.10268 -0.071839,0.21248 -0.059145,0.16436 -0.07479,0.19966 -0.088547,0.19966 -0.010372,0 -0.016657,-0.006 -0.016657,-0.0161 0,-0.008 0.03126,-0.10349 0.069465,-0.21028 0.038226,-0.10682 0.072035,-0.2046 0.075121,-0.21727 0.00547,-0.0221 0,-0.0254 -0.096742,-0.0731 l -0.102366,-0.05 0.00599,-0.0274 c 0.00846,-0.0385 0.07348,-0.24573 0.081695,-0.26044 0.00547,-0.0103 0.016657,-0.008 0.059826,0.0103 0.029186,0.012 0.1188071,0.0484 0.1991663,0.0807 0.080332,0.0323 0.1542498,0.064 0.1642428,0.0704 0.016657,0.0106 0.019392,0.0288 0.033892,0.22648 0.00877,0.11818 0.016378,0.22082 0.017472,0.22811 0,0.007 0.023489,0.0262 0.049857,0.0421 0.032767,0.0196 0.042292,0.0288 0.029794,0.0288 -0.017204,0 -0.019113,0.008 -0.029681,0.13022 l -0.011197,0.13019 0.040661,0.0368 c 0.022395,0.0202 0.071736,0.056 0.1097677,0.0796 0.146685,0.0907 0.2844967,0.18565 0.3524593,0.24275 0.08443,0.0709 0.2655745,0.21397 0.3276125,0.25872 0.04549,0.0328 0.219701,0.14035 0.222405,0.13729 0,0 0.02979,-0.0445 0.06436,-0.0968 z m -0.153949,-0.11235 c -0.180353,-0.10794 -0.5979087,-0.35345 -0.7393511,-0.43471 -0.070611,-0.0406 -0.1398035,-0.0816 -0.1537575,-0.0912 l -0.025398,-0.0174 0.00578,-0.0806 c 0.0033,-0.0443 0.00815,-0.10279 0.010919,-0.13002 l 0.00516,-0.0495 0.2181709,0.12522 c 0.1199805,0.0688 0.2420633,0.13937 0.2712797,0.15665 0.029217,0.0172 0.164707,0.0972 0.301071,0.17757 0.235183,0.13863 0.360051,0.21228 0.365457,0.21552 0.003,0.003 -0.06233,0.11026 -0.09712,0.16116 -0.0142,0.0207 -0.0305,0.0374 -0.03635,0.0369 -0.0058,0 -0.06245,-0.0317 -0.125743,-0.0696 z m 0.194798,-0.40459 c -0.259021,-0.14781 -0.287773,-0.16503 -0.287773,-0.17252 0,-0.005 0.07066,-0.11422 0.08445,-0.13033 0.0027,-0.003 0.345552,0.23382 0.41742,0.28737 l 0.02817,0.0211 -0.03121,0.0465 c -0.0172,0.0257 -0.03184,0.0471 -0.0326,0.0478 0,0 -0.08107,-0.0442 -0.178469,-0.0997 z m -1.1291378,-0.46599 c -0.010919,-0.12799 -0.025666,-0.32682 -0.025666,-0.3431 2.735e-4,-0.0199 0,-0.0205 0.00733,-0.004 0.00382,0.0103 0.011744,0.0835 0.017751,0.16381 0.00578,0.0804 0.011744,0.15506 0.013385,0.16601 0.00268,0.0109 0,0.0199 -0.00495,0.0199 -0.00413,0 -0.00764,0 -0.00795,-0.003 z m 0.261396,-0.0555 c -0.04868,-0.031 -0.09347,-0.0654 -0.099476,-0.0768 -0.00795,-0.0148 -0.011197,-0.0897 -0.011466,-0.26841 0,-0.13636 -0.00382,-0.28976 -0.00795,-0.34091 -0.0065,-0.0854 -0.00578,-0.0945 0.0098,-0.11179 0.025945,-0.0286 0.1392576,-0.10444 0.1459482,-0.0977 0.0033,0.003 0.00413,0.007 0.00268,0.008 -0.00268,0.003 -0.027029,0.0224 -0.055781,0.0465 l -0.052127,0.0436 0.00578,0.0975 c 0.00929,0.15739 0.033964,0.46908 0.037514,0.47298 0.00268,0.003 0.023478,-0.009 0.048195,-0.0244 0.043417,-0.027 0.07026,-0.0351 0.070425,-0.0213 5.47e-5,0.003 0.03383,0.0346 0.07509,0.0686 l 0.075007,0.062 1.64e-4,0.0807 1.91e-4,0.0807 -0.040001,0.005 c -0.022116,0.003 -0.051694,0.0114 -0.065967,0.0189 -0.014201,0.007 -0.031157,0.0131 -0.037493,0.0126 -0.0063,0 -0.051333,-0.0259 -0.100044,-0.057 z m -0.2872264,-0.32304 c 0,-0.007 -0.0033,-0.0312 -0.00516,-0.0532 l -0.0033,-0.0398 0.00877,0.0354 c 0.00464,0.0194 0.00712,0.0433 0.00516,0.0531 -0.00268,0.0109 -0.00433,0.0126 -0.00547,0.004 z m -0.3015901,-0.37706 c -0.3045107,-0.11545 -0.3192283,-0.12123 -0.3161426,-0.12431 0.00464,-0.005 0.5317748,0.18223 0.5413313,0.19176 0.021022,0.021 -0.03899,0.003 -0.2251887,-0.0675 z m 1.0462103,0.0494 c 0,-0.0121 0.0027,-0.0172 0.0043,-0.0113 0.0027,0.006 0.0027,0.0161 0,0.0221 -0.0027,0.006 -0.0043,0 -0.0043,-0.0111 z m -0.0073,-0.0974 c 0,-0.0365 0.0027,-0.0515 0.0035,-0.0332 0.0027,0.0183 0.0027,0.0482 0,0.0665 -0.0027,0.0183 -0.0035,0.003 -0.0035,-0.0332 z m -0.009,-0.1284 c 2.8e-5,-0.0342 0.0027,-0.047 0.0035,-0.0286 0.0027,0.0183 0.0027,0.0462 -5.4e-5,0.062 -0.0027,0.0156 -0.0035,0 -0.0035,-0.0334 z M 9.4897408,301.2183 c -0.038969,-0.008 -0.060868,-0.0161 -0.04868,-0.0164 0.012291,0 0.052014,0.007 0.088527,0.0158 0.084811,0.0211 0.053768,0.0213 -0.039836,0 z m 5.2550772,2.02066 c 0.07988,-0.055 0.160964,-0.11784 0.309884,-0.24023 0.112036,-0.0921 0.184567,-0.14384 0.332589,-0.23756 0.160366,-0.10155 0.209108,-0.13779 0.218344,-0.16236 0.0083,-0.0219 -0.01806,-0.24957 -0.02951,-0.25664 -0.0041,-0.003 0.0072,-0.0158 0.02652,-0.0286 0.0387,-0.0257 0.03705,-0.0191 0.04974,-0.20544 0.0031,-0.039 0.0093,-0.11946 0.01476,-0.17888 l 0.01032,-0.10805 0.09845,-0.0414 c 0.149818,-0.063 0.317015,-0.12773 0.32941,-0.12773 0.01032,0 0.08359,0.20582 0.09639,0.27043 0.0052,0.0267 0.0052,0.027 -0.0968,0.0743 -0.05614,0.0262 -0.10217,0.0501 -0.10217,0.0533 0,0.0112 0.06037,0.18349 0.109714,0.31317 0.02745,0.0721 0.04768,0.13494 0.04489,0.13947 -0.01125,0.0181 -0.0322,0.006 -0.04572,-0.0249 -0.0083,-0.0183 -0.04314,-0.11278 -0.07843,-0.21004 -0.0354,-0.0972 -0.0678,-0.178 -0.07204,-0.17943 -0.0041,-0.003 -0.01496,0.003 -0.02353,0.009 -0.01476,0.0109 -0.01311,0.0189 0.02962,0.13515 0.02487,0.068 0.05882,0.15746 0.07534,0.19886 0.03942,0.0991 0.04448,0.12124 0.03106,0.13735 -0.0062,0.007 -0.0072,0.0131 -0.0031,0.0131 0.01641,0 0.400661,-0.196 0.400661,-0.20438 0,-0.005 -0.02652,-0.077 -0.05862,-0.16097 -0.0322,-0.0839 -0.07843,-0.2084 -0.102686,-0.27657 l -0.04407,-0.12397 0.0093,-0.0708 c 0.0052,-0.039 0.0093,-0.087 0.0093,-0.10678 0,-0.0358 0,-0.0361 0.06657,-0.0707 0.04407,-0.0229 0.06502,-0.0388 0.06192,-0.0466 -0.0031,-0.006 -0.0052,-0.033 -0.0052,-0.0588 v -0.047 l -0.07286,-0.053 c -0.05201,-0.0379 -0.07668,-0.0509 -0.08628,-0.0456 -0.0072,0.004 -0.08524,0.0298 -0.172914,0.0573 -0.08762,0.0275 -0.213711,0.0671 -0.280152,0.0882 -0.188241,0.0598 -0.173194,0.0602 -0.258201,-0.005 -0.03994,-0.0308 -0.100416,-0.0779 -0.134338,-0.10485 l -0.06182,-0.0489 0.137021,-0.0331 c 0.225238,-0.0545 0.413891,-0.0958 0.435492,-0.0953 0.01145,2.1e-4 0.04138,0.0194 0.06842,0.0434 l 0.04809,0.0431 -0.03488,0.008 c -0.01909,0.004 -0.08266,0.0196 -0.141087,0.0328 -0.09815,0.0224 -0.242958,0.0637 -0.251617,0.0718 -0.0072,0.007 0.06626,0.0647 0.08328,0.065 0.01032,1.9e-4 0.04758,-0.009 0.08411,-0.0211 0.03653,-0.0118 0.118228,-0.038 0.181553,-0.0581 0.143739,-0.0457 0.234722,-0.0796 0.234289,-0.0872 0,-0.007 -0.167693,-0.13281 -0.231854,-0.17333 -0.02786,-0.0174 -0.05872,-0.0407 -0.06853,-0.0512 l -0.01775,-0.0191 -0.174968,0.029 c -0.188024,0.0311 -0.593514,0.11124 -0.747646,0.14778 l -0.09453,0.0224 -0.0052,0.0326 c -0.0031,0.0181 -0.01558,0.14904 -0.02848,0.29138 l -0.02374,0.25875 -0.132428,0.13082 c -0.190398,0.18817 -0.608696,0.62074 -0.608696,0.6295 0,0.004 0.05243,0.0868 0.116567,0.18382 0.06409,0.097 0.143193,0.22023 0.175711,0.2738 0.03251,0.0536 0.09381,0.1502 0.136175,0.21473 l 0.07699,0.11735 0.05057,-0.0321 c 0.02776,-0.0178 0.08834,-0.0582 0.134637,-0.09 z m -0.294394,-0.11298 c -0.03292,-0.0514 -0.05975,-0.0962 -0.05975,-0.0996 8.3e-5,-0.008 0.03653,-0.0322 0.194742,-0.12624 0.471354,-0.27999 0.937125,-0.54852 0.951326,-0.54844 0.01032,7e-5 0.01744,0.0724 0.01806,0.1853 v 0.0747 l -0.09298,0.0548 c -0.388204,0.22902 -0.927682,0.54399 -0.93857,0.54799 -0.0093,0.003 -0.03055,-0.0221 -0.07307,-0.0885 z m -0.205403,-0.32563 -0.03189,-0.0455 0.02023,-0.0158 c 0.03137,-0.0249 0.414315,-0.29876 0.417721,-0.29876 0.0031,0 0.02405,0.0303 0.04964,0.0674 0.03695,0.0535 0.04407,0.0691 0.03437,0.0754 -0.0072,0.004 -0.05408,0.0314 -0.105235,0.0599 -0.05119,0.0285 -0.151428,0.0858 -0.222896,0.1274 l -0.129941,0.0756 z m 0.902677,-0.53974 c -0.02921,-0.0103 -0.0581,-0.0191 -0.06419,-0.0207 -0.0083,-0.003 -0.01094,-0.0254 -0.01032,-0.0805 v -0.0778 l 0.08628,-0.0717 0.08628,-0.0718 0.04624,0.0309 c 0.02539,0.0169 0.04799,0.029 0.05026,0.0267 0.0041,-0.004 0.01424,-0.13909 0.03075,-0.4096 l 0.0093,-0.15011 -0.05057,-0.0511 c -0.02787,-0.0282 -0.04809,-0.0536 -0.045,-0.0566 0.0062,-0.006 0.109084,0.0648 0.134348,0.0928 0.01476,0.0161 0.0161,0.0342 0.01527,0.17986 0,0.0891 -0.0041,0.24954 -0.0072,0.35666 l -0.0062,0.19479 -0.104223,0.0642 c -0.05728,0.0353 -0.107495,0.0637 -0.11151,0.063 -0.0041,0 -0.03127,-0.009 -0.06048,-0.0191 z m 0.416347,-0.008 c 0.0031,-0.0159 0.01063,-0.12242 0.0194,-0.23685 0.01961,-0.25911 0.02621,-0.22593 0.01094,0.0553 -0.0083,0.15708 -0.01424,0.21027 -0.0227,0.21027 -0.0072,0 -0.01032,-0.009 -0.0072,-0.0288 z m -0.712289,-0.57847 c 0,-0.0104 0.0031,-0.0126 0.0052,-0.005 0.0031,0.006 0.0031,0.0139 0,0.0169 -0.0031,0.003 -0.0052,-0.003 -0.0041,-0.0118 z m 0.827194,-0.0808 c 0.01476,-0.0143 0.438257,-0.16496 0.444862,-0.15835 0.0062,0.006 -0.366336,0.14674 -0.427142,0.16077 -0.01724,0.004 -0.02353,0.003 -0.01775,-0.003 z m -0.816503,-0.0691 c 5.2e-5,-0.0243 0.0031,-0.0332 0.0041,-0.0199 0.0031,0.0134 0.0031,0.0333 -1.55e-4,0.0443 -0.0031,0.0109 -0.0041,-10e-5 -0.0041,-0.0246 z m 0.0072,-0.0627 c 0,-0.0103 0.0031,-0.0126 0.0052,-0.005 0.0031,0.006 0.0031,0.0139 0,0.0169 -0.0031,0.003 -0.0052,-0.003 -0.0041,-0.0118 z m 0.0031,-0.079 c 2e-5,-0.0342 0.0031,-0.047 0.0031,-0.0286 0.0031,0.0183 0.0031,0.0462 -8.3e-5,0.062 -0.0031,0.0159 -0.0031,0 -0.0031,-0.0334 z m 0.457494,-0.1531 c 0.01579,-0.0103 0.123997,-0.0314 0.129539,-0.0259 0.0031,0.003 -0.01909,0.008 -0.04737,0.0139 -0.02817,0.006 -0.06109,0.0123 -0.07327,0.015 -0.01579,0.003 -0.01827,0.003 -0.0083,-0.003 z m -3.499836,2.06348 c -0.01723,-0.0191 -0.02456,-0.005 0.111489,-0.21479 0.118538,-0.18295 0.129952,-0.20547 0.129952,-0.25648 v -0.0357 h -0.04396 c -0.03994,0 -0.04582,-0.003 -0.06419,-0.0297 -0.02353,-0.0344 -0.144359,-0.17837 -0.320597,-0.38154 -0.0678,-0.0781 -0.144503,-0.16662 -0.170428,-0.1966 l -0.04716,-0.0545 v -0.0828 c 0,-0.11184 -0.01115,-0.25266 -0.01827,-0.25979 -0.0072,-0.007 -0.04954,0.0145 -0.108145,0.0555 -0.02487,0.0174 -0.04623,0.0323 -0.04727,0.0328 0,0 -0.0062,0.0536 -0.01115,0.11796 l -0.0093,0.11709 0.08339,0.13934 c 0.04582,0.0766 0.10412,0.17715 0.129456,0.22344 0.02539,0.0462 0.06688,0.10602 0.09237,0.13281 0.04881,0.0514 0.09722,0.10832 0.193328,0.22746 0.04923,0.061 0.06017,0.0705 0.06925,0.0596 0.0072,-0.009 0.0083,-0.0186 0.0031,-0.0327 -0.01197,-0.0262 -0.160665,-0.21083 -0.218819,-0.27202 -0.03106,-0.0327 -0.07916,-0.10687 -0.146444,-0.22579 -0.05511,-0.0974 -0.11152,-0.19373 -0.12539,-0.21411 -0.02456,-0.0358 -0.02508,-0.0405 -0.02508,-0.14829 0,-0.0683 0.0031,-0.1113 0.0083,-0.1113 0.0052,0 0.0083,0.0399 0.0083,0.10217 v 0.10217 l 0.08555,0.14296 c 0.04706,0.0786 0.111603,0.17515 0.14341,0.21442 0.06832,0.0843 0.225434,0.24164 0.326324,0.32667 l 0.07173,0.0605 -0.06945,0.1122 c -0.03819,0.0617 -0.07482,0.11965 -0.08132,0.12874 -0.01115,0.0156 -0.01858,0.0115 -0.119735,-0.0639 -0.07472,-0.0557 -0.113233,-0.0907 -0.12536,-0.11394 -0.0093,-0.0183 -0.04603,-0.0593 -0.08081,-0.091 -0.03478,-0.0317 -0.08411,-0.0874 -0.109662,-0.12396 -0.02539,-0.0365 -0.07152,-0.10145 -0.102376,-0.14423 l -0.05594,-0.0778 -0.02074,0.0196 -0.02074,0.0196 0.02054,0.0274 c 0.01115,0.015 0.07369,0.103 0.138703,0.19554 0.06502,0.0926 0.128425,0.17966 0.140954,0.19362 0.01259,0.0139 0.07688,0.0706 0.142893,0.12588 0.06605,0.0553 0.125194,0.11159 0.131448,0.12517 0.02828,0.0613 0.03323,0.0689 0.04469,0.0689 0.01063,0 0.184772,-0.27079 0.230646,-0.3586 0.01311,-0.0251 0.01744,-0.0281 0.02209,-0.0159 0.0041,0.0103 -0.01393,0.0483 -0.05398,0.11512 -0.03292,0.055 -0.08535,0.14338 -0.116339,0.19643 l -0.05645,0.0965 0.02405,0.0251 c 0.0257,0.0267 0.04273,0.0277 0.01858,0 z m 1.286216,-0.0237 c -7.2e-5,-0.005 -0.03251,-0.0634 -0.07214,-0.12907 -0.09164,-0.15207 -0.157961,-0.26817 -0.158002,-0.27669 -2.1e-5,-0.003 0.0031,-0.006 0.0072,-0.006 0.0072,0 0.04004,0.0502 0.173565,0.26562 0.04077,0.0657 0.07905,0.11952 0.08525,0.11952 0.0062,0 0.01662,-0.0159 0.02343,-0.0353 0.01424,-0.0414 0.05274,-0.0832 0.144503,-0.15737 0.132429,-0.10706 0.136124,-0.11132 0.337687,-0.39169 0.128146,-0.17825 0.119384,-0.16127 0.09608,-0.18611 l -0.01971,-0.0211 -0.03695,0.0505 c -0.02054,0.0278 -0.06388,0.0891 -0.0967,0.13639 -0.06213,0.0894 -0.16179,0.20179 -0.178859,0.20179 -0.01496,0 -0.0451,0.0361 -0.05975,0.0718 -0.01032,0.0237 -0.03819,0.0508 -0.109198,0.10409 -0.05284,0.0396 -0.100106,0.0708 -0.105018,0.0693 -0.01692,-0.005 -0.155061,-0.22633 -0.155061,-0.24802 0,-0.006 0.02074,-0.027 0.04603,-0.0462 0.06109,-0.0465 0.282556,-0.26661 0.348637,-0.3464 0.0289,-0.0349 0.07936,-0.11062 0.112118,-0.16823 0.03282,-0.0577 0.07162,-0.12271 0.08628,-0.14461 0.0259,-0.0387 0.02673,-0.0429 0.02673,-0.1439 2.1e-5,-0.0635 0.0031,-0.10404 0.0083,-0.10404 0.0052,0 0.0093,0.0424 0.0093,0.10967 v 0.10968 l -0.03457,0.0519 c -0.01909,0.0286 -0.07647,0.12645 -0.127795,0.21751 -0.07823,0.13879 -0.107144,0.18107 -0.178849,0.26121 -0.04706,0.0526 -0.107289,0.12639 -0.133822,0.16399 -0.04118,0.0582 -0.04685,0.071 -0.0386,0.0865 0.0083,0.0164 0.01775,0.008 0.100002,-0.0947 0.04974,-0.062 0.116546,-0.14076 0.148487,-0.17498 0.04138,-0.0444 0.07926,-0.10031 0.131996,-0.19504 0.04066,-0.0731 0.09804,-0.17254 0.127413,-0.22109 l 0.05346,-0.0883 -0.0031,-0.0711 c 0,-0.0391 -0.0041,-0.0917 -0.0072,-0.1169 -0.0052,-0.0452 -0.0062,-0.0463 -0.06677,-0.0868 -0.03385,-0.0227 -0.07131,-0.0447 -0.08318,-0.0491 -0.02126,-0.008 -0.02157,-0.007 -0.02157,0.0432 0,0.0284 -0.0031,0.10661 -0.0062,0.17392 l -0.0062,0.12241 -0.124265,0.1424 c -0.06832,0.0783 -0.150376,0.17246 -0.182296,0.20919 -0.03189,0.0367 -0.10186,0.12134 -0.155422,0.18805 l -0.09742,0.12128 -0.04778,1.2e-4 -0.04768,1.1e-4 0.0052,0.0496 c 0.0041,0.0451 0.01662,0.0677 0.130489,0.24553 0.104286,0.16299 0.123729,0.19854 0.115638,0.21146 -0.0161,0.0259 -0.01094,0.0289 0.01228,0.007 0.01228,-0.0115 0.02208,-0.0251 0.02208,-0.0303 z m -0.320514,-0.41461 0.0031,-0.0598 h -0.340442 -0.340422 l -0.0062,0.0526 c -0.0031,0.029 -0.0031,0.0569 -2.69e-4,0.0621 0.0041,0.006 0.111902,0.008 0.34391,0.007 l 0.3381,-0.003 z m -0.216094,-0.25566 c 0.0083,-0.0347 0.01424,-0.071 0.01424,-0.0808 0,-0.0174 0.145566,-0.17487 0.161841,-0.17487 0.0041,0 0.0072,0.036 0.0052,0.0818 -0.0031,0.0691 -0.0062,0.0868 -0.02436,0.11291 -0.01858,0.027 -0.01558,0.0254 0.02436,-0.0128 l 0.04561,-0.044 v -0.17287 -0.17287 l 0.108486,-0.1087 0.108455,-0.10871 0.0031,-0.12164 c 0.0031,-0.0749 0,-0.11824 -0.0052,-0.11278 -0.0041,0.005 -0.06337,0.0822 -0.130716,0.17203 -0.06739,0.0897 -0.170107,0.21325 -0.228282,0.27447 -0.05821,0.0612 -0.109601,0.11979 -0.114327,0.13017 -0.0093,0.0196 -0.05263,0.0302 -0.12085,0.0295 -0.02807,0 -0.03509,-0.005 -0.05707,-0.0399 -0.01362,-0.0219 -0.06502,-0.0764 -0.113862,-0.12143 -0.06089,-0.0561 -0.122418,-0.12634 -0.195785,-0.22349 -0.05883,-0.0779 -0.122139,-0.16097 -0.140674,-0.18453 l -0.03375,-0.0428 v 0.11982 0.11981 l 0.03829,0.0382 c 0.02105,0.0211 0.0709,0.0693 0.110663,0.10718 l 0.07235,0.069 v 0.17487 0.17483 l 0.04087,0.0395 0.04087,0.0395 -0.01579,-0.031 c -0.01693,-0.0329 -0.03013,-0.18596 -0.0161,-0.18596 0.0041,0 0.03953,0.0332 0.07854,0.0738 l 0.071,0.0738 0.01641,0.0805 c 0.0093,0.0443 0.01858,0.0828 0.02126,0.0855 0.0031,0.003 0.05377,0.005 0.113378,0.005 h 0.108238 z m -1.641534,-0.36188 v -0.21246 l -0.05737,-0.0377 -0.05737,-0.0377 -1.36e-4,-0.7349 -1.65e-4,-0.73492 0.07258,-0.0598 c 0.03992,-0.0328 0.07577,-0.0598 0.07968,-0.0598 0.0038,0 0.0071,0.35525 0.0071,0.7894 v 0.7894 l 0.04267,0.0451 c 0.02348,0.0249 0.04639,0.046 0.0509,0.0472 0.0112,0.003 0.01884,-0.0288 0.03411,-0.13754 0.01092,-0.0775 0.01611,-0.0937 0.0342,-0.10804 l 0.02126,-0.0169 0.0041,-0.58701 c 0.0031,-0.32283 0.0031,-0.61344 0,-0.64578 l -0.0052,-0.0588 -0.08189,-0.0863 c -0.07313,-0.077 -0.09586,-0.11053 -0.07504,-0.11053 0.0079,0 0.120363,0.1142 0.155427,0.15785 l 0.02374,0.0294 v 0.63889 0.63887 l 0.02652,-0.0265 0.02652,-0.0265 v -0.67175 c 0,-0.62803 0,-0.67299 -0.01496,-0.69066 -0.02931,-0.0355 -0.210796,-0.2181 -0.216886,-0.2181 -0.0033,0 -0.05521,0.0443 -0.115256,0.0984 -0.06004,0.0541 -0.150126,0.13479 -0.200177,0.1793 l -0.09098,0.0809 0.0027,0.51872 0.0027,0.51876 0.05412,0.059 c 0.0298,0.0325 0.06461,0.0673 0.07738,0.0774 l 0.02321,0.0183 V 301.128 c 0,-0.29375 0.0038,-0.56399 0.0068,-0.6005 0.0058,-0.0658 0.0058,-0.0652 0.01337,0.0575 0.0079,0.12725 -1.63e-4,1.29196 -0.0093,1.33366 -0.0035,0.0164 -0.01584,0.0281 -0.04186,0.0398 -0.03211,0.0145 -0.03872,0.0227 -0.05183,0.0636 l -0.01501,0.047 0.03274,0.0295 c 0.01802,0.0161 0.05309,0.0456 0.07796,0.0652 0.04888,0.0386 0.05661,0.0573 0.05661,0.13719 0,0.0424 0.0027,0.0471 0.05092,0.0958 0.02799,0.0282 0.05191,0.0514 0.05311,0.0517 0,2.5e-4 0.0027,-0.0952 0.0027,-0.21196 z m 0.984643,0.0354 -0.0052,-0.16381 -0.07265,-0.0642 -0.07265,-0.0641 v -0.0502 c 0,-0.0485 1.34e-4,-0.0505 -0.02539,-0.0574 -0.01445,-0.004 -0.029,-0.004 -0.0322,0 -0.0031,0.003 -0.0083,0.0324 -0.01177,0.0642 l -0.0062,0.0578 0.07575,0.0609 c 0.06471,0.052 0.07585,0.0649 0.07658,0.0883 0,0.015 0.0031,0.0663 0.0031,0.11362 0.0031,0.083 0.0031,0.088 0.03529,0.13586 0.01806,0.0274 0.03416,0.0483 0.0355,0.0466 0.0031,-0.003 0,-0.0768 -0.0031,-0.16684 z m 1.124302,0.0892 c 0.0031,-0.007 0.0062,-0.0644 0.0062,-0.1262 v -0.11232 l 0.07967,-0.0676 c 0.04386,-0.0372 0.07967,-0.0732 0.07967,-0.0799 0,-0.007 -0.0041,-0.0324 -0.0093,-0.057 -0.0093,-0.0435 -0.01042,-0.0447 -0.04107,-0.0447 h -0.03148 l 0.0041,0.0526 0.0052,0.0526 -0.07379,0.0643 c -0.04056,0.0353 -0.07606,0.0724 -0.07874,0.0823 -0.0031,0.0103 -0.0052,0.0858 -0.0052,0.16845 l -1.14e-4,0.15034 0.02879,-0.0346 c 0.01579,-0.0191 0.03148,-0.0409 0.03478,-0.0485 z m 1.002906,0.0186 c 0.02931,-0.0257 0.03127,-0.0312 0.03695,-0.0996 l 0.0062,-0.0723 0.05356,-0.041 c 0.11315,-0.0866 0.116731,-0.0911 0.113295,-0.14212 -0.0031,-0.0427 -0.0052,-0.0465 -0.03726,-0.063 -0.01878,-0.009 -0.04427,-0.0174 -0.05666,-0.0174 h -0.0224 v -0.73936 c 0,-0.40662 0.0031,-0.73932 0.0072,-0.73932 0.01424,0 0.01878,0.17306 0.01878,0.686 l 6.2e-5,0.51334 0.0708,-0.0704 0.0708,-0.0704 v -0.53295 -0.53292 l -0.02105,-0.0161 c -0.01146,-0.009 -0.09577,-0.0819 -0.187157,-0.16233 -0.09133,-0.0804 -0.173823,-0.15152 -0.183297,-0.15815 -0.02054,-0.0145 -0.02673,-0.009 -0.158456,0.13355 l -0.08751,0.0949 1.34e-4,0.67098 c 8.2e-5,0.36903 0.0031,0.67496 0.0072,0.67982 0.0031,0.005 0.01744,0.0186 0.03096,0.0305 l 0.02425,0.0216 -2.17e-4,-0.63696 c -1.34e-4,-0.35033 -1.85e-4,-0.6425 -1.03e-4,-0.64927 1.03e-4,-0.0131 0.166537,-0.18691 0.178849,-0.18691 0.02291,0 -0.0031,0.0377 -0.07668,0.1125 l -0.0839,0.0848 v 0.64705 0.64706 l 0.0227,0.0164 c 0.01806,0.0131 0.02271,0.024 0.02271,0.054 0,0.0422 0.01393,0.12749 0.02797,0.1723 l 0.0093,0.0297 0.05212,-0.0516 0.05212,-0.0516 v -0.79053 c 0,-0.64853 0.0031,-0.79055 0.01177,-0.79055 0.0062,0 0.04231,0.0265 0.07967,0.0587 l 0.06801,0.0587 v 0.73596 0.73594 l -0.05945,0.0398 -0.05944,0.0398 -0.0031,0.20662 -0.0031,0.20666 0.02209,-0.0174 c 0.01197,-0.009 0.03602,-0.0296 0.05305,-0.0446 z m -0.811683,-0.20831 0.06399,-0.0606 v -0.0593 c 0,-0.0576 0,-0.0604 -0.0355,-0.094 l -0.0355,-0.0347 0.0052,0.0406 0.0052,0.0406 -0.05635,0.0403 c -0.09608,0.0686 -0.09629,0.0689 -0.100416,0.18142 l -0.0031,0.098 0.04623,-0.0457 c 0.02539,-0.0251 0.07503,-0.0731 0.110179,-0.10638 z m -1.414723,0.0488 v -0.096 l -0.07606,-0.0603 -0.07606,-0.0603 0.0031,-0.0386 c 0.0031,-0.0213 0,-0.0385 -0.0031,-0.0385 -0.0031,5e-5 -0.0194,0.0142 -0.03767,0.0316 -0.03137,0.0297 -0.03323,0.0345 -0.03323,0.0863 l -2.1e-5,0.0548 0.108486,0.10699 c 0.05965,0.0588 0.109487,0.10764 0.110695,0.10845 0,0 0.0031,-0.0417 0.0031,-0.0944 z m 0.757905,-0.32157 0.07172,-0.0739 0.0062,-0.20806 c 0.0031,-0.11444 0.0062,-0.44416 0.0062,-0.73273 l 3.1e-5,-0.52461 h -0.208076 -0.208086 v 0.67957 c 0,0.37376 0.0031,0.70293 0.0072,0.7315 0.0062,0.0511 0.0072,0.0532 0.08999,0.13455 0.04592,0.0455 0.08648,0.0829 0.0902,0.0832 0.0031,2.5e-4 0.0072,-0.0384 0.0072,-0.0859 0.0031,-0.14074 0.01445,-0.15469 0.01558,-0.0172 v 0.12236 l 0.02436,-0.0174 c 0.01342,-0.009 0.05666,-0.0508 0.09608,-0.0913 z m -0.183545,-0.53592 c -0.03106,-0.0276 -0.0612,-0.0564 -0.06718,-0.0641 -0.0072,-0.009 -0.01094,-0.0545 -0.01125,-0.13847 v -0.12453 l 0.02436,-0.0227 c 0.03736,-0.0349 0.05851,-0.0426 0.11605,-0.0426 0.04634,0 0.0579,0.004 0.09133,0.0292 l 0.03829,0.0292 0.0031,0.13131 0.0031,0.13128 -0.03375,0.0321 c -0.01858,0.0174 -0.05005,0.045 -0.07007,0.0608 l -0.03633,0.0287 z m 0.121531,-0.17173 c 0.0072,-0.006 0.01692,-0.0251 0.02239,-0.0435 0.01362,-0.0457 -0.0031,-0.0933 -0.03953,-0.11585 -0.04211,-0.0257 -0.07348,-0.0219 -0.108454,0.0131 -0.02508,0.0254 -0.03014,0.0364 -0.03014,0.0697 0,0.0479 0.02405,0.0827 0.06471,0.0935 0.02972,0.008 0.07018,0 0.09102,-0.0169 z m -2.130724,0.4237 c -0.04778,-0.066 -0.20662,-0.24016 -0.209925,-0.23024 -0.005,0.0142 0.03312,0.21487 0.04637,0.24548 0.0063,0.0148 0.03386,0.0484 0.06119,0.075 0.04896,0.0477 0.04967,0.0491 0.04967,0.0993 0,0.0473 0.0027,0.0539 0.03763,0.0934 l 0.03763,0.0425 0.0027,-0.14376 0.0027,-0.14377 z m 4.178859,0.20738 v -0.0558 l 0.06089,-0.0644 c 0.06574,-0.0695 0.06285,-0.0623 0.09402,-0.22953 0.0083,-0.0428 0.01311,-0.0825 0.01115,-0.088 -0.0041,-0.0118 -0.207188,0.21863 -0.230264,0.26107 -0.0128,0.0237 -0.01558,0.0518 -0.01558,0.16483 v 0.13631 l 0.03901,-0.0344 c 0.03808,-0.0335 0.03901,-0.0357 0.03984,-0.0902 z m -3.02231,0.0123 c -0.0052,-0.0254 -0.09319,-0.21782 -0.0998,-0.21782 -0.0031,0 -0.01177,0.008 -0.02209,0.0174 l -0.01889,0.0174 0.02704,0.06 c 0.01476,0.033 0.03839,0.0887 0.05232,0.12358 l 0.02539,0.0636 0.02043,-0.0194 c 0.01579,-0.0148 0.0194,-0.0254 0.01558,-0.045 z m 1.880917,0.003 c 0.0837,-0.19764 0.07936,-0.18353 0.06099,-0.20018 -0.0093,-0.008 -0.01827,-0.0136 -0.02023,-0.0115 -0.01032,0.0104 -0.0934,0.18415 -0.09845,0.20452 -0.0041,0.0166 0,0.0305 0.01042,0.0458 0.01909,0.0259 0.02043,0.0249 0.04727,-0.0386 z m -0.129487,-0.24747 0.06471,-0.0968 -0.02209,-0.0404 c -0.02157,-0.0391 -0.03695,-0.0516 -0.03695,-0.0297 0,0.006 -0.02962,0.0592 -0.06574,0.11861 l -0.06574,0.10802 0.02126,0.0202 c 0.0194,0.0183 0.02157,0.027 0.02157,0.0968 0,0.1056 0.01259,0.10967 0.01579,0.005 l 0.0031,-0.0849 z m -1.597236,0.157 c 1.14e-4,-0.0591 0.0031,-0.0696 0.01775,-0.0778 0.01032,-0.005 0.01775,-0.0139 0.01775,-0.0194 0,-0.007 -0.115266,-0.21003 -0.12956,-0.22751 -0.0052,-0.006 -0.03075,0.0194 -0.04293,0.043 -0.01145,0.0221 -0.0083,0.0282 0.05139,0.12018 l 0.06337,0.097 0.0031,0.0787 c 0.0041,0.0963 0.01889,0.0854 0.01909,-0.0142 z m 1.29148,-0.2624 0.181883,-0.18907 0.03323,-0.17395 c 0.01827,-0.0957 0.05872,-0.299 0.08989,-0.4518 l 0.05676,-0.27784 -0.04211,-0.0498 c -0.02322,-0.0273 -0.06574,-0.0755 -0.09464,-0.10701 l -0.05253,-0.0572 -0.05552,0.22543 c -0.105896,0.42977 -0.193525,0.74438 -0.252174,0.90521 -0.01641,0.0449 -0.06409,0.16536 -0.10603,0.26762 -0.0419,0.10228 -0.07616,0.19785 -0.07616,0.2125 2.1e-5,0.0257 0.0031,0.0242 0.0677,-0.0442 0.03726,-0.039 0.149549,-0.15592 0.249604,-0.2599 z m 0.07245,-0.21984 c 1.14e-4,-0.004 0.0041,-0.0232 0.0093,-0.0426 0.0093,-0.0387 0.0418,-0.19005 0.09608,-0.45159 0.0483,-0.23269 0.06502,-0.30276 0.06925,-0.29063 0.0031,0.006 -0.01693,0.12126 -0.042,0.25677 -0.02508,0.1355 -0.05645,0.31012 -0.06977,0.38804 -0.02209,0.13014 -0.0257,0.14192 -0.04345,0.14451 -0.01063,0.003 -0.0194,0 -0.01909,-0.004 z m -0.854481,0.42026 c -0.147135,-0.32193 -0.284269,-0.75032 -0.421291,-1.31604 -0.02435,-0.0999 -0.04541,-0.183 -0.04706,-0.18464 -0.0031,-0.003 -0.04365,0.0449 -0.09329,0.10351 l -0.0903,0.10654 0.0451,0.2279 c 0.02487,0.12536 0.06491,0.32013 0.08906,0.43284 0.02405,0.11272 0.04396,0.21173 0.04396,0.22001 0,0.0161 0.07668,0.0988 0.335798,0.36176 0.151872,0.15415 0.164679,0.16507 0.167383,0.14273 0.0031,-0.0142 -0.01032,-0.053 -0.02931,-0.0946 z m -0.397564,-0.42974 c -0.0031,-0.008 -0.0072,-0.0315 -0.01032,-0.0509 -0.0031,-0.0194 -0.02704,-0.147 -0.05315,-0.28332 -0.07338,-0.3833 -0.08504,-0.44878 -0.08091,-0.45293 0.0052,-0.005 0.04107,0.14442 0.09464,0.39536 0.04355,0.2037 0.0742,0.34306 0.08504,0.38588 0.0041,0.0174 0.0031,0.0213 -0.01259,0.0213 -0.01032,0 -0.02023,-0.007 -0.0227,-0.0156 z m 1.404206,0.28778 c 0.08184,-0.13814 0.08287,-0.14092 0.06987,-0.18434 l -0.01094,-0.036 -0.05212,0.0737 c -0.02869,0.0406 -0.07121,0.10093 -0.09453,0.13421 l -0.04242,0.0605 0.03086,0.0257 c 0.01693,0.0142 0.03292,0.0257 0.0355,0.0259 0.0031,1.4e-4 0.03117,-0.0446 0.06368,-0.0994 z m -1.41592,0.0681 0.03323,-0.0227 -0.01961,-0.0283 c -0.01094,-0.0156 -0.04169,-0.0582 -0.06853,-0.0947 -0.02673,-0.0365 -0.0614,-0.0853 -0.07668,-0.10856 l -0.02787,-0.0422 -0.01527,0.0397 c -0.0083,0.0219 -0.01342,0.0428 -0.01146,0.0466 0.02652,0.0483 0.143213,0.23261 0.14731,0.23261 0.0031,0 0.02043,-0.0103 0.0388,-0.0227 z m -0.340174,-0.16034 c 0.01827,-0.0469 0.04025,-0.18133 0.03499,-0.21481 -0.0031,-0.0159 -0.0083,-0.012 -0.0354,0.0251 -0.01775,0.024 -0.03519,0.0525 -0.0386,0.0633 -0.0083,0.0259 0.0041,0.18931 0.01362,0.17964 0.0041,-0.004 0.01527,-0.0281 0.02508,-0.0532 z m 2.033346,-0.0232 c 0.0083,-0.10031 0.0031,-0.12635 -0.03829,-0.17299 l -0.03313,-0.0383 0.0062,0.087 c 0.0031,0.0479 0.01032,0.099 0.01445,0.11359 0.0093,0.0301 0.03911,0.0938 0.04231,0.0906 0,0 0.0052,-0.0371 0.0083,-0.0799 z m -1.306185,-0.38684 v -0.42482 l -0.03984,0.0281 c -0.02487,0.0174 -0.03994,0.0349 -0.04004,0.0463 -1.03e-4,0.0103 -5.1e-5,0.15965 1.66e-4,0.33254 v 0.31432 l 0.02786,0.0443 c 0.01527,0.0244 0.0322,0.0532 0.03746,0.0641 0.0052,0.0109 0.01063,0.0199 0.01176,0.0199 0,2e-5 0.0031,-0.19111 0.0031,-0.42477 z m 0.601646,0.30173 c 0.01723,-0.0339 0.01806,-0.0506 0.01806,-0.34938 v -0.31382 l -0.02879,-0.0183 -0.02879,-0.0183 -0.0062,0.086 c -0.0031,0.0473 -0.0062,0.22548 -0.0062,0.39592 v 0.3099 l 0.01723,-0.0283 c 0.0093,-0.0156 0.02539,-0.0443 0.0354,-0.0639 z m 1.692202,-0.0224 0.03478,-0.0704 -0.02425,-0.027 c -0.03829,-0.0425 -0.05418,-0.058 -0.05944,-0.058 -0.0031,0 -0.0041,0.0568 -0.0041,0.12618 1.34e-4,0.1404 0,0.13972 0.05356,0.0292 z m -3.995018,0.015 c 0,-0.0378 -0.0035,-0.0963 -0.0066,-0.13014 l -0.0055,-0.0615 -0.03763,0.0451 c -0.02075,0.0249 -0.03763,0.0518 -0.03763,0.0602 0,0.0196 0.07043,0.15506 0.08068,0.15506 0.0043,0 0.0073,-0.0309 0.0068,-0.0686 z m -0.5477498,-0.45895 c 0.1301658,-0.13107 0.2699968,-0.25208 0.4182658,-0.36196 0.07738,-0.0574 0.09518,-0.0747 0.09521,-0.093 2.8e-5,-0.0181 0.02266,-0.0415 0.112882,-0.11655 0.0621,-0.0518 0.184584,-0.15468 0.272236,-0.22871 0.08768,-0.074 0.164105,-0.13657 0.169867,-0.13904 0.01611,-0.007 0.08727,0.047 0.161676,0.12197 0.03684,0.0371 0.111355,0.11008 0.165691,0.16221 0.09144,0.0876 0.100209,0.0939 0.117341,0.0832 0.01032,-0.006 0.01858,-0.015 0.01858,-0.0189 0,-0.004 -0.01775,-0.0259 -0.03922,-0.0488 -0.04365,-0.046 -0.164081,-0.1975 -0.164297,-0.20654 -1.96e-4,-0.008 0.220893,-0.0796 0.362909,-0.11722 0.135412,-0.0359 0.304683,-0.0684 0.473697,-0.0911 0.143626,-0.0191 0.537073,-0.0219 0.677376,-0.005 0.309451,0.0383 0.531139,0.088 0.785604,0.17626 l 0.09051,0.0314 -0.01662,0.0232 c -0.0093,0.0128 -0.05666,0.071 -0.105472,0.1294 -0.08267,0.0989 -0.08783,0.10723 -0.07472,0.12175 0.0072,0.008 0.01723,0.0156 0.02105,0.0156 0.0041,0 0.07936,-0.0717 0.167868,-0.15938 0.08855,-0.0876 0.163895,-0.15939 0.167527,-0.15939 0.0031,0 0.02405,-0.0139 0.04541,-0.0308 0.02126,-0.0169 0.04169,-0.031 0.0452,-0.031 0.0031,-6e-5 0.08917,0.0691 0.190376,0.15387 0.345799,0.28924 0.370155,0.31109 0.368101,0.33039 -0.0031,0.0136 0.02487,0.0386 0.106061,0.10114 0.157063,0.12088 0.27783,0.22611 0.41258,0.35956 l 0.119054,0.11788 0.08452,-0.0145 c 0.128992,-0.0221 0.125793,-0.012 0.03963,-0.12134 l -0.07534,-0.0956 0.04066,-0.0407 c 0.03973,-0.0397 0.04912,-0.056 0.0323,-0.056 -0.0041,0 -0.01558,-0.012 -0.02405,-0.0265 -0.0083,-0.0145 -0.01909,-0.0265 -0.02353,-0.0265 -0.0041,0 -0.0259,0.0161 -0.0483,0.0356 -0.02239,0.0196 -0.04345,0.0346 -0.04706,0.0332 -0.0031,0 -0.04376,-0.0368 -0.08927,-0.0788 -0.162657,-0.15024 -0.325127,-0.27996 -0.503295,-0.40185 -0.04138,-0.0283 -0.07658,-0.0524 -0.07812,-0.0537 -0.0031,0 0.02405,-0.0485 0.05666,-0.10508 0.06584,-0.1137 0.06564,-0.10406 0.0031,-0.14135 l -0.02322,-0.0136 -0.06027,0.1059 -0.06027,0.10592 -0.04489,-0.0267 c -0.02487,-0.0148 -0.112697,-0.0608 -0.195485,-0.10228 -0.08277,-0.0415 -0.151625,-0.0785 -0.153018,-0.0823 -0.0031,-0.004 0.01744,-0.0529 0.042,-0.10906 0.02456,-0.0561 0.04458,-0.10578 0.04458,-0.11026 0,-0.004 -0.01775,-0.0166 -0.03922,-0.0273 l -0.03922,-0.0191 -0.02797,0.0673 c -0.01558,0.037 -0.03633,0.0897 -0.04654,0.1169 -0.01032,0.0274 -0.01909,0.0507 -0.02023,0.052 0,0 -0.02105,-0.006 -0.04489,-0.0164 -0.02374,-0.0104 -0.113047,-0.0423 -0.198261,-0.0709 -0.143988,-0.0484 -0.154741,-0.0536 -0.151821,-0.0721 0.0031,-0.0156 0.06357,-0.23521 0.08586,-0.30858 0.0031,-0.0103 -0.0052,-0.0169 -0.03013,-0.0244 -0.06079,-0.0183 -0.05707,-0.0237 -0.102892,0.15573 -0.02322,0.0913 -0.04355,0.1673 -0.04489,0.16885 0,0.003 -0.05759,-0.009 -0.125029,-0.0237 -0.185567,-0.0403 -0.491829,-0.0807 -0.613989,-0.0809 -0.02673,-5e-5 -0.06368,-0.003 -0.08194,-0.005 -0.03302,-0.005 -0.03323,-0.006 -0.03323,-0.0486 v -0.0431 h -0.05315 -0.05315 v 0.0436 0.0435 l -0.06863,0.005 c -0.229728,0.0174 -0.312815,0.0262 -0.431652,0.0456 -0.110912,0.0181 -0.274827,0.0528 -0.333095,0.0707 -0.01115,0.003 -0.01723,-0.007 -0.02766,-0.0468 -0.03478,-0.13396 -0.07947,-0.29927 -0.08132,-0.30123 -0.0062,-0.006 -0.08473,0.0274 -0.08473,0.0362 5.2e-5,0.0118 0.04262,0.16126 0.07565,0.26581 0.01228,0.0385 0.02105,0.0708 0.01961,0.0717 -0.0031,0 -0.05026,0.0166 -0.108723,0.0352 -0.05841,0.0186 -0.147723,0.049 -0.198406,0.068 -0.05069,0.0191 -0.09285,0.0334 -0.09364,0.0322 0,0 -0.01857,-0.0442 -0.03949,-0.0952 -0.02102,-0.0511 -0.04363,-0.10395 -0.05052,-0.11737 l -0.01256,-0.0242 -0.03517,0.0181 c -0.01939,0.0103 -0.03517,0.0237 -0.03517,0.0311 0,0.007 0.02048,0.0591 0.04561,0.11535 0.02621,0.0589 0.04221,0.10544 0.03763,0.10964 -0.01229,0.0114 -0.384844,0.19789 -0.387957,0.19425 -0.0027,-0.003 -0.02185,-0.0371 -0.04536,-0.0785 -0.02348,-0.0414 -0.05008,-0.0862 -0.05923,-0.0994 l -0.01666,-0.0242 -0.03496,0.0232 c -0.01911,0.0128 -0.03495,0.0267 -0.03495,0.0315 0,0.007 0.01256,0.0301 0.08647,0.15441 l 0.02703,0.0456 -0.09002,0.0598 c -0.166209,0.11023 -0.310246,0.22521 -0.489724,0.39101 -0.054253,0.0501 -0.1011688,0.0911 -0.1042257,0.0911 -0.00299,0 -0.023478,-0.0166 -0.045543,-0.0369 l -0.03995,-0.0368 -0.031157,0.0341 -0.031177,0.0341 0.044181,0.0442 0.044181,0.0442 -0.05543,0.0627 c -0.058299,0.0659 -0.1071473,0.12842 -0.1016642,0.13003 0.021022,0.006 0.1681479,0.0328 0.1849131,0.0335 0.017472,0 0.048381,-0.0254 0.1416611,-0.11932 z m -0.3013632,-0.2411 c 0.078062,-0.0572 0.061632,-0.18012 -0.027637,-0.20688 -0.1035157,-0.0311 -0.1883807,0.0832 -0.1313399,0.1768 0.032736,0.0537 0.1074198,0.0678 0.1589732,0.0301 z m 5.749921,0.0126 c 0.08855,-0.037 0.09711,-0.15236 0.01527,-0.20684 -0.03571,-0.0237 -0.071,-0.0254 -0.113502,-0.005 -0.0869,0.0413 -0.08287,0.16296 0.0072,0.20879 0.03664,0.0186 0.05294,0.0194 0.09113,0.003 z m -2.868642,-1.2282 c 0.0936,-0.0736 0.04541,-0.21173 -0.07389,-0.21173 -0.0742,0 -0.127516,0.0874 -0.09753,0.15979 0.0259,0.0626 0.121179,0.0915 0.171449,0.0519 z m -1.397962,7.94402 c -0.08279,-0.0283 -0.173445,-0.0602 -0.201433,-0.071 l -0.05093,-0.0196 v -0.175 -0.175 l 0.06786,-0.0845 0.06786,-0.0845 0.0539,0.024 c 0.02963,0.0134 0.112657,0.0471 0.184476,0.075 0.09144,0.0357 0.12861,0.0542 0.123966,0.0616 -0.0031,0.006 -0.02436,0.0338 -0.04603,0.0621 l -0.03942,0.0514 0.0031,0.19387 c 0.0031,0.10663 0,0.19364 -0.0052,0.19341 -0.0041,-2.5e-4 -0.07513,-0.0235 -0.157906,-0.0518 z m 2.511046,-0.14065 0.0031,-0.19289 -0.04128,-0.0568 c -0.02271,-0.0313 -0.04128,-0.0596 -0.04128,-0.063 0,-0.003 0.04283,-0.0232 0.09515,-0.0441 0.05232,-0.0211 0.132491,-0.0551 0.178065,-0.0762 l 0.08287,-0.0382 0.01723,0.0221 c 0.0093,0.012 0.04097,0.0509 0.06987,0.0863 l 0.05253,0.0643 2.1e-5,0.1735 v 0.17353 l -0.09071,0.0336 c -0.08473,0.0315 -0.316272,0.11069 -0.323455,0.11069 -0.0031,0 -0.0031,-0.0868 0,-0.19291 z"
           id="path1-675"
           inkscape:label="icon" /></g></g></g></svg>
