<?xml version="1.0" encoding="UTF-8" standalone="no"?>
<!-- Created with Inkscape (http://www.inkscape.org/) -->

<svg
   version="1.1"
   id="svg3539"
   width="68.031494"
   height="64.126122"
   viewBox="0 0 68.031494 64.126122"
   sodipodi:docname="box002.svg"
   inkscape:version="1.2.2 (b0a8486541, 2022-12-01)"
   xmlns:inkscape="http://www.inkscape.org/namespaces/inkscape"
   xmlns:sodipodi="http://sodipodi.sourceforge.net/DTD/sodipodi-0.dtd"
   xmlns="http://www.w3.org/2000/svg"
   xmlns:svg="http://www.w3.org/2000/svg">
  <defs
     id="defs3543" />
  <sodipodi:namedview
     id="namedview3541"
     pagecolor="#ffffff"
     bordercolor="#666666"
     borderopacity="1.0"
     inkscape:showpageshadow="2"
     inkscape:pageopacity="0.0"
     inkscape:pagecheckerboard="true"
     inkscape:deskcolor="#d1d1d1"
     showgrid="false"
     inkscape:zoom="7.2459371"
     inkscape:cx="38.021307"
     inkscape:cy="39.470395"
     inkscape:window-width="1920"
     inkscape:window-height="1023"
     inkscape:window-x="1775"
     inkscape:window-y="29"
     inkscape:window-maximized="1"
     inkscape:current-layer="g3545" />
  <g
     inkscape:groupmode="layer"
     inkscape:label="Image"
     id="g3545"
     transform="translate(34.015748,-436.43694)">
    <path
       style="fill:#000000;stroke-width:0.0781073"
       d="m -30.75602,497.29992 -3.259728,-3.26315 V 468.5 442.96323 l 3.259728,-3.26315 3.259729,-3.26314 H -9.0448304e-4 27.494482 l 3.260633,3.26132 3.260633,3.26133 V 468.5 494.04041 l -3.260633,3.26133 -3.260633,3.26132 H -9.0448304e-4 -27.496291 Z m 6.480765,0.9378 c -0.549596,-0.28906 -1.322859,-0.75404 -1.718362,-1.03327 -0.921841,-0.65084 -2.523911,-2.23911 -3.269621,-3.24146 -1.020556,-1.37177 -1.972792,-3.1365 -2.57092,-4.76454 -0.142044,-0.38664 -0.286806,-0.73636 -0.321692,-0.77717 -0.03489,-0.0408 -0.06343,1.03103 -0.06343,2.38186 v 2.45607 l 2.752871,2.75369 2.752872,2.7537 1.718774,-0.002 1.718774,-0.002 -0.999267,-0.52558 z m 45.970184,0.26348 c 2.690785,-0.88143 4.908437,-2.41564 6.687902,-4.62679 l 0.55594,-0.69081 v -24.69064 -24.69064 l -0.407752,-0.53887 c -1.644028,-2.1727 -4.017582,-3.86558 -6.616356,-4.71894 L 20.967231,438.2334 H 0.04123677 -20.884757 l -0.844133,0.27551 c -1.144867,0.37366 -2.706326,1.1497 -3.677814,1.82787 -0.942772,0.65813 -2.15876,1.80052 -2.913582,2.73725 l -0.536617,0.66594 -0.0019,24.76211 -0.0019,24.76212 0.494329,0.62277 c 1.764865,2.22344 4.223928,3.9025 6.847761,4.67567 l 0.663912,0.19564 20.86970926,0.004 20.86970874,0.004 0.810172,-0.26539 z m 7.809708,-2.44842 2.714642,-2.71381 -0.0036,-2.49985 -0.0036,-2.49985 -0.256725,0.66391 c -1.797014,4.64724 -4.543193,7.8419 -8.19317,9.53121 l -0.486235,0.22504 1.757003,0.004 1.757003,0.004 2.714643,-2.71381 z m -59.384688,-27.57231 -0.004,-23.10024 -0.397303,0.78107 c -0.733418,1.44185 -1.398118,3.28097 -1.786626,4.94331 -0.147204,0.62986 -0.151296,1.10328 -0.150918,17.457 l 3.9e-4,16.80958 0.314541,1.20397 c 0.39043,1.49445 0.97136,3.0663 1.539649,4.16591 0.238668,0.46181 0.446163,0.83965 0.461098,0.83965 0.01493,0 0.02536,-10.39511 0.02316,-23.10025 z m 60.340168,22.06533 c 0.601364,-1.25619 1.116186,-2.66331 1.483803,-4.05554 l 0.274863,-1.04097 2.34e-4,-16.99944 2.35e-4,-16.99944 -0.23063,-0.88714 c -0.461745,-1.77625 -1.318959,-3.97647 -1.943227,-4.98778 l -0.168752,-0.27337 -3.12e-4,23.1393 c -1.57e-4,12.72661 0.01965,23.1393 0.04402,23.1393 0.02437,0 0.267257,-0.46572 0.539748,-1.03492 z m -62.247969,-42.90046 c 1.660157,-4.21436 4.229443,-7.22538 7.671137,-8.99002 l 0.822898,-0.42192 h -1.70904 -1.709041 l -2.75369,2.75288 -2.753691,2.75287 v 2.45428 c 0,1.34986 0.014,2.43964 0.0311,2.42174 0.01711,-0.0179 0.197253,-0.45432 0.400327,-0.96983 z m 61.294441,-6.69617 -2.714934,-2.71577 -1.718779,0.002 -1.71878,0.002 0.85918,0.44913 c 2.064224,1.07904 3.767023,2.54104 5.14986,4.42158 0.952156,1.29485 1.983471,3.22393 2.555592,4.78024 l 0.261497,0.71134 0.02065,-2.46722 0.02065,-2.46722 -2.714933,-2.71576 z"
       id="path3549" />
  </g>
</svg>
