<?xml version="1.0" encoding="UTF-8" standalone="no"?>
<!-- Created with Inkscape (http://www.inkscape.org/) -->

<svg
   width="0.73477226in"
   height="0.33333269in"
   viewBox="0 0 18.663216 8.4666509"
   version="1.1"
   id="svg538"
   inkscape:version="1.3 (0e150ed6c4, 2023-07-21)"
   sodipodi:docname="assets.svg"
   xml:space="preserve"
   inkscape:export-filename="../static/assets/img/siteLogo.svg"
   inkscape:export-xdpi="96"
   inkscape:export-ydpi="96"
   xmlns:inkscape="http://www.inkscape.org/namespaces/inkscape"
   xmlns:sodipodi="http://sodipodi.sourceforge.net/DTD/sodipodi-0.dtd"
   xmlns="http://www.w3.org/2000/svg"
   xmlns:svg="http://www.w3.org/2000/svg"><sodipodi:namedview
     id="namedview540"
     pagecolor="#ffffff"
     bordercolor="#666666"
     borderopacity="1.0"
     inkscape:showpageshadow="2"
     inkscape:pageopacity="0.0"
     inkscape:pagecheckerboard="true"
     inkscape:deskcolor="#d1d1d1"
     inkscape:document-units="px"
     showgrid="true"
     inkscape:zoom="0.5"
     inkscape:cx="258"
     inkscape:cy="340"
     inkscape:window-width="1920"
     inkscape:window-height="1023"
     inkscape:window-x="1775"
     inkscape:window-y="29"
     inkscape:window-maximized="1"
     inkscape:current-layer="layer4"
     showguides="true"><inkscape:grid
       id="grid4"
       units="px"
       originx="-15.999999"
       originy="-287.34203"
       spacingx="4.2333335"
       spacingy="4.2333335"
       empcolor="#0099e5"
       empopacity="0.30196078"
       color="#0099e5"
       opacity="0.14901961"
       empspacing="2"
       dotted="false"
       gridanglex="30"
       gridanglez="30"
       visible="true" /></sodipodi:namedview><defs
     id="defs535" /><g
     inkscape:groupmode="layer"
     id="layer7"
     inkscape:label="PAGE"
     transform="translate(-4.2333333,-76.025914)"><g
       inkscape:label="STATIC"
       inkscape:groupmode="layer"
       id="layer1"
       transform="translate(-1.3218059,-1.0580903)"><g
         inkscape:groupmode="layer"
         id="layer3"
         inkscape:label="ASSETS"><g
           inkscape:groupmode="layer"
           id="layer4"
           inkscape:label="ENGINE"
           transform="translate(26.124729,123.94585)"><g
             inkscape:groupmode="layer"
             id="layer2"
             inkscape:label="DND"
             transform="translate(-40.665748,-65.159137)"
             style="display:inline"><path
               style="fill:#000000;fill-opacity:1;stroke:none;stroke-width:0.087955"
               d="m 33.341438,26.753446 c -0.389278,-0.06392 -0.700741,-0.292369 -0.871528,-0.639232 -0.06386,-0.129703 -0.09025,-0.21688 -0.117869,-0.389447 l -0.0062,-0.03878 -0.03829,0.04362 c -0.04502,0.0513 -0.107489,0.176489 -0.125761,0.252045 -0.01745,0.07214 -0.0151,0.222728 0.0047,0.304387 0.02158,0.08877 0.0643,0.176232 0.113285,0.231877 0.02197,0.02496 0.03412,0.04532 0.027,0.04526 -0.02139,-2.2e-4 -0.155467,-0.06164 -0.21985,-0.100749 -0.129608,-0.07873 -0.277155,-0.245094 -0.33661,-0.379534 -0.06014,-0.135988 -0.06757,-0.184481 -0.06306,-0.411448 0.0078,-0.391067 0.0057,-0.484711 -0.01232,-0.552558 -0.02347,-0.0885 -0.066,-0.175352 -0.118676,-0.242404 -0.06038,-0.07685 -0.353256,-0.320858 -0.799727,-0.666279 -0.234801,-0.181658 -0.33831,-0.286896 -0.394642,-0.401235 -0.04674,-0.09487 -0.05664,-0.134632 -0.07539,-0.302786 -0.02228,-0.199726 -0.04848,-0.240684 -0.253772,-0.396696 -0.20487,-0.155691 -0.262071,-0.228704 -0.283807,-0.362253 -0.01,-0.06134 0.001,-0.157797 0.02401,-0.210239 l 0.01343,-0.03064 7.93e-4,0.02975 c 0.0036,0.133654 0.114592,0.251299 0.281918,0.298691 0.02932,0.0083 0.119115,0.02157 0.199535,0.02947 0.286282,0.02814 0.343982,0.07748 0.39601,0.33865 0.02601,0.130561 0.06011,0.184893 0.130917,0.208622 0.01834,0.0061 0.103402,0.01542 0.189034,0.02062 0.164362,0.01 0.260863,0.03019 0.343172,0.0719 0.0447,0.02265 0.240678,0.174438 0.796462,0.616859 0.157286,0.125204 0.313102,0.24844 0.34626,0.273857 0.129771,0.09948 0.282196,0.146974 0.40446,0.126032 0.160014,-0.02741 0.283903,-0.132646 0.335349,-0.284866 0.01751,-0.05182 0.02021,-0.07678 0.01613,-0.149454 -0.0027,-0.04799 -0.0082,-0.09771 -0.01219,-0.110495 l -0.0073,-0.02325 0.03269,0.0184 c 0.05813,0.03272 0.169493,0.152255 0.21652,0.232391 0.0248,0.04226 0.05897,0.118274 0.07594,0.168925 0.02966,0.08852 0.03086,0.09829 0.03106,0.252044 2.21e-4,0.148632 -0.0017,0.165493 -0.02613,0.238264 -0.03166,0.09413 -0.08611,0.181247 -0.153425,0.245451 l -0.04969,0.0474 0.03963,0.0067 c 0.0218,0.0037 0.08879,0.0068 0.148889,0.0069 0.38219,7.72e-4 0.704499,-0.19092 0.764072,-0.45441 0.02838,-0.12554 0.0029,-0.269951 -0.06658,-0.376985 -0.07107,-0.109522 -0.218083,-0.224395 -0.328627,-0.256786 -0.07441,-0.02181 -0.03597,-0.03168 0.0971,-0.02495 0.729091,0.0369 1.252244,0.581978 1.145586,1.193594 -0.03378,0.193735 -0.126261,0.367459 -0.276021,0.518527 -0.174847,0.176374 -0.377195,0.283823 -0.642826,0.341349 -0.08092,0.01752 -0.130833,0.02148 -0.276218,0.02187 l -0.177453,4.4e-4 0.0272,0.02186 c 0.0451,0.03625 0.168823,0.0968 0.260666,0.127566 0.170744,0.05721 0.383996,0.0754 0.516793,0.0441 0.03409,-0.008 0.06408,-0.01252 0.06664,-0.01 0.0026,0.0026 -0.02316,0.03362 -0.05714,0.06904 -0.146432,0.152595 -0.429237,0.291259 -0.720984,0.353508 -0.123539,0.02636 -0.415191,0.0348 -0.53317,0.01542 z m -4.672515,-0.146517 c -0.338055,-0.04799 -0.679341,-0.175215 -0.947564,-0.353227 -0.120324,-0.07985 -0.304005,-0.252102 -0.42506,-0.3986 -0.08567,-0.103675 -0.111444,-0.125488 -0.148291,-0.125488 -0.02953,0 -0.06127,0.03831 -0.06991,0.08435 -0.008,0.04239 0.0086,0.145079 0.03862,0.239615 l 0.02295,0.07226 -0.02615,-0.01933 c -0.06063,-0.04482 -0.219198,-0.23399 -0.303741,-0.362349 -0.358096,-0.543682 -0.428543,-1.272507 -0.195835,-2.026049 0.05119,-0.165759 0.05719,-0.196584 0.04467,-0.229504 -0.0237,-0.06232 -0.104712,-0.0338 -0.211079,0.07431 -0.08181,0.08314 -0.08158,0.08343 -0.05137,-0.06624 0.05412,-0.268057 0.189586,-0.542834 0.389821,-0.790696 0.118957,-0.147252 0.407784,-0.414982 0.437219,-0.405284 0.0061,0.002 0.01653,0.01419 0.02329,0.0271 0.01543,0.02947 0.01059,0.07322 -0.03158,0.285207 -0.02676,0.134509 -0.03661,0.220625 -0.05361,0.468536 -0.01145,0.167056 -0.01937,0.304922 -0.01759,0.306369 0.0018,0.0014 0.103573,-0.103859 0.226202,-0.234013 0.227041,-0.240973 0.28904,-0.298051 0.426537,-0.392681 0.131494,-0.0905 0.359468,-0.21851 0.370139,-0.20784 0.0026,0.0026 -6.4e-4,0.01454 -0.0071,0.02663 -0.01148,0.02145 -0.117632,0.572439 -0.111471,0.5786 0.0017,0.0017 0.107213,-0.06545 0.234455,-0.149239 0.127241,-0.08379 0.25316,-0.160948 0.279818,-0.171462 0.06076,-0.02397 0.22319,-0.03356 0.284933,-0.01683 l 0.04258,0.01154 -0.05331,0.05499 c -0.294332,0.30362 -0.493333,0.672553 -0.565627,1.048631 -0.02439,0.126858 -0.02495,0.388783 -0.0011,0.504089 0.07631,0.368713 0.286982,0.65469 0.58215,0.790249 0.245811,0.112893 0.524724,0.117914 0.787261,0.01417 0.314298,-0.124197 0.676827,-0.439916 0.912555,-0.794726 0.03011,-0.04532 0.05587,-0.08397 0.05724,-0.08589 0.0031,-0.0043 0.301797,0.229832 0.522079,0.40931 0.177341,0.14449 0.247341,0.207856 0.247331,0.223887 0,0.0186 -0.136674,0.251003 -0.228259,0.388167 -0.377996,0.566108 -0.859079,0.94738 -1.417256,1.123217 -0.103467,0.0326 -0.262032,0.06867 -0.390221,0.08879 -0.142633,0.02238 -0.543074,0.02799 -0.673734,0.0094 z m -8.380474,-0.84148 c 0.008,-0.0076 0.134504,-0.08152 0.281126,-0.164319 0.49,-0.276713 0.53743,-0.305295 0.598176,-0.360467 0.06951,-0.06313 0.109074,-0.135565 0.135341,-0.247793 0.01588,-0.06784 0.01723,-0.205898 0.02017,-2.064825 0.002,-1.292988 -2.86e-4,-2.026141 -0.0066,-2.08906 -0.02522,-0.249983 -0.08177,-0.345247 -0.301125,-0.507286 -0.469942,-0.347154 -0.777755,-0.756357 -0.886129,-1.178007 -0.024,-0.09338 -0.04103,-0.21958 -0.02962,-0.21958 0.0037,0 0.03789,0.01943 0.07599,0.04317 0.09085,0.05663 0.289098,0.150711 0.398681,0.18921 0.378764,0.133069 0.719639,0.155004 2.41381,0.155329 1.150666,2.21e-4 1.315207,0.0064 1.683946,0.06335 0.889625,0.137362 1.654494,0.587159 2.162115,1.271477 0.09227,0.124384 0.167775,0.245991 0.248022,0.399444 0.06875,0.13147 0.177542,0.388335 0.169788,0.400881 -0.0027,0.0043 -0.0536,0.03228 -0.113167,0.06211 -0.218451,0.109398 -0.435577,0.241256 -0.539685,0.327744 -0.05476,0.04549 -0.611963,0.579121 -0.608413,0.582671 0.0014,0.0014 0.166183,-0.02985 0.366101,-0.06952 0.341893,-0.06785 0.534642,-0.102269 0.540572,-0.09653 0.0014,0.0014 -0.0394,0.04351 -0.09072,0.09363 -0.349307,0.341063 -0.581005,0.756287 -0.643166,1.152611 -0.01209,0.07711 -0.08954,0.89339 -0.08517,0.897755 0.0017,0.0017 0.04816,-0.05671 0.103198,-0.129836 l 0.100073,-0.132962 -0.0061,0.04758 c -0.02873,0.225624 -0.02929,0.481414 -0.0015,0.694528 0.0088,0.06734 0.01,0.105166 0.0036,0.112891 -0.01963,0.02374 -0.194585,0.150844 -0.295914,0.21498 -0.458952,0.290491 -0.925685,0.454627 -1.476459,0.519227 -0.308873,0.03623 -0.352066,0.037 -2.302328,0.04121 -1.667118,0.0036 -1.927134,0.0023 -1.914568,-0.0096 z m 3.969338,-1.581091 c 0.32987,-0.05506 0.577041,-0.169792 0.782864,-0.363396 0.106418,-0.100102 0.191516,-0.217338 0.264646,-0.364593 0.141617,-0.28516 0.196768,-0.575297 0.186036,-0.978686 -0.0056,-0.209569 -0.02432,-0.357801 -0.06451,-0.51024 -0.148773,-0.564281 -0.511061,-0.915646 -1.066892,-1.034727 -0.160698,-0.03443 -0.267621,-0.04041 -0.721822,-0.04041 H 23.19665 v 1.658586 1.658586 l 0.482277,-0.0045 c 0.388469,-0.0036 0.501063,-0.0076 0.578857,-0.02062 z m 10.949712,1.524988 c 0.133303,-0.205464 0.191596,-0.419352 0.181431,-0.665714 -0.0083,-0.202219 -0.0606,-0.370637 -0.168167,-0.54197 -0.05679,-0.09045 -0.172234,-0.232014 -0.21917,-0.268746 l -0.02875,-0.0225 0.255487,-0.0055 c 0.274824,-0.0059 0.409644,-0.02219 0.571204,-0.06903 0.233599,-0.06772 0.422123,-0.176357 0.581619,-0.335158 0.21951,-0.218555 0.352855,-0.506488 0.413135,-0.892085 0.02443,-0.15626 0.0243,-0.558917 -2.2e-4,-0.714554 -0.0625,-0.39655 -0.191418,-0.674111 -0.417856,-0.89964 -0.183413,-0.182678 -0.397459,-0.29604 -0.674266,-0.357105 -0.178399,-0.03936 -0.272786,-0.04506 -0.746057,-0.04506 h -0.44631 v 0.04974 0.04974 l -0.03635,-0.006 c -0.113953,-0.01891 -0.27587,-0.02764 -0.419265,-0.0226 -0.366843,0.01289 -0.694937,0.08502 -0.926026,0.203563 -0.05585,0.02865 -0.101541,0.04864 -0.101541,0.04442 0,-0.0042 0.05089,-0.06045 0.113084,-0.124962 l 0.113083,-0.117292 -0.05226,0.0206 c -0.174849,0.06892 -0.380693,0.16573 -0.492296,0.231534 -0.02796,0.01648 -0.05282,0.02997 -0.05525,0.02997 -0.0024,0 -0.0044,-0.06653 -0.0044,-0.147833 0,-0.344525 -0.04036,-0.517085 -0.148433,-0.634922 -0.02233,-0.02434 -0.09294,-0.08342 -0.156921,-0.131288 -0.460248,-0.344321 -0.729067,-0.685016 -0.867271,-1.099161 -0.03489,-0.104551 -0.0694,-0.286304 -0.05677,-0.298939 0.0029,-0.0029 0.03526,0.01309 0.07201,0.03543 0.213353,0.129744 0.491717,0.235369 0.723993,0.274717 0.349214,0.05916 0.735295,0.07258 2.095922,0.07284 1.211941,2.31e-4 1.38412,0.0082 1.798239,0.08352 1.033077,0.187828 1.906119,0.83457 2.340949,1.734153 0.149271,0.308814 0.246781,0.647471 0.292818,1.016975 0.01962,0.157448 0.02235,0.564852 0.0048,0.718253 -0.04918,0.430371 -0.159964,0.804242 -0.34512,1.164744 -0.254493,0.495498 -0.63372,0.893241 -1.149573,1.205704 -0.566617,0.343211 -1.125586,0.497581 -1.883847,0.52026 l -0.201936,0.006 z m -1.424983,-0.803121 c 0,-0.005 0.0073,-0.03881 0.0163,-0.07513 0.01779,-0.07209 0.02069,-0.335209 0.0053,-0.480455 -0.0054,-0.05096 -0.0047,-0.07513 0.0022,-0.07512 0.0056,4e-6 0.03633,0.01245 0.06832,0.02765 0.08289,0.0394 0.153189,0.106479 0.190043,0.181342 0.02778,0.05642 0.03023,0.06863 0.02593,0.128779 -0.0088,0.122692 -0.0694,0.199521 -0.210956,0.26736 -0.07407,0.0355 -0.09711,0.04156 -0.09711,0.02557 z m -1.049625,-0.625114 c -0.03079,-0.01266 -0.06242,-0.02836 -0.07028,-0.03489 -0.01234,-0.01024 -0.01429,-0.100799 -0.01429,-0.660909 v -0.649045 l 0.072,-0.09378 c 0.114951,-0.149718 0.228675,-0.273942 0.301521,-0.329361 0.151902,-0.115559 0.335414,-0.177412 0.532867,-0.179604 0.198718,-0.0022 0.314271,0.03512 0.473623,0.153003 l 0.08586,0.06352 0.04794,-0.04123 c 0.122893,-0.105703 0.166925,-0.133072 0.286507,-0.178082 l 0.06093,-0.02293 v 0.813184 0.813184 l -0.07212,-0.0229 c -0.123524,-0.03923 -0.265947,-0.06373 -0.402884,-0.06931 -0.114321,-0.0047 -0.373213,0.0068 -0.504088,0.02238 -0.04043,0.0048 -0.04776,0.002 -0.100155,-0.03872 -0.06046,-0.04696 -0.616105,-0.368717 -0.623669,-0.361153 -0.0025,0.0025 0.04485,0.134731 0.105187,0.293884 0.09999,0.263753 0.109698,0.295091 0.109663,0.354022 0,0.05609 -0.0039,0.07022 -0.02921,0.106634 -0.0576,0.08289 -0.15321,0.105785 -0.259394,0.06212 z m -3.550185,-0.57935 c 0.07679,-0.05719 0.164195,-0.152884 0.194789,-0.213258 0.01355,-0.02673 0.02325,-0.0499 0.02155,-0.05149 -0.0017,-0.0016 -0.03434,0.0051 -0.07254,0.01486 -0.0749,0.01913 -0.255282,0.03609 -0.255282,0.02401 0,-0.0041 0.0194,-0.02445 0.0431,-0.04532 0.0617,-0.05431 0.118335,-0.145939 0.147358,-0.238398 0.02168,-0.06905 0.02449,-0.09229 0.02058,-0.169645 -0.0062,-0.121836 -0.03136,-0.184488 -0.106495,-0.26481 -0.119223,-0.127449 -0.327184,-0.188958 -0.53949,-0.159565 -0.08139,0.01127 -0.199813,0.04836 -0.241387,0.0756 -0.03437,0.02252 -0.03531,0.0092 -0.0038,-0.05428 0.09271,-0.186862 0.26674,-0.362358 0.458167,-0.462032 l 0.07858,-0.04092 -0.110061,-0.03033 c -0.09022,-0.02486 -0.282482,-0.06844 -0.307434,-0.06968 -0.01337,-6.61e-4 0.03609,-0.03215 0.106791,-0.068 0.164309,-0.0833 0.441609,-0.158903 0.628184,-0.17126 0.151183,-0.01001 0.06449,-0.02488 -0.149843,-0.02569 -0.208995,-7.93e-4 -0.304755,0.01255 -0.489548,0.0682 -0.193266,0.05821 -0.376794,0.158219 -0.473575,0.258072 l -0.04219,0.04353 0.05188,0.0065 c 0.08516,0.01062 0.221168,0.03408 0.293912,0.0507 l 0.06818,0.01558 -0.08725,0.02322 c -0.28798,0.07665 -0.737939,0.324529 -0.962131,0.530021 -0.02266,0.02077 -0.0412,0.033 -0.0412,0.02717 0,-0.0058 0.01371,-0.0729 0.03046,-0.149069 0.02251,-0.102339 0.03073,-0.165042 0.03151,-0.240265 9.59e-4,-0.09292 -0.0013,-0.106586 -0.026,-0.156865 -0.08141,-0.165789 -0.305676,-0.225575 -0.651533,-0.173694 -0.06398,0.0096 -0.11749,0.01658 -0.118909,0.01551 -0.0064,-0.0048 0.152529,-0.122127 0.239729,-0.177006 0.05302,-0.03337 0.208194,-0.119524 0.344831,-0.19146 0.263244,-0.138591 0.33775,-0.183546 0.388798,-0.234594 0.05781,-0.05781 0.0515,-0.130811 -0.02068,-0.239555 -0.04633,-0.06981 -0.187846,-0.203607 -0.282839,-0.267428 l -0.07593,-0.05101 0.193881,0.0056 c 0.189196,0.0054 0.329694,0.02132 0.437367,0.04943 0.0293,0.0077 0.05171,0.01099 0.0498,0.0074 -0.03426,-0.06402 -0.07725,-0.165523 -0.09101,-0.214915 -0.02177,-0.07814 -0.0248,-0.310498 -0.0049,-0.377416 l 0.01276,-0.04297 0.03141,0.05879 c 0.04486,0.08396 0.09117,0.143992 0.167122,0.21663 0.126852,0.12132 0.216108,0.181422 0.531663,0.358005 0.117297,0.06564 0.241623,0.137009 0.276279,0.158598 0.154067,0.09598 0.267409,0.196631 0.33473,0.29725 0.02986,0.04462 0.03463,0.04858 0.02928,0.02424 -0.0093,-0.04231 -0.05745,-0.142825 -0.09362,-0.195395 -0.06981,-0.101464 -0.186247,-0.213814 -0.305269,-0.29455 -0.06531,-0.0443 -0.0696,-0.04955 -0.08443,-0.103115 -0.02623,-0.09478 -0.03565,-0.176666 -0.03572,-0.310574 -1.21e-4,-0.221508 0.04004,-0.431804 0.110702,-0.57955 0.05682,-0.118798 0.05835,-0.118764 0.07093,0.0016 0.03694,0.353356 0.211889,0.597994 0.778391,1.088486 0.3927,0.340011 0.490841,0.43813 0.593993,0.59386 0.02722,0.04109 0.05136,0.07284 0.05364,0.07056 0.0086,-0.0086 -0.07778,-0.173554 -0.133395,-0.254747 -0.113042,-0.165046 -0.219516,-0.273859 -0.567945,-0.58042 -0.08531,-0.07506 -0.186066,-0.16865 -0.223908,-0.207985 -0.08615,-0.08955 -0.09624,-0.122226 -0.09542,-0.309023 6.73e-4,-0.151526 0.02333,-0.262893 0.07477,-0.367474 l 0.03129,-0.06362 0.007,0.07256 c 0.03331,0.343035 0.207315,0.597784 0.7097,1.039031 0.223992,0.196734 0.39136,0.363186 0.470749,0.468173 0.169441,0.224076 0.244735,0.431737 0.228622,0.630535 l -0.0063,0.07791 0.03538,0.01279 c 0.07623,0.02756 0.149484,0.120523 0.149484,0.189687 0,0.01887 0.0045,0.03431 0.01002,0.03431 0.0055,0 0.03241,-0.01135 0.05979,-0.02522 0.05944,-0.03012 0.143699,-0.107337 0.186971,-0.171343 l 0.03131,-0.04631 0.0057,0.06085 c 0.02398,0.256466 -0.100353,0.585825 -0.29627,0.784809 -0.0506,0.05139 -0.163095,0.133958 -0.182512,0.133958 -0.0041,0 -0.0035,-0.01415 0.0015,-0.03144 0.005,-0.01729 0.009,-0.06293 0.009,-0.101424 0,-0.233964 -0.166883,-0.34324 -0.547712,-0.358645 l -0.135716,-0.0055 0.04758,-0.09516 c 0.04035,-0.0807 0.0477,-0.103973 0.04837,-0.15313 0.0015,-0.110342 -0.05455,-0.136384 -0.309875,-0.143986 -0.233966,-0.007 -0.438113,0.01466 -0.682769,0.07234 l -0.111481,0.02628 0.136907,0.01145 c 0.124025,0.01037 0.281341,0.03579 0.292868,0.04731 0.0025,0.0025 -0.01318,0.04279 -0.03486,0.08952 -0.09383,0.20229 -0.09907,0.368218 -0.01257,0.398372 0.03839,0.01338 0.08102,6.61e-4 0.130172,-0.03884 0.02983,-0.02398 0.03703,-0.02679 0.0314,-0.01227 -0.03698,0.09546 -0.06101,0.29093 -0.04224,0.34358 0.02257,0.06331 0.125201,0.0936 0.232636,0.06865 0.01999,-0.0046 0.03635,-0.0064 0.03635,-0.0039 0,0.01958 -0.06441,0.106504 -0.117253,0.158233 -0.139192,0.136258 -0.397798,0.251019 -0.604951,0.268457 l -0.06786,0.0057 z m 1.090576,-1.593866 c 0,-0.0032 -0.01626,-0.03703 -0.03614,-0.07513 -0.0521,-0.09987 -0.185923,-0.232537 -0.285571,-0.283114 -0.04098,-0.0208 -0.07759,-0.03474 -0.08136,-0.03097 -0.0038,0.0038 0.0031,0.03421 0.01518,0.06767 0.06442,0.177883 0.137354,0.26619 0.254773,0.30845 0.0481,0.01731 0.133118,0.02568 0.133118,0.0131 z m 1.55094,1.477264 c -0.273969,-0.218083 -0.353708,-0.271119 -0.468462,-0.311578 -0.01626,-0.0057 -0.01519,-0.0098 0.01242,-0.04736 0.130736,-0.177771 0.448688,-0.507833 0.654869,-0.67981 0.497237,-0.414746 0.978571,-0.64381 1.488032,-0.708146 l 0.101788,-0.01285 -0.144254,-0.0012 c -0.304989,-0.0026 -0.62307,0.0802 -0.980253,0.255239 -0.276906,0.135701 -0.504913,0.293993 -0.700116,0.486048 -0.06013,0.05916 -0.109334,0.103895 -0.109334,0.0994 0,-0.02347 0.04811,-0.142586 0.09774,-0.24203 0.168618,-0.337801 0.473747,-0.687856 0.783791,-0.899193 0.129745,-0.08844 0.132853,-0.0886 0.07199,-0.0038 -0.09678,0.134785 -0.136883,0.24148 -0.09963,0.26506 0.02679,0.01695 0.08146,0.0089 0.130588,-0.01931 0.02696,-0.01546 0.118564,-0.08334 0.203574,-0.150845 0.257667,-0.204601 0.415987,-0.301816 0.575401,-0.353318 0.06887,-0.02225 0.178252,-0.04337 0.195262,-0.0377 0.006,0.002 -0.01904,0.0201 -0.0557,0.0402 -0.19609,0.107489 -0.285424,0.21844 -0.224741,0.279123 0.02744,0.02744 0.07503,0.0216 0.2379,-0.02923 0.16779,-0.05236 0.227518,-0.06682 0.344729,-0.08349 0.391945,-0.05572 0.813545,0.05256 1.20471,0.3094 0.148324,0.09739 0.369786,0.285018 0.311685,0.264069 -0.09351,-0.03372 -0.434992,-0.03232 -0.631588,0.0026 -0.289828,0.05146 -0.552486,0.140548 -0.67603,0.229306 -0.04316,0.03101 -0.04967,0.03304 -0.06407,0.02003 -0.03064,-0.02771 -0.181327,-0.09334 -0.263227,-0.114652 -0.06895,-0.01794 -0.109299,-0.02151 -0.247197,-0.02184 -0.172335,-4.19e-4 -0.217563,0.0059 -0.358679,0.05003 -0.173456,0.05425 -0.30123,0.133328 -0.442044,0.273582 -0.24063,0.239674 -0.521009,0.644242 -0.739067,1.066422 l -0.08901,0.172327 z m 2.588404,-2.364756 c -0.05065,-0.0088 -0.116086,-0.01689 -0.14541,-0.01793 -0.02933,-0.001 -0.06422,-0.0049 -0.07755,-0.0087 -0.02136,-0.006 -0.01561,-0.01033 0.04847,-0.03672 0.09725,-0.04005 0.261276,-0.09399 0.26735,-0.08791 0.0027,0.0027 0.0036,0.04141 0.0021,0.08607 l -0.0028,0.0812 z M 30.321753,20.922408 C 30.064532,20.692256 29.958637,20.5875 29.86187,20.467476 c -0.05682,-0.07048 -0.05712,-0.07119 -0.04152,-0.09761 0.03037,-0.0514 0.08228,-0.192085 0.104332,-0.28271 0.03202,-0.131604 0.03256,-0.344941 0.0012,-0.470852 -0.06327,-0.254038 -0.229589,-0.434198 -0.457211,-0.495272 -0.04371,-0.01173 -0.09864,-0.01684 -0.179339,-0.01669 -0.104543,1.98e-4 -0.124792,0.0032 -0.19987,0.02972 -0.270531,0.09554 -0.442359,0.333876 -0.463879,0.643421 -0.0063,0.09041 -0.01428,0.129806 -0.04232,0.208421 -0.05933,0.166397 -0.101015,0.437404 -0.09195,0.597816 0.0021,0.03642 6.06e-4,0.06622 -0.0032,0.06622 -0.0038,0 -0.04655,-0.02649 -0.09495,-0.05886 -0.104799,-0.0701 -0.21784,-0.177599 -0.264304,-0.251349 -0.01848,-0.02932 -0.08925,-0.182005 -0.157271,-0.33929 -0.06802,-0.157285 -0.125167,-0.287518 -0.126985,-0.289406 -0.0059,-0.0062 -0.206813,0.622308 -0.217976,0.682014 -0.006,0.03199 -0.0095,0.114023 -0.0078,0.182295 0.0031,0.122425 0.0029,0.123824 -0.01496,0.101787 -0.02632,-0.03254 -0.09676,-0.176317 -0.125311,-0.255788 -0.05675,-0.157935 -0.06991,-0.251341 -0.06957,-0.493607 3.31e-4,-0.240765 0.01276,-0.330941 0.06876,-0.499242 0.164785,-0.495205 0.60376,-0.893932 1.162068,-1.055523 0.24857,-0.07194 0.620026,-0.09525 0.930626,-0.05839 0.607965,0.07215 1.080349,0.378212 1.319888,0.855163 0.119792,0.238522 0.182552,0.564371 0.158391,0.822373 -0.02384,0.254628 -0.114323,0.539496 -0.258198,0.812924 -0.05271,0.100183 -0.20542,0.33965 -0.216121,0.338913 -0.003,-2.09e-4 -0.116715,-0.09991 -0.252674,-0.221561 z"
               id="path1"
               inkscape:label="logo" /></g></g></g></g></g></svg>
