<?xml version="1.0" encoding="UTF-8" standalone="no"?>
<!-- Created with Inkscape (http://www.inkscape.org/) -->

<svg
   version="1.1"
   id="svg1"
   width="369.56339"
   height="32"
   viewBox="0 0 369.56339 32"
   xmlns="http://www.w3.org/2000/svg"
   xmlns:svg="http://www.w3.org/2000/svg">
  <defs
     id="defs1" />
  <path
     style="display:inline;fill:#090909;stroke-width:1"
     d="m 294.8497,31.154809 c -4.07889,-1.774227 -5.13492,-5.911372 -3.6811,-14.421115 2.11519,-12.381025 5.44202,-16.056254 14.5097,-16.029241 9.01066,0.02684 11.54686,5.278694 8.7207,18.058438 -1.72557,7.802959 -3.45164,10.567459 -7.70854,12.346105 -2.65097,1.107648 -9.34014,1.133529 -11.84076,0.04581 z m 8.73649,-6.286839 c 1.36841,-1.368408 2.91352,-6.890745 3.62737,-12.964447 0.42333,-3.601837 -0.2794,-4.836583 -2.75261,-4.836583 -2.22269,0 -3.10404,1.491679 -4.5528,7.705594 -1.49887,6.428878 -1.55616,9.998087 -0.17341,10.803465 1.55118,0.903482 2.39508,0.748345 3.85145,-0.708029 z m 18.3694,6.117275 c -4.58523,-2.338062 -5.4799,-6.308297 -3.54459,-15.72961 1.39848,-6.808006 2.6724,-9.705822 5.20279,-11.83501 2.59421,-2.182885 5.43869,-2.916593 10.03284,-2.587884 4.56596,0.326694 6.50643,1.404223 8.16833,4.535839 1.29644,2.442946 1.01213,8.315749 -0.73348,15.151054 -2.18803,8.567641 -5.51785,11.482068 -13.11669,11.480365 -2.68187,-5.8e-4 -4.68305,-0.338535 -6.0092,-1.014754 z m 8.15685,-5.3628 c 1.7999,0 5.27105,-14.981523 4.01495,-17.328578 -0.8258,-1.54301 -3.54137,-1.640053 -4.86816,-0.173967 -0.96645,1.067917 -2.8653,8.00652 -3.55154,12.977737 -0.3184,2.306453 -0.1868,2.912596 0.8595,3.958886 0.68382,0.683826 1.62496,1.085979 2.10783,0.900686 0.4798,-0.18412 1.12664,-0.334764 1.43742,-0.334764 z m 18.34102,5.184652 c -3.3201,-1.752984 -4.13369,-3.874538 -3.75536,-9.792715 0.17438,-2.727791 0.83333,-6.86354 1.46435,-9.190554 2.13661,-7.879212 5.16883,-10.585475 12.35126,-11.023512 4.91139,-0.299533 8.65232,1.187616 10.11821,4.022331 2.36403,4.571518 -0.0713,19.064764 -3.94477,23.476411 -0.97401,1.10933 -2.67822,2.396062 -3.78716,2.859403 -2.99696,1.25221 -9.77162,1.060962 -12.44653,-0.351364 z m 9.10833,-5.987785 c 1.52962,-1.529627 2.19835,-3.604584 3.38531,-10.504128 1.01994,-5.928698 0.68286,-6.958315 -2.27807,-6.958315 -2.00163,0 -2.36237,0.226449 -3.23305,2.029509 -1.2774,2.6453 -3.0575,12.768105 -2.57991,14.670982 0.32372,1.289809 1.04373,1.812598 2.86147,2.077681 0.25369,0.037 1.0836,-0.555083 1.84425,-1.315729 z M 0.01658828,31.152022 C -0.15750172,30.977938 1.0587883,23.987192 2.7194583,15.61703 L 5.7388383,0.398555 13.787948,0.240402 c 7.39577,-0.145316 8.26074,-0.05118 10.6565,1.159719 3.16001,1.597184 4.0452,3.220092 4.0397,7.406397 -0.006,4.29143 -1.56477,7.579815 -4.40415,9.288839 -1.23362,0.742515 -2.30611,1.389618 -2.3833,1.438008 -0.0772,0.04839 0.77084,2.347731 1.88454,5.109647 2.81844,6.989605 2.85838,6.863225 -2.10426,6.658468 l -4.12917,-0.170369 -0.98906,-2.609368 c -0.54399,-1.435152 -1.44728,-3.848818 -2.00732,-5.363701 -0.89395,-2.418082 -1.22342,-2.754333 -2.69883,-2.754333 -1.8623497,0 -1.8304897,-0.07026 -3.0240997,6.668385 l -0.71898,4.059017 -3.78821,0.168714 c -2.08351,0.09279 -3.93064002,0.02628 -4.10472002,-0.147803 z M 18.416048,13.58148 c 1.01252,-0.676075 1.97135,-2.829059 1.97135,-4.42651 0,-1.928504 -1.67381,-2.774567 -5.05249,-2.55389 l -2.69359,0.17593 -0.74127,3.189227 c -0.40769,1.754076 -0.75232,3.384931 -0.76583,3.624123 -0.0317,0.560603 6.44077,0.55271 7.28183,-0.0089 z m 11.24911,16.859306 c 0,-0.904147 5.07449,-27.968406 5.55132,-29.607336 0.15577,-0.535412 2.29917,-0.721497 8.20214,-0.71209 6.59351,0.01051 8.41559,0.205384 10.41722,1.114152 3.01597,1.369298 4.25067,3.620032 4.21698,7.687175 -0.0686,8.278441 -3.99838,11.891442 -13.45243,12.36792 -5.3821,0.271255 -5.05158,-0.05908 -6.21985,6.216382 l -0.72867,3.914052 h -3.99336 c -3.36308,0 -3.99335,-0.154714 -3.99335,-0.980255 z m 19.09328,-17.36352 c 0.66099,-0.840317 1.2018,-2.25683 1.2018,-3.147809 0,-2.416172 -1.38298,-3.442377 -4.63918,-3.442377 h -2.81677 l -0.65522,3.334193 c -0.36036,1.833805 -0.76208,3.660363 -0.8927,4.059016 -0.17193,0.524756 0.7062,0.724825 3.18139,0.724825 3.00281,0 3.56512,-0.185933 4.62068,-1.527848 z m 17.85574,17.642356 c -4.78791,-1.27057 -7.22454,-5.908641 -6.55496,-12.477225 0.84549,-8.294205 3.82151,-13.981372 8.65758,-16.544591 2.10044,-1.11328 3.50889,-1.303391 11.01756,-1.487132 L 88.343598,0 l -0.4212,1.358996 c -0.23165,0.747449 -0.8441,2.253509 -1.36099,3.346801 L 85.621598,6.6936 81.472488,6.553214 c -8.47804,-0.286854 -11.31281,1.89904 -12.51227,9.648238 -0.82152,5.30746 -0.36215,6.952848 2.24529,8.042305 3.08576,1.289316 4.96366,0.871561 5.53214,-1.23068 0.65468,-2.420992 0.21501,-3.189227 -1.82525,-3.189227 -2.07271,0 -2.11211,-0.236959 -0.61867,-3.721014 l 1.13912,-2.657441 h 5.8192 c 3.20056,0 5.8182,0.06523 5.81698,0.144965 -0.0216,1.407952 -2.93605,14.500584 -3.43571,15.43422 -0.38038,0.71074 -1.34506,1.540701 -2.14374,1.844358 -1.86733,0.709957 -12.02147,0.608033 -14.8754,-0.149316 z m 32.05426,0.292734 c 0,-0.224776 1.334562,-7.270069 2.965692,-15.656207 l 2.96568,-15.247524 h 4.23529 4.23528 l 1.177,3.624122 c 0.64735,1.993267 1.60139,5.127863 2.1201,6.965768 0.5187,1.837905 1.16671,3.203442 1.44002,3.034527 0.27331,-0.168916 2.50933,-3.303511 4.96893,-6.965768 l 4.47201,-6.658649 h 4.54094 4.54094 l -0.31076,1.594614 c -0.17091,0.877037 -1.54333,7.857097 -3.04982,15.511243 l -2.73907,13.916629 -3.89399,0.171459 c -3.04091,0.133896 -3.894,-0.0072 -3.894,-0.644084 0,-0.65847 1.60448,-9.305262 2.57533,-13.878899 0.39361,-1.854278 -0.52114,-1.04291 -2.78413,2.469475 l -2.2383,3.474086 h -3.64877 -3.64878 l -1.23289,-4.059017 c -0.67809,-2.23246 -1.3243,-4.059017 -1.43603,-4.059017 -0.11173,0 -0.94085,3.783583 -1.84248,8.407963 l -1.63933,8.407964 h -3.93943 c -2.16669,0 -3.939432,-0.183908 -3.939432,-0.408685 z m 35.371442,-0.04662 c 0,-0.278357 3.7716,-7.269848 8.38135,-15.536646 l 8.38136,-15.03054 4.66548,-0.168416 c 2.56602,-0.09263 4.66548,0.0225 4.66548,0.255835 0,0.233338 0.53032,3.570835 1.17849,7.41666 3.07454,18.242497 3.79783,22.987684 3.5428,23.24271 -0.15163,0.151633 -2.02914,0.275697 -4.17223,0.275697 h -3.89653 l -0.3888,-2.754333 c -0.70385,-4.986265 -0.4721,-4.783841 -5.47718,-4.783841 h -4.49644 l -1.99902,3.624122 -1.99902,3.624122 -4.19287,0.170369 c -2.30608,0.0937 -4.19287,-0.05738 -4.19287,-0.335737 z m 20.54814,-13.401663 c 0.41774,-0.675939 -0.30294,-7.597841 -0.79107,-7.597841 -0.58137,0 -4.07327,7.372486 -3.67875,7.767005 0.54711,0.547108 4.11048,0.412249 4.46982,-0.169164 z m 13.33361,11.682489 c 0.55895,-3.207271 4.94273,-26.31294 5.28073,-27.833258 0.26694,-1.200711 0.61265,-1.304684 4.33803,-1.304684 2.22638,0 4.0388,0.195703 4.0276,0.434895 -0.0112,0.239192 -0.39344,2.130984 -0.84942,4.203981 -0.45598,2.072998 -0.83822,4.155053 -0.84942,4.626787 -0.0112,0.471735 2.27938,-1.431396 5.09019,-4.22918 l 5.11055,-5.08688 4.72774,0.170163 4.72774,0.170164 -5.92424,6.102685 c -3.25834,3.356476 -6.5333,6.788828 -7.27769,7.627448 l -1.35345,1.524764 4.71489,7.037586 c 2.59318,3.870672 4.86101,7.41838 5.0396,7.883795 0.26876,0.700362 -0.51569,0.846208 -4.5514,0.846208 h -4.87612 l -3.35242,-5.214469 c -1.84383,-2.867958 -3.55828,-5.341701 -3.80989,-5.497207 -0.25162,-0.155505 -0.92312,2.191006 -1.49223,5.214469 l -1.03476,5.497207 h -4.0325 -4.0325 z m 29.93992,0.57986 c 0.0204,-0.877038 1.26939,-7.857097 2.77549,-15.511243 L 203.3754,0.39855 214.80648,0.241327 c 8.78241,-0.120794 11.43106,0.0091 11.43106,0.560473 0,0.394733 -0.42685,1.835402 -0.94857,3.201486 l -0.94856,2.483789 h -6.84532 c -3.76492,0 -6.96108,0.195703 -7.10257,0.434895 -0.1415,0.239192 -0.44077,1.543876 -0.66505,2.899298 l -0.40779,2.464403 h 6.71935 c 3.69565,0 6.71914,0.195702 6.71889,0.434894 -2.6e-4,0.239192 -0.49547,1.739579 -1.10046,3.334193 l -1.09998,2.899297 -6.36383,0.163265 -6.36382,0.163265 -0.32459,2.419994 c -0.17852,1.330997 -0.19638,2.627446 -0.0397,2.880998 0.15669,0.253552 3.53121,0.461004 7.49893,0.461004 3.96771,0 7.21402,0.214454 7.21402,0.476564 0,0.26211 -0.41594,1.697263 -0.9243,3.189227 l -0.9243,2.712664 h -11.25275 -11.25275 z m 26.57011,1.335018 c -0.24951,-0.249507 4.84688,-27.803026 5.60957,-30.327995 0.16139,-0.534332 2.32495,-0.724825 8.2323,-0.724825 7.15757,0 8.28947,0.139335 10.59866,1.304684 3.13768,1.583446 4.0231,3.212792 4.01761,7.393209 -0.006,4.29143 -1.56477,7.579815 -4.40416,9.288839 -1.23362,0.742515 -2.30777,1.391286 -2.38701,1.441715 -0.0792,0.05043 0.76881,2.416987 1.88455,5.259017 1.11573,2.84203 2.02861,5.506725 2.02861,5.921543 0,0.564183 -1.03651,0.71129 -4.11378,0.583848 l -4.11377,-0.170369 -2.05156,-5.363701 c -1.92375,-5.029544 -2.15446,-5.363701 -3.70329,-5.363701 -1.82884,0 -1.80522,-0.052 -3.02871,6.668385 l -0.73897,4.059017 -3.76148,0.168714 c -2.06882,0.09279 -3.89967,0.03052 -4.06857,-0.13838 z m 18.93809,-18.559482 c 1.79845,-1.798442 1.92368,-4.646565 0.24384,-5.545587 -0.6487,-0.347174 -2.39255,-0.552058 -3.87521,-0.455296 -2.92177,0.19068 -3.01368,0.317579 -3.80243,5.249701 l -0.34774,2.174473 h 3.17913 c 2.60222,0 3.43741,-0.258278 4.60241,-1.423291 z m 20.87016,16.354675 c 0.78338,-4.669654 2.03328,-8.699421 3.21149,-10.354065 0.72247,-1.014617 3.34796,-2.732344 6.76008,-4.422794 6.0242,-2.984546 7.23484,-4.118674 5.99334,-5.614585 -0.6013,-0.724525 -1.97128,-0.918395 -6.48979,-0.918395 -6.36678,0 -6.29058,0.06327 -4.75778,-3.950323 l 0.96983,-2.539447 7.29317,0.208079 c 8.42008,0.240231 10.04092,0.904502 11.13748,4.564501 0.74503,2.486663 0.0172,6.530612 -1.62708,9.040051 -0.54708,0.834946 -3.36221,2.579001 -6.85612,4.247567 -5.31584,2.53865 -6.66836,3.608345 -6.66836,5.273933 0,0.282394 2.93554,0.587224 6.52342,0.6774 7.26027,0.182475 7.12523,0.07196 5.33738,4.367937 l -0.7843,1.884544 h -10.22809 -10.2281 z"
     id="path1" />
</svg>
