<?xml version="1.0" encoding="UTF-8" standalone="no"?>
<!-- Created with Inkscape (http://www.inkscape.org/) -->

<svg
   width="1.2347208in"
   height="0.33323509in"
   viewBox="0 0 31.361909 8.4641713"
   version="1.1"
   id="svg538"
   xml:space="preserve"
   xmlns="http://www.w3.org/2000/svg"
   xmlns:svg="http://www.w3.org/2000/svg"><defs
     id="defs535" /><g
     id="g23"
     transform="translate(-4.7650259,-29.633331)"
     style="stroke-width:1;stroke:none;fill:#ffffff;fill-opacity:1"><text
       xml:space="preserve"
       style="font-size:6.35px;line-height:1.25;font-family:Sans;-inkscape-font-specification:'Sans, Normal';font-variant-ligatures:none;stroke-width:0.264582;stroke:none;fill:#ffffff;fill-opacity:1"
       x="14.613276"
       y="36.350918"
       id="text21"><tspan
         id="tspan21"
         style="font-style:normal;font-variant:normal;font-weight:normal;font-stretch:normal;font-family:'a Apple Tea';-inkscape-font-specification:'a Apple Tea';stroke-width:0.264582;stroke:none;fill:#ffffff;fill-opacity:1"
         x="14.613276"
         y="36.350918">PYRPS</tspan></text><g
       id="g20"
       transform="matrix(0.06248076,0,0,0.06248076,14.139023,32.694712)"
       style="display:inline;fill:#ffffff;fill-opacity:1;stroke:none;stroke-width:4.23464;stroke-linecap:butt;stroke-linejoin:round;stroke-dasharray:none;stroke-opacity:1;paint-order:normal"><path
         style="fill:#ffffff;fill-opacity:1;stroke:none;stroke-width:4.23464;stroke-linecap:butt;stroke-linejoin:round;stroke-dasharray:none;stroke-opacity:1;paint-order:normal"
         d="M -86.528062,6.0361956 H -113.10017 L -86.528062,52.536716 -59.955958,6.0361956 Z"
         id="path19" /><path
         style="fill:#ffffff;fill-opacity:1;stroke:none;stroke-width:4.23464;stroke-linecap:butt;stroke-linejoin:round;stroke-dasharray:none;stroke-opacity:1;paint-order:normal"
         d="M -51.272333,7.9041536 -80.01402,58.201445 -24.911896,52.362091 c 1.542521,-0.171979 2.383896,-1.889125 1.568979,-3.212042 z"
         id="path18" /><path
         style="fill:#ffffff;fill-opacity:1;stroke:none;stroke-width:4.23464;stroke-linecap:butt;stroke-linejoin:round;stroke-dasharray:none;stroke-opacity:1;paint-order:normal"
         d="m -28.438792,61.077466 -53.855937,5.897562 v 17.375187 c 0,1.545167 1.60073,2.569105 3.003021,1.920875 l 51.435,-23.193374 c 1.06627,-0.521229 0.595312,-2.132542 -0.582084,-2.00025 z"
         id="path17" /><path
         style="fill:#ffffff;fill-opacity:1;stroke:none;stroke-width:4.23464;stroke-linecap:butt;stroke-linejoin:round;stroke-dasharray:none;stroke-opacity:1;paint-order:normal"
         d="m -49.346166,-5.1239294 21.571478,-12.8852076 c 0.669396,-0.402167 0.687917,-1.36525 0.0344,-1.793875 L -67.642104,-45.89093 c -1.902354,-1.08744 -4.0005,1.0795 -2.852208,2.94746 z"
         id="path16" /><path
         style="fill:#ffffff;fill-opacity:1;stroke:none;stroke-width:4.23464;stroke-linecap:butt;stroke-linejoin:round;stroke-dasharray:none;stroke-opacity:1;paint-order:normal"
         d="M -24.631438,-10.076929 -44.909104,2.0912576 -24.988625,34.463029 c 0.558271,0.910166 1.960562,0.513291 1.960562,-0.555625 V -9.1694084 c 0,-0.822854 -0.896937,-1.3308536 -1.603375,-0.9075206 z"
         id="path15" /><path
         style="fill:#ffffff;fill-opacity:1;stroke:none;stroke-width:4.23464;stroke-linecap:butt;stroke-linejoin:round;stroke-dasharray:none;stroke-opacity:1;paint-order:normal"
         d="m -86.528062,-2.4304714 h 28.895146 L -82.921791,-46.98102 c -0.828146,-1.34408 -2.217208,-2.01612 -3.606271,-2.01612 -1.389062,0 -2.778125,0.67204 -3.606271,2.01612 l -25.288877,44.5505486 z"
         id="path14" /><path
         style="display:inline;fill:#ffffff;fill-opacity:1;stroke:none;stroke-width:4.23464;stroke-linecap:butt;stroke-linejoin:round;stroke-dasharray:none;stroke-opacity:1;paint-order:normal"
         d="m -123.70996,-5.1239294 21.14815,-37.8195406 c 1.14829,-1.86796 -0.94986,-4.0349 -2.85221,-2.94746 l -39.90181,26.090563 c -0.65353,0.428625 -0.63236,1.391709 0.0344,1.793875 z"
         id="path13" /><path
         style="fill:#ffffff;fill-opacity:1;stroke:none;stroke-width:4.23464;stroke-linecap:butt;stroke-linejoin:round;stroke-dasharray:none;stroke-opacity:1;paint-order:normal"
         d="m -145.19942,63.080362 51.435004,23.193374 c 1.402292,0.648229 3.003021,-0.378354 3.003021,-1.920875 V 66.977674 l -53.855935,-5.900208 c -1.1774,-0.132292 -1.64836,1.479021 -0.58209,2.002896 z"
         id="path12" /><path
         style="fill:#ffffff;fill-opacity:1;stroke:none;stroke-width:4.23464;stroke-linecap:butt;stroke-linejoin:round;stroke-dasharray:none;stroke-opacity:1;paint-order:normal"
         d="m -148.0675,34.460383 19.92048,-32.3717714 -20.27767,-12.1655406 c -0.70644,-0.423333 -1.60337,0.08467 -1.60337,0.9075206 V 33.907404 c 0,1.06627 1.39964,1.463145 1.96056,0.552979 z"
         id="path11" /><path
         style="fill:#ffffff;fill-opacity:1;stroke:none;stroke-width:4.23464;stroke-linecap:butt;stroke-linejoin:round;stroke-dasharray:none;stroke-opacity:1;paint-order:normal"
         d="m -121.78379,7.9041536 -27.92677,41.2458954 c -0.81492,1.322917 0.0265,3.042709 1.56898,3.212042 l 55.102122,5.839354 z"
         id="path1-67" /></g></g></svg>
