<?xml version="1.0" encoding="UTF-8" standalone="no"?>
<!-- Created with Inkscape (http://www.inkscape.org/) -->

<svg
   width="18.466833mm"
   height="21.166666mm"
   viewBox="0 0 18.466833 21.166665"
   version="1.1"
   id="svg1"
   xmlns="http://www.w3.org/2000/svg"
   xmlns:svg="http://www.w3.org/2000/svg">
  <defs
     id="defs1" />
  <g
     id="layer1"
     transform="translate(-97.843179,-140.43958)">
    <g
       id="g17"
       transform="matrix(1.5389079,0,0,1.5389079,20.457325,-68.208838)"
       style="display:inline;stroke-width:0.649811">
      <g
         id="g2"
         transform="translate(-11.162892,79.448335)"
         style="display:inline;stroke-width:0.649811">
        <path
           style="fill:#000000;stroke-width:0.0097472"
           d="m 67.244137,69.835981 c -0.4301,-0.132159 -0.73699,-0.254704 -1.10752,-0.44224 -1.55838,-0.788739 -2.90073,-2.262487 -3.88011,-4.259927 -0.30225,-0.616437 -0.57184,-1.289995 -0.7403,-1.849578 l -0.0671,-0.22289 v -1.57348 -1.573482 l 0.0412,-0.0092 c 0.35436,-0.07887 0.53836,-0.166074 0.76486,-0.3625 0.38806,-0.336532 0.70719,-1.044655 0.8206,-1.820815 0.0128,-0.08768 0.0233,-0.183417 0.0233,-0.212739 0,-0.03771 0.008,-0.05567 0.0263,-0.06135 2.4215,-0.741733 4.30526,-1.313981 4.32543,-1.313981 0.0226,0 0.71279,0.208716 2.25582,0.682167 0.198,0.06075 0.51862,0.158864 0.7125,0.218024 0.19387,0.05916 0.52462,0.160393 0.735,0.22496 0.21037,0.06457 0.4406,0.134937 0.51161,0.156379 l 0.12912,0.03898 0.01,0.119835 c 0.0142,0.170686 0.0466,0.349637 0.10839,0.599652 0.1335,0.540033 0.36482,0.999617 0.64834,1.288119 0.24495,0.249253 0.44474,0.353898 0.84629,0.443272 l 0.0412,0.0092 v 1.568728 1.568725 l -0.045,0.154329 c -0.2141,0.734986 -0.62608,1.710504 -1.03896,2.460148 -1.02416,1.859516 -2.37036,3.193201 -3.91156,3.875212 -0.33533,0.148389 -0.91825,0.348528 -1.0095,0.346599 -0.0179,-2.65e-4 -0.10788,-0.02384 -0.19999,-0.05214 z m 0.49475,-0.417661 c 0.66795,-0.220514 1.30062,-0.55753 1.88523,-1.004244 0.54965,-0.420005 1.13211,-1.017233 1.59515,-1.635586 0.74775,-0.998579 1.4187,-2.324639 1.80032,-3.558116 l 0.0697,-0.225245 -0.004,-1.392214 -0.004,-1.392214 -0.1125,-0.04117 c -0.41042,-0.150183 -0.74246,-0.443021 -1.01291,-0.893321 -0.21027,-0.35011 -0.3883,-0.859763 -0.47263,-1.353018 -0.0164,-0.09614 -0.0325,-0.177424 -0.0357,-0.180636 -0.006,-0.0064 -0.13297,-0.04532 -2.42113,-0.74489 -0.85244,-0.260622 -1.56189,-0.473858 -1.57656,-0.473858 -0.0147,0 -0.48834,0.141166 -1.05261,0.313701 -0.56427,0.172534 -1.25882,0.384847 -1.54344,0.471805 -1.16514,0.355967 -1.39851,0.427998 -1.40379,0.433279 -0.003,0.003 -0.0229,0.09963 -0.0441,0.214627 -0.21479,1.165029 -0.75611,1.970005 -1.49213,2.218896 l -0.0975,0.03297 -0.004,1.392843 -0.004,1.392843 0.0672,0.219015 c 0.37702,1.229489 1.06488,2.587577 1.81349,3.580505 0.98851,1.311124 2.15009,2.186834 3.48951,2.630729 0.11962,0.03965 0.23965,0.07246 0.26673,0.07293 0.0271,5.29e-4 0.15894,-0.03537 0.29305,-0.07964 z m -0.39477,-0.220548 c -0.0761,-0.032 -0.165,-0.150728 -0.165,-0.220414 0,-0.02138 -0.0382,-0.04234 -0.16875,-0.09249 -0.6545,-0.251481 -1.31699,-0.669071 -1.91603,-1.207731 -1.12925,-1.015431 -2.15049,-2.66071 -2.7372,-4.409807 l -0.098,-0.292246 V 61.920127 60.86517 l -0.0692,-0.05781 c -0.0792,-0.0662 -0.11098,-0.129995 -0.11051,-0.221813 10e-4,-0.203907 0.20411,-0.337929 0.38174,-0.251942 l 0.0691,0.03346 0.11334,-0.08681 c 0.53246,-0.407834 0.92835,-1.08921 1.1414,-1.964483 l 0.0549,-0.225544 1.66378,-0.509455 1.66378,-0.509456 0.0275,-0.07292 c 0.0343,-0.09098 0.0653,-0.126341 0.14162,-0.161375 0.15452,-0.07096 0.31344,0.0044 0.37319,0.17702 l 0.0196,0.05652 0.49362,0.151556 c 0.27149,0.08335 1.02012,0.312465 1.66362,0.509132 l 1.17,0.357576 0.0644,0.262089 c 0.0815,0.331393 0.16991,0.578585 0.3118,0.871357 0.22355,0.461259 0.49909,0.816118 0.82302,1.059926 l 0.11248,0.08466 0.0689,-0.03336 c 0.17601,-0.08521 0.38187,0.05119 0.38187,0.253026 0,0.09112 -0.032,0.154962 -0.11085,0.220827 l -0.0692,0.05781 v 1.052369 1.052373 l -0.0976,0.295029 c -0.20336,0.614664 -0.48113,1.262501 -0.79166,1.846376 -0.99376,1.868519 -2.28517,3.140712 -3.79823,3.741711 -0.099,0.03932 -0.19181,0.07563 -0.20625,0.08067 -0.0144,0.0051 -0.0263,0.02315 -0.0263,0.04024 0,0.05171 -0.0565,0.145643 -0.11383,0.189405 -0.0415,0.03163 -0.0739,0.04231 -0.13889,0.04573 -0.0466,0.0024 -0.10165,-0.0026 -0.12227,-0.0113 z m -0.0742,-0.472448 c 0.0352,-0.04237 0.10135,-0.06651 0.18219,-0.06646 0.0754,6.1e-5 0.10261,0.01087 0.19366,0.07709 0.0303,0.02204 0.22158,-0.04885 0.53505,-0.198295 1.12412,-0.535914 2.11842,-1.468287 2.94638,-2.76288 0.48507,-0.758444 0.92758,-1.685787 1.22577,-2.568749 l 0.0911,-0.269719 -5.6e-4,-1.042498 -5.5e-4,-1.042501 -0.0567,-0.0392 c -0.0665,-0.04592 -0.10869,-0.125717 -0.10982,-0.207647 -7.6e-4,-0.05547 -0.007,-0.06306 -0.1303,-0.155348 -0.55313,-0.414435 -1.00212,-1.165349 -1.21055,-2.024573 l -0.0429,-0.176766 -0.0755,-0.02215 c -0.0415,-0.01217 -0.76741,-0.233754 -1.61303,-0.492387 l -1.5375,-0.470241 -0.0485,0.04227 c -0.10034,0.08735 -0.23941,0.08738 -0.33713,6.1e-5 l -0.047,-0.042 -0.13616,0.04125 c -0.0749,0.02267 -0.37915,0.11557 -0.67615,0.206412 -0.61943,0.189463 -2.35834,0.720609 -2.39355,0.731102 -0.0153,0.0046 -0.033,0.04757 -0.0505,0.123113 -0.12993,0.558798 -0.38998,1.139085 -0.69064,1.541122 -0.12692,0.169717 -0.38225,0.428691 -0.53652,0.544176 -0.12552,0.09396 -0.13125,0.10079 -0.13125,0.156374 0,0.07783 -0.049,0.16955 -0.11267,0.21077 l -0.052,0.03366 -1.9e-4,1.044598 -1.8e-4,1.044602 0.0989,0.290399 c 0.42602,1.251283 1.07541,2.458484 1.82246,3.387902 0.78092,0.971552 1.66562,1.656598 2.66373,2.062604 0.1808,0.07354 0.2027,0.07771 0.23076,0.0439 z"
           id="path708" />
      </g>
    </g>
  </g>
</svg>
