<?xml version="1.0" encoding="UTF-8" standalone="no"?>
<!-- Created with Inkscape (http://www.inkscape.org/) -->

<svg
   width="1.0781615in"
   height="0.33333397in"
   viewBox="0 0 27.385302 8.4666834"
   version="1.1"
   id="svg538"
   inkscape:version="1.3 (0e150ed6c4, 2023-07-21)"
   sodipodi:docname="assets.svg"
   xml:space="preserve"
   inkscape:export-filename="../static/assets/img/siteLogo.svg"
   inkscape:export-xdpi="96"
   inkscape:export-ydpi="96"
   xmlns:inkscape="http://www.inkscape.org/namespaces/inkscape"
   xmlns:sodipodi="http://sodipodi.sourceforge.net/DTD/sodipodi-0.dtd"
   xmlns="http://www.w3.org/2000/svg"
   xmlns:svg="http://www.w3.org/2000/svg"><sodipodi:namedview
     id="namedview540"
     pagecolor="#ffffff"
     bordercolor="#666666"
     borderopacity="1.0"
     inkscape:showpageshadow="2"
     inkscape:pageopacity="0.0"
     inkscape:pagecheckerboard="true"
     inkscape:deskcolor="#d1d1d1"
     inkscape:document-units="px"
     showgrid="true"
     inkscape:zoom="0.5"
     inkscape:cx="258"
     inkscape:cy="340"
     inkscape:window-width="1920"
     inkscape:window-height="1023"
     inkscape:window-x="1775"
     inkscape:window-y="29"
     inkscape:window-maximized="1"
     inkscape:current-layer="layer2"
     showguides="true"><inkscape:grid
       id="grid4"
       units="px"
       originx="-16.000001"
       originy="-592.20791"
       spacingx="4.2333335"
       spacingy="4.2333335"
       empcolor="#0099e5"
       empopacity="0.30196078"
       color="#0099e5"
       opacity="0.14901961"
       empspacing="2"
       dotted="false"
       gridanglex="30"
       gridanglez="30"
       visible="true" /></sodipodi:namedview><defs
     id="defs535" /><g
     inkscape:groupmode="layer"
     id="layer7"
     inkscape:label="PAGE"
     transform="translate(-4.2333337,-156.68835)"><rect
       style="font-variation-settings:normal;opacity:1;vector-effect:none;fill:#ffffff;fill-opacity:1;stroke-width:0.264583;stroke-linecap:butt;stroke-linejoin:miter;stroke-miterlimit:4;stroke-dasharray:none;stroke-dashoffset:0;stroke-opacity:1;-inkscape-stroke:none;paint-order:stroke fill markers"
       id="rect4"
       width="215.90001"
       height="279.40002"
       x="0"
       y="0"
       inkscape:label="BACKGROUND"
       sodipodi:insensitive="true" /><g
       inkscape:label="STATIC"
       inkscape:groupmode="layer"
       id="layer1"
       transform="translate(-1.3218059,-1.0580903)"><g
         inkscape:groupmode="layer"
         id="layer3"
         inkscape:label="ASSETS"><g
           inkscape:groupmode="layer"
           id="layer4"
           inkscape:label="ENGINE"
           transform="translate(26.124729,123.94585)"><g
             inkscape:groupmode="layer"
             id="layer5"
             inkscape:label="GURPS"
             transform="translate(-40.502187,-145.30259)"><path
               style="display:inline;fill:#0e0e0e;stroke-width:1"
               d="m 21.097244,186.38171 -1.164646,-1.18815 v -1.84063 c 0,-1.80601 0.0014,-1.84234 0.07737,-1.93067 0.04256,-0.0495 0.576209,-0.59156 1.185896,-1.20455 l 1.108522,-1.11453 H 33.63614 44.96789 l 1.173505,1.18945 1.173505,1.18946 0.0015,1.86768 0.0015,1.86767 -1.16818,1.17621 -1.16818,1.1762 H 33.621858 22.261901 Z m 24.727999,-0.27453 c 0.56354,-0.57782 1.036075,-1.07936 1.050085,-1.11453 0.0456,-0.11455 0.03515,-3.22584 -0.01115,-3.31634 -0.02305,-0.045 -0.498935,-0.54122 -1.057575,-1.1027 l -1.015705,-1.02087 H 33.620493 22.450083 l -1.033965,1.0553 -1.033966,1.0553 0.002,1.68888 0.002,1.68887 1.037628,1.05807 1.037628,1.05807 11.169635,2.9e-4 11.16963,2.8e-4 z m -21.346607,0.0744 c -0.729002,-0.095 -1.452919,-0.48235 -1.917089,-1.02575 -0.190534,-0.22306 -0.461344,-0.76278 -0.555723,-1.10756 -0.105218,-0.38438 -0.09556,-1.17028 0.01887,-1.53467 0.119317,-0.37997 0.261053,-0.64582 0.508079,-0.95294 0.811695,-1.00918 2.160617,-1.16623 3.262627,-0.37985 0.27003,0.19269 0.487717,0.4446 0.445869,0.51598 -0.08686,0.14815 -0.703671,0.85295 -0.746464,0.85295 -0.02802,0 -0.09615,-0.0389 -0.151401,-0.0864 -0.0999,-0.0859 -0.100099,-0.0871 -0.03544,-0.21214 0.07588,-0.14674 0.06082,-0.35256 -0.03669,-0.50139 -0.0355,-0.0542 -0.176144,-0.15345 -0.312543,-0.2206 -0.221117,-0.10885 -0.282601,-0.12209 -0.567223,-0.12209 -0.266245,0 -0.353422,0.0162 -0.525272,0.0976 -0.4039,0.19133 -0.709323,0.57762 -0.870684,1.10123 -0.104925,0.34047 -0.111631,0.97081 -0.01412,1.3267 0.111928,0.40848 0.306385,0.74456 0.599628,1.03635 0.391807,0.38985 0.840533,0.5778 1.379474,0.5778 h 0.254371 v -0.92225 -0.92225 l -0.149852,-0.14986 c -0.116507,-0.1165 -0.149853,-0.17841 -0.149853,-0.27819 v -0.12835 l 0.721165,0.011 0.721165,0.011 0.01184,0.12314 c 0.0094,0.0977 -0.01192,0.14535 -0.103023,0.23045 l -0.114867,0.1073 v 1.01408 1.01409 l 0.11239,0.0831 c 0.09069,0.067 0.112389,0.11067 0.112389,0.2259 0,0.0786 -0.0042,0.14295 -0.0094,0.14312 -0.0052,1.4e-4 -0.194808,0.0251 -0.42146,0.0555 -0.439374,0.0588 -1.088631,0.0664 -1.466796,0.017 z m 17.902823,-5e-4 c -0.38466,-0.05 -0.763715,-0.256 -1.09487,-0.59508 -0.15454,-0.15823 -0.343381,-0.39054 -0.419656,-0.51625 l -0.138675,-0.22856 0.494576,-0.37684 0.49458,-0.37683 0.1084,0.10822 0.1084,0.10823 -0.06157,0.15388 c -0.228455,0.57097 0.20117,1.01808 0.987394,1.02759 0.274665,0.003 0.349315,-0.0105 0.543105,-0.10068 0.26814,-0.12477 0.374865,-0.21828 0.477395,-0.41828 0.09331,-0.18202 0.10092,-0.47964 0.01645,-0.64302 -0.07612,-0.14719 -0.26096,-0.30431 -0.46433,-0.39469 -0.08685,-0.0386 -0.44931,-0.14579 -0.805455,-0.23821 -1.003209,-0.26032 -1.320664,-0.44319 -1.524809,-0.87835 -0.08485,-0.18087 -0.09677,-0.25483 -0.09677,-0.60052 0,-0.37002 0.0076,-0.40963 0.123131,-0.64428 0.218275,-0.4432 0.633195,-0.71791 1.263005,-0.83622 0.654074,-0.12287 1.300144,0.004 1.832424,0.36011 0.27299,0.18258 0.583945,0.48894 0.583945,0.5753 0,0.0313 -0.54722,0.60541 -0.729615,0.76547 -0.0085,0.007 -0.06606,-0.0226 -0.128065,-0.0668 -0.105265,-0.075 -0.11233,-0.095 -0.106565,-0.3029 0.0078,-0.28002 -0.06493,-0.38764 -0.36668,-0.54285 -0.204035,-0.10495 -0.24594,-0.11239 -0.63324,-0.11239 -0.358174,0 -0.438819,0.0119 -0.591279,0.087 -0.21807,0.10741 -0.329265,0.27573 -0.329075,0.49816 2.85e-4,0.37226 0.23933,0.52575 1.210269,0.77723 1.19825,0.31036 1.625525,0.62891 1.77257,1.32156 0.2879,1.35609 -0.860145,2.30639 -2.524979,2.09007 z m -13.663755,-0.0988 c -0.406689,-0.0569 -0.910862,-0.30187 -1.149477,-0.55853 -0.318319,-0.3424 -0.549472,-0.94601 -0.582436,-1.52093 -0.03802,-0.66301 0.109232,-1.23583 0.556384,-2.16444 0.284349,-0.59051 0.295876,-0.67185 0.106332,-0.75036 -0.09795,-0.0406 -0.113173,-0.0647 -0.1035,-0.16396 l 0.01134,-0.11639 h 0.730531 0.730531 l 0.01249,0.10962 c 0.01045,0.0916 -0.02121,0.1415 -0.192954,0.30391 -0.530575,0.50175 -0.921893,1.5278 -0.923889,2.42246 -9.5e-4,0.42071 0.0472,0.68232 0.175467,0.95353 0.258873,0.54737 0.714042,0.79971 1.442508,0.79971 h 0.329297 v -2.06471 -2.06479 l -0.134001,-0.12274 c -0.104448,-0.0957 -0.131301,-0.14636 -0.121756,-0.22984 l 0.01225,-0.10709 h 0.730531 0.730535 l 0.01165,0.12088 c 0.0096,0.0991 -0.01235,0.14199 -0.121755,0.23802 l -0.13343,0.11715 v 2.15601 2.15601 l 0.152645,0.14092 c 0.12109,0.11179 0.15014,0.16288 0.14049,0.24712 l -0.01215,0.1062 -1.142627,0.004 c -0.628444,0.002 -1.193201,-0.003 -1.255015,-0.0117 z m 3.153148,0.001 c -0.06862,-0.0686 -0.01675,-0.2177 0.11551,-0.33201 l 0.14049,-0.12142 0.0106,-2.11028 c 0.0077,-1.53927 -0.001,-2.13872 -0.03295,-2.21539 -0.02395,-0.0578 -0.09269,-0.13414 -0.152785,-0.16963 -0.09242,-0.0546 -0.107545,-0.0848 -0.09817,-0.19594 l 0.0111,-0.13139 1.308376,-0.01 c 1.083055,-0.008 1.34741,1.4e-4 1.535065,0.0482 0.769345,0.1971 1.19523,0.84741 1.072595,1.63781 -0.07757,0.49996 -0.33958,0.86871 -0.76664,1.07895 l -0.242845,0.11955 0.09706,0.19153 c 0.05338,0.10534 0.28143,0.52062 0.506775,0.92285 0.39713,0.70883 0.5701,0.95099 0.711295,0.9958 0.05033,0.016 0.06784,0.0596 0.06784,0.16886 v 0.14733 h -0.57609 c -0.41521,0 -0.586925,-0.0131 -0.614885,-0.0468 -0.03535,-0.0427 -0.25509,-0.44724 -0.768155,-1.41423 -0.10386,-0.19575 -0.243155,-0.45705 -0.30955,-0.58068 l -0.12072,-0.22478 -0.341285,-0.0108 -0.34129,-0.0108 v 0.88554 0.88553 l 0.13112,0.13112 c 0.09844,0.0984 0.13112,0.16288 0.13112,0.2585 v 0.12737 h -0.724286 c -0.39836,0 -0.735525,-0.0112 -0.749265,-0.0249 z m 2.351161,-2.97442 c 0.25554,-0.0514 0.416445,-0.16117 0.536955,-0.36618 0.19951,-0.33939 0.11118,-0.84294 -0.1873,-1.06779 -0.219845,-0.1656 -0.43567,-0.21206 -0.985065,-0.21206 h -0.50444 v 0.83668 c 0,0.46017 0.007,0.8437 0.0156,0.85228 0.02915,0.0291 0.93874,-0.006 1.124255,-0.0429 z m 2.48237,2.97521 c -0.01415,-0.0142 -0.02575,-0.0808 -0.02575,-0.14811 0,-0.0889 0.0202,-0.12877 0.07395,-0.14583 0.0407,-0.0129 0.10811,-0.0669 0.149855,-0.11996 0.07418,-0.0943 0.0759,-0.1441 0.07576,-2.19875 -1.35e-4,-2.00974 -0.0035,-2.10746 -0.07234,-2.22066 -0.0397,-0.0651 -0.10801,-0.12978 -0.15178,-0.14367 -0.06523,-0.0207 -0.07752,-0.05 -0.06815,-0.16256 l 0.01145,-0.13731 1.161355,-0.0104 c 0.638745,-0.006 1.262505,0.005 1.386135,0.0246 0.396805,0.0618 0.65195,0.18216 0.889555,0.41977 0.33039,0.33039 0.380745,0.47295 0.38263,1.08325 0.0015,0.49074 -0.002,0.51312 -0.116005,0.75389 -0.134235,0.28331 -0.313085,0.49524 -0.61141,0.72451 -0.286495,0.22017 -0.51521,0.32944 -1.254925,0.59951 l -0.638515,0.23312 -0.01125,0.38984 c -0.0153,0.52851 0.005,0.61656 0.163825,0.71852 0.1128,0.0723 0.128745,0.10086 0.119895,0.21454 l -0.0102,0.13112 -0.714135,0.0101 c -0.39278,0.006 -0.72573,-0.001 -0.7399,-0.0156 z m 1.754255,-2.36741 c 0.733065,-0.35571 1.065025,-0.7274 1.097835,-1.22925 0.01855,-0.28338 -0.03855,-0.47021 -0.20734,-0.67894 -0.216235,-0.26736 -0.3624,-0.32011 -0.93784,-0.33848 l -0.49639,-0.0158 v 1.24063 c 0,0.96762 0.0103,1.24058 0.04685,1.24045 0.02575,-1e-4 0.249365,-0.0984 0.496905,-0.21857 z"
               id="path8"
               sodipodi:nodetypes="ccssscccccccccccccsssccccccccccccsssssssssssssssssscccsscccsscccsscsssssscccccssssssssscssssssssscssscssssscccsscsscccssccccscccsscccccscscsscsssscsssscscsscccccsscsccsssscscssssssssscssssssscsssccsscssccsscc"
               inkscape:label="logo" /></g></g></g></g></g></svg>
