<?xml version="1.0" encoding="UTF-8" standalone="no"?>
<!-- Created with Inkscape (http://www.inkscape.org/) -->

<svg
   width="37.999989mm"
   height="9.4596701mm"
   viewBox="0 0 37.999989 9.4596701"
   version="1.1"
   id="svg1"
   xmlns="http://www.w3.org/2000/svg"
   xmlns:svg="http://www.w3.org/2000/svg">
  <defs
     id="defs1" />
  <g
     id="layer1"
     transform="translate(-85.989582,-143.66875)">
    <path
       style="display:inline;fill:#000000;stroke-width:0.0201698"
       d="m 85.989582,148.39858 v -4.72983 l 1.15473,4.8e-4 1.15472,4.7e-4 0.0605,0.0825 c 0.0865,0.11794 0.30897,0.31857 0.44132,0.39802 l 0.11325,0.068 0.21688,-0.0809 c 0.367306,-0.137 0.696986,-0.20941 1.270696,-0.27908 0.0566,-0.007 0.0927,-0.0236 0.10649,-0.0493 0.0303,-0.0567 0.12643,-0.0998 0.22233,-0.0998 0.0692,0 0.0963,0.0126 0.15611,0.0724 0.0696,0.0696 0.0803,0.0732 0.27532,0.092 0.39206,0.0379 0.89084,0.16192 1.29562,0.32217 0.0601,0.0238 0.0713,0.0205 0.18153,-0.0524 0.17393,-0.11514 0.29374,-0.22119 0.4011,-0.35505 l 0.0958,-0.11947 h 1.15661 1.15662 v 0.47399 0.474 h 13.521972 13.52197 l 0.0555,0.0958 c 0.0997,0.17223 0.33844,0.51513 0.49997,0.71823 0.31312,0.39373 0.57504,0.63559 0.82484,0.76169 l 0.11611,0.0586 v 2.1475 2.14751 l -0.11611,0.0586 c -0.36664,0.18508 -0.8655,0.73365 -1.27618,1.40332 l -0.10573,0.17241 H 108.97037 95.449208 v 0.47399 0.47399 h -1.15661 -1.15662 l -0.0958,-0.11947 c -0.15714,-0.19592 -0.479,-0.44102 -0.55032,-0.41908 -0.0197,0.006 -0.1203,0.0432 -0.22352,0.0826 -0.27532,0.10495 -0.70749,0.20756 -1.03031,0.24464 -0.27812,0.0319 -0.28465,0.0338 -0.3526,0.10178 -0.0566,0.0566 -0.0845,0.0692 -0.15292,0.0692 -0.0958,0 -0.19199,-0.0431 -0.22222,-0.0996 -0.0153,-0.0286 -0.051,-0.0418 -0.13674,-0.0507 -0.47621,-0.0493 -0.86293,-0.13544 -1.235746,-0.27517 l -0.22226,-0.0833 -0.11297,0.0678 c -0.1321,0.0793 -0.3546,0.28001 -0.44103,0.39785 l -0.0605,0.0825 -1.15473,4.7e-4 -1.15472,4.8e-4 z m 4.518046,4.2858 c 0,-0.0396 0.13083,-0.10041 0.21612,-0.10048 0.0645,-6e-5 0.10105,0.0138 0.15128,0.0572 l 0.0662,0.0573 0.19071,-0.0173 c 0.23174,-0.021 0.61621,-0.0979 0.84701,-0.16944 0.14854,-0.0461 0.16536,-0.0558 0.1311,-0.0761 -0.0581,-0.0343 -2.57428,-0.0441 -2.729756,-0.0106 l -0.11316,0.0244 0.201696,0.0643 c 0.2298,0.0733 0.56566,0.14242 0.81688,0.1682 0.0943,0.01 0.18279,0.0188 0.19665,0.0203 0.0139,0.001 0.0252,-0.007 0.0252,-0.0178 z m -2.409346,-0.22417 c 0.22983,-0.24004 0.64516,-0.47808 1.00755,-0.57745 l 0.20169,-0.0553 1.411886,1.2e-4 1.41189,1.2e-4 0.2017,0.0565 c 0.36091,0.10116 0.68044,0.28078 0.97133,0.54602 l 0.12419,0.11325 h 0.21578 c 0.37091,0 0.61296,-0.0927 0.83697,-0.32037 0.21002,-0.2135 0.3171,-0.46781 0.36194,-0.85957 0.0284,-0.24797 0.0284,-5.68196 0,-5.92993 -0.045,-0.393 -0.15233,-0.64747 -0.36194,-0.85795 -0.22966,-0.23061 -0.46721,-0.322 -0.83697,-0.322 h -0.21578 l -0.12419,0.11325 c -0.25796,0.23521 -0.52974,0.39989 -0.82006,0.49688 -0.32195,0.10756 -0.29417,0.10591 -1.78503,0.10579 l -1.391716,-1.2e-4 -0.20169,-0.0553 c -0.36343,-0.0996 -0.70619,-0.29201 -0.97233,-0.54584 l -0.12519,-0.11941 -0.26812,0.01 c -0.20506,0.007 -0.29621,0.0199 -0.38751,0.0529 -0.30764,0.11123 -0.54597,0.35227 -0.66661,0.67416 -0.11559,0.30842 -0.11296,0.22232 -0.10688,3.49499 l 0.006,3.00389 0.0447,0.15724 c 0.0884,0.3111 0.22645,0.52855 0.43645,0.68774 0.20529,0.15561 0.39191,0.21074 0.71972,0.21261 l 0.23291,0.001 z m 32.282518,-0.85268 c 0.31774,-0.12794 0.76668,-0.32936 0.79409,-0.35627 0.0118,-0.0116 -4.88867,-0.0188 -12.85325,-0.0188 H 95.449238 v 0.24204 0.24204 h 12.330442 12.33043 z m 2.00607,-0.11531 c 0.34343,-0.4967 0.76789,-0.96799 1.03327,-1.14725 l 0.1045,-0.0706 5.3e-4,-0.25009 5.3e-4,-0.25009 -0.0979,0.12907 c -0.47969,0.63265 -1.34455,1.23089 -2.58473,1.78788 -0.0385,0.0173 0.11955,0.023 0.66914,0.024 l 0.71955,0.001 0.15509,-0.2243 z m -26.514062,-3.09364 v -2.59183 h -0.21178 -0.21179 v 2.59183 2.59182 h 0.21179 0.21178 z m 25.999602,2.48049 c 0.79955,-0.48482 1.34602,-0.99908 1.58503,-1.4916 l 0.0682,-0.14062 v -0.85332 -0.85332 l -0.0633,-0.12549 c -0.25889,-0.51304 -0.80347,-1.02334 -1.61547,-1.51376 l -0.15597,-0.0942 H 108.90288 96.114848 v 2.59182 2.59183 h 12.786982 12.78698 z m 1.65203,-4.10921 -0.001,-0.24708 -0.14095,-0.10084 c -0.27227,-0.19482 -0.66511,-0.6379 -1.01483,-1.14464 l -0.13572,-0.19666 -0.71952,0.001 c -0.55419,0.001 -0.70792,0.007 -0.66908,0.0243 0.27343,0.12427 0.6956,0.33186 0.8673,0.42649 0.77206,0.42548 1.39758,0.92247 1.72129,1.3676 0.0461,0.0635 0.0862,0.11566 0.089,0.11598 0.003,3.2e-4 0.005,-0.1106 0.004,-0.24649 z m -2.3212,-1.21478 c -0.0198,-0.0198 -0.56155,-0.2606 -0.82244,-0.36555 l -0.27069,-0.10889 H 107.77968 95.449238 v 0.24204 0.24204 h 12.881822 c 7.085,0 12.87748,-0.004 12.87218,-0.01 z m -29.093142,-1.19352 c 0.0343,-0.0202 0.0174,-0.03 -0.1311,-0.0761 -0.23079,-0.0716 -0.61526,-0.14847 -0.847,-0.16943 l -0.19072,-0.0173 -0.0662,0.0573 c -0.0491,0.0424 -0.0873,0.0573 -0.14723,0.0573 -0.086,0 -0.18741,-0.042 -0.21412,-0.0887 -0.0336,-0.0587 -0.69173,0.0429 -1.06496,0.16453 l -0.181526,0.0591 0.0908,0.0215 c 0.131086,0.0311 2.698526,0.0234 2.752146,-0.008 z"
       id="path1361" />
  </g>
</svg>
