<?xml version="1.0" encoding="UTF-8" standalone="no"?>
<!-- Created with Inkscape (http://www.inkscape.org/) -->

<svg
   width="143.61548"
   height="36.170109"
   viewBox="0 0 37.998262 9.5700081"
   version="1.1"
   id="svg1"
   xmlns="http://www.w3.org/2000/svg"
   xmlns:svg="http://www.w3.org/2000/svg">
  <defs
     id="defs1" />
  <g
     id="layer1"
     transform="translate(-169.15069,-25.482348)">
    <path
       style="display:inline;fill:#000000;stroke-width:0.0200685"
       d="m 173.38086,35.02071 c -0.0438,-0.04382 -0.0422,-0.0641 0.0156,-0.191451 l 0.0488,-0.107621 -0.0364,-0.0074 c -0.0199,-0.0041 -0.10511,-0.01177 -0.1891,-0.01722 -0.42969,-0.02775 -1.00139,-0.171333 -1.39897,-0.351461 l -0.10575,-0.04795 0.50466,-2.25e-4 c 0.37805,-2.15e-4 0.57136,-0.0083 0.77057,-0.03064 0.25118,-0.02858 0.82121,-0.117792 0.8292,-0.129734 0.002,-0.0033 0.0276,-0.03652 0.0568,-0.07437 0.0291,-0.03785 0.053,-0.07223 0.053,-0.07628 0,-0.0041 -0.0617,0.0059 -0.13711,0.02278 -0.51509,0.11332 -0.92773,0.163663 -1.4335,0.174885 -0.57098,0.01267 -0.95034,-0.02924 -1.38103,-0.152666 -0.56255,-0.16118 -1.06993,-0.472084 -1.34892,-0.826579 -0.12537,-0.159306 -0.12115,-0.161675 0.0387,-0.02178 0.31414,0.274937 0.7322,0.509211 1.03723,0.581239 0.0957,0.02261 0.17591,0.03934 0.17809,0.03719 0.002,-0.0024 -0.0713,-0.06683 -0.1632,-0.143665 -0.82816,-0.692247 -1.37451,-1.687253 -1.53765,-2.80043 -0.0445,-0.303194 -0.0407,-0.920112 0.007,-1.2299 0.13286,-0.854902 0.48192,-1.618 1.03414,-2.260706 0.14916,-0.173621 0.41126,-0.428995 0.56091,-0.546556 0.0571,-0.0449 0.10138,-0.08397 0.0984,-0.08695 -0.003,-0.0033 -0.0834,0.01333 -0.17884,0.03628 -0.33865,0.08132 -0.77744,0.336637 -1.11065,0.646168 l -0.073,0.06775 0.0314,-0.05755 c 0.0172,-0.03171 0.10994,-0.136905 0.20593,-0.233845 0.55528,-0.560799 1.3867,-0.847081 2.4598,-0.846965 0.49449,5e-5 0.93487,0.04629 1.44362,0.151554 0.13126,0.02716 0.24514,0.04712 0.25309,0.04448 0.007,-0.0024 -0.012,-0.03843 -0.0445,-0.07934 l -0.0589,-0.07445 -0.22007,-0.03628 c -0.58084,-0.09569 -0.97116,-0.127108 -1.48709,-0.119729 -0.21921,0.0033 -0.39689,0.0041 -0.39486,0.0017 0.0192,-0.01913 0.49378,-0.195763 0.63491,-0.236311 0.31402,-0.09024 0.54935,-0.131349 1.01473,-0.177312 l 0.0854,-0.0084 -0.0511,-0.114776 c -0.0433,-0.09738 -0.0481,-0.121097 -0.032,-0.156459 0.0213,-0.0468 0.0946,-0.07272 0.13489,-0.04762 0.0146,0.0091 0.083,0.109965 0.1521,0.224204 0.48994,0.810318 1.08159,1.409479 1.6158,1.636285 0.22686,0.09632 0.78546,0.230158 1.04375,0.250077 0.16912,0.013 0.16689,0.0059 -0.0571,-0.196893 -0.51598,-0.466031 -1.0709,-0.766591 -1.71255,-0.927582 -0.24736,-0.06202 -0.25091,-0.06361 -0.31917,-0.138982 -0.0961,-0.106075 -0.18546,-0.24481 -0.23261,-0.360836 -0.0628,-0.154405 -0.0621,-0.155424 0.0888,-0.141809 0.43988,0.03967 0.97386,0.190116 1.43349,0.40381 0.16421,0.07635 0.70539,0.417755 0.86752,0.547299 l 0.11131,0.08893 h 11.45063 l 17.97873,3.73e-4 0.0997,0.162147 c 0.1989,0.323661 0.5479,0.759107 0.74408,0.928404 0.10799,0.09316 0.25108,0.187656 0.33538,0.221453 l 0.054,0.02162 v 2.056637 2.056645 l -0.0765,0.02915 c -0.11033,0.04215 -0.31587,0.203103 -0.47302,0.370434 -0.16179,0.172279 -0.43945,0.538665 -0.583,0.769295 l -0.10288,0.16522 -17.97794,-3.73e-4 h -11.4499 l -0.11492,0.08992 c -0.18931,0.14812 -0.72581,0.480426 -0.92143,0.570731 -0.4167,0.192361 -0.941,0.335983 -1.38363,0.379015 -0.14021,0.01367 -0.14072,0.01284 -0.0857,-0.134123 0.0421,-0.112483 0.17202,-0.309705 0.25899,-0.393111 0.0558,-0.05359 0.0869,-0.0665 0.25471,-0.106138 0.67851,-0.160319 1.31039,-0.507043 1.81016,-0.993249 l 0.13981,-0.136022 -0.0567,-0.0059 c -0.15577,-0.01573 -0.86149,0.140012 -1.11777,0.246697 -0.1502,0.06253 -0.37249,0.199211 -0.53449,0.328622 -0.35826,0.28625 -0.79618,0.817708 -1.10555,1.341745 -0.0486,0.08224 -0.0995,0.162672 -0.11307,0.178662 -0.033,0.03876 -0.0949,0.03685 -0.13593,-0.0041 z m -0.87094,-1.121227 c 0.49681,-0.02485 1.15583,-0.14817 1.69365,-0.316836 0.15745,-0.04935 0.19895,-0.0704 0.29914,-0.151722 0.54454,-0.441741 1.18028,-0.679485 1.90939,-0.714029 l 0.23463,-0.0111 0.0577,-0.07661 c 0.53164,-0.7053 0.79819,-1.494022 0.79819,-2.361876 0,-0.779165 -0.21974,-1.50787 -0.64683,-2.14492 -0.0823,-0.122909 -0.16316,-0.238764 -0.17946,-0.257463 -0.0263,-0.03014 -0.0625,-0.03628 -0.32049,-0.054 -0.48856,-0.03362 -0.84039,-0.124144 -1.23822,-0.318665 -0.21412,-0.104703 -0.42878,-0.241083 -0.61412,-0.390172 -0.12988,-0.10449 -0.23573,-0.144567 -0.68675,-0.260013 -0.44722,-0.114471 -0.87221,-0.182001 -1.3451,-0.213728 -0.27081,-0.01814 -0.27036,-0.0183 -0.62583,0.159979 -1.01612,0.509601 -1.77027,1.454625 -2.03944,2.555587 -0.081,0.33113 -0.10532,0.545072 -0.10511,0.923393 1.9e-4,0.388613 0.0269,0.610266 0.11527,0.95805 0.23777,0.93531 0.81368,1.745092 1.62365,2.283009 0.31381,0.20841 0.75308,0.420466 0.84273,0.406827 0.0234,-0.0033 0.12553,-0.01064 0.22698,-0.01573 z m 5.62432,-0.650566 c -0.21129,-0.09211 -0.74471,-0.246101 -0.91887,-0.265273 l -0.0866,-0.0096 -0.0831,0.103479 c -0.0457,0.0569 -0.10043,0.124749 -0.1217,0.150736 l -0.0386,0.04729 0.65356,-6.63e-4 c 0.6005,-6.53e-4 0.64882,-0.0024 0.59538,-0.02601 z m 26.13171,-0.09458 c 1.29707,-0.552601 2.12282,-1.158378 2.44471,-1.793465 l 0.0567,-0.111771 v -0.982632 -0.982623 l -0.0704,-0.135506 c -0.22455,-0.431911 -0.70603,-0.867234 -1.39938,-1.265181 -0.32879,-0.188716 -0.83734,-0.430196 -1.19499,-0.567409 l -0.14686,-0.05632 -15.89178,-3.72e-4 h -9.3637 l -0.24386,0.109245 c -0.27934,0.125129 -0.74983,0.285912 -0.99929,0.341482 -0.0937,0.02087 -0.17036,0.04431 -0.17036,0.05218 0,0.0074 0.0288,0.05681 0.0641,0.10884 0.35712,0.52715 0.61433,1.26132 0.6846,1.95399 0.0254,0.250689 0.0116,0.871119 -0.0245,1.099074 -0.0969,0.61165 -0.32797,1.223315 -0.65149,1.724868 -0.04,0.06195 -0.0727,0.118081 -0.0726,0.124657 1.1e-4,0.0066 0.1254,0.04274 0.27837,0.08049 0.30062,0.07403 0.63152,0.191052 0.93469,0.330541 l 0.19113,0.08794 9.39046,-0.0024 15.91853,-0.0021 z m 1.56459,-0.06451 c 0.28218,-0.407189 0.64676,-0.811911 0.8495,-0.943069 l 0.0872,-0.05648 v -0.206607 -0.206598 l -0.0786,0.105522 c -0.11209,0.150555 -0.3832,0.418818 -0.58264,0.576536 -0.38771,0.306608 -0.92844,0.619335 -1.54928,0.896013 -0.0316,0.01409 0.10107,0.0188 0.5516,0.01963 l 0.59318,8.28e-4 0.12896,-0.186117 z m 0.93676,-4.43935 v -0.204484 l -0.0955,-0.06775 c -0.25838,-0.183128 -0.61172,-0.582177 -0.8773,-0.990873 l -0.0826,-0.126976 -0.5983,-6.7e-5 -0.59834,-6.6e-5 0.12465,0.05515 c 0.51857,0.229338 1.05532,0.541951 1.44596,0.842165 0.18622,0.143117 0.53236,0.486289 0.61499,0.609696 0.032,0.04779 0.0599,0.08702 0.0623,0.08726 0.002,2.24e-4 0.004,-0.09159 0.004,-0.204045 z m -29.28565,-1.158345 c 0.19031,-0.04646 0.53838,-0.156875 0.65664,-0.208269 0.048,-0.02079 -0.0212,-0.02361 -0.59976,-0.02418 l -0.65391,-6.54e-4 0.0722,0.08485 c 0.0397,0.0467 0.0946,0.114222 0.12205,0.150108 0.0479,0.06261 0.053,0.06484 0.12574,0.05623 0.0418,-0.0049 0.16641,-0.03105 0.27702,-0.05814 z"
       id="path1880" />
  </g>
</svg>
