<?xml version="1.0" encoding="UTF-8" standalone="no"?>
<!-- Created with Inkscape (http://www.inkscape.org/) -->

<svg
   version="1.1"
   id="svg1"
   width="127.99999"
   height="128"
   viewBox="0 0 127.99999 128"
   xmlns="http://www.w3.org/2000/svg"
   xmlns:svg="http://www.w3.org/2000/svg">
  <defs
     id="defs1" />
  <g
     id="g1"
     transform="translate(0.08847596)">
    <g
       id="g33"
       style="display:inline">
      <path
         style="display:inline;fill:#fbf4e5"
         d="M 0,64 V 0 h 64 64 v 64 64 H 64 0 Z"
         id="path40" />
      <path
         style="display:inline;fill:#faec8e;stroke-width:0.999999"
         d="m 2.5641553,124.5 c 0.5216356,-2.78645 0.3374364,-3.49999 -0.9035129,-3.49999 -1.39894735,0 -1.51872711,-5.66349 -1.16850986,-55.250009 0.21461935,-30.3875 0.49044672,-55.925 0.61294976,-56.75 0.122503,-0.825 -0.095933,-3.1355769 -0.48541281,-5.1346153 L -0.08847596,0.23077025 H 5.0005521 c 2.7989654,0 4.8435237,0.39807692 4.543463,0.88461545 -0.3000608,0.4865384 -0.070016,0.8846153 0.5112109,0.8846153 0.581226,0 1.056775,-0.4284044 1.056775,-0.9520097 0,-0.55863613 5.566435,-0.92716367 13.471422,-0.89187947 7.409283,0.0330716 13.471423,0.41333101 13.471423,0.84502087 0,1.6600921 3.379963,1.9752293 5.593856,0.5215538 C 45.63021,0.22159853 51.926933,1.0215784e-6 86.916014,1.0215784e-6 H 127.86433 V 6.8856941 c 0,4.1630529 -0.58942,8.0182559 -1.49068,9.7499999 -1.8919,3.635259 -1.89358,5.276866 -0.006,6.002681 1.24802,0.479927 1.49682,3.358051 1.49682,17.315214 v 16.73961 l -3.28068,3.403401 c -2.85208,2.958774 -11.98841,13.229706 -25.710136,28.90299 -4.196969,4.793874 -5.269392,7.789888 -2.193031,6.126632 0.960463,-0.51928 7.960777,-6.835113 15.556247,-14.035183 7.59531,-7.200071 14.21876,-13.091038 14.71862,-13.091038 1.47439,0 1.15121,33.342529 -0.33853,34.924999 -0.99789,1.06001 -0.99789,1.41667 0,1.78333 0.89833,0.3301 1.24735,3.65278 1.24735,11.87501 V 128 h -18.99488 c -18.697771,0 -18.978156,-0.0313 -17.924749,-2.00383 l 1.070145,-2.00383 -3.560096,2.00383 C 85.051068,127.91195 83.071371,128 43.401777,128 H 1.9089412 Z M 116.3666,105.3415 c 1.94203,-4.21218 3.32191,-7.867997 3.06641,-8.124044 -0.59427,-0.595525 -13.52211,11.807614 -13.52211,12.973274 0,0.90861 3.58971,2.63559 5.70761,2.74589 0.66942,0.0349 2.80607,-3.38295 4.74809,-7.59512 z M 80.932088,88.127556 c -0.02666,-1.36732 -0.265994,-1.317181 -1.496824,0.313575 -1.906935,2.526539 -1.886745,4.154444 0.03173,2.55887 0.823254,-0.684689 1.482543,-1.977289 1.465089,-2.872445 z M 15.103533,7.0000011 c 0,-0.55 -0.673571,-1.0000001 -1.496825,-1.0000001 -0.823253,0 -1.496824,0.4500001 -1.496824,1.0000001 0,0.55 0.673571,1 1.496824,1 0.823254,0 1.496825,-0.45 1.496825,-1 z M 20.846182,3.250527 C 21.442038,1.4373767 18.072129,0.42943847 17.013869,2.1042838 16.528828,2.8719282 16.125101,3.8687989 16.116697,4.319552 16.092587,5.6125255 20.38911,4.6413652 20.846182,3.250527 Z"
         id="path39" />
      <path
         style="display:inline;fill:#f6d86e"
         d="m 2.4487451,125.75 c 0.3751043,-1.2375 0.9434707,-3.08873 1.2630364,-4.11385 0.4808762,-1.54259 0.2070951,-1.74518 -1.5883251,-1.17533 l -2.16935377,0.68852 0.39272705,-39.324669 C 0.56282955,60.196102 0.82992268,41.762936 0.94036995,40.86208 1.0798592,39.724345 1.7784973,39.390821 3.2281491,39.769913 5.1865212,40.282039 5.2755659,40.027125 4.6732681,35.632883 4.3202523,33.057352 3.1243514,29.976475 2.0157106,28.786488 -1.3178362,25.208346 0.024594,23.142822 4.3907346,25.132169 6.6146089,26.145434 7.4031247,25.928849 10.71567,23.394873 13.709518,21.10469 15.530049,20.5 19.431225,20.5 c 4.713766,0 4.968259,-0.142032 5.771024,-3.220795 0.776484,-2.977969 1.083242,-3.175331 4.068775,-2.617763 1.775937,0.331667 3.668198,1.005247 4.205025,1.496844 0.59408,0.544026 1.589872,0.08005 2.544552,-1.185597 1.392735,-1.846391 1.89969,-1.942745 4.52395,-0.859844 1.625497,0.670762 3.367949,1.257274 3.872116,1.303361 0.504166,0.04609 1.128069,0.718001 1.38645,1.493144 0.313211,0.939635 -0.04129,1.213234 -1.063647,0.820917 -2.041812,-0.783517 -3.03559,4.116471 -1.205944,5.946116 1.766219,1.766219 2.816571,1.678338 2.104949,-0.176119 -0.395844,-1.031553 0.504528,-1.951001 2.884175,-2.945281 2.957481,-1.235714 3.845686,-1.245282 6.118924,-0.06591 1.462586,0.758798 3.007266,1.942739 3.432621,2.630979 0.612825,0.991571 1.111097,0.97106 2.400204,-0.0988 1.401784,-1.163378 1.698694,-1.075341 2.146326,0.636406 0.370353,1.416231 1.432416,2.02389 3.699385,2.116602 1.74894,0.07153 4.07989,0.216629 5.17989,0.322448 1.1,0.10582 2.72836,-0.123099 3.618578,-0.508709 1.135522,-0.491866 1.779083,-0.08734 2.156381,1.355448 C 77.670583,28.456311 78.62558,29 80.887328,29 c 2.49223,0 3.200587,0.502099 3.739909,2.65093 0.381688,1.520764 0.147106,3.480757 -0.550236,4.597379 -1.71035,2.738706 -0.602624,3.326112 2.472579,1.311162 3.577933,-2.344352 5.864868,-1.3469 4.981507,2.172693 -0.657974,2.621577 -0.616089,2.654737 1.236054,0.97857 4.616317,-4.177709 9.301429,-12.494089 9.903759,-17.579814 0.63983,-5.40237 1.28226,-6.097217 3.34229,-3.615027 2.09114,2.519664 0.62065,13.053021 -2.90754,20.827324 -1.70811,3.76377 -3.10565,7.66377 -3.10565,8.666667 0,1.002897 -0.5625,2.024342 -1.25,2.269878 -0.6875,0.245536 -0.97491,0.745626 -0.638688,1.111312 0.336221,0.365685 1.688724,0.255251 3.005558,-0.24541 1.31684,-0.50066 4.19175,-0.565 6.38869,-0.142977 2.19694,0.422023 3.03008,0.819064 1.85143,0.882314 -2.66391,0.142952 -3.72085,2.568134 -1.81028,4.153762 C 109.46845,58.633668 112,57.52609 112,55.090402 c 0,-1.084803 0.45,-2.250483 1,-2.590402 0.55,-0.339919 1,-2.391476 1,-4.559017 0,-4.562329 2.5491,-5.585691 3.58936,-1.440983 0.75864,3.02268 1.77297,3.137667 4.41064,0.5 2.03741,-2.03741 3.55206,-2.702277 2.5826,-1.133647 -0.29449,0.476494 0.35395,1.671239 1.44098,2.654988 2.8104,2.543375 2.45246,6.15647 -0.94666,9.555582 -3.50427,3.504275 -4.48139,3.611398 -6.51095,0.713806 -1.75512,-2.505795 -2.96417,-1.747619 -3.9623,2.484707 -0.60721,2.574722 -0.47191,2.729598 1.87089,2.141592 2.67308,-0.670899 3.51,0.871639 1.23883,2.283282 -0.70764,0.439829 -2.39514,2.206099 -3.75,3.925044 -1.35487,1.718944 -5.83839,7.118944 -9.96339,12 -8.341747,9.870674 -13,15.917556 -13,16.875312 0,2.757844 9.77969,-4.586977 22.08056,-16.583121 3.61931,-3.52965 8.42709,-8.082509 10.68395,-10.117465 l 4.10338,-3.69992 0.0407,16.19992 c 0.0224,8.909956 -0.35247,16.82799 -0.83302,17.59564 -0.48058,0.76768 -1.5941,1.11928 -2.47466,0.78138 -0.8805,-0.33788 -1.60092,-0.18703 -1.60092,0.33523 0,0.52226 1.125,1.23192 2.5,1.57703 2.05192,0.51499 2.5,1.23534 2.5,4.01905 0,2.03844 -0.49872,3.3977 -1.25,3.4069 -0.96814,0.0119 -0.95904,0.19991 0.0404,0.83397 0.88779,0.56324 1.23396,3.05443 1.10953,7.98469 L 127.71906,128 H 108.79258 89.866101 l 3.816949,-4.75 c 2.099323,-2.6125 3.14195,-4.24881 2.31695,-3.63624 -0.825,0.61257 -3.671968,2.75007 -6.326596,4.75 L 84.846807,128 H 43.306772 1.7667373 Z M 112.40035,113.39987 C 113.71855,112.89403 122,97.570206 122,95.636878 c 0,-2.198304 -3.67185,0.411467 -10.57659,7.517322 l -7.92341,8.15421 3.5,1.26972 c 1.925,0.69834 3.5757,1.30395 3.66821,1.34579 0.0925,0.0418 0.87198,-0.19398 1.73214,-0.52405 z M 79.759074,91.75 C 82.227954,89.114436 84.383981,84 83.02614,84 c -0.508396,0 -2.005712,1.4625 -3.327366,3.25 -4.379011,5.922484 -4.335196,9.192251 0.0603,4.5 z M 126.66667,76.333333 C 126.3,75.966667 126,76.266667 126,77 c 0,0.733333 0.3,1.033333 0.66667,0.666667 0.36666,-0.366667 0.36666,-0.966667 0,-1.333334 z M 100,58.440983 c 0,-0.857459 -0.45734,-1.276365 -1.016312,-0.930902 -0.558971,0.345464 -0.757414,1.047021 -0.440983,1.559017 C 99.399945,60.456142 100,60.197509 100,58.440983 Z M 33.666667,23.333333 C 33.3,22.966667 33,23.266667 33,24 c 0,0.733333 0.3,1.033333 0.666667,0.666667 0.366666,-0.366667 0.366666,-0.966667 0,-1.333334 z M 40,16.940983 C 40,16.423442 39.55,16 39,16 c -0.55,0 -1,0.701558 -1,1.559017 0,0.857459 0.45,1.280902 1,0.940983 0.55,-0.339919 1,-1.041476 1,-1.559017 z M 127,46.5 c 0,-0.275 0.225,-0.5 0.5,-0.5 0.275,0 0.5,0.225 0.5,0.5 0,0.275 -0.225,0.5 -0.5,0.5 -0.275,0 -0.5,-0.225 -0.5,-0.5 z m -4.41442,-4.405437 c -1.14656,-1.266937 -1.61283,-3.152616 -1.40179,-5.669169 0.34946,-4.167254 2.63615,-5.829958 3.49597,-2.541997 0.30119,1.151759 0.83396,1.918023 1.18393,1.702807 1.28585,-0.790737 1.07296,6.221484 -0.2215,7.295788 -1.01389,0.841452 -1.75536,0.650437 -3.05661,-0.787429 z M 1,33.5 C 1,33.225 1.225,33 1.5,33 1.775,33 2,33.225 2,33.5 2,33.775 1.775,34 1.5,34 1.225,34 1,33.775 1,33.5 Z m 125.07895,-3.083333 c 0.048,-1.164943 0.28494,-1.4019 0.60416,-0.604167 0.28887,0.721875 0.25335,1.584375 -0.0789,1.916667 -0.3323,0.332291 -0.56864,-0.258334 -0.52522,-1.3125 z M 126,11.5 c 0,-0.275 0.225,-0.5 0.5,-0.5 0.275,0 0.5,0.225 0.5,0.5 0,0.275 -0.225,0.5 -0.5,0.5 -0.275,0 -0.5,-0.225 -0.5,-0.5 z M 40,6.5351838 C 40,5.6666667 40.868517,5 42,5 43.1,5 44,5.2091673 44,5.4648162 44,5.7204652 43.1,6.4112979 42,7 40.403701,7.8543134 40,7.76049 40,6.5351838 Z M 126,6.5 C 126,6.225 126.225,6 126.5,6 126.775,6 127,6.225 127,6.5 127,6.775 126.775,7 126.5,7 126.225,7 126,6.775 126,6.5 Z M 12.333333,1.3333333 C 12.7,0.96666667 13.3,0.96666667 13.666667,1.3333333 14.033333,1.7 13.733333,2 13,2 12.266667,2 11.966667,1.7 12.333333,1.3333333 Z m 33,0 C 45.7,0.96666667 46.3,0.96666667 46.666667,1.3333333 47.033333,1.7 46.733333,2 46,2 45.266667,2 44.966667,1.7 45.333333,1.3333333 Z"
         id="path38" />
      <path
         style="display:inline;fill:#eaa753"
         d="m 2.5270169,126.2359 c 0.4015964,-0.95474 0.9630881,-2.81809 1.2477594,-4.14076 0.4441328,-2.06358 0.2130157,-2.32521 -1.6285961,-1.84362 L 0,120.81276 V 86.445336 C 0,52.378665 0.01915246,52.060067 2.1885614,50.038955 3.3922702,48.91753 4.7422702,48 5.1885614,48 5.6348527,48 6,47.325 6,46.5 c 0,-2.367418 4.413692,-2.289829 7.117263,0.125116 1.275027,1.138909 2.539499,1.237395 5.975381,0.465403 3.049131,-0.685094 4.560467,-0.651798 5.031812,0.110856 C 25.046905,48.693928 28,47.421425 28,45.531385 28,44.689123 28.675,44 29.5,44 31.362522,44 31.398431,43.01826 29.629025,40.472506 28.016598,38.152607 26,29.3176 26,24.573224 c 0,-1.830584 0.669675,-3.884116 1.488167,-4.563403 1.647287,-1.367127 1.522006,-1.586005 3.194365,5.580831 0.577367,2.474285 4.088555,8.43767 8.886005,15.091949 L 47.5,51.683899 l 6,1.324711 c 3.3,0.728591 6.595885,1.222321 7.324189,1.097177 0.728304,-0.125144 1.853304,0.204443 2.5,0.732415 1.20788,0.986131 7.69439,1.518736 15.720996,1.290845 4.483475,-0.127295 4.619243,-0.233426 10,-7.817067 11.468535,-16.163761 13.021785,-18.692312 14.091125,-22.93904 1.21015,-4.805935 2.32053,-5.55797 3.20613,-2.17143 0.99753,3.81453 -1.2551,10.879509 -7.747428,24.29849 -12.37401,25.575819 -12.342937,25.492379 -10.074558,27.05333 3.268823,2.249392 7.477223,6.861978 7.478423,8.19667 C 95.999494,83.4375 96.9,84 98,84 c 1.1,0 2,0.45 2,1 0,0.55 -0.413298,1 -0.918441,1 -0.505142,0 -1.958245,1.6875 -3.229117,3.75 -1.270872,2.0625 -3.392287,4.756942 -4.714255,5.987649 -2.037363,1.896714 -2.20355,2.478667 -1.090739,3.819522 0.722061,0.870029 2.110198,1.373359 3.084748,1.118509 0.97455,-0.25485 1.918323,-0.0241 2.097273,0.51273 0.426828,1.28048 11.571911,1.94198 12.320191,0.73124 0.31744,-0.51363 2.01113,-1.67521 3.76375,-2.581291 3.10012,-1.602716 3.1463,-1.595739 1.70167,0.257112 -0.8167,1.047489 -3.22311,3.929529 -5.34757,6.404529 -5.53406,6.4472 -6.14331,7.81361 -3.23609,7.25786 1.28945,-0.24649 3.18239,-0.009 4.20652,0.52882 2.73302,1.43396 5.77618,-0.12851 8.17766,-4.19872 1.9343,-3.2784 2.50811,-3.58796 6.65067,-3.58796 4.79567,0 5.53343,0.85744 2.95572,3.43515 -1.66458,1.66459 -1.15179,7.56485 0.65747,7.56485 1.16454,0 1.17456,4.05056 0.0145,5.88213 -0.69303,1.09424 -1.00947,0.95959 -1.51921,-0.64644 -0.35411,-1.11572 -0.51581,-2.61095 -0.35932,-3.32274 0.15649,-0.71179 -0.50298,-1.46639 -1.46548,-1.67688 -2.21532,-0.48448 -2.39723,2.98189 -0.25,4.76393 0.825,0.68469 1.5,2.23846 1.5,3.45282 0,2.18539 -0.17495,2.20949 -17.14037,2.3614 l -17.140361,0.15347 1.861545,-2.23385 c 1.02385,-1.22861 2.966708,-3.46665 4.317463,-4.97341 4.539163,-5.06342 1.215657,-4.09187 -5.440769,1.59048 l -6.595981,5.63075 -41.532343,-0.005 C 4.2903854,127.9721 1.8406804,127.86758 2.5270169,126.2359 Z M 83.17834,87.631022 c 1.275372,-2.48746 1.638908,-4.213774 1.018093,-4.834589 C 82.571521,81.171521 76,91.147728 76,95.239414 76,97.1113 81.076209,91.730977 83.17834,87.631022 Z M 35,50.559017 C 35,48.81623 33.360333,47.659268 32.043674,48.473008 30.712731,49.295576 31.911449,52 33.606989,52 34.373145,52 35,51.351558 35,50.559017 Z M 14,49.5 C 14,49.225 13.775,49 13.5,49 13.225,49 13,49.225 13,49.5 c 0,0.275 0.225,0.5 0.5,0.5 0.275,0 0.5,-0.225 0.5,-0.5 z m 112,52 c 0,-0.275 0.225,-0.5 0.5,-0.5 0.275,0 0.5,0.225 0.5,0.5 0,0.275 -0.225,0.5 -0.5,0.5 -0.275,0 -0.5,-0.225 -0.5,-0.5 z m 1,-2.5 c 0,-0.733333 0.3,-1.033333 0.66667,-0.666667 0.36666,0.366667 0.36666,0.966667 0,1.333334 C 127.3,100.03333 127,99.733333 127,99 Z m -11,-5.5 c 0,-0.825 0.7301,-1.5 1.62244,-1.5 1.3288,0 1.39713,0.271492 0.37756,1.5 -0.68469,0.825 -1.41479,1.5 -1.62244,1.5 C 116.1699,95 116,94.325 116,93.5 Z"
         id="path37" />
      <path
         style="display:inline;fill:#e78b31"
         d="m 4.2688553,123.92139 c 1.0448368,-2.1118 1.61022,-4.30803 1.256407,-4.88051 C 4.7036314,117.71145 2,117.6801 2,119 2,119.55 1.5804246,120 1.0676102,120 0.50509642,120 0.29049202,109.78506 0.52663172,94.25 1.005226,62.764439 1.0659302,61.079533 1.646914,63.155424 c 0.2548188,0.910483 1.5323066,1.923725 2.8388617,2.25165 1.4592554,0.36625 2.4987287,1.45952 2.6948896,2.83436 C 7.5479535,70.815663 11,72.01947 11,69.573324 11,68.707996 11.744744,68 12.654988,68 c 1.513062,0 1.519125,0.150126 0.07069,1.750627 -1.145698,1.265983 -1.313269,2.234925 -0.605297,3.5 1.22543,2.189722 4.597423,2.235726 8.837358,0.120569 2.741008,-1.367395 3.405174,-1.407518 4.138325,-0.25 0.48032,0.758342 0.8802,1.941304 0.888622,2.628804 0.02283,1.863517 9.438603,1.64982 11.015313,-0.25 1.613636,-1.944312 3.154308,-1.89234 6.854404,0.231223 1.659065,0.952173 3.278336,1.469371 3.598379,1.149328 0.638587,-0.638588 -2.099953,-6.932332 -12.57094,-28.890672 -4.606306,-9.659721 -7.1267,-16.261691 -7.539839,-19.75 -0.675844,-5.706444 1.003077,-7.498191 2.146762,-2.291027 0.356222,1.621868 3.170185,6.684368 6.253251,11.25 3.083066,4.565631 6.741302,10.002396 8.129413,12.081699 1.472153,2.205192 3.587412,3.997534 5.076204,4.301266 1.403801,0.286394 5.890181,1.456378 9.969732,2.599965 5.905445,1.655425 9.160317,1.97051 15.968145,1.545785 7.56906,-0.472217 8.784057,-0.819881 10.582635,-3.028158 C 89.931313,49.21957 99.923741,34.224919 102.09442,29.75 c 1.26726,-2.6125 2.71452,-4.75 3.21614,-4.75 2.12887,0 -0.92627,8.584226 -8.719595,24.5 -4.578323,9.35 -8.906352,18.636926 -9.617843,20.637614 -1.279342,3.597463 -1.2477,3.681296 2.866629,7.595164 C 92.208585,79.986196 94,82.618206 94,83.845164 c 0,2.680602 -0.03182,2.679142 -5.84847,-0.268378 -2.63009,-1.332767 -5.262877,-2.120267 -5.850639,-1.75 -2.206612,1.390083 -7.505249,13.098284 -7.705855,17.027341 -0.114009,2.232963 -0.931455,4.866773 -1.816549,5.852903 -0.885093,0.98613 -1.922417,3.48047 -2.305164,5.54297 -0.56966,3.06971 -0.4036,3.75 0.915386,3.75 C 72.333333,114 73,114.82749 73,116 c 0,2.14255 -1.940734,2.65927 -3.632783,0.96722 C 67.610221,115.21022 65,117.00196 65,119.96502 c 0,2.28185 -0.837113,3.18535 -4.908327,5.29757 -4.674109,2.42501 -4.932031,2.45588 -5.405061,0.64702 -0.78981,-3.02024 -3.202695,-3.23747 -7.343564,-0.66114 -4.318984,2.68715 -10.663663,3.27506 -12.426118,1.15144 -1.402014,-1.68933 -4.348371,-1.90701 -3.321438,-0.2454 0.451387,0.73036 0.273284,0.88242 -0.484788,0.41391 -0.659073,-0.40733 -1.741102,-0.31208 -2.404509,0.21166 -0.663407,0.52374 -6.860636,0.95871 -13.771619,0.96661 l -12.5654242,0.0143 z m 33.3978117,2.41194 C 37.3,125.96667 36.7,125.96667 36.333333,126.33333 35.966667,126.7 36.266667,127 37,127 c 0.733333,0 1.033333,-0.3 0.666667,-0.66667 z m 1.16563,-7.70103 c 0.341983,-1.77578 -1.339824,-4.45811 -2.234347,-3.56358 -0.23946,0.23946 -0.756924,1.7165 -1.149918,3.28232 -0.61045,2.43222 -0.441878,2.79442 1.157233,2.48646 1.029472,-0.19826 2.031637,-1.1906 2.227032,-2.2052 z M 68.393011,86.418213 C 69.254569,84.17303 69.21937,84.129873 67,84.710251 c -2.050226,0.536146 -2.511938,1.444478 -1.333333,2.623082 1.095075,1.095076 2.082091,0.763775 2.726344,-0.91512 z m 2.600947,-13.888215 c 3.819853,-0.771396 5.594321,-1.630618 5.823324,-2.819735 0.284703,-1.478346 -0.595897,-1.711019 -6.493958,-1.71584 -3.752828,-0.0031 -8.553021,-0.48587 -10.667095,-1.072895 -2.114074,-0.587026 -4.092427,-0.818664 -4.396339,-0.514751 -0.303912,0.303912 0.648626,2.367693 2.116751,4.586179 2.349321,3.550063 2.996234,3.95047 5.396339,3.340063 1.499861,-0.381453 5.199301,-1.192812 8.220978,-1.803021 z M 60.5,127 c -0.339919,-0.55 0.08352,-1 0.940983,-1 C 62.298442,126 63,126.45 63,127 c 0,0.55 -0.423442,1 -0.940983,1 -0.517541,0 -1.219098,-0.45 -1.559017,-1 z m 17,0 c -0.357829,-0.57898 0.60462,-1 2.285995,-1 1.634038,0 3.695569,-0.87464 4.714005,-2 2.997776,-3.31251 4.922588,-2.4906 2.341879,1 -1.673801,2.26394 -3.016115,3 -5.47092,3 -1.789109,0 -3.53104,-0.45 -3.870959,-1 z m 14,0 c 0.339919,-0.55 1.068034,-1 1.618034,-1 0.55,0 0.721885,0.45 0.381966,1 -0.339919,0.55 -1.068034,1 -1.618034,1 -0.55,0 -0.721885,-0.45 -0.381966,-1 z m 17.0987,0.26536 c -0.32745,-0.32744 0.52889,-2.51373 1.90297,-4.85842 1.37408,-2.3447 2.51473,-4.85795 2.53477,-5.58501 0.0469,-1.69913 7.31822,-7.25795 7.76007,-5.93241 0.18326,0.54978 -0.24159,2.03705 -0.94411,3.30504 -0.70252,1.26799 -1.16884,2.68152 -1.03628,3.14117 0.13257,0.45965 -0.67183,2.31276 -1.78754,4.11803 -1.11572,1.80527 -2.02858,3.94821 -2.02858,4.76209 0,1.47053 -5.13792,2.3129 -6.4013,1.04951 z M 49,126.5 c 0,-0.275 0.225,-0.5 0.5,-0.5 0.275,0 0.5,0.225 0.5,0.5 0,0.275 -0.225,0.5 -0.5,0.5 -0.275,0 -0.5,-0.225 -0.5,-0.5 z m 3,0 c 0,-0.275 0.225,-0.5 0.5,-0.5 0.275,0 0.5,0.225 0.5,0.5 0,0.275 -0.225,0.5 -0.5,0.5 -0.275,0 -0.5,-0.225 -0.5,-0.5 z m 15.333333,-0.16667 c 0.366667,-0.36666 0.966667,-0.36666 1.333334,0 C 69.033333,126.7 68.733333,127 68,127 c -0.733333,0 -1.033333,-0.3 -0.666667,-0.66667 z M 97.5,123 c 0.339919,-0.55 0.843034,-1 1.118034,-1 0.275,0 0.221885,0.45 -0.118034,1 -0.339919,0.55 -0.843034,1 -1.118034,1 -0.275,0 -0.221885,-0.45 0.118034,-1 z M 94,117.5 c 0,-0.275 0.225,-0.5 0.5,-0.5 0.275,0 0.5,0.225 0.5,0.5 0,0.275 -0.225,0.5 -0.5,0.5 -0.275,0 -0.5,-0.225 -0.5,-0.5 z m 4,-3 c 0,-0.275 0.225,-0.5 0.5,-0.5 0.275,0 0.5,0.225 0.5,0.5 0,0.275 -0.225,0.5 -0.5,0.5 -0.275,0 -0.5,-0.225 -0.5,-0.5 z"
         id="path36" />
      <path
         style="display:inline;fill:#c0752b"
         d="M 3,126.5 C 3,126.225 3.225,126 3.5,126 3.775,126 4,126.225 4,126.5 4,126.775 3.775,127 3.5,127 3.225,127 3,126.775 3,126.5 Z M 63.982121,112.75 C 63.44587,111.5125 60.810057,105.325 58.124759,99 53.378481,87.820529 53.143868,87.483873 49.707277,86.92141 44.832163,86.123504 41.22388,83.537335 39.270493,79.44104 37.008842,74.698308 38.717536,72.846053 42.563539,75.87132 45.150364,77.906117 49,78.766006 49,77.309025 49,76.928989 44.266947,66.915011 38.482105,55.05574 30.82624,39.360762 27.795121,32.065743 27.342814,28.246715 c -0.67651,-5.712067 1.001439,-7.508797 2.145952,-2.297863 0.356222,1.621868 3.170185,6.684368 6.253251,11.25 3.083066,4.565631 6.741302,10.002396 8.129413,12.081699 1.472153,2.205192 3.587412,3.997534 5.076204,4.301266 1.403801,0.286394 5.890181,1.456378 9.969732,2.599965 5.905445,1.655425 9.160317,1.97051 15.968145,1.545785 C 82.45457,57.25535 83.669567,56.907686 85.468145,54.699409 89.931313,49.21957 99.923741,34.224919 102.09442,29.75 c 1.26726,-2.6125 2.71452,-4.75 3.21614,-4.75 2.12887,0 -0.92627,8.584226 -8.719595,24.5 -4.578323,9.35 -8.906352,18.636926 -9.617843,20.637614 -1.279342,3.597463 -1.2477,3.681296 2.866629,7.595164 C 92.208585,79.986196 94,82.618206 94,83.845164 c 0,2.680602 -0.03182,2.679142 -5.84847,-0.268378 -2.63009,-1.332767 -5.224236,-2.120267 -5.764768,-1.75 C 80.611303,83.042984 76.244921,91.410672 74.990971,96 c -2.090769,7.652 -7.282855,19 -8.693128,19 -0.737396,0 -1.779471,-1.0125 -2.315722,-2.25 z M 69,85.30887 c 0,-1.806401 -2.930931,-1.652435 -3.638374,0.19113 -0.316582,0.825 -0.27032,2.2875 0.102805,3.25 0.632236,1.630894 0.77564,1.617885 2.106989,-0.19113 C 68.357139,87.491249 69,86.028749 69,85.30887 Z M 75.75,71.39571 C 76.4375,71.212593 77,70.430077 77,69.656786 c 0,-1.048116 -2.099885,-1.551652 -8.25,-1.978285 -4.5375,-0.314766 -9.4875,-0.873656 -11,-1.241979 -3.52187,-0.857641 -3.610458,0.832931 -0.299012,5.706162 l 2.450988,3.606953 7.299012,-2.010493 C 71.215445,72.633373 75.0625,71.578827 75.75,71.39571 Z"
         id="path35" />
      <path
         style="font-variation-settings:normal;display:inline;opacity:1;vector-effect:none;fill:#453315;fill-opacity:1;stroke-width:1;stroke-linecap:butt;stroke-linejoin:miter;stroke-miterlimit:4;stroke-dasharray:none;stroke-dashoffset:0;stroke-opacity:1;-inkscape-stroke:none;stop-color:#000000;stop-opacity:1"
         d="M 63.53139,107.82265 C 62.197924,104.89519 59.59454,98.943244 57.746093,94.596097 54.421669,86.777773 54.334159,86.679214 49.663866,85.49338 44.364838,84.147903 40,80.632722 40,77.710676 40,75.877837 40.136986,75.859737 42.464817,77.38499 43.820466,78.273246 46.11925,79 47.573225,79 49.951904,79 50.150088,78.724425 49.550923,76.25 49.184682,74.7375 44.413059,64.5 38.947317,53.5 33.481574,42.5 28.758524,31.925 28.451652,30 l -0.557951,-3.5 2.30315,3.823838 c 1.266732,2.103111 5.343541,8.255492 9.059577,13.671957 5.6379,8.217761 7.293401,9.958987 10,10.517816 1.783964,0.368334 6.334606,1.588545 10.112536,2.711579 5.453376,1.621081 8.59933,1.933927 15.265352,1.518048 4.618014,-0.288107 9.073641,-1.085901 9.901393,-1.772874 0.827752,-0.686973 5.595888,-7.373839 10.595857,-14.859703 C 105.81201,26.120092 105.35192,26.692448 104.46315,30.50205 104.07847,32.150922 99.541894,41.991437 94.381867,52.36986 89.22184,62.748282 85,71.913442 85,72.736881 c 0,0.823438 1.8,3.244001 4,5.379029 2.2,2.135027 4,4.332368 4,4.882979 0,1.438143 -2.182977,1.177288 -4.44113,-0.530692 C 87.491249,81.660688 85.36133,81 83.825716,81 c -3.244808,0 -4.765935,2.616743 -11.778373,20.26193 -2.352315,5.91906 -4.685206,11.01426 -5.184202,11.32265 -0.498996,0.3084 -1.998284,-1.83447 -3.331751,-4.76193 z m 5.486107,-19.856946 c 1.131979,-2.218864 1.806178,-4.441987 1.498219,-4.940275 -0.616421,-0.997391 -6.173311,0.611531 -7.058421,2.043669 C 62.931087,85.92052 65.604712,92 66.505356,92 c 0.249698,0 1.380161,-1.815433 2.512141,-4.034296 z M 69,74.28661 C 75.223428,72.806343 79.627116,69.823712 78.435623,67.895836 78.131112,67.403126 75.078068,67 71.651082,67 68.224095,67 62.786614,66.314039 59.56779,65.475642 c -3.218823,-0.838397 -6.094019,-1.282747 -6.389322,-0.987443 -0.569902,0.569902 1.975363,6.452539 4.473949,10.340225 1.008624,1.569373 2.042682,2.112586 3.172021,1.666331 C 61.745997,76.130603 65.425,75.136938 69,74.28661 Z"
         id="path34" />
      <path
         style="display:inline;fill:#453315"
         d="M 64.378528,107.32197 C 55.513199,85.871052 55.254567,85.452475 50.306856,84.547981 46.236779,83.803927 42,81.520284 42,80.070548 c 0,-0.485841 1.591013,-0.395051 3.535584,0.201755 2.882347,0.884617 3.820168,0.800516 5.075874,-0.455189 1.387054,-1.387055 1.02442,-2.669496 -3.645095,-12.890742 -2.851962,-6.242749 -7.213926,-15.102213 -9.693254,-19.687699 -2.479328,-4.585486 -4.3274,-8.517715 -4.106828,-8.738288 0.220573,-0.220572 3.015218,3.431779 6.210324,8.116338 3.195105,4.684558 6.329957,8.646067 6.966338,8.803354 15.150009,3.744446 20.284428,4.628274 26.757834,4.606035 11.030224,-0.03789 12.616249,-0.868324 18.288409,-9.575672 2.689052,-4.12797 5.073234,-7.321354 5.29818,-7.096407 0.224947,0.224947 -1.81202,4.849813 -4.526594,10.277481 -2.714574,5.427667 -5.96254,12.279499 -7.217701,15.226292 l -2.282113,5.357805 3.919521,3.472641 c 2.407359,2.132886 3.147916,3.221684 1.919521,2.822163 -4.671136,-1.519233 -7.155916,-1.625178 -8.1294,-0.346618 -1.669651,2.192895 -10.065467,20.999693 -11.444686,25.636333 -1.71161,5.75406 -2.666239,6.07354 -4.547386,1.52184 z m 6.183069,-19.443527 c 3.214006,-6.342535 2.359921,-7.770719 -3.582367,-5.990366 -2.24673,0.673136 -4.350014,1.914595 -4.673965,2.758798 C 61.499874,86.745691 64.615908,93 66.466976,93 c 0.824633,0 2.667212,-2.304701 4.094621,-5.121557 z M 68.297389,75.818784 C 77.54142,73.551719 80.60746,71.281071 79.801362,67.299169 79.503268,65.826665 78.63266,65.561956 75.006326,65.841237 72.56938,66.028917 66.39237,65.395071 61.279638,64.43269 56.166906,63.470308 51.689317,62.97735 51.32944,63.337227 50.296495,64.370172 57.188592,78 58.743859,78 c 0.362753,0 4.661842,-0.981547 9.55353,-2.181216 z"
         id="path33" />
    </g>
  </g>
</svg>
