<?xml version="1.0" encoding="UTF-8" standalone="no"?>
<!-- Created with Inkscape (http://www.inkscape.org/) -->

<svg
   version="1.1"
   id="svg1"
   width="128"
   height="128"
   viewBox="0 0 128 128"
   xmlns="http://www.w3.org/2000/svg"
   xmlns:svg="http://www.w3.org/2000/svg">
  <defs
     id="defs1" />
  <g
     id="g1"
     transform="translate(0.0283066,-0.010215)">
    <g
       id="g2"
       transform="matrix(0.99949401,0,0,0.99984042,0.03236925,0.010215)"
       style="stroke-width:1.00033">
      <path
         style="fill:#d59f97;stroke-width:1.00033"
         d="M 0,64 V 0 h 64 64 v 64 64 H 64 0 Z"
         id="path9" />
      <path
         style="fill:#e18675;stroke-width:1.00033"
         d="m 36,126.86498 c 0,-0.68676 -1.720167,-0.81607 -4.948779,-0.37202 -3.639184,0.50051 -5.756223,0.26071 -8,-0.90617 -1.678171,-0.87273 -4.502325,-2.34696 -6.275898,-3.27605 -1.773572,-0.92909 -4.756919,-1.58606 -6.62966,-1.45994 -2.2010247,0.14823 -4.5942755,-0.58042 -6.7684899,-2.06074 L 0.01366609,116.5 0.02214582,97 C 0.03083605,77.015942 0.77771412,72.223269 3.0918085,77.302153 3.7678803,78.785969 4.7017743,80 5.1671284,80 c 0.4653542,0 1.7770916,1.070736 2.9149721,2.379414 1.9684115,2.263872 2.2805075,2.315721 6.4271755,1.067757 3.700223,-1.113603 4.537783,-1.095395 5.546958,0.120587 1.538014,1.853194 3.377428,1.819564 4.962835,-0.09073 1.030435,-1.241599 0.932141,-2.258815 -0.532024,-5.505753 C 22.002506,72.461549 21.202686,72.009431 13.277379,71.634732 9.4411747,71.45336 5.764696,70.972608 5.1074262,70.566393 4.4501564,70.160178 3.2971649,70.338412 2.5452228,70.962468 1.6795594,71.680905 0.95600483,71.737831 0.57271578,71.117657 0.23977902,70.578954 0.47063178,69.827168 1.0857219,69.447021 3.0867571,68.210313 5.2510584,61.851058 4.0721508,60.672151 3.319274,59.919274 2.5957703,60.170558 1.6015569,61.530226 0.37899575,63.202178 0.17890429,60.127933 0.067457,37.960017 L -0.06070657,12.467075 2.9696467,10.677002 C 5.0002109,9.4775178 6,8.0976031 6,6.4944906 6,4.1526127 6.0732868,4.1326745 9.4678814,5.5510266 14.140865,7.5035238 18.314789,7.3754351 21.005073,5.1969752 22.906973,3.65691 23.940947,3.5392349 28.094677,4.3901168 31.852417,5.1598809 35.17837,4.9851344 42.72882,3.6212345 48.102969,2.6504578 54.3,1.718563 56.5,1.5503572 58.7,1.3821514 61.2875,0.9163646 62.25,0.51527543 63.463001,0.00979833 64,0.24630695 64,1.2860224 64,3.2076743 65.917598,3.9295705 69.303049,3.2824006 71.402788,2.88101 72.568106,3.4417696 74.712353,5.8853979 77.953511,9.5790896 82.338104,10.105281 84,7 84.588702,5.9 85.75956,5 86.601906,5 87.444252,5 89.594978,3.8852332 91.381299,2.5227404 94.400233,0.22008649 95.294194,0.06928938 104.06458,0.38327002 109.25406,0.56905407 114.625,1.1869584 116,1.7563907 c 1.375,0.5694323 4.40416,1.6014692 6.73147,2.2934153 2.32731,0.6919461 4.44411,1.9763086 4.704,2.8541389 0.84641,2.8589083 0.43555,25.0577371 -0.47418,25.6199811 -0.50689,0.313272 -0.47403,1.627468 0.0769,3.076575 1.13251,2.97872 1.19137,69.954289 0.064,72.833119 -0.52054,1.32926 -0.98586,1.56367 -1.48873,0.75 C 124.37871,107.18571 123,107.86709 123,110.47525 c 0,2.22706 0.25067,2.37995 2.5,1.52475 1.92452,-0.7317 2.5,-0.63009 2.5,0.44142 0,0.76555 -0.5625,1.65441 -1.25,1.97525 -1,0.46666 -1,0.7 0,1.16666 0.79378,0.37044 1.25,2.74649 1.25,6.51022 v 5.92688 l -46,-0.0514 c -31.501503,-0.0352 -46,-0.38317 -46,-1.10405 z M 81,99.940983 C 81,99.423442 80.325,99 79.5,99 c -1.54641,0 -1.986704,1.17996 -0.86052,2.30615 C 79.438411,102.10508 81,101.20196 81,99.940983 Z M 57.389756,83.178379 C 57.66904,82.726487 57.020598,81.605891 55.948773,80.688166 54.876948,79.770441 54,78.340171 54,77.509787 54,76.679404 53.586804,76 53.081787,76 c -0.505016,0 -1.596519,-0.260291 -2.425561,-0.578424 -0.939848,-0.360653 -2.156076,0.411658 -3.230441,2.051346 -2.040052,3.113513 -1.194203,4.367489 3.731566,5.532067 4.622375,1.092848 5.646539,1.121341 6.232405,0.17339 z M 45,77.622445 c 0,-2.289199 -2.675305,-3.777532 -6.184676,-3.440676 L 35.5,74.5 l 2.25,2.25 c 2.491237,2.491237 7.25,3.063893 7.25,0.872445 z"
         id="path8" />
      <path
         style="fill:#b88a86;stroke-width:1.00033"
         d="M 36.333253,126.42606 C 35.718134,124.82309 31,124.44617 31,126 c 0,0.55 -1.168069,1 -2.595708,1 -2.494491,0 -3.693484,-0.47854 -11.378969,-4.54158 -1.911072,-1.01031 -5.006919,-1.73374 -6.87966,-1.60762 -2.2010247,0.14823 -4.5942755,-0.58042 -6.7684899,-2.06074 L 0.01366609,116.5 0.02214582,97 C 0.03083605,77.015942 0.77771412,72.223269 3.0918085,77.302153 3.7678803,78.785969 4.7017743,80 5.1671284,80 c 0.4653542,0 1.7770916,1.070736 2.9149721,2.379414 1.9684115,2.263872 2.2805075,2.315721 6.4271755,1.067757 3.700223,-1.113603 4.537783,-1.095395 5.546958,0.120587 1.538014,1.853194 3.377428,1.819564 4.962835,-0.09073 1.030435,-1.241599 0.932141,-2.258815 -0.532024,-5.505753 C 22.002506,72.461549 21.202686,72.009431 13.277379,71.634732 9.4411747,71.45336 5.764696,70.972608 5.1074262,70.566393 4.4501564,70.160178 3.2971649,70.338412 2.5452228,70.962468 1.6795594,71.680905 0.95600483,71.737831 0.57271578,71.117657 0.23977902,70.578954 0.47063178,69.827168 1.0857219,69.447021 3.0867571,68.210313 5.2510584,61.851058 4.0721508,60.672151 3.319274,59.919274 2.5957703,60.170558 1.6015569,61.530226 0.37899575,63.202178 0.17890429,60.127933 0.067457,37.960017 L -0.06070657,12.467075 2.9696467,10.677002 C 5.0002109,9.4775178 6,8.0976031 6,6.4944906 6,4.1526127 6.0732868,4.1326745 9.4678814,5.5510266 14.140865,7.5035238 18.314789,7.3754351 21.005073,5.1969752 22.906973,3.65691 23.940947,3.5392349 28.094677,4.3901168 31.852417,5.1598809 35.17837,4.9851344 42.72882,3.6212345 48.102969,2.6504578 54.3,1.718563 56.5,1.5503572 58.7,1.3821514 61.2875,0.9163646 62.25,0.51527543 63.463001,0.00979833 64,0.24630695 64,1.2860224 c 0,1.8401523 2.133098,2.7534384 4.801316,2.0556838 2.602354,-0.680531 6.499814,1.4311789 5.835684,3.1618729 -0.672828,1.7533626 0.756424,2.8071223 6.863,5.0599559 2.75,1.014529 7.132885,3.327767 9.739744,5.140531 C 93.846604,18.51683 96.643271,20 97.454561,20 c 2.13919,0 3.700179,3.535272 2.924909,6.624214 -0.627483,2.500085 -0.499886,2.622824 2.05897,1.980592 2.19425,-0.55072 2.82794,-0.302155 3.23922,1.270571 0.83684,3.200063 8.54554,3.743367 10.51797,0.741299 0.38259,-0.582315 1.02479,-0.729594 1.42709,-0.327285 0.40231,0.402309 -0.43166,1.964277 -1.85327,3.47104 -1.42161,1.506763 -3.12585,4.764569 -3.7872,7.239569 -0.66136,2.475 -1.56793,5.4 -2.01461,6.5 -2.47584,6.097063 -1.71193,15.508406 1.25761,15.493677 0.70111,-0.0035 2.03205,-1.337324 2.95764,-2.964104 0.92646,-1.628318 2.8913,-3.261074 4.37136,-3.632544 2.59323,-0.65086 2.66688,-0.858491 2.07893,-5.860968 l -0.60953,-5.186205 2.98817,0.438572 C 125.54701,46.160514 126,45.897658 126,44.054482 c 0,-1.250312 0.44175,-1.899497 1.04068,-1.529342 0.57237,0.353746 0.77051,1.494403 0.4403,2.534794 -0.94113,2.965224 -1.15737,16.022034 -0.27439,16.567744 1.17391,0.725516 0.96265,5.803086 -0.29372,7.059454 -0.75725,0.757244 -0.76719,1.284872 -0.0328,1.738774 1.80896,1.117997 -0.0551,6.850445 -3.04593,9.367074 C 122.27538,81.104624 121,82.76464 121,83.481905 121,84.711293 118.92297,86 116.94155,86 c -1.42574,0 -5.00651,-8.219984 -4.40556,-10.113382 0.80023,-2.521322 -1.12588,-3.201436 -3.90662,-1.37943 -2.97167,1.947117 -5.34879,7.216047 -4.04967,8.97618 C 108.4921,88.78414 113,96.29849 113,97.519417 c 0,2.425293 -1.76873,1.747928 -9.46239,-3.623786 -6.27377,-4.380349 -7.750742,-5.00773 -10.412712,-4.423063 -3.990684,0.876501 -4.440854,1.723603 -3.235622,6.088594 1.921048,6.957458 -1.01822,8.580698 -5.321478,2.938838 -2.338029,-3.065314 -3.191094,-3.48762 -6.868689,-3.40032 -7.703231,0.182862 -9.166458,1.024063 -9.474309,5.44672 -0.151361,2.17448 -0.376361,5.3036 -0.5,6.9536 -0.194006,2.58905 0.08341,2.95714 2.0252,2.68714 1.970864,-0.27404 2.25,0.12915 2.25,3.25 0,3.71299 2.104529,4.94799 3.70031,2.17146 0.677037,-1.17799 1.775129,-1.18895 7.159475,-0.0715 3.809219,0.79058 7.218109,0.9839 8.5,0.48203 11.602245,-4.54234 23.599895,-5.44328 28.896345,-2.16989 l 3.53716,2.18608 -1.71314,4.51311 c -1.8129,4.77588 -5.08015,8.9842 -5.08015,6.54337 0,-1.03689 -0.31627,-1.07425 -1.40999,-0.16654 -0.86204,0.71543 -4.06812,1.05448 -8.25,0.87244 L 100.5,127.5 l 0.28681,-4.62374 c 0.33497,-5.40022 -1.384679,-6.50564 -6.666015,-4.285 -1.739538,0.73142 -3.78389,1.09152 -4.543005,0.80022 -0.780399,-0.29947 -2.183652,0.62823 -3.228999,2.13471 -4.703264,6.778 -3.135567,6.41336 -27.376297,6.36762 -18.1781,-0.0343 -22.188961,-0.29434 -22.639241,-1.46775 z M 52,105.5 c 0,-0.275 -0.225,-0.5 -0.5,-0.5 -0.275,0 -0.5,0.225 -0.5,0.5 0,0.275 0.225,0.5 0.5,0.5 0.275,0 0.5,-0.225 0.5,-0.5 z m 7.683114,-3.6875 c -0.319226,-0.79773 -0.556183,-0.56078 -0.604167,0.60417 -0.04342,1.05416 0.192928,1.64479 0.52522,1.3125 0.332291,-0.3323 0.367818,-1.1948 0.07895,-1.91667 z M 59,82.625 c 0,-0.75625 -0.281549,-2.782745 -0.625665,-4.503323 -0.595499,-2.977496 -0.840678,-3.12019 -5.085295,-2.959639 -3.488589,0.131954 -4.800037,0.688209 -6.022989,2.554669 -1.877955,2.866122 -0.935337,4.147141 3.8913,5.288282 C 56.435037,84.252769 59,84.128493 59,82.625 Z M 70.666667,82.333333 C 70.3,81.966667 70,82.266667 70,83 c 0,0.733333 0.3,1.033333 0.666667,0.666667 0.366666,-0.366667 0.366666,-0.966667 0,-1.333334 z m 6.429056,-0.948672 c 1.159853,-1.397537 1.08641,-1.56608 -0.544689,-1.25 -1.036916,0.200936 -2.072591,0.927839 -2.301501,1.615339 -0.593964,1.78389 1.25999,1.545915 2.84619,-0.365339 z M 85,80 c 0,-1.173714 -0.76862,-1.173714 -3.5,0 -1.77225,0.761562 -1.686844,0.867433 0.75,0.929715 C 83.7625,80.968372 85,80.55 85,80 Z M 45,77.622445 c 0,-2.289199 -2.675305,-3.777532 -6.184676,-3.440676 L 35.5,74.5 37.75,76.75 C 40.241237,79.241237 45,79.813893 45,77.622445 Z M 121.5,127 c -0.33992,-0.55 0.11008,-1 1,-1 0.88992,0 1.33992,0.45 1,1 -0.33992,0.55 -0.78992,1 -1,1 -0.21008,0 -0.66008,-0.45 -1,-1 z m 4.64324,0.093 c -1.00598,-0.62501 -1.05341,-1.03043 -0.18347,-1.56809 1.3722,-0.84806 2.40235,-0.0973 1.8944,1.38059 -0.20803,0.60526 -0.91401,0.68263 -1.71093,0.1875 z M 96.8125,126.31689 c 0.721875,-0.28887 1.584375,-0.25335 1.916667,0.0789 0.332291,0.3323 -0.258334,0.56864 -1.3125,0.52522 -1.164943,-0.048 -1.4019,-0.28494 -0.604167,-0.60416 z m 17.21548,-18.7433 C 112.77009,104.26508 112.72777,103 113.875,103 c 0.95974,0 2.43132,6.02701 1.65992,6.79841 -0.26343,0.26343 -0.94155,-0.73774 -1.50694,-2.22482 z M 126,99.5 c 0,-0.275 0.225,-0.5 0.5,-0.5 0.275,0 0.5,0.225 0.5,0.5 0,0.275 -0.225,0.5 -0.5,0.5 -0.275,0 -0.5,-0.225 -0.5,-0.5 z m -8.80868,-9.572236 c -0.14364,-1.885066 0.16059,-2.828308 0.78729,-2.440983 1.19242,0.736956 1.39523,5.513219 0.2341,5.513219 -0.43301,0 -0.89264,-1.382506 -1.02139,-3.072236 z M 126,91.5 c 0,-0.275 0.225,-0.5 0.5,-0.5 0.275,0 0.5,0.225 0.5,0.5 0,0.275 -0.225,0.5 -0.5,0.5 -0.275,0 -0.5,-0.225 -0.5,-0.5 z m 0,-3 c 0,-0.275 0.225,-0.5 0.5,-0.5 0.275,0 0.5,0.225 0.5,0.5 0,0.275 -0.225,0.5 -0.5,0.5 -0.275,0 -0.5,-0.225 -0.5,-0.5 z m 0,-5 c 0,-0.275 0.225,-0.5 0.5,-0.5 0.275,0 0.5,0.225 0.5,0.5 0,0.275 -0.225,0.5 -0.5,0.5 -0.275,0 -0.5,-0.225 -0.5,-0.5 z m 0.40451,-2.654508 c -0.44208,-0.7153 -0.27432,-0.883063 0.44098,-0.440984 C 127.99824,81.116949 128.39316,82 127.55902,82 c -0.24254,0 -0.76207,-0.519529 -1.15451,-1.154508 z M 111.66667,25.333333 c -0.36667,-0.366666 -0.68098,-1.604166 -0.69847,-2.75 -0.0444,-2.908074 -1.94959,-5.086918 -5.4682,-6.253602 -2.19167,-0.726705 -3.14207,-1.780828 -3.52726,-3.912229 -0.5616,-3.1074961 -0.40908,-3.0772673 -8.992562,-1.782342 -2.680764,0.404427 -3.942457,0.064 -5.292763,-1.4280688 -1.719281,-1.8997839 -1.658148,-2.0264924 2.019822,-4.1864632 2.08602,-1.2250619 4.182838,-2.9098548 4.659596,-3.7439841 0.56082,-0.98120392 1.099047,-1.14086895 1.524619,-0.45227888 0.452886,0.73278608 2.008663,0.76079798 4.994498,0.0899262 3.09492,-0.69538344 4.73434,-0.64438521 5.72538,0.17810228 1.04251,0.8652066 1.73214,0.8674441 2.76653,0.00898 1.0826,-0.89847832 1.49111,-0.71042949 1.90638,0.8775553 C 111.68471,3.5103432 112.64187,4 115.23494,4 119.085,4 128,9.3037408 128,11.594236 c 0,1.626998 -2.33066,1.834354 -4.93739,0.439274 -2.38208,-1.274855 -6.62677,0.718221 -8.01528,3.763543 C 113.72445,18.69846 113.70326,21.698571 115,22.5 c 1.69121,1.045227 1.10674,3.5 -0.83333,3.5 -1.00834,0 -2.13334,-0.3 -2.5,-0.666667 z M 75.404508,7.8454915 C 74.962429,7.1301922 75.130192,6.9624292 75.845492,7.4045085 76.480471,7.7969475 77,8.3164763 77,8.559017 77,9.3931566 76.116949,8.9982441 75.404508,7.8454915 Z M 126,6.5 C 126,6.225 126.225,6 126.5,6 126.775,6 127,6.225 127,6.5 127,6.775 126.775,7 126.5,7 126.225,7 126,6.775 126,6.5 Z"
         id="path7" />
      <path
         style="fill:#d86e5b;stroke-width:1.00033"
         d="M 36.333253,126.42606 C 35.718134,124.82309 31,124.44617 31,126 c 0,1.68887 -4.358468,1.06624 -7,-1 -1.375,-1.07554 -3.175,-1.97554 -4,-2 -0.825,-0.0245 -2.576268,-0.872 -3.891706,-1.88343 -1.766893,-1.35854 -3.504456,-1.71353 -6.6511757,-1.35885 -3.592622,0.40494 -4.437006,0.14838 -5.3934777,-1.63881 C 3.4399361,116.95351 2.2704652,116 1.4648162,116 c -1.7383572,0 -1.80725434,-0.49163 -0.4296324,-3.06574 0.7135783,-1.33333 0.7135783,-1.93426 0,-1.93426 -1.22896312,0 -1.35354961,-3.94986 -0.18279833,-5.7954 0.58993433,-0.92995 1.63295893,-0.0836 3.69724443,3 2.1500226,3.21171 2.9665032,3.85389 3.2362515,2.5454 C 7.9843032,109.7875 8.5636525,109 9.0733242,109 9.5829959,109 10,107.71974 10,106.15499 c 0,-1.57502 0.892785,-3.65297 2,-4.65499 2.696811,-2.440581 2.52838,-3.619597 -1,-7 -3.7299094,-3.57348 -3.771056,-4.937977 -0.19359,-6.419812 2.218099,-0.918767 3.367897,-0.87115 5.484866,0.227147 1.473151,0.764279 2.385267,1.682789 2.026923,2.041132 C 17.959856,90.70681 18.10034,91 18.630386,91 20.027311,91 27,83.642099 27,82.167999 27,80.431277 22.970075,72.652729 21.624277,71.791797 21.015398,71.402285 18.038348,70.802924 15.008612,70.459883 11.978875,70.116842 8.7125,69.617709 7.75,69.350698 5.147666,68.628776 5.6332287,67 8.4507789,67 9.7987073,67 13.173707,66.512711 15.950779,65.917136 20.92818,64.849674 21,64.780838 21,61.077651 21,58.041009 20.52086,57.102719 18.5,56.181954 17.125,55.555462 16,54.41333 16,53.643884 16,52.874437 15.325,51.684689 14.5,51 13.675,50.315311 13,48.940535 13,47.944943 13,46.949351 12.1,45.849126 11,45.5 9.9,45.150874 8.9544074,44.108049 8.898683,43.182612 8.6215936,38.580875 9.3199591,34.34025 10.58857,32.921259 11.364856,32.052952 12,30.645552 12,29.793704 12,28.941856 12.675,27.684689 13.5,27 15.194537,25.593659 15.518744,23 14,23 13.45,23 13,22.171229 13,21.158288 13,19.860865 11.756431,18.943993 8.7921417,18.05587 4.8970661,16.888877 4.4564426,16.953042 2.8644434,18.919078 1.9185314,20.08723 0.88426389,20.621752 0.56607112,20.106905 0.24787836,19.592059 0.55284259,18.942912 1.2437694,18.664358 2.242078,18.261879 2.2433572,18.141686 1.25,18.078947 0.53733997,18.033937 0,16.674561 0,14.916667 c 0,-2.039043 0.42336091,-2.931531 1.25,-2.635128 0.6875,0.246513 2.079957,0.02046 3.094349,-0.502344 1.3941429,-0.718521 2.411592,-0.417653 4.1681608,1.232557 1.7890342,1.680711 3.0170322,2.030852 5.3361172,1.521495 2.421256,-0.531797 3.229065,-0.256596 4.117023,1.40257 C 18.58455,17.092242 20.070258,18 21.344054,18 c 2.958802,0 6.572504,-2.674755 5.040727,-3.730997 -0.61337,-0.422952 -1.431898,-1.78372 -1.818951,-3.023929 -1.059648,-3.3953662 1.69646,-3.8332628 4.97903,-0.791079 1.853784,1.718029 3.42416,2.373225 4.709996,1.965117 1.496421,-0.474946 1.844341,-0.198155 1.551522,1.234326 -0.274758,1.344128 -1.116044,1.768241 -3.09192,1.558713 C 31.221506,15.053834 30,15.391334 30,15.962151 c 0,0.570817 0.7875,1.088151 1.75,1.149632 0.9625,0.06148 3.2125,0.281019 5,0.487863 3.309803,0.383 4.502715,-1.181704 1.716145,-2.251011 C 37.31336,14.90627 37.921518,14.032553 40.914057,11.831815 43.104029,10.221292 45.171402,8.0353203 45.50822,6.9741003 46.497943,3.8557588 53.038253,2.5941691 58.536772,4.4609647 61.029989,5.3074341 63.899068,6 64.912503,6 65.925937,6 67.315311,6.675 68,7.5 c 1.729679,2.084136 3,1.8724159 3,-0.5 0,-2.6464639 1.418687,-2.5361405 3.245815,0.252409 0.811709,1.238825 3.900964,3.120247 6.86501,4.180937 2.964046,1.060691 7.52206,3.422107 10.128919,5.247591 C 93.846604,18.506422 96.643271,20 97.454561,20 c 2.13919,0 3.700179,3.535272 2.924909,6.624214 -0.627483,2.500085 -0.499886,2.622824 2.05897,1.980592 2.19425,-0.55072 2.82794,-0.302155 3.23922,1.270571 0.83684,3.200063 8.54554,3.743367 10.51797,0.741299 0.38259,-0.582315 1.02479,-0.729594 1.42709,-0.327285 0.40231,0.402309 -0.43166,1.964277 -1.85327,3.47104 -1.42161,1.506763 -3.12585,4.764569 -3.7872,7.239569 -0.66136,2.475 -1.56793,5.4 -2.01461,6.5 -2.47584,6.097063 -1.71193,15.508406 1.25761,15.493677 0.70111,-0.0035 2.03205,-1.337324 2.95764,-2.964104 0.92646,-1.628318 2.8913,-3.261074 4.37136,-3.632544 2.59323,-0.65086 2.66688,-0.858491 2.07893,-5.860968 l -0.60953,-5.186205 2.98817,0.438572 C 125.54701,46.160514 126,45.897658 126,44.054482 c 0,-1.250312 0.44175,-1.899497 1.04068,-1.529342 0.57237,0.353746 0.77051,1.494403 0.4403,2.534794 -0.94113,2.965224 -1.15737,16.022034 -0.27439,16.567744 1.17391,0.725516 0.96265,5.803086 -0.29372,7.059454 -0.75725,0.757244 -0.76719,1.284872 -0.0328,1.738774 1.80896,1.117997 -0.0551,6.850445 -3.04593,9.367074 C 122.27538,81.104624 121,82.76464 121,83.481905 121,84.711293 118.92297,86 116.94155,86 c -1.42574,0 -5.00651,-8.219984 -4.40556,-10.113382 0.80023,-2.521322 -1.12588,-3.201436 -3.90662,-1.37943 -2.97167,1.947117 -5.34879,7.216047 -4.04967,8.97618 C 108.4921,88.78414 113,96.29849 113,97.519417 c 0,2.425293 -1.76873,1.747928 -9.46239,-3.623786 -6.27377,-4.380349 -7.750742,-5.00773 -10.412712,-4.423063 -3.990684,0.876501 -4.440854,1.723603 -3.235622,6.088594 C 91.810324,102.51862 88.871056,104.14186 84.567798,98.5 82.055267,95.205902 81.55544,95 76.071553,95 c -6.667099,0 -8.165968,1.136146 -8.111385,6.14845 0.02007,1.84335 -0.07525,4.70155 -0.211835,6.35155 -0.21477,2.59455 0.05576,2.95772 2.001667,2.68714 1.970864,-0.27404 2.25,0.12915 2.25,3.25 0,3.71299 2.104529,4.94799 3.70031,2.17146 0.677037,-1.17799 1.775129,-1.18895 7.159475,-0.0715 3.809219,0.79058 7.218109,0.9839 8.5,0.48203 11.602245,-4.54234 23.599895,-5.44328 28.896345,-2.16989 l 3.53716,2.18608 -1.71314,4.51311 c -1.8129,4.77588 -5.08015,8.9842 -5.08015,6.54337 0,-1.03689 -0.31627,-1.07425 -1.40999,-0.16654 -0.86204,0.71543 -4.06812,1.05448 -8.25,0.87244 L 100.5,127.5 l 0.28681,-4.62374 c 0.33497,-5.40022 -1.384679,-6.50564 -6.666015,-4.285 -1.739538,0.73142 -3.78389,1.09152 -4.543005,0.80022 -0.780399,-0.29947 -2.183652,0.62823 -3.228999,2.13471 -4.703264,6.778 -3.135567,6.41336 -27.376297,6.36762 -18.1781,-0.0343 -22.188961,-0.29434 -22.639241,-1.46775 z M 52,105.5 c 0,-0.275 -0.225,-0.5 -0.5,-0.5 -0.275,0 -0.5,0.225 -0.5,0.5 0,0.275 0.225,0.5 0.5,0.5 0.275,0 0.5,-0.225 0.5,-0.5 z m 7.683114,-3.6875 c -0.319226,-0.79773 -0.556183,-0.56078 -0.604167,0.60417 -0.04342,1.05416 0.192928,1.64479 0.52522,1.3125 0.332291,-0.3323 0.367818,-1.1948 0.07895,-1.91667 z M 16,91 c 0,-0.55 -0.198442,-1 -0.440983,-1 -0.242541,0 -0.719098,0.45 -1.059017,1 -0.339919,0.55 -0.141476,1 0.440983,1 C 15.523442,92 16,91.55 16,91 Z M 59.464052,84.058166 C 60.607782,82.207571 57.577567,74.931172 55.5,74.539364 49.783827,73.461353 34.758713,72.581394 34.315412,73.298669 c -0.617278,0.998777 2.390928,4.470733 5.173399,5.970937 3.52948,1.902963 14.932165,5.687449 17.202172,5.709302 1.205041,0.0116 2.452922,-0.402733 2.773069,-0.920742 z M 70.666667,82.333333 C 70.3,81.966667 70,82.266667 70,83 c 0,0.733333 0.3,1.033333 0.666667,0.666667 0.366666,-0.366667 0.366666,-0.966667 0,-1.333334 z m 6.429056,-0.948672 c 1.159853,-1.397537 1.08641,-1.56608 -0.544689,-1.25 -1.036916,0.200936 -2.072591,0.927839 -2.301501,1.615339 -0.593964,1.78389 1.25999,1.545915 2.84619,-0.365339 z M 85,80 c 0,-1.173714 -0.76862,-1.173714 -3.5,0 -1.77225,0.761562 -1.686844,0.867433 0.75,0.929715 C 83.7625,80.968372 85,80.55 85,80 Z M 59.666667,29.333333 C 59.3,28.966667 59,29.266667 59,30 c 0,0.733333 0.3,1.033333 0.666667,0.666667 0.366666,-0.366667 0.366666,-0.966667 0,-1.333334 z M 121.5,127 c -0.33992,-0.55 0.11008,-1 1,-1 0.88992,0 1.33992,0.45 1,1 -0.33992,0.55 -0.78992,1 -1,1 -0.21008,0 -0.66008,-0.45 -1,-1 z m 4.64324,0.093 c -1.00598,-0.62501 -1.05341,-1.03043 -0.18347,-1.56809 1.3722,-0.84806 2.40235,-0.0973 1.8944,1.38059 -0.20803,0.60526 -0.91401,0.68263 -1.71093,0.1875 z M 96.8125,126.31689 c 0.721875,-0.28887 1.584375,-0.25335 1.916667,0.0789 0.332291,0.3323 -0.258334,0.56864 -1.3125,0.52522 -1.164943,-0.048 -1.4019,-0.28494 -0.604167,-0.60416 z m 17.21548,-18.7433 C 112.77009,104.26508 112.72777,103 113.875,103 c 0.95974,0 2.43132,6.02701 1.65992,6.79841 -0.26343,0.26343 -0.94155,-0.73774 -1.50694,-2.22482 z M 5.6361696,103.49426 C 5.3207996,102.67242 5.4720888,102 5.9723678,102 c 1.3555539,0 2.1973144,1.7771 1.1487289,2.42516 -0.5013399,0.30984 -1.1695571,-0.10906 -1.4849271,-0.9309 z M 0.57936559,99.128416 C 0.19579582,98.507787 0.47102366,97.993109 1.190983,97.984687 2.2268359,97.97257 2.2148752,97.788742 1.1336666,97.103772 0.1450769,96.477479 0.04303686,95.745515 0.76457849,94.456191 1.6896147,92.803243 1.8110668,92.829364 2.4418949,94.816927 3.233238,97.310228 1.679103,100.90783 0.57936559,99.128416 Z M 126,99.5 c 0,-0.275 0.225,-0.5 0.5,-0.5 0.275,0 0.5,0.225 0.5,0.5 0,0.275 -0.225,0.5 -0.5,0.5 -0.275,0 -0.5,-0.225 -0.5,-0.5 z m -8.80868,-9.572236 c -0.14364,-1.885066 0.16059,-2.828308 0.78729,-2.440983 1.19242,0.736956 1.39523,5.513219 0.2341,5.513219 -0.43301,0 -0.89264,-1.382506 -1.02139,-3.072236 z M 126,91.5 c 0,-0.275 0.225,-0.5 0.5,-0.5 0.275,0 0.5,0.225 0.5,0.5 0,0.275 -0.225,0.5 -0.5,0.5 -0.275,0 -0.5,-0.225 -0.5,-0.5 z M 0.19594583,86.407841 C 0.32517948,82.970214 0.3837527,82.914273 1.5575097,85.107458 2.8086775,87.445286 2.4776003,90 0.92346257,90 0.44905467,90 0.12167213,88.383529 0.19594583,86.407841 Z M 126,88.5 c 0,-0.275 0.225,-0.5 0.5,-0.5 0.275,0 0.5,0.225 0.5,0.5 0,0.275 -0.225,0.5 -0.5,0.5 -0.275,0 -0.5,-0.225 -0.5,-0.5 z m 0,-5 c 0,-0.275 0.225,-0.5 0.5,-0.5 0.275,0 0.5,0.225 0.5,0.5 0,0.275 -0.225,0.5 -0.5,0.5 -0.275,0 -0.5,-0.225 -0.5,-0.5 z m 0.40451,-2.654508 c -0.44208,-0.7153 -0.27432,-0.883063 0.44098,-0.440984 C 127.99824,81.116949 128.39316,82 127.55902,82 c -0.24254,0 -0.76207,-0.519529 -1.15451,-1.154508 z M 0,35.5 C 0,32.475 0.3989053,30 0.88645622,30 1.9730046,30 3.3631659,38.603368 2.5018154,39.997063 1.0107177,42.409709 0,40.592924 0,35.5 Z M 6.3584512,25.491726 c -0.7457056,-1.943278 -0.5410294,-2.156814 2.8935986,-3.01885 3.4701032,-0.870941 3.5959152,0.741496 0.22994,2.946968 -2.2785815,1.492984 -2.5755877,1.499819 -3.1235386,0.07188 z M 111.66667,25.333333 c -0.36667,-0.366666 -0.68098,-1.604166 -0.69847,-2.75 -0.0444,-2.908074 -1.94959,-5.086918 -5.4682,-6.253602 -2.19167,-0.726705 -3.14207,-1.780828 -3.52726,-3.912229 -0.5616,-3.1074961 -0.40908,-3.0772673 -8.992562,-1.782342 -2.680764,0.404427 -3.942457,0.064 -5.292763,-1.4280688 -1.719281,-1.8997839 -1.658148,-2.0264924 2.019822,-4.1864632 2.08602,-1.2250619 4.182838,-2.9098548 4.659596,-3.7439841 0.56082,-0.98120392 1.099047,-1.14086895 1.524619,-0.45227888 0.452886,0.73278608 2.008663,0.76079798 4.994498,0.0899262 3.09492,-0.69538344 4.73434,-0.64438521 5.72538,0.17810228 1.04251,0.8652066 1.73214,0.8674441 2.76653,0.00898 1.0826,-0.89847832 1.49111,-0.71042949 1.90638,0.8775553 C 111.68471,3.5103432 112.64187,4 115.23494,4 119.085,4 128,9.3037408 128,11.594236 c 0,1.626998 -2.33066,1.834354 -4.93739,0.439274 -2.38208,-1.274855 -6.62677,0.718221 -8.01528,3.763543 C 113.72445,18.69846 113.70326,21.698571 115,22.5 c 1.69121,1.045227 1.10674,3.5 -0.83333,3.5 -1.00834,0 -2.13334,-0.3 -2.5,-0.666667 z M 0,24 C 0,23.266667 0.3,22.966667 0.66666667,23.333333 1.0333333,23.7 1.0333333,24.3 0.66666667,24.666667 0.3,25.033333 0,24.733333 0,24 Z M 126,6.5 C 126,6.225 126.225,6 126.5,6 126.775,6 127,6.225 127,6.5 127,6.775 126.775,7 126.5,7 126.225,7 126,6.775 126,6.5 Z M 62,0.94098301 C 62,0.35852366 62.45,0.16008131 63,0.5 63.55,0.83991869 64,1.3164763 64,1.559017 64,1.8015576 63.55,2 63,2 62.45,2 62,1.5234424 62,0.94098301 Z"
         id="path6" />
      <path
         style="display:inline;fill:#ae675e;stroke-width:1.00033"
         d="m 36.5,127 c -0.339919,-0.55 -0.141476,-1 0.440983,-1 C 37.523442,126 38,126.45 38,127 c 0,0.55 -0.198442,1 -0.440983,1 -0.242541,0 -0.719098,-0.45 -1.059017,-1 z m 11.5,0 c 0.825,-0.53316 2.625,-0.93141 4,-0.88501 l 2.5,0.0844 L 52,127 c -1.375,0.44035 -3.175,0.83861 -4,0.88501 -1.333333,0.075 -1.333333,-0.0233 0,-0.88501 z m -24,-2 c -1.375,-1.07554 -3.175,-1.97554 -4,-2 -0.825,-0.0245 -2.576268,-0.872 -3.891706,-1.88343 -1.766893,-1.35854 -3.504456,-1.71353 -6.6511757,-1.35885 -3.592622,0.40494 -4.437006,0.14838 -5.3934777,-1.63881 C 3.4399361,116.95351 2.2704652,116 1.4648162,116 c -1.7383572,0 -1.80725434,-0.49163 -0.4296324,-3.06574 0.7135783,-1.33333 0.7135783,-1.93426 0,-1.93426 -1.22896312,0 -1.35354961,-3.94986 -0.18279833,-5.7954 0.58993433,-0.92995 1.63295893,-0.0836 3.69724443,3 2.1500226,3.21171 2.9665032,3.85389 3.2362515,2.5454 C 7.9843032,109.7875 8.5636525,109 9.0733242,109 9.5829959,109 10,107.71974 10,106.15499 c 0,-1.57502 0.892785,-3.65297 2,-4.65499 2.696811,-2.440581 2.52838,-3.619597 -1,-7 -3.7299094,-3.57348 -3.771056,-4.937977 -0.19359,-6.419812 2.218099,-0.918767 3.367897,-0.87115 5.484866,0.227147 1.473151,0.764279 2.385267,1.682789 2.026923,2.041132 C 17.959856,90.70681 18.10034,91 18.630386,91 20.027311,91 27,83.642099 27,82.167999 27,80.431277 22.970075,72.652729 21.624277,71.791797 21.015398,71.402285 18.038348,70.802924 15.008612,70.459883 11.978875,70.116842 8.7125,69.617709 7.75,69.350698 5.147666,68.628776 5.6332287,67 8.4507789,67 9.7987073,67 13.173707,66.512711 15.950779,65.917136 20.92818,64.849674 21,64.780838 21,61.077651 21,58.041009 20.52086,57.102719 18.5,56.181954 17.125,55.555462 16,54.41333 16,53.643884 16,52.874437 15.325,51.684689 14.5,51 13.675,50.315311 13,48.940535 13,47.944943 13,46.949351 12.1,45.849126 11,45.5 9.9,45.150874 8.9544074,44.108049 8.898683,43.182612 8.6215936,38.580875 9.3199591,34.34025 10.58857,32.921259 11.364856,32.052952 12,30.645552 12,29.793704 12,28.941856 12.675,27.684689 13.5,27 15.194537,25.593659 15.518744,23 14,23 13.45,23 13,22.171229 13,21.158288 13,19.860865 11.756431,18.943993 8.7921417,18.05587 4.8970661,16.888877 4.4564426,16.953042 2.8644434,18.919078 1.9185314,20.08723 0.88426389,20.621752 0.56607112,20.106905 0.24787836,19.592059 0.55284259,18.942912 1.2437694,18.664358 2.242078,18.261879 2.2433572,18.141686 1.25,18.078947 0.53733997,18.033937 0,16.674561 0,14.916667 c 0,-2.039043 0.42336091,-2.931531 1.25,-2.635128 0.6875,0.246513 2.079957,0.02046 3.094349,-0.502344 1.3941429,-0.718521 2.411592,-0.417653 4.1681608,1.232557 1.7890342,1.680711 3.0170322,2.030852 5.3361172,1.521495 2.421256,-0.531797 3.229065,-0.256596 4.117023,1.40257 C 18.58455,17.092242 20.070258,18 21.344054,18 c 2.958802,0 6.572504,-2.674755 5.040727,-3.730997 -0.61337,-0.422952 -1.431898,-1.78372 -1.818951,-3.023929 -1.059648,-3.3953662 1.69646,-3.8332628 4.97903,-0.791079 1.853784,1.718029 3.42416,2.373225 4.709996,1.965117 1.496421,-0.474946 1.844341,-0.198155 1.551522,1.234326 -0.274758,1.344128 -1.116044,1.768241 -3.09192,1.558713 C 31.221506,15.053834 30,15.391334 30,15.962151 c 0,0.570817 0.7875,1.088151 1.75,1.149632 0.9625,0.06148 3.2125,0.281019 5,0.487863 3.309803,0.383 4.502715,-1.181704 1.716145,-2.251011 C 37.31336,14.90627 37.921518,14.032553 40.914057,11.831815 43.104029,10.221292 45.171402,8.0353203 45.50822,6.9741003 46.497943,3.8557588 53.038253,2.5941691 58.536772,4.4609647 61.029989,5.3074341 63.884424,6 64.87996,6 65.875496,6 67.504514,6.9 68.5,8 c 0.995486,1.1 3.05757,2 4.582407,2 C 75.924783,10 80,13.908655 80,16.634859 80,17.487498 81.135553,18 83.024751,18 c 2.181857,0 3.295854,0.626998 3.997612,2.25 0.535074,1.2375 1.533153,3.035945 2.217954,3.996544 0.994246,1.394671 0.992013,2.15179 -0.01109,3.758009 -0.690899,1.106306 -1.891076,4.733019 -2.667059,8.059362 -1.4104,6.045843 -1.410047,6.048274 1.038497,7.163906 2.153837,0.981354 2.84424,0.733291 5.721961,-2.055906 3.055227,-2.961242 5.59294,-3.923014 6.900664,-2.615293 0.30614,0.306142 -0.14093,2.737912 -0.99349,5.403933 l -1.550108,4.847311 3.681368,4.300847 c 2.02475,2.365466 4.18775,5.99101 4.80666,8.056765 1.04479,3.487176 1.45469,3.799109 5.72879,4.359556 7.61812,0.998934 10.05186,1.582402 10.6522,2.553775 0.77435,1.252927 -3.84547,2.905294 -8.36381,2.991476 -5.48164,0.104556 -6.83609,0.967821 -9.55849,6.092147 l -2.47702,4.662432 4.92531,6.990832 c 7.59709,10.783099 6.77608,11.668324 -3.88078,4.184304 -3.915864,-2.75 -7.60227,-5 -8.192018,-5 -0.589749,0 -2.213645,0.747857 -3.608658,1.661905 -2.323722,1.522561 -2.480595,2.067556 -1.870978,6.5 0.824738,5.996565 -0.642275,6.372965 -5.461105,1.401199 -3.153184,-3.25326 -3.604468,-3.406209 -8.446167,-2.862563 -2.813248,0.315882 -5.615748,0.966339 -6.227779,1.44546 -0.61203,0.47912 -1.411483,3.786618 -1.776562,7.349999 C 66.824176,111.17249 66.226033,113 64.5,113 62.895519,113 62.329224,111.5487 61.525849,105.37785 60.295885,95.930306 60.335952,96 56.134586,96 47.834683,96 45,99.349399 45,109.15638 c 0,2.28275 -0.540328,4.11373 -1.3,4.40525 -0.716014,0.27476 -1.3,2.03519 -1.3,3.91887 0,4.88139 -2.930903,7.83008 -7.020292,7.06291 -2.170704,-0.40723 -3.668737,-0.11152 -4.709979,0.92972 C 28.657077,127.48578 27.030366,127.37039 24,125 Z m 14,-13.5 c 0,-0.275 -0.225,-0.5 -0.5,-0.5 -0.275,0 -0.5,0.225 -0.5,0.5 0,0.275 0.225,0.5 0.5,0.5 0.275,0 0.5,-0.225 0.5,-0.5 z M 37,96 c 0,-0.55 -0.198442,-1 -0.440983,-1 -0.242541,0 -0.719098,0.45 -1.059017,1 -0.339919,0.55 -0.141476,1 0.440983,1 C 36.523442,97 37,96.55 37,96 Z M 16,91 c 0,-0.55 -0.198442,-1 -0.440983,-1 -0.242541,0 -0.719098,0.45 -1.059017,1 -0.339919,0.55 -0.141476,1 0.440983,1 C 15.523442,92 16,91.55 16,91 Z M 59.215688,80.5 c -0.452711,-6.3692 -0.593294,-6.493496 -7.434303,-6.573003 -3.454762,-0.04015 -8.665476,-0.412246 -11.579365,-0.826876 -2.943406,-0.41883 -5.542407,-0.35838 -5.847961,0.136017 -0.649804,1.051405 2.280458,4.494539 5.134752,6.033468 C 43.82195,81.605872 54.630027,84.989087 57,84.751073 59.263179,84.523784 59.473068,84.121086 59.215688,80.5 Z M 79.5,82.794894 C 85.9954,81.163665 94,76.286 94,73.959206 c 0,-0.380691 -3.0375,-0.515171 -6.75,-0.298843 -3.7125,0.216327 -9,0.493743 -11.75,0.61648 L 70.5,74.5 70.196615,79.782451 69.89323,85.064902 72.696615,84.43217 C 74.238477,84.084167 77.3,83.347393 79.5,82.794894 Z M 92.758474,60.916838 c -0.692161,-1.14574 -2.975961,-2.970184 -5.075113,-4.054321 -3.329959,-1.719805 -4.190687,-1.805588 -6.75,-0.672726 C 79.320013,56.903928 78,57.828373 78,58.244111 78,58.65985 77.325,59 76.5,59 75.675,59 75,59.427639 75,59.95031 c 0,1.981044 3.761879,2.989899 11.258474,3.019281 7.60103,0.02979 7.732935,-0.01187 6.5,-2.052753 z M 77.284392,36.095708 c 2.140458,-3.623505 2.151577,-4.956486 0.06062,-7.266967 C 74.969072,26.203356 74.176543,26.542023 73.434022,30.5 73.057962,32.504572 72.184071,34 71.388709,34 70.574086,34 70,35.033489 70,36.5 c 0,2.068092 0.481041,2.5 2.784392,2.5 2.012903,0 3.259748,-0.804711 4.5,-2.904292 z M 59.666667,29.333333 C 59.3,28.966667 59,29.266667 59,30 c 0,0.733333 0.3,1.033333 0.666667,0.666667 0.366666,-0.366667 0.366666,-0.966667 0,-1.333334 z M 57.75,126.33772 c 0.6875,-0.27741 1.8125,-0.27741 2.5,0 0.6875,0.27741 0.125,0.50439 -1.25,0.50439 -1.375,0 -1.9375,-0.22698 -1.25,-0.50439 z M 5.6361696,103.49426 C 5.3207996,102.67242 5.4720888,102 5.9723678,102 c 1.3555539,0 2.1973144,1.7771 1.1487289,2.42516 -0.5013399,0.30984 -1.1695571,-0.10906 -1.4849271,-0.9309 z M 0.57936559,99.128416 C 0.19579582,98.507787 0.47102366,97.993109 1.190983,97.984687 2.2268359,97.97257 2.2148752,97.788742 1.1336666,97.103772 0.1450769,96.477479 0.04303686,95.745515 0.76457849,94.456191 1.6896147,92.803243 1.8110668,92.829364 2.4418949,94.816927 3.233238,97.310228 1.679103,100.90783 0.57936559,99.128416 Z M 0.19594583,86.407841 C 0.32517948,82.970214 0.3837527,82.914273 1.5575097,85.107458 2.8086775,87.445286 2.4776003,90 0.92346257,90 0.44905467,90 0.12167213,88.383529 0.19594583,86.407841 Z M 0,35.5 C 0,32.475 0.3989053,30 0.88645622,30 1.9730046,30 3.3631659,38.603368 2.5018154,39.997063 1.0107177,42.409709 0,40.592924 0,35.5 Z M 6.3584512,25.491726 c -0.7457056,-1.943278 -0.5410294,-2.156814 2.8935986,-3.01885 3.4701032,-0.870941 3.5959152,0.741496 0.22994,2.946968 -2.2785815,1.492984 -2.5755877,1.499819 -3.1235386,0.07188 z M 0,24 C 0,23.266667 0.3,22.966667 0.66666667,23.333333 1.0333333,23.7 1.0333333,24.3 0.66666667,24.666667 0.3,25.033333 0,24.733333 0,24 Z M 71.582949,7.1342147 C 71.152178,6.4372123 71.06979,5.5968767 71.399864,5.2668022 c 0.894961,-0.894961 1.870768,0.4213023 1.387387,1.8714436 -0.338725,1.0161751 -0.574267,1.0153866 -1.204302,-0.00403 z M 62,0.94098301 C 62,0.35852366 62.45,0.16008131 63,0.5 63.55,0.83991869 64,1.3164763 64,1.559017 64,1.8015576 63.55,2 63,2 62.45,2 62,1.5234424 62,0.94098301 Z"
         id="path5" />
      <path
         style="display:inline;fill:#9e4739;stroke-width:1.00033"
         d="m 48,127 c 0.825,-0.53316 2.625,-0.93141 4,-0.88501 l 2.5,0.0844 L 52,127 c -1.375,0.44035 -3.175,0.83861 -4,0.88501 -1.333333,0.075 -1.333333,-0.0233 0,-0.88501 z m -20.666667,-0.66667 c 0.366667,-0.36666 0.966667,-0.36666 1.333334,0 C 29.033333,126.7 28.733333,127 28,127 c -0.733333,0 -1.033333,-0.3 -0.666667,-0.66667 z m 30.416667,0.004 c 0.6875,-0.27741 1.8125,-0.27741 2.5,0 0.6875,0.27741 0.125,0.50439 -1.25,0.50439 -1.375,0 -1.9375,-0.22698 -1.25,-0.50439 z M 18,120.5 c 0,-0.275 0.225,-0.5 0.5,-0.5 0.275,0 0.5,0.225 0.5,0.5 0,0.275 -0.225,0.5 -0.5,0.5 -0.275,0 -0.5,-0.225 -0.5,-0.5 z m 45.551368,-10.41689 c -0.398969,-0.64554 -1.023741,-4.19083 -1.388383,-7.87841 L 61.5,95.5 56.724199,94.951169 c -5.226537,-0.600629 -9.806666,0.838226 -13.393031,4.207441 -3.226896,3.03151 -4.640974,1.51751 -2.766611,-2.962107 C 42.076336,92.583439 42.052303,92.449212 39.499861,90.25 38.063597,89.0125 35.982145,88 34.874412,88 32.669734,88 25.613291,92.530369 22.595012,95.883604 20.550833,98.154639 18,98.709904 18,96.883847 c 0,-0.613885 2.25,-3.979225 5,-7.478533 2.75,-3.499309 5,-6.837 5,-7.417091 0,-0.580091 -1.121959,-3.268789 -2.493242,-5.974886 -2.171567,-4.285381 -2.977933,-4.998128 -6.25,-5.524371 C 9.2336737,68.876963 8.9994044,68.451235 17.140599,66.643359 l 5.292592,-1.175301 1.665388,-6.484029 c 1.053862,-4.10311 1.323358,-6.910742 0.733927,-7.646109 -0.512304,-0.639144 -1.003439,-2.96704 -1.09141,-5.173102 -0.138223,-3.466187 -0.394241,-3.885633 -1.884781,-3.08792 C 19.291231,44.449689 18.997,44.25938 19.031803,41.25 c 0.04843,-4.187478 2.180751,-6.336161 5.974867,-6.020706 3.000475,0.249469 3.379492,-0.06271 4.831271,-3.979294 1.666007,-4.494524 3.903071,-5.471914 6.197233,-2.707618 0.969568,1.168259 0.999269,1.823175 0.122444,2.7 C 34.333418,33.066582 34.790665,34 37.508474,34 c 2.207967,0 2.367317,-0.226029 1.330167,-1.886769 -0.976192,-1.563132 -0.763234,-2.41129 1.241526,-4.944671 2.967324,-3.749757 5.17691,-3.951349 7.327876,-0.66856 0.900935,1.375 2.232945,2.5 2.960022,2.5 2.199663,0 4.92856,3.757701 4.346185,5.984709 -0.632251,2.41773 1.816053,5.249481 4.157128,4.808206 1.285522,-0.24231 1.800919,-2.201519 2.446481,-9.299949 C 62.403686,18.553482 62.772248,17 64.519052,17 c 1.830399,0 1.487499,-1.38213 2.833143,11.419573 1.121597,10.670247 1.211917,10.940877 3.955669,11.852621 2.221825,0.738309 3.24202,0.546382 4.888016,-0.919573 2.896992,-2.580114 4.957624,-7.892829 4.21265,-10.861042 C 79.940544,26.626972 80.179064,26 81.356408,26 c 0.865274,0 2.047635,-0.886444 2.62747,-1.969876 0.899866,-1.681415 1.417544,-1.804346 3.535184,-0.839485 3.029673,1.380411 3.065449,2.226035 0.333029,7.871532 -1.181351,2.440806 -2.357851,6.288024 -2.614447,8.549374 -0.426723,3.760663 -0.251555,4.152642 2.052575,4.593104 2.96016,0.56587 5.241584,-0.54881 8.227097,-4.019676 1.42709,-1.659091 2.744133,-2.298623 3.855488,-1.872156 1.554396,0.596478 1.527306,0.962667 -0.342417,4.627621 -2.650627,5.195657 -2.561445,6.665493 0.527219,8.689264 2.638154,1.728586 5.682694,6.886316 6.790144,11.503143 0.58786,2.450737 1.08166,2.661506 7.13911,3.047216 6.0807,0.387189 9.74263,1.923779 8.21804,3.448377 -0.36398,0.363974 -3.79937,0.949364 -7.6342,1.300867 -3.83484,0.351502 -7.13041,0.848705 -7.32349,1.104895 -0.19309,0.25619 -1.43832,2.57766 -2.76719,5.158823 l -2.41613,4.693022 4.73475,6.801411 c 2.63819,3.789722 4.24463,6.964787 3.62789,7.170369 -0.60878,0.202926 -2.9788,-1.037095 -5.2667,-2.755604 -7.790807,-5.851887 -9.012756,-6.270533 -13.198164,-4.521757 l -3.702423,1.546971 0.662478,4.993997 c 0.60918,4.592227 0.518301,4.916288 -1.129622,4.028105 -0.985655,-0.531241 -2.857263,-2.104773 -4.15913,-3.496739 -2.11689,-2.263396 -2.909465,-2.469878 -7.5,-1.953905 -7.682666,0.863526 -8.253139,1.39299 -8.978525,8.333107 -0.710465,6.79736 -1.927074,9.95393 -3.103076,8.05111 z M 60.197248,80 c -0.166514,-3.025 -0.616514,-5.789618 -1,-6.143596 C 58.813762,73.502426 52.7625,72.894614 45.75,72.50571 34.779432,71.897298 33,72.007554 33,73.295715 c 0,1.147491 6.17924,7.686255 7.284796,7.708643 0.118362,0.0024 3.365204,1.128489 7.215204,2.502427 3.85,1.373938 8.35,2.384477 10,2.245642 C 60.480519,85.501639 60.498034,85.464285 60.197248,80 Z m 16.602333,4.48526 c 3.464769,-0.816848 7.739769,-2.211569 9.5,-3.099381 C 89.513173,79.765033 95,75.133452 95,74.041618 95,73.505531 83.303516,73.385528 73.389291,73.819898 L 69.278582,74 68.669338,79.144109 c -0.59213,4.999618 -0.280291,6.871485 1.139679,6.84111 0.380041,-0.0081 3.525794,-0.683111 6.990564,-1.499959 z M 47.471005,63.395755 59,62.706488 v -3.328244 c 0,-3.095938 -0.191945,-3.290298 -2.75,-2.784596 -1.938303,0.383183 -3.398332,-0.06373 -4.946525,-1.514136 -2.269762,-2.126394 -4.409077,-1.965215 -7.362569,0.554708 -0.857502,0.731621 -3.557502,2.386817 -6,3.678212 -2.442498,1.291395 -4.599047,3.165054 -4.79233,4.163688 -0.25287,1.306506 0.08955,1.646481 1.221006,1.2123 0.864836,-0.331869 6.760476,-0.913568 13.101423,-1.292665 z M 90.273053,63.011006 C 93.95581,63.000263 94.010784,62.946153 92.570186,60.75 91.758431,59.5125 89.531836,57.65983 87.622199,56.632955 84.552461,54.982256 83.793805,54.923635 81.075066,56.127066 79.38378,56.875702 78,57.828373 78,58.244111 78,58.65985 77.325,59 76.5,59 c -2.187022,0 -1.834809,1.645824 0.75,3.504611 1.51816,1.091738 3.388418,1.439024 5.75,1.067709 1.925,-0.30267 5.197874,-0.555261 7.273053,-0.561314 z M 75.715145,52.626793 C 75.247081,51.198977 70,50.516915 70,51.883888 c 0,1.435292 3.116566,3.008612 4.731866,2.388763 0.743964,-0.285486 1.18644,-1.026122 0.983279,-1.645858 z M 50,24 c 0,-0.733333 0.3,-1.033333 0.666667,-0.666667 0.366666,0.366667 0.366666,0.966667 0,1.333334 C 50.3,25.033333 50,24.733333 50,24 Z"
         id="path4" />
      <path
         style="font-variation-settings:normal;display:inline;opacity:1;vector-effect:none;fill:#371d1a;fill-opacity:1;stroke-width:1.00033;stroke-linecap:butt;stroke-linejoin:miter;stroke-miterlimit:4;stroke-dasharray:none;stroke-dashoffset:0;stroke-opacity:1;-inkscape-stroke:none;stop-color:#000000;stop-opacity:1"
         d="m 63.679362,106 c -0.302392,-1.375 -0.787616,-4.26116 -1.078276,-6.413693 -0.29066,-2.152531 -0.88231,-4.238744 -1.314779,-4.636027 -0.432469,-0.397284 -3.327814,-1.025256 -6.434101,-1.395494 -5.320359,-0.634132 -5.849795,-0.4958 -9.132015,2.386027 C 43.803869,97.623366 41.966485,99 41.637115,99 c -0.32937,0 -0.335773,-1.919389 -0.01423,-4.26531 0.566045,-4.129745 0.469009,-4.320444 -3.053057,-6 -2.000725,-0.954079 -4.184916,-1.734407 -4.853756,-1.734061 -0.66884,3.46e-4 -3.841906,2.062012 -7.051258,4.581481 -3.209352,2.519469 -6.088701,4.327337 -6.398554,4.017485 -0.525707,-0.525708 2.05163,-4.539181 6.894566,-10.736335 l 2.060553,-2.636739 -3.415324,-5.844912 c -3.12251,-5.343797 -3.786854,-5.908336 -7.748785,-6.584689 -2.383404,-0.406878 -4.549419,-0.955734 -4.813365,-1.219681 -0.442017,-0.442016 0.401781,-0.686534 7.091108,-2.054882 1.688848,-0.345466 2.665231,-1.57981 3.528301,-4.46048 0.656308,-2.19056 2.736798,-6.004947 4.623312,-8.476415 3.158348,-4.137661 3.382691,-4.893244 2.832408,-9.53952 C 30.986519,41.238358 31.125732,39 31.632865,39 c 0.501296,0 2.55253,1.352719 4.558298,3.006043 3.159665,2.604462 4.008624,2.868496 6.354914,1.976438 L 45.25414,42.952878 44.548801,34.867016 C 43.679149,24.8975 44.799031,24.775553 49.792294,34.296038 53.201557,40.796362 53.425179,41 57.15418,41 c 2.115201,0 3.88451,-0.1125 3.931797,-0.25 0.04729,-0.1375 0.609788,-4.652175 1.25,-10.032612 C 62.97619,25.336952 63.95,20.934777 64.5,20.934777 c 0.55,0 1.471406,4.273581 2.047569,9.496847 0.576162,5.223266 1.294055,9.743333 1.595316,10.044594 0.301261,0.301262 2.285662,0.654856 4.40978,0.785765 3.70087,0.228085 3.998202,0.0085 7.125148,-5.261983 5.480743,-9.237826 5.405505,-9.23248 4.740049,-0.336775 -0.562258,7.516175 -0.449703,8.249367 1.419997,9.25 3.189246,1.706832 5.331532,1.29867 8.346991,-1.590323 1.536858,-1.472403 2.990436,-2.48095 3.230172,-2.241213 0.239736,0.239736 -0.07497,2.349806 -0.69935,4.689045 -1.103089,4.132734 -1.042919,4.337476 2.125043,7.230963 1.793155,1.637792 4.356875,5.457416 5.697175,8.488053 2.32878,5.265784 2.60382,5.510929 6.1995,5.525563 4.90068,0.01994 7.70688,1.614024 4.21046,2.391773 -1.34632,0.299476 -3.79785,0.667894 -5.44785,0.818708 -2.45627,0.224508 -3.49418,1.180415 -5.72664,5.274206 -1.49965,2.75 -2.73715,5.561458 -2.75,6.247685 -0.0129,0.686227 1.60756,3.517807 3.60091,6.2924 1.99334,2.774593 3.4392,5.229782 3.213,5.455975 -0.22619,0.226193 -3.16509,-1.398471 -6.53088,-3.610363 l -6.119629,-4.021623 -4.208544,2.147039 c -4.094452,2.088833 -4.191547,2.253333 -3.581563,6.067963 0.733173,4.585013 -0.128103,4.910622 -3.47234,1.312731 C 81.653302,92.948542 81.088972,92.821102 75,93.376469 c -7.368771,0.672095 -8.960377,1.999502 -9.070285,7.564661 -0.03866,1.95738 -0.437095,4.45887 -0.885418,5.55887 -0.763826,1.87412 -0.849738,1.84264 -1.364935,-0.5 z M 60.7936,80.32926 c 0.196537,-4.02445 -0.134061,-6.354559 -1,-7.048179 C 58.220253,72.020824 33.138131,70.967483 32.418756,72.131456 30.03014,75.996317 43.61135,84.146158 56,86.282137 c 4.148683,0.715292 4.488568,0.29321 4.7936,-5.952877 z M 79,84.786382 c 2.475,-0.605422 6.075,-1.890598 8,-2.855946 4.23039,-2.121454 10.663785,-8.600169 9.597843,-9.665456 C 95.482385,71.150208 70.725981,72.018213 69.25,73.223846 67.956483,74.280435 67.458184,85.124851 68.648458,86.315125 69.312812,86.979478 71.134033,86.710516 79,84.786382 Z M 58.572942,64.234687 c 1.892028,-1.29555 2.47896,-4.362718 1.805843,-9.436919 l -0.65628,-4.947278 -5.111252,0.647363 c -6.079451,0.769991 -14.519565,4.604735 -19.221855,8.733401 -5.913039,5.191716 -4.971144,5.770646 9.360602,5.753433 7.0125,-0.0084 13.232824,-0.345922 13.822942,-0.75 z M 97,63.584987 C 97,60.863393 88.036051,54.172379 81.672555,52.144029 68.662954,47.997248 68.202781,48.195516 68.789472,57.694764 l 0.3826,6.194764 3.663964,0.387133 C 74.851216,64.489584 81.1125,64.73944 86.75,64.831897 95.000034,64.9672 97,64.723905 97,63.584987 Z"
         id="path3" />
      <path
         style="display:inline;fill:#371d1a;stroke-width:1.00033"
         d="m 64.144724,98 c -0.293227,-4.180609 -1.522699,-5.017165 -8.304351,-5.650446 -5.135411,-0.479552 -7.051888,-0.25707 -9.047148,1.050275 -2.491688,1.632616 -2.540696,1.612817 -3.114937,-1.258389 -0.446108,-2.230541 -1.662666,-3.439556 -5.168974,-5.136931 L 33.92376,84.78468 29.98332,87.39234 c -4.839599,3.202696 -5.987875,3.327808 -3.282597,0.35766 4.271412,-4.68962 4.423219,-6.010679 1.360822,-11.842182 -1.561944,-2.9743 -3.756608,-5.882781 -4.87703,-6.463292 C 21.185964,68.409041 21.183866,68.366268 23.073692,67.186052 24.133161,66.524402 25,65.013901 25,63.829384 25,60.919861 29.568623,53.301233 32.137933,51.926181 34.21054,50.816955 34.302483,48.504694 32.463042,43.75 31.515758,41.301404 34.208729,41.468174 36.5,44 c 2.153484,2.379573 5.24698,2.565951 8.204654,0.494315 1.895038,-1.327336 2.082498,-2.15649 1.582604,-7 C 45.975373,34.472442 45.989181,32 46.317943,32 c 0.328762,0 1.832613,2.1375 3.341891,4.75 3.473686,6.012814 4.079763,6.425648 8.337874,5.67941 4.214265,-0.738554 4.936987,-1.723098 5.086659,-6.92941 0.06325,-2.2 0.434707,-5.125 0.825468,-6.5 0.685877,-2.413447 0.734358,-2.383153 1.40032,0.875 C 65.68957,31.73125 66,34.736607 66,36.553571 66,40.944291 68.25443,43 73.069592,43 76.66105,43 77.25573,42.59443 80.034434,38.25 L 83.072541,33.5 82.78627,39 c -0.284634,5.468571 -0.264677,5.510549 3.49255,7.346127 3.473486,1.696957 3.973041,1.718867 6.182515,0.271164 2.346048,-1.53719 2.401765,-1.50707 2.323207,1.255901 -0.05807,2.042331 1.059386,3.970736 4.011708,6.923058 2.57376,2.573758 4.33724,5.398373 4.75258,7.612344 0.36321,1.936082 1.29966,4.050704 2.08101,4.69916 1.19865,0.994793 1.20874,1.430041 0.0646,2.785628 -0.74582,0.88364 -2.60611,3.79525 -4.13398,6.470244 -2.500566,4.378005 -2.645473,5.126863 -1.45128,7.5 0.72966,1.450006 1.52365,3.071528 1.76441,3.603383 0.24077,0.531854 -0.74146,0.194354 -2.182727,-0.75 -3.590562,-2.352627 -6.030125,-2.159198 -10.808015,0.856952 -3.037931,1.917762 -3.949014,3.064981 -3.573748,4.5 0.606058,2.317569 -0.579407,2.510179 -2.346288,0.381218 -1.040753,-1.254031 -2.616745,-1.418154 -8.372445,-0.871902 -8.21778,0.77992 -9.332247,1.428019 -9.872516,5.741194 C 64.400935,99.854456 64.284428,99.991782 64.144724,98 Z M 62.358132,80.158132 c -0.07803,-4.038028 -0.528028,-7.708966 -1,-8.15764 C 60.886159,71.551817 53.761726,71.030658 45.526059,70.84236 31.636227,70.524787 30.525578,70.633158 30.185554,72.339211 29.075814,77.90727 47.997806,88.160716 58.5,87.682239 L 62.5,87.5 Z m 16.710367,6.231557 C 89.836769,83.197153 98,77.096716 98,72.242052 c 0,-2.454174 -0.138423,-2.504007 -5.25,-1.890035 -2.8875,0.346829 -9.3,0.641401 -14.25,0.654604 -4.95,0.0132 -9.560273,0.379795 -10.245051,0.81465 -1.385183,0.879634 -2.866616,12.142367 -1.921198,14.606088 0.788326,2.054343 5.727772,2.039732 12.734748,-0.03767 z M 60.25,64.831544 C 61.658285,64.105745 62,62.593553 62,57.087261 62,48.064669 61.279988,47.501342 52.378866,49.559822 39.740168,52.482658 26.755328,62.421994 30.579575,66.246241 31.467402,67.134068 58.261197,65.85653 60.25,64.831544 Z m 38.551794,-0.01227 C 99.288455,62.24852 92.732942,55.681113 86.804217,52.799931 80.711768,49.839185 70.915137,47.434852 68.585825,48.328692 67.333834,48.809126 67,50.510248 67,56.409598 c 0,4.879752 0.433701,7.753065 1.25,8.281385 1.156919,0.748773 20.400718,2.086266 27.241811,1.893374 1.965232,-0.05541 3.100985,-0.661063 3.309983,-1.765083 z"
         id="path2" />
    </g>
  </g>
</svg>
