<?xml version="1.0" encoding="UTF-8" standalone="no"?>
<!-- Created with Inkscape (http://www.inkscape.org/) -->

<svg
   width="5.666667in"
   height="7in"
   viewBox="0 0 143.93334 177.80001"
   version="1.1"
   id="svg538"
   inkscape:version="1.3 (0e150ed6c4, 2023-07-21)"
   sodipodi:docname="assets.svg"
   xml:space="preserve"
   inkscape:export-filename="../static/assets/img/siteLogo.svg"
   inkscape:export-xdpi="96"
   inkscape:export-ydpi="96"
   xmlns:inkscape="http://www.inkscape.org/namespaces/inkscape"
   xmlns:sodipodi="http://sodipodi.sourceforge.net/DTD/sodipodi-0.dtd"
   xmlns="http://www.w3.org/2000/svg"
   xmlns:svg="http://www.w3.org/2000/svg"><sodipodi:namedview
     id="namedview540"
     pagecolor="#ffffff"
     bordercolor="#666666"
     borderopacity="1.0"
     inkscape:showpageshadow="2"
     inkscape:pageopacity="0.0"
     inkscape:pagecheckerboard="true"
     inkscape:deskcolor="#d1d1d1"
     inkscape:document-units="px"
     showgrid="true"
     inkscape:zoom="0.70710678"
     inkscape:cx="422.14275"
     inkscape:cy="485.07525"
     inkscape:window-width="1920"
     inkscape:window-height="1023"
     inkscape:window-x="1775"
     inkscape:window-y="29"
     inkscape:window-maximized="1"
     inkscape:current-layer="layer6"
     showguides="true"><inkscape:grid
       id="grid4"
       units="px"
       originx="0"
       originy="0"
       spacingx="4.2333335"
       spacingy="4.2333335"
       empcolor="#0099e5"
       empopacity="0.30196078"
       color="#0099e5"
       opacity="0.14901961"
       empspacing="2"
       dotted="false"
       gridanglex="30"
       gridanglez="30"
       visible="true" /></sodipodi:namedview><defs
     id="defs535"><inkscape:perspective
       sodipodi:type="inkscape:persp3d"
       inkscape:vp_x="-118.53334 : 59.26667 : 1"
       inkscape:vp_y="0 : -1560.0159 : 0"
       inkscape:vp_z="143.93334 : 88.900005 : 1"
       inkscape:persp3d-origin="7.9568509 : 1.241912 : 1"
       id="perspective7" /></defs><g
     inkscape:groupmode="layer"
     id="layer7"
     inkscape:label="PAGE"><rect
       style="font-variation-settings:normal;opacity:1;vector-effect:none;fill:#ffffff;fill-opacity:1;stroke-width:0.264583;stroke-linecap:butt;stroke-linejoin:miter;stroke-miterlimit:4;stroke-dasharray:none;stroke-dashoffset:0;stroke-opacity:1;-inkscape-stroke:none;paint-order:stroke fill markers"
       id="rect4"
       width="143.93335"
       height="177.8"
       x="0"
       y="0"
       inkscape:label="BACKGROUND"
       sodipodi:insensitive="true" /><g
       inkscape:label="STATIC"
       inkscape:groupmode="layer"
       id="layer1"
       transform="translate(-1.3218059,-1.0580903)"><g
         inkscape:groupmode="layer"
         id="layer3"
         inkscape:label="ASSETS"><g
           inkscape:groupmode="layer"
           id="layer4"
           inkscape:label="ENGINE"
           transform="translate(26.124729,123.94585)"><g
             inkscape:groupmode="layer"
             id="layer5"
             inkscape:label="GURPS"
             transform="translate(-40.502187,-145.30259)"><path
               style="display:inline;fill:#0e0e0e;stroke-width:1"
               d="m 21.097244,186.38171 -1.164646,-1.18815 v -1.84063 c 0,-1.80601 0.0014,-1.84234 0.07737,-1.93067 0.04256,-0.0495 0.576209,-0.59156 1.185896,-1.20455 l 1.108522,-1.11453 H 33.63614 44.96789 l 1.173505,1.18945 1.173505,1.18946 0.0015,1.86768 0.0015,1.86767 -1.16818,1.17621 -1.16818,1.1762 H 33.621858 22.261901 Z m 24.727999,-0.27453 c 0.56354,-0.57782 1.036075,-1.07936 1.050085,-1.11453 0.0456,-0.11455 0.03515,-3.22584 -0.01115,-3.31634 -0.02305,-0.045 -0.498935,-0.54122 -1.057575,-1.1027 l -1.015705,-1.02087 H 33.620493 22.450083 l -1.033965,1.0553 -1.033966,1.0553 0.002,1.68888 0.002,1.68887 1.037628,1.05807 1.037628,1.05807 11.169635,2.9e-4 11.16963,2.8e-4 z m -21.346607,0.0744 c -0.729002,-0.095 -1.452919,-0.48235 -1.917089,-1.02575 -0.190534,-0.22306 -0.461344,-0.76278 -0.555723,-1.10756 -0.105218,-0.38438 -0.09556,-1.17028 0.01887,-1.53467 0.119317,-0.37997 0.261053,-0.64582 0.508079,-0.95294 0.811695,-1.00918 2.160617,-1.16623 3.262627,-0.37985 0.27003,0.19269 0.487717,0.4446 0.445869,0.51598 -0.08686,0.14815 -0.703671,0.85295 -0.746464,0.85295 -0.02802,0 -0.09615,-0.0389 -0.151401,-0.0864 -0.0999,-0.0859 -0.100099,-0.0871 -0.03544,-0.21214 0.07588,-0.14674 0.06082,-0.35256 -0.03669,-0.50139 -0.0355,-0.0542 -0.176144,-0.15345 -0.312543,-0.2206 -0.221117,-0.10885 -0.282601,-0.12209 -0.567223,-0.12209 -0.266245,0 -0.353422,0.0162 -0.525272,0.0976 -0.4039,0.19133 -0.709323,0.57762 -0.870684,1.10123 -0.104925,0.34047 -0.111631,0.97081 -0.01412,1.3267 0.111928,0.40848 0.306385,0.74456 0.599628,1.03635 0.391807,0.38985 0.840533,0.5778 1.379474,0.5778 h 0.254371 v -0.92225 -0.92225 l -0.149852,-0.14986 c -0.116507,-0.1165 -0.149853,-0.17841 -0.149853,-0.27819 v -0.12835 l 0.721165,0.011 0.721165,0.011 0.01184,0.12314 c 0.0094,0.0977 -0.01192,0.14535 -0.103023,0.23045 l -0.114867,0.1073 v 1.01408 1.01409 l 0.11239,0.0831 c 0.09069,0.067 0.112389,0.11067 0.112389,0.2259 0,0.0786 -0.0042,0.14295 -0.0094,0.14312 -0.0052,1.4e-4 -0.194808,0.0251 -0.42146,0.0555 -0.439374,0.0588 -1.088631,0.0664 -1.466796,0.017 z m 17.902823,-5e-4 c -0.38466,-0.05 -0.763715,-0.256 -1.09487,-0.59508 -0.15454,-0.15823 -0.343381,-0.39054 -0.419656,-0.51625 l -0.138675,-0.22856 0.494576,-0.37684 0.49458,-0.37683 0.1084,0.10822 0.1084,0.10823 -0.06157,0.15388 c -0.228455,0.57097 0.20117,1.01808 0.987394,1.02759 0.274665,0.003 0.349315,-0.0105 0.543105,-0.10068 0.26814,-0.12477 0.374865,-0.21828 0.477395,-0.41828 0.09331,-0.18202 0.10092,-0.47964 0.01645,-0.64302 -0.07612,-0.14719 -0.26096,-0.30431 -0.46433,-0.39469 -0.08685,-0.0386 -0.44931,-0.14579 -0.805455,-0.23821 -1.003209,-0.26032 -1.320664,-0.44319 -1.524809,-0.87835 -0.08485,-0.18087 -0.09677,-0.25483 -0.09677,-0.60052 0,-0.37002 0.0076,-0.40963 0.123131,-0.64428 0.218275,-0.4432 0.633195,-0.71791 1.263005,-0.83622 0.654074,-0.12287 1.300144,0.004 1.832424,0.36011 0.27299,0.18258 0.583945,0.48894 0.583945,0.5753 0,0.0313 -0.54722,0.60541 -0.729615,0.76547 -0.0085,0.007 -0.06606,-0.0226 -0.128065,-0.0668 -0.105265,-0.075 -0.11233,-0.095 -0.106565,-0.3029 0.0078,-0.28002 -0.06493,-0.38764 -0.36668,-0.54285 -0.204035,-0.10495 -0.24594,-0.11239 -0.63324,-0.11239 -0.358174,0 -0.438819,0.0119 -0.591279,0.087 -0.21807,0.10741 -0.329265,0.27573 -0.329075,0.49816 2.85e-4,0.37226 0.23933,0.52575 1.210269,0.77723 1.19825,0.31036 1.625525,0.62891 1.77257,1.32156 0.2879,1.35609 -0.860145,2.30639 -2.524979,2.09007 z m -13.663755,-0.0988 c -0.406689,-0.0569 -0.910862,-0.30187 -1.149477,-0.55853 -0.318319,-0.3424 -0.549472,-0.94601 -0.582436,-1.52093 -0.03802,-0.66301 0.109232,-1.23583 0.556384,-2.16444 0.284349,-0.59051 0.295876,-0.67185 0.106332,-0.75036 -0.09795,-0.0406 -0.113173,-0.0647 -0.1035,-0.16396 l 0.01134,-0.11639 h 0.730531 0.730531 l 0.01249,0.10962 c 0.01045,0.0916 -0.02121,0.1415 -0.192954,0.30391 -0.530575,0.50175 -0.921893,1.5278 -0.923889,2.42246 -9.5e-4,0.42071 0.0472,0.68232 0.175467,0.95353 0.258873,0.54737 0.714042,0.79971 1.442508,0.79971 h 0.329297 v -2.06471 -2.06479 l -0.134001,-0.12274 c -0.104448,-0.0957 -0.131301,-0.14636 -0.121756,-0.22984 l 0.01225,-0.10709 h 0.730531 0.730535 l 0.01165,0.12088 c 0.0096,0.0991 -0.01235,0.14199 -0.121755,0.23802 l -0.13343,0.11715 v 2.15601 2.15601 l 0.152645,0.14092 c 0.12109,0.11179 0.15014,0.16288 0.14049,0.24712 l -0.01215,0.1062 -1.142627,0.004 c -0.628444,0.002 -1.193201,-0.003 -1.255015,-0.0117 z m 3.153148,0.001 c -0.06862,-0.0686 -0.01675,-0.2177 0.11551,-0.33201 l 0.14049,-0.12142 0.0106,-2.11028 c 0.0077,-1.53927 -0.001,-2.13872 -0.03295,-2.21539 -0.02395,-0.0578 -0.09269,-0.13414 -0.152785,-0.16963 -0.09242,-0.0546 -0.107545,-0.0848 -0.09817,-0.19594 l 0.0111,-0.13139 1.308376,-0.01 c 1.083055,-0.008 1.34741,1.4e-4 1.535065,0.0482 0.769345,0.1971 1.19523,0.84741 1.072595,1.63781 -0.07757,0.49996 -0.33958,0.86871 -0.76664,1.07895 l -0.242845,0.11955 0.09706,0.19153 c 0.05338,0.10534 0.28143,0.52062 0.506775,0.92285 0.39713,0.70883 0.5701,0.95099 0.711295,0.9958 0.05033,0.016 0.06784,0.0596 0.06784,0.16886 v 0.14733 h -0.57609 c -0.41521,0 -0.586925,-0.0131 -0.614885,-0.0468 -0.03535,-0.0427 -0.25509,-0.44724 -0.768155,-1.41423 -0.10386,-0.19575 -0.243155,-0.45705 -0.30955,-0.58068 l -0.12072,-0.22478 -0.341285,-0.0108 -0.34129,-0.0108 v 0.88554 0.88553 l 0.13112,0.13112 c 0.09844,0.0984 0.13112,0.16288 0.13112,0.2585 v 0.12737 h -0.724286 c -0.39836,0 -0.735525,-0.0112 -0.749265,-0.0249 z m 2.351161,-2.97442 c 0.25554,-0.0514 0.416445,-0.16117 0.536955,-0.36618 0.19951,-0.33939 0.11118,-0.84294 -0.1873,-1.06779 -0.219845,-0.1656 -0.43567,-0.21206 -0.985065,-0.21206 h -0.50444 v 0.83668 c 0,0.46017 0.007,0.8437 0.0156,0.85228 0.02915,0.0291 0.93874,-0.006 1.124255,-0.0429 z m 2.48237,2.97521 c -0.01415,-0.0142 -0.02575,-0.0808 -0.02575,-0.14811 0,-0.0889 0.0202,-0.12877 0.07395,-0.14583 0.0407,-0.0129 0.10811,-0.0669 0.149855,-0.11996 0.07418,-0.0943 0.0759,-0.1441 0.07576,-2.19875 -1.35e-4,-2.00974 -0.0035,-2.10746 -0.07234,-2.22066 -0.0397,-0.0651 -0.10801,-0.12978 -0.15178,-0.14367 -0.06523,-0.0207 -0.07752,-0.05 -0.06815,-0.16256 l 0.01145,-0.13731 1.161355,-0.0104 c 0.638745,-0.006 1.262505,0.005 1.386135,0.0246 0.396805,0.0618 0.65195,0.18216 0.889555,0.41977 0.33039,0.33039 0.380745,0.47295 0.38263,1.08325 0.0015,0.49074 -0.002,0.51312 -0.116005,0.75389 -0.134235,0.28331 -0.313085,0.49524 -0.61141,0.72451 -0.286495,0.22017 -0.51521,0.32944 -1.254925,0.59951 l -0.638515,0.23312 -0.01125,0.38984 c -0.0153,0.52851 0.005,0.61656 0.163825,0.71852 0.1128,0.0723 0.128745,0.10086 0.119895,0.21454 l -0.0102,0.13112 -0.714135,0.0101 c -0.39278,0.006 -0.72573,-0.001 -0.7399,-0.0156 z m 1.754255,-2.36741 c 0.733065,-0.35571 1.065025,-0.7274 1.097835,-1.22925 0.01855,-0.28338 -0.03855,-0.47021 -0.20734,-0.67894 -0.216235,-0.26736 -0.3624,-0.32011 -0.93784,-0.33848 l -0.49639,-0.0158 v 1.24063 c 0,0.96762 0.0103,1.24058 0.04685,1.24045 0.02575,-1e-4 0.249365,-0.0984 0.496905,-0.21857 z"
               id="path8"
               sodipodi:nodetypes="ccssscccccccccccccsssccccccccccccsssssssssssssssssscccsscccsscccsscsssssscccccssssssssscssssssssscssscssssscccsscsscccssccccscccsscccccscscsscsssscsssscscsscccccsscsccsssscscssssssssscssssssscsssccsscssccsscc"
               inkscape:label="logo"
               inkscape:export-filename="../static/assets/engine/gurps/logo.svg"
               inkscape:export-xdpi="96"
               inkscape:export-ydpi="96" /><text
               xml:space="preserve"
               style="font-style:normal;font-variant:normal;font-weight:normal;font-stretch:normal;font-size:5.64444px;line-height:1.25;font-family:Monospace;-inkscape-font-specification:'Monospace, Normal';font-variant-ligatures:normal;font-variant-position:normal;font-variant-caps:normal;font-variant-numeric:normal;font-variant-alternates:normal;font-variant-east-asian:normal;font-feature-settings:normal;font-variation-settings:normal;text-indent:0;text-align:start;text-decoration-line:none;text-decoration-style:solid;text-decoration-color:#000000;letter-spacing:normal;word-spacing:normal;text-transform:none;writing-mode:lr-tb;direction:ltr;text-orientation:mixed;dominant-baseline:auto;baseline-shift:baseline;white-space:normal;opacity:1;vector-effect:none;fill:#000000;fill-opacity:1;stroke-width:0.264583;stroke-linecap:butt;stroke-linejoin:miter;stroke-miterlimit:4;stroke-dasharray:none;stroke-dashoffset:0;stroke-opacity:1;-inkscape-stroke:none;stop-color:#000000;stop-opacity:1"
               x="19.345554"
               y="170.46233"
               id="text772-30"
               inkscape:label="header"><tspan
                 sodipodi:role="line"
                 style="font-style:normal;font-variant:normal;font-weight:normal;font-stretch:normal;font-size:5.64444px;line-height:1.25;font-family:Monospace;-inkscape-font-specification:'Monospace, Normal';font-variant-ligatures:normal;font-variant-position:normal;font-variant-caps:normal;font-variant-numeric:normal;font-variant-alternates:normal;font-variant-east-asian:normal;font-feature-settings:normal;font-variation-settings:normal;text-indent:0;text-align:start;text-decoration-line:none;text-decoration-style:solid;text-decoration-color:#000000;letter-spacing:normal;word-spacing:normal;text-transform:none;writing-mode:lr-tb;direction:ltr;text-orientation:mixed;dominant-baseline:auto;baseline-shift:baseline;white-space:normal;vector-effect:none;fill:#000000;fill-opacity:1;stroke-width:0.264583;stroke-linecap:butt;stroke-linejoin:miter;stroke-miterlimit:4;stroke-dasharray:none;stroke-dashoffset:0;stroke-opacity:1;-inkscape-stroke:none;stop-color:#000000;stop-opacity:1"
                 x="19.345554"
                 y="170.46233"
                 id="tspan953-9">static/assets/engine/gurps</tspan></text></g><g
             inkscape:groupmode="layer"
             id="layer2"
             inkscape:label="DND"
             transform="translate(-40.665748,-65.159137)"
             style="display:inline"><path
               style="fill:#000000;stroke-width:0.0200685"
               d="m 50.747931,43.015965 c -0.0529,-0.0529 -0.051,-0.0774 0.0188,-0.23117 l 0.0589,-0.12995 -0.0439,-0.009 c -0.0241,-0.005 -0.12687,-0.0142 -0.22831,-0.0208 -0.518854,-0.0335 -1.209174,-0.20688 -1.689234,-0.42438 l -0.1277,-0.0579 0.60935,-2.7e-4 c 0.45648,-2.6e-4 0.6899,-0.01 0.930444,-0.037 0.3033,-0.0345 0.99158,-0.14223 1.00125,-0.15665 0.002,-0.004 0.0333,-0.0441 0.0686,-0.0898 0.0352,-0.0457 0.0641,-0.0872 0.0641,-0.0921 0,-0.005 -0.0745,0.007 -0.16557,0.0275 -0.62194,0.13683 -1.120204,0.19762 -1.730904,0.21117 -0.68944,0.0153 -1.14751,-0.0353 -1.66756,-0.18434 -0.67927,-0.19462 -1.29191,-0.57003 -1.62877,-0.99807 -0.15139,-0.19236 -0.14631,-0.19522 0.0467,-0.0263 0.37931,0.33198 0.8841,0.61486 1.2524,0.70183 0.11566,0.0273 0.21243,0.0475 0.21505,0.0449 0.003,-0.003 -0.0861,-0.0807 -0.19706,-0.17347 -0.99999,-0.83587 -1.65967,-2.03731 -1.85666,-3.38144 -0.0537,-0.3661 -0.0491,-1.11101 0.009,-1.48507 0.16042,-1.03227 0.58191,-1.95369 1.2487,-2.72974 0.18011,-0.20964 0.49657,-0.518 0.67727,-0.65995 0.0689,-0.0542 0.12239,-0.10139 0.1188,-0.10499 -0.004,-0.004 -0.10077,0.0161 -0.21595,0.0438 -0.40891,0.0982 -0.93874,0.40648 -1.34108,0.78023 l -0.0881,0.0818 0.0379,-0.0695 c 0.0208,-0.0383 0.13275,-0.16531 0.24865,-0.28236 0.67049,-0.67715 1.67441,-1.022827 2.97014,-1.022687 0.59708,6e-5 1.128824,0.0559 1.743124,0.182997 0.15849,0.0328 0.29601,0.0569 0.30561,0.0537 0.01,-0.003 -0.0146,-0.0464 -0.0537,-0.0958 l -0.0712,-0.0899 -0.26573,-0.0438 c -0.70134,-0.11554 -1.172634,-0.15348 -1.795604,-0.14457 -0.2647,0.004 -0.47925,0.005 -0.47678,0.002 0.0232,-0.0231 0.59623,-0.23638 0.76663,-0.28534 0.37917,-0.10895 0.66331,-0.1586 1.225244,-0.2141 l 0.10318,-0.0102 -0.0616,-0.13859 c -0.0522,-0.11757 -0.0581,-0.14622 -0.0387,-0.18892 0.0257,-0.0565 0.11424,-0.0878 0.16287,-0.0575 0.0176,0.011 0.10025,0.13278 0.18366,0.27072 0.5916,0.978437 1.30601,1.701907 1.95104,1.975767 0.27393,0.1163 0.94843,0.27791 1.26029,0.30196 0.20421,0.0157 0.20152,0.007 -0.0689,-0.23774 -0.62304,-0.56272 -1.29309,-0.92564 -2.06785,-1.12003 -0.29869,-0.0749 -0.30299,-0.0768 -0.38539,-0.167817 -0.11595,-0.12808 -0.22395,-0.2956 -0.28088,-0.4357 -0.0757,-0.18644 -0.075,-0.18767 0.1073,-0.17123 0.53116,0.0479 1.17592,0.22956 1.7309,0.48759 0.1983,0.0922 0.85174,0.504427 1.04751,0.660847 l 0.1344,0.10738 h 13.82632 13.82631 l 0.12033,0.19579 c 0.24016,0.39081 0.66156,0.9166 0.89847,1.12102 0.13036,0.11249 0.30316,0.22659 0.40495,0.2674 l 0.0652,0.0261 v 2.48333 2.48334 l -0.0923,0.0352 c -0.13322,0.0509 -0.3814,0.24524 -0.57116,0.44729 -0.19534,0.20802 -0.53062,0.65042 -0.70395,0.9289 l -0.12417,0.1995 h -13.82538 -13.82543 l -0.13876,0.10857 c -0.22858,0.17885 -0.87638,0.5801 -1.11259,0.68914 -0.50316,0.23227 -1.13623,0.40569 -1.67071,0.45765 -0.16928,0.0165 -0.1699,0.0155 -0.10351,-0.16195 0.0508,-0.13582 0.2077,-0.37396 0.31272,-0.47467 0.0674,-0.0647 0.1049,-0.0803 0.30756,-0.12816 0.81927,-0.19358 1.58225,-0.61224 2.1857,-1.19932 l 0.16882,-0.16424 -0.0685,-0.007 c -0.1881,-0.019 -1.04024,0.16906 -1.34968,0.29788 -0.18135,0.0755 -0.44978,0.24054 -0.64536,0.3968 -0.43261,0.34564 -0.96137,0.98736 -1.33494,1.62012 -0.0587,0.0993 -0.12008,0.19642 -0.13652,0.21573 -0.0398,0.0468 -0.11464,0.0445 -0.16414,-0.005 z m -1.051614,-1.35385 c 0.599864,-0.03 1.395614,-0.17891 2.045004,-0.38257 0.19014,-0.0596 0.24023,-0.085 0.36123,-0.1832 0.65751,-0.53339 1.42514,-0.82046 2.30552,-0.86217 l 0.28332,-0.0134 0.0697,-0.0925 c 0.64196,-0.85163 0.96381,-1.80399 0.96381,-2.8519 0,-0.94082 -0.26535,-1.82071 -0.78104,-2.58993 -0.0995,-0.14841 -0.19701,-0.2883 -0.2167,-0.31088 -0.0317,-0.0364 -0.0755,-0.0438 -0.38698,-0.0652 -0.58993,-0.0406 -1.01474,-0.1499 -1.49511,-0.38478 -0.25856,-0.12643 -0.51774,-0.2911 -0.74153,-0.47112 -0.15684,-0.12617 -0.28464,-0.17456 -0.82922,-0.31396 -0.54002,-0.13822 -1.053184,-0.21976 -1.624164,-0.25807 -0.32703,-0.0219 -0.32647,-0.0221 -0.75569,0.19317 -1.22693,0.61533 -2.13756,1.75642 -2.46257,3.0858 -0.0978,0.39983 -0.12717,0.65816 -0.12694,1.11497 2.2e-4,0.46924 0.0324,0.73688 0.13918,1.15682 0.28711,1.12936 0.9825,2.10715 1.96052,2.75667 0.37893,0.25165 0.90932,0.5077 1.01757,0.49123 0.0282,-0.004 0.15157,-0.0128 0.27408,-0.019 z m 6.791204,-0.78554 c -0.25515,-0.11122 -0.89923,-0.29716 -1.10952,-0.32031 l -0.10463,-0.0115 -0.10034,0.12495 c -0.0552,0.0687 -0.12132,0.15063 -0.14695,0.18201 l -0.0466,0.0571 0.78914,-8e-4 c 0.7251,-7.9e-4 0.78345,-0.003 0.71891,-0.0314 z m 23.67079,-0.11464 c 1.56617,-0.66725 2.56325,-1.39871 2.95193,-2.16556 l 0.0684,-0.13496 v -1.1865 -1.18649 l -0.0851,-0.16362 c -0.27115,-0.52152 -0.85252,-1.04716 -1.68971,-1.52767 -0.39701,-0.22787 -1.01108,-0.51945 -1.44293,-0.68513 l -0.17733,-0.068 h -11.30636 -11.3064 l -0.29447,0.13191 c -0.3373,0.15109 -0.90541,0.34523 -1.20661,0.41233 -0.11314,0.0252 -0.20571,0.0535 -0.20571,0.063 0,0.009 0.0348,0.0686 0.0774,0.13142 0.43119,0.63652 0.74178,1.52301 0.82664,2.35939 0.0307,0.3027 0.014,1.05185 -0.0296,1.3271 -0.11704,0.73855 -0.396,1.47712 -0.78664,2.08273 -0.0483,0.0748 -0.0877,0.14258 -0.0875,0.15052 1.4e-4,0.008 0.15141,0.0516 0.33615,0.0972 0.36297,0.0894 0.76251,0.23069 1.12859,0.39912 l 0.23079,0.10618 11.33871,-0.003 11.33868,-0.003 z m 1.8892,-0.0779 c 0.34073,-0.49167 0.78094,-0.98036 1.02576,-1.13873 l 0.10536,-0.0682 v -0.24947 -0.24946 l -0.0949,0.12741 c -0.13536,0.18179 -0.46273,0.50571 -0.70353,0.69615 -0.46815,0.37022 -1.12106,0.74783 -1.87071,1.08191 -0.0381,0.017 0.12208,0.0227 0.66604,0.0237 l 0.71623,10e-4 0.15573,-0.22473 z m 1.13112,-5.36039 v -0.24691 l -0.11538,-0.0818 c -0.312,-0.22112 -0.73862,-0.70296 -1.05932,-1.19645 l -0.0997,-0.15332 -0.72244,-8e-5 -0.72247,-8e-5 0.15052,0.0666 c 0.62616,0.27692 1.27426,0.65439 1.74596,1.01689 0.22484,0.17281 0.6428,0.58718 0.74258,0.73619 0.0386,0.0577 0.0724,0.10508 0.0752,0.10536 0.003,2.7e-4 0.005,-0.11059 0.005,-0.24638 z m -27.4791,-1.39822 c 0.22979,-0.0561 0.65007,-0.18942 0.79286,-0.25148 0.0579,-0.0251 -0.0255,-0.0285 -0.72419,-0.0292 l -0.78956,-7.9e-4 0.0872,0.10246 c 0.0479,0.0564 0.11425,0.13792 0.14737,0.18125 0.0578,0.0756 0.0639,0.0783 0.15184,0.0679 0.0504,-0.006 0.20093,-0.0375 0.33451,-0.0702 z"
               id="path1880"
               inkscape:label="proficiency" /><path
               style="fill:#000000;stroke-width:0.0201698"
               d="m 45.496161,23.027129 v -4.729831 l 1.15473,4.76e-4 1.15472,4.76e-4 0.0605,0.08249 c 0.0865,0.117934 0.30897,0.318565 0.44132,0.39802 l 0.11325,0.06799 0.21688,-0.08089 c 0.367306,-0.137003 0.696986,-0.209409 1.270696,-0.279082 0.0566,-0.0069 0.0927,-0.02359 0.10649,-0.04931 0.0303,-0.05668 0.12643,-0.09983 0.22233,-0.09983 0.0692,0 0.0963,0.01258 0.15611,0.07241 0.0696,0.06959 0.0803,0.07317 0.27532,0.09202 0.39206,0.03789 0.89084,0.161921 1.29562,0.322174 0.0601,0.02379 0.0713,0.02055 0.18153,-0.05242 0.17393,-0.115146 0.29374,-0.221194 0.4011,-0.355049 l 0.0958,-0.119472 h 1.15661 1.15662 v 0.473991 0.473992 h 13.52197 13.52197 l 0.0555,0.09581 c 0.0997,0.172234 0.33844,0.515133 0.49997,0.718238 0.31312,0.393722 0.57504,0.635584 0.82484,0.761682 l 0.11611,0.05861 v 2.147505 2.14751 l -0.11611,0.0586 c -0.36664,0.18508 -0.8655,0.73365 -1.27618,1.40332 l -0.10573,0.17241 h -13.52118 -13.52116 v 0.47399 0.47399 h -1.15661 -1.15662 l -0.0958,-0.11947 c -0.15714,-0.19592 -0.479,-0.44102 -0.55032,-0.41908 -0.0197,0.006 -0.1203,0.0432 -0.22352,0.0826 -0.27532,0.10495 -0.70749,0.20756 -1.03031,0.24464 -0.27812,0.0319 -0.28465,0.0338 -0.3526,0.10178 -0.0566,0.0566 -0.0845,0.0692 -0.15292,0.0692 -0.0958,0 -0.19199,-0.0431 -0.22222,-0.0996 -0.0153,-0.0286 -0.051,-0.0418 -0.13674,-0.0507 -0.47621,-0.0493 -0.86293,-0.13544 -1.235746,-0.27517 l -0.22226,-0.0833 -0.11297,0.0678 c -0.1321,0.0793 -0.3546,0.28001 -0.44103,0.39785 l -0.0605,0.0825 -1.15473,4.7e-4 -1.15472,4.8e-4 z m 4.518046,4.2858 c 0,-0.0396 0.13083,-0.10041 0.21612,-0.10048 0.0645,-6e-5 0.10105,0.0138 0.15128,0.0572 l 0.0662,0.0573 0.19071,-0.0173 c 0.23174,-0.021 0.61621,-0.0979 0.84701,-0.16944 0.14854,-0.0461 0.16536,-0.0558 0.1311,-0.0761 -0.0581,-0.0343 -2.57428,-0.0441 -2.729756,-0.0106 l -0.11316,0.0244 0.201696,0.0643 c 0.2298,0.0733 0.56566,0.14242 0.81688,0.1682 0.0943,0.01 0.18279,0.0188 0.19665,0.0203 0.0139,0.001 0.0252,-0.007 0.0252,-0.0178 z m -2.409346,-0.22417 c 0.22983,-0.24004 0.64516,-0.47808 1.00755,-0.57745 l 0.20169,-0.0553 1.411886,1.2e-4 1.41189,1.2e-4 0.2017,0.0565 c 0.36091,0.10116 0.68044,0.28078 0.97133,0.54602 l 0.12419,0.11325 h 0.21578 c 0.37091,0 0.61296,-0.0927 0.83697,-0.32037 0.21002,-0.2135 0.3171,-0.46781 0.36194,-0.85957 0.0284,-0.24797 0.0284,-5.681962 0,-5.929932 -0.045,-0.393001 -0.15233,-0.64747 -0.36194,-0.85795 -0.22966,-0.230608 -0.46721,-0.321997 -0.83697,-0.321997 h -0.21578 l -0.12419,0.113245 c -0.25796,0.235217 -0.52974,0.399892 -0.82006,0.496881 -0.32195,0.107558 -0.29417,0.105911 -1.78503,0.10579 l -1.391716,-1.21e-4 -0.20169,-0.05528 c -0.36343,-0.09959 -0.70619,-0.292012 -0.97233,-0.545841 l -0.12519,-0.119402 -0.26812,0.0097 c -0.20506,0.0074 -0.29621,0.01986 -0.38751,0.05288 -0.30764,0.11123 -0.54597,0.352266 -0.66661,0.674156 -0.11559,0.308415 -0.11296,0.222323 -0.10688,3.494991 l 0.006,3.00389 0.0447,0.15724 c 0.0884,0.3111 0.22645,0.52855 0.43645,0.68774 0.20529,0.15561 0.39191,0.21074 0.71972,0.21261 l 0.23291,0.001 z m 32.282516,-0.85268 c 0.31774,-0.12794 0.76668,-0.32936 0.79409,-0.35627 0.0118,-0.0116 -4.88867,-0.0188 -12.85325,-0.0188 h -12.8724 v 0.24204 0.24204 h 12.33044 12.33043 z m 2.00607,-0.11531 c 0.34343,-0.4967 0.76789,-0.96799 1.03327,-1.14725 l 0.1045,-0.0706 5.3e-4,-0.25009 5.3e-4,-0.25009 -0.0979,0.12907 c -0.47969,0.63265 -1.34455,1.23089 -2.58473,1.78788 -0.0385,0.0173 0.11955,0.023 0.66914,0.024 l 0.71955,10e-4 0.15509,-0.2243 z m -26.51406,-3.09364 v -2.591827 h -0.21178 -0.21179 v 2.591827 2.59182 h 0.21179 0.21178 z m 25.9996,2.48049 c 0.79955,-0.48482 1.34602,-0.99908 1.58503,-1.4916 l 0.0682,-0.14062 v -0.85332 -0.85332 l -0.0633,-0.125486 c -0.25889,-0.513046 -0.80347,-1.023345 -1.61547,-1.513767 l -0.15597,-0.0942 h -12.78802 -12.78803 v 2.591823 2.59183 h 12.78698 12.78698 z m 1.65203,-4.109206 -0.001,-0.247081 -0.14095,-0.100849 c -0.27227,-0.194818 -0.66511,-0.6379 -1.01483,-1.144639 l -0.13572,-0.196656 -0.71952,0.0014 c -0.55419,0.0011 -0.70792,0.0066 -0.66908,0.02428 0.27343,0.124269 0.6956,0.331864 0.8673,0.426489 0.77206,0.425481 1.39758,0.922473 1.72129,1.367606 0.0461,0.06346 0.0862,0.115654 0.089,0.115977 0.003,3.17e-4 0.005,-0.110599 0.004,-0.246493 z m -2.3212,-1.214784 c -0.0198,-0.01981 -0.56155,-0.260598 -0.82244,-0.36555 l -0.27069,-0.108891 h -12.33043 -12.33044 v 0.242038 0.242038 h 12.88182 c 7.085,0 12.87748,-0.0043 12.87218,-0.0096 z m -29.09314,-1.193518 c 0.0343,-0.02024 0.0174,-0.03 -0.1311,-0.07606 -0.23079,-0.07156 -0.61526,-0.148474 -0.847,-0.169436 l -0.19072,-0.01725 -0.0662,0.05726 c -0.0491,0.04239 -0.0873,0.05726 -0.14723,0.05726 -0.086,0 -0.18741,-0.04201 -0.21412,-0.08872 -0.0336,-0.05873 -0.69173,0.04294 -1.06496,0.16453 l -0.181526,0.05914 0.0908,0.02154 c 0.131086,0.03111 2.698526,0.0234 2.752146,-0.0083 z"
               id="path1361"
               inkscape:label="inspiration" /><path
               style="font-style:normal;font-variant:normal;font-weight:normal;font-stretch:normal;font-size:4.23333px;line-height:1.25;font-family:sans-serif;-inkscape-font-specification:sans-serif;font-variant-ligatures:normal;font-variant-position:normal;font-variant-caps:normal;font-variant-numeric:normal;font-variant-alternates:normal;font-variant-east-asian:normal;font-feature-settings:normal;font-variation-settings:normal;text-indent:0;text-align:start;text-decoration-line:none;text-decoration-style:solid;text-decoration-color:#000000;letter-spacing:normal;word-spacing:normal;text-transform:none;writing-mode:lr-tb;direction:ltr;text-orientation:mixed;dominant-baseline:auto;baseline-shift:baseline;white-space:normal;fill:#000000;fill-opacity:1;stroke-width:0.0206659;stroke-linecap:butt;stroke-linejoin:miter;stroke-miterlimit:4;stroke-dasharray:none;stroke-dashoffset:0;stroke-opacity:1"
               d="m 20.958629,72.50063 -0.86247,-0.86338 v -6.7566 -6.7566 l 0.86247,-0.86338 0.86247,-0.86337 h 7.274821 7.274821 l 0.862709,0.86289 0.862709,0.86289 v 6.75757 6.75757 L 37.23345,72.50111 36.370741,73.364 H 29.09592 21.821099 Z m 1.714702,0.24813 c -0.145413,-0.0765 -0.350006,-0.19951 -0.454649,-0.27339 -0.243904,-0.1722 -0.667785,-0.59243 -0.865088,-0.85764 -0.270022,-0.36294 -0.521968,-0.82986 -0.680222,-1.26061 -0.03758,-0.1023 -0.07588,-0.19483 -0.08512,-0.20563 -0.0092,-0.0108 -0.01678,0.27279 -0.01678,0.6302 v 0.64984 l 0.728364,0.72858 0.728364,0.72858 0.454759,-5.3e-4 0.454759,-5.3e-4 -0.26439,-0.13906 z m 12.162945,0.0697 c 0.711936,-0.23322 1.29869,-0.63914 1.769507,-1.22418 l 0.147092,-0.18277 V 64.87878 58.34605 L 36.644991,58.20347 C 36.210009,57.62861 35.582006,57.1807 34.894414,56.95492 l -0.250675,-0.0823 H 29.10707 23.570401 l -0.223344,0.0729 c -0.302913,0.0989 -0.716049,0.30419 -0.973088,0.48362 -0.249442,0.17413 -0.571172,0.47639 -0.770885,0.72423 l -0.14198,0.1762 -5.03e-4,6.55164 -5.03e-4,6.55165 0.130792,0.16477 c 0.466953,0.58829 1.117581,1.03254 1.811803,1.2371 l 0.17566,0.0518 5.521777,0.001 5.521777,0.001 0.214358,-0.0702 z m 2.066318,-0.64782 0.718249,-0.71802 -9.52e-4,-0.66142 -9.53e-4,-0.66142 -0.06792,0.17566 c -0.47546,1.22958 -1.202053,2.07483 -2.167776,2.5218 l -0.12865,0.0595 0.464874,10e-4 0.464874,0.001 0.718249,-0.71803 z m -15.712198,-7.29517 -0.0011,-6.11194 -0.10512,0.20666 c -0.19405,0.38149 -0.369919,0.86809 -0.472712,1.30792 -0.03895,0.16665 -0.04003,0.29191 -0.03993,4.61883 l 1.03e-4,4.44754 0.08322,0.31855 c 0.103302,0.3954 0.257006,0.81129 0.407366,1.10223 0.06315,0.12218 0.118047,0.22215 0.121999,0.22215 0.004,0 0.0067,-2.75037 0.0061,-6.11194 z m 15.965002,5.83812 c 0.159111,-0.33236 0.295324,-0.70467 0.39259,-1.07303 l 0.07272,-0.27542 6.2e-5,-4.49777 6.2e-5,-4.49777 -0.06102,-0.23472 C 37.437645,59.66491 37.210841,59.08277 37.04567,58.8152 l -0.04465,-0.0723 -8.3e-5,6.12227 c -4.1e-5,3.36725 0.0052,6.12227 0.01165,6.12227 0.0064,0 0.07071,-0.12322 0.142809,-0.27382 z M 20.685624,59.36286 c 0.439249,-1.11505 1.11904,-1.91172 2.029654,-2.37861 l 0.217726,-0.11164 H 22.48082 22.028636 l -0.72858,0.72837 -0.728581,0.72836 v 0.64936 c 0,0.35715 0.0037,0.64549 0.0082,0.64076 0.0045,-0.005 0.05219,-0.12021 0.10592,-0.2566 z m 16.217487,-1.7717 -0.718327,-0.71855 -0.45476,5.3e-4 -0.45476,5.3e-4 0.227324,0.11883 c 0.54616,0.2855 0.996692,0.67232 1.362567,1.16988 0.251925,0.3426 0.524794,0.853 0.676167,1.26477 l 0.06919,0.18821 0.0055,-0.65279 0.0055,-0.65278 -0.718326,-0.71855 z"
               id="path3549"
               inkscape:label="box002" /><path
               style="fill:#000000;stroke-width:0.0153549"
               d="m 46.998621,71.298901 c -0.003,-0.0122 -0.007,-0.0902 -0.01,-0.17321 -0.005,-0.19172 -0.0382,-0.28632 -0.15258,-0.43947 -0.14878,-0.19913 -0.43084,-0.41401 -0.69412,-0.52877 -0.062,-0.027 -0.11434,-0.0508 -0.11621,-0.0528 -0.002,-0.002 -0.0539,-0.75581 -0.11564,-1.67515 l -0.11224,-1.67154 0.0321,-0.12626 c 0.0498,-0.19616 0.0982,-0.44503 0.14648,-0.75405 0.0506,-0.3241 0.0563,-0.28983 -0.0739,-0.44716 -0.0556,-0.0672 -0.19732,-0.21091 -0.26209,-0.26576 -0.002,-0.002 0.0171,-0.11017 0.0426,-0.24093 0.15798,-0.80922 0.284,-2.20313 0.42785,-4.73215 0.0464,-0.815668 0.0575,-1.982748 0.025,-2.633708 -0.13876,-2.78317 -0.30094,-4.57893 -0.4923,-5.45109 -0.007,-0.0314 0.009,-0.0535 0.0957,-0.13583 0.0572,-0.0541 0.14427,-0.14914 0.19357,-0.21121 l 0.0897,-0.11287 -0.0386,-0.2487 c -0.0465,-0.29973 -0.0932,-0.5466 -0.14609,-0.77108 l -0.0393,-0.16708 0.1115,-1.6606 c 0.0613,-0.91332 0.11414,-1.66413 0.11738,-1.66846 0.003,-0.004 0.0638,-0.0349 0.13466,-0.0679 0.3787,-0.1765 0.70657,-0.48262 0.79781,-0.74487 0.0251,-0.0723 0.0311,-0.11936 0.0313,-0.24491 l 1.3e-4,-0.15544 h 11.34773 11.34773 v 0.1564 c 0,0.13389 0.005,0.1703 0.0357,0.25314 0.0952,0.25811 0.44723,0.58246 0.80047,0.73751 0.062,0.0272 0.11747,0.0547 0.12316,0.0611 0.006,0.006 0.0605,0.75912 0.12188,1.67281 l 0.11154,1.66124 -0.0394,0.16708 c -0.0521,0.22096 -0.11309,0.54364 -0.1526,0.80661 l -0.032,0.21317 0.0897,0.11354 c 0.0493,0.0624 0.13594,0.15704 0.19251,0.21021 0.0566,0.0532 0.10274,0.10201 0.10258,0.10852 -1.6e-4,0.007 -0.0152,0.0798 -0.0334,0.16284 -0.16727,0.76209 -0.34812,2.85444 -0.47138,5.4537 -0.0255,0.53872 -0.01,1.76407 0.0321,2.504778 0.14278,2.52006 0.26815,3.90482 0.42771,4.72418 0.0411,0.21084 0.044,0.24045 0.0257,0.25419 -0.0545,0.0408 -0.2334,0.23392 -0.29508,0.31848 l -0.0691,0.0947 0.0445,0.28437 c 0.0486,0.31061 0.097,0.55941 0.14677,0.75528 l 0.0321,0.12626 -0.11223,1.67154 c -0.0617,0.91934 -0.11377,1.67316 -0.11564,1.67515 -0.002,0.002 -0.0542,0.0257 -0.11622,0.0528 -0.26397,0.11507 -0.55419,0.33654 -0.69788,0.53256 -0.11347,0.15481 -0.14331,0.24409 -0.15154,0.45344 l -0.007,0.16876 -11.33819,0.005 c -9.06396,0.004 -11.33929,0 -11.34368,-0.0178 z m 1.05482,-0.40892 c -0.34819,-0.21126 -0.52465,-0.34549 -0.74324,-0.5654 -0.49141,-0.49437 -0.81059,-1.13258 -0.95421,-1.90797 -0.0332,-0.17912 -0.0678,-0.49132 -0.0678,-0.61177 0,-0.0506 -0.005,-0.088 -0.0109,-0.083 -0.006,0.005 -0.0277,0.0994 -0.0483,0.20978 l -0.0374,0.20074 0.0551,0.81717 c 0.0303,0.44944 0.055,0.82555 0.0549,0.8358 -9e-5,0.0103 0.0222,0.0292 0.0496,0.0422 0.21471,0.10172 0.51974,0.3443 0.67085,0.5335 0.098,0.12271 0.19767,0.31 0.22867,0.42969 0.011,0.0425 0.0227,0.0873 0.026,0.0995 0.005,0.0171 0.0978,0.0219 0.40789,0.021 0.31069,-9.5e-4 0.39438,-0.006 0.36872,-0.0213 z m 20.38178,-0.0603 c 0.34069,-0.16793 0.70742,-0.44193 0.96795,-0.72319 0.14346,-0.15486 0.33645,-0.42903 0.44664,-0.63447 0.10708,-0.19966 0.25809,-0.59927 0.31492,-0.83338 0.0225,-0.0928 0.0568,-0.26869 0.0761,-0.39082 0.0321,-0.20266 0.0352,-0.2585 0.036,-0.63952 l 8.7e-4,-0.41746 -0.05,-0.16246 c -0.1141,-0.37097 -0.0857,-0.79049 0.0795,-1.1746 l 0.0591,-0.13739 -0.0344,-0.31088 c -0.0636,-0.57473 -0.0975,-1.03595 -0.12943,-1.75868 -0.023,-0.52041 -0.0215,-2.06867 0.002,-2.64691 0.028,-0.6736 0.028,-4.108938 0,-4.769748 -0.0239,-0.56602 -0.0254,-2.15518 -0.002,-2.65579 0.0355,-0.77326 0.0757,-1.30706 0.13633,-1.81303 l 0.0289,-0.24088 -0.0542,-0.12019 c -0.121,-0.26853 -0.18199,-0.62706 -0.1522,-0.8948 0.009,-0.0769 0.0398,-0.21988 0.0708,-0.32411 l 0.0555,-0.18653 3.4e-4,-0.34641 c 3.4e-4,-0.38051 -0.0162,-0.55952 -0.0832,-0.8971 -0.0824,-0.41542 -0.21655,-0.77444 -0.41786,-1.11847 -0.0941,-0.16087 -0.31854,-0.45794 -0.43852,-0.58052 -0.27523,-0.28119 -0.62593,-0.52699 -0.98795,-0.69245 l -0.112,-0.0512 h -9.91257 -9.91289 l -0.17834,0.0894 c -0.96036,0.48171 -1.56103,1.29447 -1.77631,2.40352 -0.0568,0.29248 -0.0765,0.54784 -0.0708,0.91597 l 0.005,0.33048 0.0482,0.1526 c 0.11431,0.36214 0.0908,0.73554 -0.0728,1.15657 l -0.0669,0.17225 0.0279,0.22745 c 0.0598,0.48726 0.10335,1.06759 0.13697,1.82626 0.0217,0.48938 0.0202,2.18826 -0.002,2.59361 -0.0222,0.40127 -0.0337,4.073858 -0.014,4.467038 0.008,0.15184 0.0209,0.60087 0.0296,0.99784 0.0293,1.34661 -0.0227,2.71714 -0.14297,3.7646 l -0.0337,0.29397 0.0732,0.18568 c 0.0839,0.21275 0.1246,0.39037 0.13646,0.59552 0.0106,0.18424 -0.009,0.33517 -0.0745,0.56367 -0.0459,0.16084 -0.0527,0.2051 -0.0605,0.39435 -0.0155,0.37751 0.0307,0.83421 0.12128,1.1991 0.24816,0.99946 0.81521,1.72336 1.71067,2.18385 l 0.17253,0.0887 9.93767,7.2e-4 9.93766,7.1e-4 0.16801,-0.0828 z m 0.98794,-0.0202 c 0.0577,-0.22715 0.22161,-0.47137 0.4521,-0.67351 0.12554,-0.11009 0.35033,-0.26228 0.45226,-0.30619 0.0307,-0.0132 0.0498,-0.0326 0.0498,-0.0505 0,-0.016 0.0247,-0.39306 0.0549,-0.838 l 0.0549,-0.80897 -0.0369,-0.19853 c -0.0203,-0.10919 -0.0408,-0.20699 -0.0456,-0.21735 -0.005,-0.0104 -0.016,0.0787 -0.0249,0.19796 -0.033,0.44213 -0.11267,0.81129 -0.26163,1.21272 -0.12428,0.33494 -0.23539,0.54403 -0.43756,0.82344 -0.2858,0.39499 -0.55799,0.63739 -1.05514,0.93961 -0.0255,0.0155 0.0603,0.0194 0.37036,0.0168 l 0.40354,-0.003 z m -23.23559,-3.44543 c 0.013,-0.0562 0.0557,-0.21451 0.095,-0.35185 0.0861,-0.30132 0.0994,-0.42828 0.067,-0.64213 -0.0216,-0.14262 -0.0726,-0.3336 -0.0848,-0.31731 -0.004,0.005 -0.0291,0.1268 -0.0568,0.27132 -0.0277,0.14453 -0.0623,0.31335 -0.0769,0.37515 -0.0259,0.10981 -0.026,0.11983 -0.005,0.43967 0.0118,0.18001 0.0252,0.3273 0.0297,0.3273 0.005,0 0.0188,-0.046 0.0318,-0.10215 z m 24.36525,-0.22735 c 0.0206,-0.31254 0.0205,-0.33425 -0.002,-0.42191 -0.013,-0.0508 -0.046,-0.21231 -0.0735,-0.35887 -0.0275,-0.14656 -0.0528,-0.27846 -0.0562,-0.29312 -0.006,-0.0266 -0.057,0.12083 -0.0753,0.2188 -0.0216,0.11528 -0.0318,0.30336 -0.022,0.40837 0.006,0.0642 0.0419,0.22249 0.0838,0.36885 0.0404,0.14101 0.0808,0.29035 0.09,0.33188 0.009,0.0415 0.0204,0.0755 0.025,0.0755 0.005,0 0.0182,-0.14827 0.0302,-0.3295 z m -24.47239,-2.08647 c 0.0514,-0.53734 0.0806,-1.0404 0.10155,-1.7498 0.0135,-0.45914 0.0184,-1.56704 0.007,-1.55152 -0.004,0.005 -0.0216,0.21201 -0.0401,0.46039 -0.086,1.15973 -0.17977,2.0377 -0.27879,2.60999 -0.0194,0.11236 -0.0363,0.21379 -0.0375,0.22539 -0.003,0.026 0.20703,0.25569 0.21847,0.23936 0.004,-0.007 0.0178,-0.11168 0.0295,-0.23381 z m 24.69336,0.0988 c 0.0575,-0.0613 0.0798,-0.0961 0.0741,-0.11547 -0.014,-0.0479 -0.073,-0.40868 -0.10651,-0.65101 -0.0675,-0.48876 -0.14704,-1.30645 -0.21131,-2.17326 -0.0184,-0.24838 -0.0364,-0.45556 -0.04,-0.4604 -0.0233,-0.0311 0.002,1.66869 0.0337,2.27987 0.0228,0.43759 0.0819,1.17632 0.0999,1.24943 0.006,0.0258 -8.7e-4,0.0321 0.15016,-0.12916 z M 46.190971,54.644693 c -0.0108,-1.08206 -0.0289,-1.514 -0.0963,-2.29606 -0.0181,-0.21006 -0.0357,-0.39247 -0.0391,-0.40534 -0.004,-0.0156 -0.0349,0.009 -0.0917,0.0738 -0.0471,0.0534 -0.0976,0.10842 -0.11222,0.12215 -0.0265,0.0249 -0.0265,0.0254 -8.8e-4,0.15716 0.0672,0.34519 0.14476,0.96314 0.2116,1.68537 0.0327,0.35318 0.11968,1.44121 0.11968,1.49678 0,0.008 0.004,0.0144 0.009,0.0144 0.005,0 0.005,-0.38171 1.8e-4,-0.84825 z m 24.33218,0.46542 c 0.0954,-1.30126 0.20805,-2.33144 0.31153,-2.84915 0.0188,-0.0938 0.0185,-0.0973 -0.01,-0.12396 -0.0161,-0.0151 -0.0667,-0.0699 -0.11248,-0.12176 -0.0539,-0.0612 -0.0853,-0.0863 -0.0891,-0.0714 -0.0225,0.0874 -0.0894,1.00094 -0.11353,1.55065 -0.0159,0.3622 -0.0337,2.01258 -0.0216,1.9976 0.004,-0.005 0.0202,-0.17725 0.0352,-0.38193 z m -0.0731,-4.1027 c 0.0127,-0.0782 0.0459,-0.24406 0.0739,-0.36867 l 0.0508,-0.22655 -0.0236,-0.33303 c -0.013,-0.18316 -0.0274,-0.32103 -0.0321,-0.30638 -0.005,0.0147 -0.029,0.10259 -0.0541,0.19541 -0.0251,0.0928 -0.0667,0.24152 -0.0926,0.33043 -0.0772,0.26552 -0.0771,0.4922 3.4e-4,0.77177 0.0401,0.14479 0.0442,0.14146 0.0774,-0.063 z m -24.11415,-0.0858 c 0.0123,-0.0634 0.0213,-0.18068 0.0213,-0.27832 10e-6,-0.1651 -0.002,-0.17533 -0.0866,-0.47076 -0.0476,-0.1661 -0.0907,-0.32406 -0.0957,-0.35102 -0.005,-0.027 -0.0132,-0.0524 -0.0183,-0.0566 -0.005,-0.004 -0.0191,0.14321 -0.0313,0.32749 l -0.0221,0.33506 0.0307,0.12123 c 0.0169,0.0667 0.05,0.22515 0.0735,0.35217 0.0235,0.12702 0.046,0.24293 0.0499,0.25758 0.009,0.034 0.0495,-0.0881 0.0785,-0.23684 z m 0.005,-1.98371 c 0.13493,-0.89128 0.51461,-1.63233 1.11256,-2.17144 0.13662,-0.12316 0.5581,-0.42218 0.59511,-0.42218 0.01,0 0.018,-0.008 0.018,-0.0178 0,-0.0114 -0.13877,-0.0177 -0.38975,-0.0177 h -0.38969 l -0.0278,0.10215 c -0.0966,0.35423 -0.39788,0.70077 -0.81619,0.93869 -0.074,0.0421 -0.13604,0.0829 -0.13781,0.0908 -0.0132,0.0583 -0.1101,1.64611 -0.10386,1.70184 0.004,0.0391 0.024,0.147 0.0436,0.23981 l 0.0356,0.16877 0.0161,-0.21318 c 0.009,-0.11724 0.0288,-0.29711 0.0443,-0.3997 z m 24.11603,0.32698 0.0295,-0.16155 -0.0558,-0.83326 c -0.0307,-0.4583 -0.0579,-0.83603 -0.0604,-0.83941 -0.002,-0.003 -0.0693,-0.0435 -0.14841,-0.0892 -0.41164,-0.2378 -0.7072,-0.58046 -0.80263,-0.93052 l -0.0278,-0.10215 h -0.38975 c -0.25099,0 -0.38975,0.006 -0.38975,0.0178 0,0.01 0.008,0.0178 0.0166,0.0178 0.009,4e-5 0.10617,0.0593 0.21567,0.13165 0.82363,0.54436 1.33615,1.38752 1.49941,2.46675 0.0182,0.12003 0.0371,0.30194 0.0422,0.40424 0.008,0.16981 0.0106,0.18137 0.0254,0.13271 0.009,-0.0293 0.0295,-0.12598 0.0458,-0.21483 z"
               id="path293-3"
               inkscape:label="box001" /><path
               style="fill:#000000;fill-opacity:1;stroke:none;stroke-width:0.087955"
               d="m 33.341438,26.753446 c -0.389278,-0.06392 -0.700741,-0.292369 -0.871528,-0.639232 -0.06386,-0.129703 -0.09025,-0.21688 -0.117869,-0.389447 l -0.0062,-0.03878 -0.03829,0.04362 c -0.04502,0.0513 -0.107489,0.176489 -0.125761,0.252045 -0.01745,0.07214 -0.0151,0.222728 0.0047,0.304387 0.02158,0.08877 0.0643,0.176232 0.113285,0.231877 0.02197,0.02496 0.03412,0.04532 0.027,0.04526 -0.02139,-2.2e-4 -0.155467,-0.06164 -0.21985,-0.100749 -0.129608,-0.07873 -0.277155,-0.245094 -0.33661,-0.379534 -0.06014,-0.135988 -0.06757,-0.184481 -0.06306,-0.411448 0.0078,-0.391067 0.0057,-0.484711 -0.01232,-0.552558 -0.02347,-0.0885 -0.066,-0.175352 -0.118676,-0.242404 -0.06038,-0.07685 -0.353256,-0.320858 -0.799727,-0.666279 -0.234801,-0.181658 -0.33831,-0.286896 -0.394642,-0.401235 -0.04674,-0.09487 -0.05664,-0.134632 -0.07539,-0.302786 -0.02228,-0.199726 -0.04848,-0.240684 -0.253772,-0.396696 -0.20487,-0.155691 -0.262071,-0.228704 -0.283807,-0.362253 -0.01,-0.06134 0.001,-0.157797 0.02401,-0.210239 l 0.01343,-0.03064 7.93e-4,0.02975 c 0.0036,0.133654 0.114592,0.251299 0.281918,0.298691 0.02932,0.0083 0.119115,0.02157 0.199535,0.02947 0.286282,0.02814 0.343982,0.07748 0.39601,0.33865 0.02601,0.130561 0.06011,0.184893 0.130917,0.208622 0.01834,0.0061 0.103402,0.01542 0.189034,0.02062 0.164362,0.01 0.260863,0.03019 0.343172,0.0719 0.0447,0.02265 0.240678,0.174438 0.796462,0.616859 0.157286,0.125204 0.313102,0.24844 0.34626,0.273857 0.129771,0.09948 0.282196,0.146974 0.40446,0.126032 0.160014,-0.02741 0.283903,-0.132646 0.335349,-0.284866 0.01751,-0.05182 0.02021,-0.07678 0.01613,-0.149454 -0.0027,-0.04799 -0.0082,-0.09771 -0.01219,-0.110495 l -0.0073,-0.02325 0.03269,0.0184 c 0.05813,0.03272 0.169493,0.152255 0.21652,0.232391 0.0248,0.04226 0.05897,0.118274 0.07594,0.168925 0.02966,0.08852 0.03086,0.09829 0.03106,0.252044 2.21e-4,0.148632 -0.0017,0.165493 -0.02613,0.238264 -0.03166,0.09413 -0.08611,0.181247 -0.153425,0.245451 l -0.04969,0.0474 0.03963,0.0067 c 0.0218,0.0037 0.08879,0.0068 0.148889,0.0069 0.38219,7.72e-4 0.704499,-0.19092 0.764072,-0.45441 0.02838,-0.12554 0.0029,-0.269951 -0.06658,-0.376985 -0.07107,-0.109522 -0.218083,-0.224395 -0.328627,-0.256786 -0.07441,-0.02181 -0.03597,-0.03168 0.0971,-0.02495 0.729091,0.0369 1.252244,0.581978 1.145586,1.193594 -0.03378,0.193735 -0.126261,0.367459 -0.276021,0.518527 -0.174847,0.176374 -0.377195,0.283823 -0.642826,0.341349 -0.08092,0.01752 -0.130833,0.02148 -0.276218,0.02187 l -0.177453,4.4e-4 0.0272,0.02186 c 0.0451,0.03625 0.168823,0.0968 0.260666,0.127566 0.170744,0.05721 0.383996,0.0754 0.516793,0.0441 0.03409,-0.008 0.06408,-0.01252 0.06664,-0.01 0.0026,0.0026 -0.02316,0.03362 -0.05714,0.06904 -0.146432,0.152595 -0.429237,0.291259 -0.720984,0.353508 -0.123539,0.02636 -0.415191,0.0348 -0.53317,0.01542 z m -4.672515,-0.146517 c -0.338055,-0.04799 -0.679341,-0.175215 -0.947564,-0.353227 -0.120324,-0.07985 -0.304005,-0.252102 -0.42506,-0.3986 -0.08567,-0.103675 -0.111444,-0.125488 -0.148291,-0.125488 -0.02953,0 -0.06127,0.03831 -0.06991,0.08435 -0.008,0.04239 0.0086,0.145079 0.03862,0.239615 l 0.02295,0.07226 -0.02615,-0.01933 c -0.06063,-0.04482 -0.219198,-0.23399 -0.303741,-0.362349 -0.358096,-0.543682 -0.428543,-1.272507 -0.195835,-2.026049 0.05119,-0.165759 0.05719,-0.196584 0.04467,-0.229504 -0.0237,-0.06232 -0.104712,-0.0338 -0.211079,0.07431 -0.08181,0.08314 -0.08158,0.08343 -0.05137,-0.06624 0.05412,-0.268057 0.189586,-0.542834 0.389821,-0.790696 0.118957,-0.147252 0.407784,-0.414982 0.437219,-0.405284 0.0061,0.002 0.01653,0.01419 0.02329,0.0271 0.01543,0.02947 0.01059,0.07322 -0.03158,0.285207 -0.02676,0.134509 -0.03661,0.220625 -0.05361,0.468536 -0.01145,0.167056 -0.01937,0.304922 -0.01759,0.306369 0.0018,0.0014 0.103573,-0.103859 0.226202,-0.234013 0.227041,-0.240973 0.28904,-0.298051 0.426537,-0.392681 0.131494,-0.0905 0.359468,-0.21851 0.370139,-0.20784 0.0026,0.0026 -6.4e-4,0.01454 -0.0071,0.02663 -0.01148,0.02145 -0.117632,0.572439 -0.111471,0.5786 0.0017,0.0017 0.107213,-0.06545 0.234455,-0.149239 0.127241,-0.08379 0.25316,-0.160948 0.279818,-0.171462 0.06076,-0.02397 0.22319,-0.03356 0.284933,-0.01683 l 0.04258,0.01154 -0.05331,0.05499 c -0.294332,0.30362 -0.493333,0.672553 -0.565627,1.048631 -0.02439,0.126858 -0.02495,0.388783 -0.0011,0.504089 0.07631,0.368713 0.286982,0.65469 0.58215,0.790249 0.245811,0.112893 0.524724,0.117914 0.787261,0.01417 0.314298,-0.124197 0.676827,-0.439916 0.912555,-0.794726 0.03011,-0.04532 0.05587,-0.08397 0.05724,-0.08589 0.0031,-0.0043 0.301797,0.229832 0.522079,0.40931 0.177341,0.14449 0.247341,0.207856 0.247331,0.223887 0,0.0186 -0.136674,0.251003 -0.228259,0.388167 -0.377996,0.566108 -0.859079,0.94738 -1.417256,1.123217 -0.103467,0.0326 -0.262032,0.06867 -0.390221,0.08879 -0.142633,0.02238 -0.543074,0.02799 -0.673734,0.0094 z m -8.380474,-0.84148 c 0.008,-0.0076 0.134504,-0.08152 0.281126,-0.164319 0.49,-0.276713 0.53743,-0.305295 0.598176,-0.360467 0.06951,-0.06313 0.109074,-0.135565 0.135341,-0.247793 0.01588,-0.06784 0.01723,-0.205898 0.02017,-2.064825 0.002,-1.292988 -2.86e-4,-2.026141 -0.0066,-2.08906 -0.02522,-0.249983 -0.08177,-0.345247 -0.301125,-0.507286 -0.469942,-0.347154 -0.777755,-0.756357 -0.886129,-1.178007 -0.024,-0.09338 -0.04103,-0.21958 -0.02962,-0.21958 0.0037,0 0.03789,0.01943 0.07599,0.04317 0.09085,0.05663 0.289098,0.150711 0.398681,0.18921 0.378764,0.133069 0.719639,0.155004 2.41381,0.155329 1.150666,2.21e-4 1.315207,0.0064 1.683946,0.06335 0.889625,0.137362 1.654494,0.587159 2.162115,1.271477 0.09227,0.124384 0.167775,0.245991 0.248022,0.399444 0.06875,0.13147 0.177542,0.388335 0.169788,0.400881 -0.0027,0.0043 -0.0536,0.03228 -0.113167,0.06211 -0.218451,0.109398 -0.435577,0.241256 -0.539685,0.327744 -0.05476,0.04549 -0.611963,0.579121 -0.608413,0.582671 0.0014,0.0014 0.166183,-0.02985 0.366101,-0.06952 0.341893,-0.06785 0.534642,-0.102269 0.540572,-0.09653 0.0014,0.0014 -0.0394,0.04351 -0.09072,0.09363 -0.349307,0.341063 -0.581005,0.756287 -0.643166,1.152611 -0.01209,0.07711 -0.08954,0.89339 -0.08517,0.897755 0.0017,0.0017 0.04816,-0.05671 0.103198,-0.129836 l 0.100073,-0.132962 -0.0061,0.04758 c -0.02873,0.225624 -0.02929,0.481414 -0.0015,0.694528 0.0088,0.06734 0.01,0.105166 0.0036,0.112891 -0.01963,0.02374 -0.194585,0.150844 -0.295914,0.21498 -0.458952,0.290491 -0.925685,0.454627 -1.476459,0.519227 -0.308873,0.03623 -0.352066,0.037 -2.302328,0.04121 -1.667118,0.0036 -1.927134,0.0023 -1.914568,-0.0096 z m 3.969338,-1.581091 c 0.32987,-0.05506 0.577041,-0.169792 0.782864,-0.363396 0.106418,-0.100102 0.191516,-0.217338 0.264646,-0.364593 0.141617,-0.28516 0.196768,-0.575297 0.186036,-0.978686 -0.0056,-0.209569 -0.02432,-0.357801 -0.06451,-0.51024 -0.148773,-0.564281 -0.511061,-0.915646 -1.066892,-1.034727 -0.160698,-0.03443 -0.267621,-0.04041 -0.721822,-0.04041 H 23.19665 v 1.658586 1.658586 l 0.482277,-0.0045 c 0.388469,-0.0036 0.501063,-0.0076 0.578857,-0.02062 z m 10.949712,1.524988 c 0.133303,-0.205464 0.191596,-0.419352 0.181431,-0.665714 -0.0083,-0.202219 -0.0606,-0.370637 -0.168167,-0.54197 -0.05679,-0.09045 -0.172234,-0.232014 -0.21917,-0.268746 l -0.02875,-0.0225 0.255487,-0.0055 c 0.274824,-0.0059 0.409644,-0.02219 0.571204,-0.06903 0.233599,-0.06772 0.422123,-0.176357 0.581619,-0.335158 0.21951,-0.218555 0.352855,-0.506488 0.413135,-0.892085 0.02443,-0.15626 0.0243,-0.558917 -2.2e-4,-0.714554 -0.0625,-0.39655 -0.191418,-0.674111 -0.417856,-0.89964 -0.183413,-0.182678 -0.397459,-0.29604 -0.674266,-0.357105 -0.178399,-0.03936 -0.272786,-0.04506 -0.746057,-0.04506 h -0.44631 v 0.04974 0.04974 l -0.03635,-0.006 c -0.113953,-0.01891 -0.27587,-0.02764 -0.419265,-0.0226 -0.366843,0.01289 -0.694937,0.08502 -0.926026,0.203563 -0.05585,0.02865 -0.101541,0.04864 -0.101541,0.04442 0,-0.0042 0.05089,-0.06045 0.113084,-0.124962 l 0.113083,-0.117292 -0.05226,0.0206 c -0.174849,0.06892 -0.380693,0.16573 -0.492296,0.231534 -0.02796,0.01648 -0.05282,0.02997 -0.05525,0.02997 -0.0024,0 -0.0044,-0.06653 -0.0044,-0.147833 0,-0.344525 -0.04036,-0.517085 -0.148433,-0.634922 -0.02233,-0.02434 -0.09294,-0.08342 -0.156921,-0.131288 -0.460248,-0.344321 -0.729067,-0.685016 -0.867271,-1.099161 -0.03489,-0.104551 -0.0694,-0.286304 -0.05677,-0.298939 0.0029,-0.0029 0.03526,0.01309 0.07201,0.03543 0.213353,0.129744 0.491717,0.235369 0.723993,0.274717 0.349214,0.05916 0.735295,0.07258 2.095922,0.07284 1.211941,2.31e-4 1.38412,0.0082 1.798239,0.08352 1.033077,0.187828 1.906119,0.83457 2.340949,1.734153 0.149271,0.308814 0.246781,0.647471 0.292818,1.016975 0.01962,0.157448 0.02235,0.564852 0.0048,0.718253 -0.04918,0.430371 -0.159964,0.804242 -0.34512,1.164744 -0.254493,0.495498 -0.63372,0.893241 -1.149573,1.205704 -0.566617,0.343211 -1.125586,0.497581 -1.883847,0.52026 l -0.201936,0.006 z m -1.424983,-0.803121 c 0,-0.005 0.0073,-0.03881 0.0163,-0.07513 0.01779,-0.07209 0.02069,-0.335209 0.0053,-0.480455 -0.0054,-0.05096 -0.0047,-0.07513 0.0022,-0.07512 0.0056,4e-6 0.03633,0.01245 0.06832,0.02765 0.08289,0.0394 0.153189,0.106479 0.190043,0.181342 0.02778,0.05642 0.03023,0.06863 0.02593,0.128779 -0.0088,0.122692 -0.0694,0.199521 -0.210956,0.26736 -0.07407,0.0355 -0.09711,0.04156 -0.09711,0.02557 z m -1.049625,-0.625114 c -0.03079,-0.01266 -0.06242,-0.02836 -0.07028,-0.03489 -0.01234,-0.01024 -0.01429,-0.100799 -0.01429,-0.660909 v -0.649045 l 0.072,-0.09378 c 0.114951,-0.149718 0.228675,-0.273942 0.301521,-0.329361 0.151902,-0.115559 0.335414,-0.177412 0.532867,-0.179604 0.198718,-0.0022 0.314271,0.03512 0.473623,0.153003 l 0.08586,0.06352 0.04794,-0.04123 c 0.122893,-0.105703 0.166925,-0.133072 0.286507,-0.178082 l 0.06093,-0.02293 v 0.813184 0.813184 l -0.07212,-0.0229 c -0.123524,-0.03923 -0.265947,-0.06373 -0.402884,-0.06931 -0.114321,-0.0047 -0.373213,0.0068 -0.504088,0.02238 -0.04043,0.0048 -0.04776,0.002 -0.100155,-0.03872 -0.06046,-0.04696 -0.616105,-0.368717 -0.623669,-0.361153 -0.0025,0.0025 0.04485,0.134731 0.105187,0.293884 0.09999,0.263753 0.109698,0.295091 0.109663,0.354022 0,0.05609 -0.0039,0.07022 -0.02921,0.106634 -0.0576,0.08289 -0.15321,0.105785 -0.259394,0.06212 z m -3.550185,-0.57935 c 0.07679,-0.05719 0.164195,-0.152884 0.194789,-0.213258 0.01355,-0.02673 0.02325,-0.0499 0.02155,-0.05149 -0.0017,-0.0016 -0.03434,0.0051 -0.07254,0.01486 -0.0749,0.01913 -0.255282,0.03609 -0.255282,0.02401 0,-0.0041 0.0194,-0.02445 0.0431,-0.04532 0.0617,-0.05431 0.118335,-0.145939 0.147358,-0.238398 0.02168,-0.06905 0.02449,-0.09229 0.02058,-0.169645 -0.0062,-0.121836 -0.03136,-0.184488 -0.106495,-0.26481 -0.119223,-0.127449 -0.327184,-0.188958 -0.53949,-0.159565 -0.08139,0.01127 -0.199813,0.04836 -0.241387,0.0756 -0.03437,0.02252 -0.03531,0.0092 -0.0038,-0.05428 0.09271,-0.186862 0.26674,-0.362358 0.458167,-0.462032 l 0.07858,-0.04092 -0.110061,-0.03033 c -0.09022,-0.02486 -0.282482,-0.06844 -0.307434,-0.06968 -0.01337,-6.61e-4 0.03609,-0.03215 0.106791,-0.068 0.164309,-0.0833 0.441609,-0.158903 0.628184,-0.17126 0.151183,-0.01001 0.06449,-0.02488 -0.149843,-0.02569 -0.208995,-7.93e-4 -0.304755,0.01255 -0.489548,0.0682 -0.193266,0.05821 -0.376794,0.158219 -0.473575,0.258072 l -0.04219,0.04353 0.05188,0.0065 c 0.08516,0.01062 0.221168,0.03408 0.293912,0.0507 l 0.06818,0.01558 -0.08725,0.02322 c -0.28798,0.07665 -0.737939,0.324529 -0.962131,0.530021 -0.02266,0.02077 -0.0412,0.033 -0.0412,0.02717 0,-0.0058 0.01371,-0.0729 0.03046,-0.149069 0.02251,-0.102339 0.03073,-0.165042 0.03151,-0.240265 9.59e-4,-0.09292 -0.0013,-0.106586 -0.026,-0.156865 -0.08141,-0.165789 -0.305676,-0.225575 -0.651533,-0.173694 -0.06398,0.0096 -0.11749,0.01658 -0.118909,0.01551 -0.0064,-0.0048 0.152529,-0.122127 0.239729,-0.177006 0.05302,-0.03337 0.208194,-0.119524 0.344831,-0.19146 0.263244,-0.138591 0.33775,-0.183546 0.388798,-0.234594 0.05781,-0.05781 0.0515,-0.130811 -0.02068,-0.239555 -0.04633,-0.06981 -0.187846,-0.203607 -0.282839,-0.267428 l -0.07593,-0.05101 0.193881,0.0056 c 0.189196,0.0054 0.329694,0.02132 0.437367,0.04943 0.0293,0.0077 0.05171,0.01099 0.0498,0.0074 -0.03426,-0.06402 -0.07725,-0.165523 -0.09101,-0.214915 -0.02177,-0.07814 -0.0248,-0.310498 -0.0049,-0.377416 l 0.01276,-0.04297 0.03141,0.05879 c 0.04486,0.08396 0.09117,0.143992 0.167122,0.21663 0.126852,0.12132 0.216108,0.181422 0.531663,0.358005 0.117297,0.06564 0.241623,0.137009 0.276279,0.158598 0.154067,0.09598 0.267409,0.196631 0.33473,0.29725 0.02986,0.04462 0.03463,0.04858 0.02928,0.02424 -0.0093,-0.04231 -0.05745,-0.142825 -0.09362,-0.195395 -0.06981,-0.101464 -0.186247,-0.213814 -0.305269,-0.29455 -0.06531,-0.0443 -0.0696,-0.04955 -0.08443,-0.103115 -0.02623,-0.09478 -0.03565,-0.176666 -0.03572,-0.310574 -1.21e-4,-0.221508 0.04004,-0.431804 0.110702,-0.57955 0.05682,-0.118798 0.05835,-0.118764 0.07093,0.0016 0.03694,0.353356 0.211889,0.597994 0.778391,1.088486 0.3927,0.340011 0.490841,0.43813 0.593993,0.59386 0.02722,0.04109 0.05136,0.07284 0.05364,0.07056 0.0086,-0.0086 -0.07778,-0.173554 -0.133395,-0.254747 -0.113042,-0.165046 -0.219516,-0.273859 -0.567945,-0.58042 -0.08531,-0.07506 -0.186066,-0.16865 -0.223908,-0.207985 -0.08615,-0.08955 -0.09624,-0.122226 -0.09542,-0.309023 6.73e-4,-0.151526 0.02333,-0.262893 0.07477,-0.367474 l 0.03129,-0.06362 0.007,0.07256 c 0.03331,0.343035 0.207315,0.597784 0.7097,1.039031 0.223992,0.196734 0.39136,0.363186 0.470749,0.468173 0.169441,0.224076 0.244735,0.431737 0.228622,0.630535 l -0.0063,0.07791 0.03538,0.01279 c 0.07623,0.02756 0.149484,0.120523 0.149484,0.189687 0,0.01887 0.0045,0.03431 0.01002,0.03431 0.0055,0 0.03241,-0.01135 0.05979,-0.02522 0.05944,-0.03012 0.143699,-0.107337 0.186971,-0.171343 l 0.03131,-0.04631 0.0057,0.06085 c 0.02398,0.256466 -0.100353,0.585825 -0.29627,0.784809 -0.0506,0.05139 -0.163095,0.133958 -0.182512,0.133958 -0.0041,0 -0.0035,-0.01415 0.0015,-0.03144 0.005,-0.01729 0.009,-0.06293 0.009,-0.101424 0,-0.233964 -0.166883,-0.34324 -0.547712,-0.358645 l -0.135716,-0.0055 0.04758,-0.09516 c 0.04035,-0.0807 0.0477,-0.103973 0.04837,-0.15313 0.0015,-0.110342 -0.05455,-0.136384 -0.309875,-0.143986 -0.233966,-0.007 -0.438113,0.01466 -0.682769,0.07234 l -0.111481,0.02628 0.136907,0.01145 c 0.124025,0.01037 0.281341,0.03579 0.292868,0.04731 0.0025,0.0025 -0.01318,0.04279 -0.03486,0.08952 -0.09383,0.20229 -0.09907,0.368218 -0.01257,0.398372 0.03839,0.01338 0.08102,6.61e-4 0.130172,-0.03884 0.02983,-0.02398 0.03703,-0.02679 0.0314,-0.01227 -0.03698,0.09546 -0.06101,0.29093 -0.04224,0.34358 0.02257,0.06331 0.125201,0.0936 0.232636,0.06865 0.01999,-0.0046 0.03635,-0.0064 0.03635,-0.0039 0,0.01958 -0.06441,0.106504 -0.117253,0.158233 -0.139192,0.136258 -0.397798,0.251019 -0.604951,0.268457 l -0.06786,0.0057 z m 1.090576,-1.593866 c 0,-0.0032 -0.01626,-0.03703 -0.03614,-0.07513 -0.0521,-0.09987 -0.185923,-0.232537 -0.285571,-0.283114 -0.04098,-0.0208 -0.07759,-0.03474 -0.08136,-0.03097 -0.0038,0.0038 0.0031,0.03421 0.01518,0.06767 0.06442,0.177883 0.137354,0.26619 0.254773,0.30845 0.0481,0.01731 0.133118,0.02568 0.133118,0.0131 z m 1.55094,1.477264 c -0.273969,-0.218083 -0.353708,-0.271119 -0.468462,-0.311578 -0.01626,-0.0057 -0.01519,-0.0098 0.01242,-0.04736 0.130736,-0.177771 0.448688,-0.507833 0.654869,-0.67981 0.497237,-0.414746 0.978571,-0.64381 1.488032,-0.708146 l 0.101788,-0.01285 -0.144254,-0.0012 c -0.304989,-0.0026 -0.62307,0.0802 -0.980253,0.255239 -0.276906,0.135701 -0.504913,0.293993 -0.700116,0.486048 -0.06013,0.05916 -0.109334,0.103895 -0.109334,0.0994 0,-0.02347 0.04811,-0.142586 0.09774,-0.24203 0.168618,-0.337801 0.473747,-0.687856 0.783791,-0.899193 0.129745,-0.08844 0.132853,-0.0886 0.07199,-0.0038 -0.09678,0.134785 -0.136883,0.24148 -0.09963,0.26506 0.02679,0.01695 0.08146,0.0089 0.130588,-0.01931 0.02696,-0.01546 0.118564,-0.08334 0.203574,-0.150845 0.257667,-0.204601 0.415987,-0.301816 0.575401,-0.353318 0.06887,-0.02225 0.178252,-0.04337 0.195262,-0.0377 0.006,0.002 -0.01904,0.0201 -0.0557,0.0402 -0.19609,0.107489 -0.285424,0.21844 -0.224741,0.279123 0.02744,0.02744 0.07503,0.0216 0.2379,-0.02923 0.16779,-0.05236 0.227518,-0.06682 0.344729,-0.08349 0.391945,-0.05572 0.813545,0.05256 1.20471,0.3094 0.148324,0.09739 0.369786,0.285018 0.311685,0.264069 -0.09351,-0.03372 -0.434992,-0.03232 -0.631588,0.0026 -0.289828,0.05146 -0.552486,0.140548 -0.67603,0.229306 -0.04316,0.03101 -0.04967,0.03304 -0.06407,0.02003 -0.03064,-0.02771 -0.181327,-0.09334 -0.263227,-0.114652 -0.06895,-0.01794 -0.109299,-0.02151 -0.247197,-0.02184 -0.172335,-4.19e-4 -0.217563,0.0059 -0.358679,0.05003 -0.173456,0.05425 -0.30123,0.133328 -0.442044,0.273582 -0.24063,0.239674 -0.521009,0.644242 -0.739067,1.066422 l -0.08901,0.172327 z m 2.588404,-2.364756 c -0.05065,-0.0088 -0.116086,-0.01689 -0.14541,-0.01793 -0.02933,-0.001 -0.06422,-0.0049 -0.07755,-0.0087 -0.02136,-0.006 -0.01561,-0.01033 0.04847,-0.03672 0.09725,-0.04005 0.261276,-0.09399 0.26735,-0.08791 0.0027,0.0027 0.0036,0.04141 0.0021,0.08607 l -0.0028,0.0812 z M 30.321753,20.922408 C 30.064532,20.692256 29.958637,20.5875 29.86187,20.467476 c -0.05682,-0.07048 -0.05712,-0.07119 -0.04152,-0.09761 0.03037,-0.0514 0.08228,-0.192085 0.104332,-0.28271 0.03202,-0.131604 0.03256,-0.344941 0.0012,-0.470852 -0.06327,-0.254038 -0.229589,-0.434198 -0.457211,-0.495272 -0.04371,-0.01173 -0.09864,-0.01684 -0.179339,-0.01669 -0.104543,1.98e-4 -0.124792,0.0032 -0.19987,0.02972 -0.270531,0.09554 -0.442359,0.333876 -0.463879,0.643421 -0.0063,0.09041 -0.01428,0.129806 -0.04232,0.208421 -0.05933,0.166397 -0.101015,0.437404 -0.09195,0.597816 0.0021,0.03642 6.06e-4,0.06622 -0.0032,0.06622 -0.0038,0 -0.04655,-0.02649 -0.09495,-0.05886 -0.104799,-0.0701 -0.21784,-0.177599 -0.264304,-0.251349 -0.01848,-0.02932 -0.08925,-0.182005 -0.157271,-0.33929 -0.06802,-0.157285 -0.125167,-0.287518 -0.126985,-0.289406 -0.0059,-0.0062 -0.206813,0.622308 -0.217976,0.682014 -0.006,0.03199 -0.0095,0.114023 -0.0078,0.182295 0.0031,0.122425 0.0029,0.123824 -0.01496,0.101787 -0.02632,-0.03254 -0.09676,-0.176317 -0.125311,-0.255788 -0.05675,-0.157935 -0.06991,-0.251341 -0.06957,-0.493607 3.31e-4,-0.240765 0.01276,-0.330941 0.06876,-0.499242 0.164785,-0.495205 0.60376,-0.893932 1.162068,-1.055523 0.24857,-0.07194 0.620026,-0.09525 0.930626,-0.05839 0.607965,0.07215 1.080349,0.378212 1.319888,0.855163 0.119792,0.238522 0.182552,0.564371 0.158391,0.822373 -0.02384,0.254628 -0.114323,0.539496 -0.258198,0.812924 -0.05271,0.100183 -0.20542,0.33965 -0.216121,0.338913 -0.003,-2.09e-4 -0.116715,-0.09991 -0.252674,-0.221561 z"
               id="path1"
               inkscape:label="logo"
               inkscape:export-filename="../static/assets/engine/dnd/logo.svg"
               inkscape:export-xdpi="48"
               inkscape:export-ydpi="48" /><path
               style="fill:#000000;stroke-width:0.015"
               d="m 91.856171,31.99948 c -0.4301,-0.132159 -0.73699,-0.254704 -1.10752,-0.44224 -1.55838,-0.788739 -2.90073,-2.262487 -3.88011,-4.259927 -0.30225,-0.616437 -0.57184,-1.289995 -0.7403,-1.849578 l -0.0671,-0.22289 v -1.57348 -1.573482 l 0.0412,-0.0092 c 0.35436,-0.07887 0.53836,-0.166074 0.76486,-0.3625 0.38806,-0.336532 0.70719,-1.044655 0.8206,-1.820815 0.0128,-0.08768 0.0233,-0.183417 0.0233,-0.212739 0,-0.03771 0.008,-0.05567 0.0263,-0.06135 2.4215,-0.741733 4.30526,-1.313981 4.32543,-1.313981 0.0226,0 0.71279,0.208716 2.25582,0.682167 0.198,0.06075 0.51862,0.158864 0.7125,0.218024 0.19387,0.05916 0.52462,0.160393 0.735,0.22496 0.21037,0.06457 0.4406,0.134937 0.51161,0.156379 l 0.12912,0.03898 0.01,0.119835 c 0.0142,0.170686 0.0466,0.349637 0.10839,0.599652 0.1335,0.540033 0.36482,0.999617 0.64834,1.288119 0.24495,0.249253 0.44474,0.353898 0.846286,0.443272 l 0.0412,0.0092 v 1.568728 1.568725 l -0.045,0.154329 c -0.214096,0.734986 -0.626076,1.710504 -1.038956,2.460148 -1.02416,1.859516 -2.37036,3.193201 -3.91156,3.875212 -0.33533,0.148389 -0.91825,0.348528 -1.0095,0.346599 -0.0179,-2.65e-4 -0.10788,-0.02384 -0.19999,-0.05214 z m 0.49475,-0.417661 c 0.66795,-0.220514 1.30062,-0.55753 1.88523,-1.004244 0.54965,-0.420005 1.13211,-1.017233 1.59515,-1.635586 0.74775,-0.998579 1.4187,-2.324639 1.80032,-3.558116 l 0.0697,-0.225245 -0.004,-1.392214 -0.004,-1.392214 -0.1125,-0.04117 c -0.41042,-0.150183 -0.74246,-0.443021 -1.01291,-0.893321 -0.21027,-0.35011 -0.3883,-0.859763 -0.47263,-1.353018 -0.0164,-0.09614 -0.0325,-0.177424 -0.0357,-0.180636 -0.006,-0.0064 -0.13297,-0.04532 -2.42113,-0.74489 -0.85244,-0.260622 -1.56189,-0.473858 -1.57656,-0.473858 -0.0147,0 -0.48834,0.141166 -1.05261,0.313701 -0.56427,0.172534 -1.25882,0.384847 -1.54344,0.471805 -1.16514,0.355967 -1.39851,0.427998 -1.40379,0.433279 -0.003,0.003 -0.0229,0.09963 -0.0441,0.214627 -0.21479,1.165029 -0.75611,1.970005 -1.49213,2.218896 l -0.0975,0.03297 -0.004,1.392843 -0.004,1.392843 0.0672,0.219015 c 0.37702,1.229489 1.06488,2.587577 1.81349,3.580505 0.98851,1.311124 2.15009,2.186834 3.48951,2.630729 0.11962,0.03965 0.23965,0.07246 0.26673,0.07293 0.0271,5.29e-4 0.15894,-0.03537 0.29305,-0.07964 z m -0.39477,-0.220548 c -0.0761,-0.032 -0.165,-0.150728 -0.165,-0.220414 0,-0.02138 -0.0382,-0.04234 -0.16875,-0.09249 -0.6545,-0.251481 -1.31699,-0.669071 -1.91603,-1.207731 -1.12925,-1.015431 -2.15049,-2.66071 -2.7372,-4.409807 l -0.098,-0.292246 v -1.054957 -1.054957 l -0.0692,-0.05781 c -0.0792,-0.0662 -0.11098,-0.129995 -0.11051,-0.221813 10e-4,-0.203907 0.20411,-0.337929 0.38174,-0.251942 l 0.0691,0.03346 0.11334,-0.08681 c 0.53246,-0.407834 0.92835,-1.08921 1.1414,-1.964483 l 0.0549,-0.225544 1.66378,-0.509455 1.66378,-0.509456 0.0275,-0.07292 c 0.0343,-0.09098 0.0653,-0.126341 0.14162,-0.161375 0.15452,-0.07096 0.31344,0.0044 0.37319,0.17702 l 0.0196,0.05652 0.49362,0.151556 c 0.27149,0.08335 1.02012,0.312465 1.66362,0.509132 l 1.17,0.357576 0.0644,0.262089 c 0.0815,0.331393 0.16991,0.578585 0.3118,0.871357 0.22355,0.461259 0.49909,0.816118 0.82302,1.059926 l 0.11248,0.08466 0.0689,-0.03336 c 0.17601,-0.08521 0.38187,0.05119 0.38187,0.253026 0,0.09112 -0.032,0.154962 -0.11085,0.220827 l -0.0692,0.05781 v 1.052369 1.052373 l -0.0976,0.295029 c -0.20336,0.614664 -0.48113,1.262501 -0.79166,1.846376 -0.99376,1.868519 -2.28517,3.140712 -3.79823,3.741711 -0.099,0.03932 -0.19181,0.07563 -0.20625,0.08067 -0.0144,0.0051 -0.0263,0.02315 -0.0263,0.04024 0,0.05171 -0.0565,0.145643 -0.11383,0.189405 -0.0415,0.03163 -0.0739,0.04231 -0.13889,0.04573 -0.0466,0.0024 -0.10165,-0.0026 -0.12227,-0.0113 z m -0.0742,-0.472448 c 0.0352,-0.04237 0.10135,-0.06651 0.18219,-0.06646 0.0754,6.1e-5 0.10261,0.01087 0.19366,0.07709 0.0303,0.02204 0.22158,-0.04885 0.53505,-0.198295 1.12412,-0.535914 2.11842,-1.468287 2.94638,-2.76288 0.48507,-0.758444 0.92758,-1.685787 1.22577,-2.568749 l 0.0911,-0.269719 -5.6e-4,-1.042498 -5.5e-4,-1.042501 -0.0567,-0.0392 c -0.0665,-0.04592 -0.10869,-0.125717 -0.10982,-0.207647 -7.6e-4,-0.05547 -0.007,-0.06306 -0.1303,-0.155348 -0.55313,-0.414435 -1.00212,-1.165349 -1.21055,-2.024573 l -0.0429,-0.176766 -0.0755,-0.02215 c -0.0415,-0.01217 -0.76741,-0.233754 -1.61303,-0.492387 l -1.5375,-0.470241 -0.0485,0.04227 c -0.10034,0.08735 -0.23941,0.08738 -0.33713,6.1e-5 l -0.047,-0.042 -0.13616,0.04125 c -0.0749,0.02267 -0.37915,0.11557 -0.67615,0.206412 -0.61943,0.189463 -2.35834,0.720609 -2.39355,0.731102 -0.0153,0.0046 -0.033,0.04757 -0.0505,0.123113 -0.12993,0.558798 -0.38998,1.139085 -0.69064,1.541122 -0.12692,0.169717 -0.38225,0.428691 -0.53652,0.544176 -0.12552,0.09396 -0.13125,0.10079 -0.13125,0.156374 0,0.07783 -0.049,0.16955 -0.11267,0.21077 l -0.052,0.03366 -1.9e-4,1.044598 -1.8e-4,1.044602 0.0989,0.290399 c 0.42602,1.251283 1.07541,2.458484 1.82246,3.387902 0.78092,0.971552 1.66562,1.656598 2.66373,2.062604 0.1808,0.07354 0.2027,0.07771 0.23076,0.0439 z"
               id="path708"
               inkscape:label="armorClass" /><path
               style="fill:#000000;stroke-width:0.0650835"
               d="m 26.076754,52.152234 c -0.540038,-0.04665 -1.423946,-0.177278 -1.779938,-0.263049 -0.340417,-0.08201 -0.553179,-0.154468 -1.145011,-0.389915 -0.389058,-0.154777 -0.509381,-0.210696 -0.493785,-0.229487 0.01134,-0.01369 0.110535,-0.07187 0.220436,-0.129338 0.358734,-0.187601 0.815662,-0.309526 1.159987,-0.309526 0.13519,0 0.148629,-0.0034 0.125026,-0.03187 -0.03291,-0.03965 -0.528028,-0.432816 -0.723867,-0.574806 L 23.294367,50.11894 h -1.375728 -1.375728 l 0.01043,-0.04577 c 0.01017,-0.04466 0.09206,-0.933513 0.09206,-0.999259 0,-0.02707 -0.02335,-0.03311 -0.128336,-0.03311 -0.160304,0 -0.216465,0.03295 -0.182654,0.107147 0.01268,0.02782 0.05328,0.08502 0.09024,0.127113 0.06447,0.07343 0.06515,0.07592 0.01683,0.06142 -0.17245,-0.05175 -0.345322,-0.231953 -0.345322,-0.359975 0,-0.08067 0.104271,-0.190265 0.21783,-0.228959 0.052,-0.01772 0.152248,-0.03221 0.222765,-0.03221 0.154386,0 0.139611,0.04076 0.168617,-0.465187 l 0.02141,-0.37365 -0.07242,-0.119227 c -0.181185,-0.298261 -0.33974,-0.703287 -0.397394,-1.015128 -0.0353,-0.190917 -0.02954,-0.569667 0.0116,-0.762533 0.06585,-0.308788 0.235266,-0.653399 0.452083,-0.919593 0.08571,-0.105228 0.08749,-0.110498 0.08749,-0.259509 0,-0.244463 -0.114944,-2.079948 -0.214718,-3.428698 -0.124036,-1.67677 -0.258278,-2.891787 -0.362707,-3.282856 l -0.04581,-0.17153 0.123452,-0.08123 c 0.0679,-0.04468 0.203101,-0.151096 0.300449,-0.236481 0.419955,-0.368349 0.604221,-0.703561 0.62136,-1.13036 l 0.0086,-0.213591 -0.123763,-0.328883 c -0.06807,-0.180885 -0.123765,-0.340622 -0.123765,-0.354972 0,-0.01597 -0.0068,-0.01859 -0.01747,-0.0068 -0.0096,0.01063 -0.02829,0.14773 -0.04152,0.304668 l -0.02406,0.285343 0.07203,0.250267 c 0.03962,0.137647 0.07203,0.270669 0.07203,0.295606 0,0.09601 -0.288481,0.48894 -0.326429,0.444619 -0.0071,-0.0083 -0.04318,-0.143297 -0.08007,-0.299891 -0.03689,-0.156594 -0.09198,-0.36415 -0.122415,-0.461231 l -0.05534,-0.176514 0.128995,-1.430589 c 0.07095,-0.786824 0.129869,-1.453476 0.130934,-1.481445 0.0011,-0.02797 0.02376,0.07272 0.05042,0.223764 0.02666,0.151039 0.08102,0.398197 0.12079,0.549238 0.03977,0.151039 0.100762,0.389045 0.135534,0.528897 0.112401,0.452062 0.222324,0.817305 0.336716,1.118819 0.172389,0.454373 0.172832,0.456173 0.173216,0.701804 4.37e-4,0.327432 -0.08911,0.614996 -0.282966,0.907931 -0.04833,0.07304 -0.04991,0.08408 -0.02934,0.205066 0.03256,0.191512 0.08033,0.741888 0.109088,1.256866 0.03297,0.590522 0.03223,3.529611 -0.0011,4.668527 -0.04341,1.47994 -0.130973,3.738581 -0.157134,4.053298 -0.0067,0.08118 -0.02049,0.142515 -0.03056,0.136299 -0.03534,-0.02185 -0.186901,-0.295692 -0.283669,-0.512551 l -0.09779,-0.219148 0.0196,-0.616274 c 0.01078,-0.338948 0.01685,-0.659277 0.01345,-0.711839 l -0.0062,-0.09557 -0.06327,0.122054 c -0.453166,0.874238 -0.09651,1.907661 1.042933,3.021974 0.331069,0.323766 0.631529,0.564895 0.854543,0.685798 0.484708,0.262777 1.260612,0.818617 1.83768,1.316473 l 0.193383,0.166835 0.254145,0.01394 c 0.139782,0.0077 0.336324,0.01972 0.43676,0.02679 l 0.182609,0.01285 -0.237595,-0.228412 C 25.168482,50.503743 25.013169,50.337502 24.95402,50.259944 L 24.846479,50.118929 H 24.466 24.085522 l -0.268654,-0.213593 -0.268656,-0.213594 h 0.249539 c 0.249098,0 0.249517,-8.1e-5 0.236449,-0.04577 -0.07595,-0.26555 -0.139136,-0.542948 -0.158374,-0.695265 l -0.02345,-0.185648 -0.143936,0.143922 c -0.232757,0.232728 -0.487642,0.334449 -0.762236,0.3042 -0.09784,-0.01078 -0.123302,-0.01925 -0.09368,-0.03113 0.02238,-0.009 0.06463,-0.01697 0.09389,-0.01778 0.098,-0.0025 0.342856,-0.143566 0.475457,-0.27366 0.121149,-0.118859 0.303067,-0.37505 0.393378,-0.553994 0.02325,-0.04606 0.05991,-0.169636 0.08147,-0.274623 0.07166,-0.348892 0.221638,-0.667497 0.413444,-0.878318 l 0.09635,-0.105908 -0.08084,0.189795 c -0.173323,0.406923 -0.247481,0.768202 -0.247069,1.203643 4.38e-4,0.409787 0.0774,0.829817 0.170263,0.928668 0.04165,0.04434 0.214204,0.113348 0.242748,0.09708 0.0065,-0.0037 -0.01356,-0.08264 -0.04445,-0.175484 -0.118479,-0.355984 -0.152848,-0.818014 -0.08839,-1.188332 0.06717,-0.38593 0.249643,-0.813577 0.492135,-1.153362 0.144047,-0.201844 0.470377,-0.545057 0.675914,-0.710885 0.741236,-0.598033 1.735366,-0.990708 2.850348,-1.12587 0.371952,-0.04509 1.11313,-0.04449 1.4934,0.0011 1.744454,0.209627 3.167442,1.058253 3.761623,2.243322 0.304369,0.607058 0.362911,1.295334 0.163454,1.921841 -0.02744,0.0862 -0.04989,0.165331 -0.04989,0.175852 0,0.02619 0.130682,-0.0049 0.193424,-0.04603 0.0767,-0.05026 0.106653,-0.109303 0.150726,-0.297114 0.144898,-0.617492 0.07748,-1.31051 -0.183769,-1.889153 -0.07178,-0.15899 -0.07207,-0.164191 -0.0056,-0.102442 0.187211,0.173799 0.388749,0.600778 0.455358,0.964713 0.04475,0.244518 0.311382,0.666266 0.53459,0.845588 0.121331,0.09748 0.326104,0.20131 0.401226,0.203448 0.02797,9.38e-4 0.06916,0.0087 0.09154,0.01757 0.02997,0.01188 0.0081,0.01997 -0.08325,0.03073 -0.272016,0.03204 -0.533124,-0.0691 -0.762545,-0.295355 -0.07854,-0.07746 -0.146926,-0.140828 -0.151973,-0.140828 -0.0051,0 -0.0092,0.03157 -0.0092,0.07017 0,0.09962 -0.07252,0.462693 -0.132341,0.662549 -0.02791,0.09323 -0.05074,0.172193 -0.05074,0.175472 0,0.0033 0.109622,0.0085 0.243605,0.01166 l 0.243605,0.0057 -0.261865,0.208505 -0.261861,0.208508 -0.383501,9.38e-4 -0.383499,9.37e-4 -0.09154,0.123044 c -0.05035,0.06767 -0.204904,0.233481 -0.343462,0.368464 l -0.251923,0.245424 0.180724,-0.01269 c 0.0994,-0.007 0.294645,-0.01894 0.43388,-0.0266 l 0.253156,-0.01388 0.257808,-0.216325 c 0.593606,-0.498093 1.277597,-0.987122 1.758312,-1.257135 0.240733,-0.135217 0.435089,-0.283168 0.745809,-0.567748 0.749461,-0.686405 1.236112,-1.444625 1.339818,-2.087496 0.03082,-0.191095 0.0161,-0.548307 -0.02954,-0.716675 -0.03544,-0.130738 -0.189195,-0.470062 -0.20557,-0.453685 -0.0054,0.0054 -6.25e-4,0.328392 0.0105,0.717706 l 0.02035,0.70784 -0.128638,0.267512 c -0.07075,0.147132 -0.1611,0.315711 -0.200773,0.374621 l -0.07213,0.107106 -0.013,-0.209599 c -0.03635,-0.586234 -0.114933,-2.65392 -0.157549,-4.145783 -0.03158,-1.105417 -0.03196,-3.843131 -6.26e-4,-4.454934 0.02944,-0.574649 0.05589,-0.906875 0.09736,-1.222856 l 0.031,-0.236261 -0.103768,-0.180753 c -0.05708,-0.09955 -0.128328,-0.254121 -0.158337,-0.343625 -0.04912,-0.146514 -0.05458,-0.192145 -0.05482,-0.457701 l -2.5e-4,-0.29496 0.114363,-0.294962 c 0.146701,-0.378356 0.264565,-0.749049 0.330849,-1.040522 0.02888,-0.126974 0.08939,-0.363597 0.134476,-0.525825 0.09023,-0.324669 0.201107,-0.844565 0.203901,-0.956082 9.38e-4,-0.03916 0.0056,-0.06204 0.01019,-0.05085 0.0046,0.01118 0.06777,0.680874 0.140336,1.488192 l 0.131939,1.467849 -0.04108,0.118841 c -0.04934,0.142734 -0.147882,0.51726 -0.182466,0.693505 -0.01372,0.06993 -0.03206,0.127139 -0.04076,0.127139 -0.02954,0 -0.201085,-0.205886 -0.26579,-0.31898 -0.06318,-0.110429 -0.06393,-0.114791 -0.03905,-0.227365 0.01397,-0.06313 0.04834,-0.187995 0.07643,-0.277486 0.05088,-0.162129 0.05097,-0.16382 0.02525,-0.474032 -0.01419,-0.171229 -0.03212,-0.303973 -0.03981,-0.294989 -0.01194,0.01394 -0.142206,0.354348 -0.239782,0.626598 -0.02088,0.05824 -0.02651,0.139199 -0.01988,0.284789 0.0077,0.167592 0.02113,0.23388 0.07646,0.376332 0.03694,0.0951 0.102037,0.228351 0.144672,0.296111 0.09685,0.153944 0.487813,0.536241 0.684645,0.669473 0.106809,0.07229 0.144641,0.10906 0.135661,0.131829 -0.165257,0.41901 -0.383351,2.728817 -0.581758,6.161257 -0.04078,0.705559 -0.04274,0.80553 -0.0165,0.846589 0.01635,0.02561 0.07672,0.108602 0.134174,0.184436 0.231378,0.305417 0.375331,0.664408 0.417097,1.040164 0.02157,0.194126 0.0205,0.259966 -0.0074,0.457701 -0.05186,0.367089 -0.183986,0.734944 -0.387499,1.078835 l -0.09246,0.15624 0.01853,0.311629 c 0.01019,0.171396 0.0236,0.358563 0.02985,0.415932 l 0.01131,0.104306 0.166669,0.0091 c 0.252119,0.01375 0.400608,0.11021 0.400608,0.260261 0,0.133789 -0.162838,0.302031 -0.345323,0.356787 -0.04832,0.0145 -0.04764,0.012 0.01681,-0.06142 0.102171,-0.116367 0.122059,-0.171276 0.0746,-0.205976 -0.0405,-0.02963 -0.295426,-0.04086 -0.295264,-0.01303 2.47e-4,0.048 0.08269,0.923008 0.09292,0.986597 l 0.01228,0.07628 H 36.31971 34.943742 l -0.156568,0.114764 c -0.247606,0.181491 -0.715981,0.560842 -0.715981,0.579895 0,0.0095 0.06179,0.01735 0.137311,0.01741 0.192103,8.2e-5 0.478571,0.04999 0.712028,0.123963 0.215665,0.06834 0.529933,0.214953 0.626084,0.292091 l 0.06041,0.04846 -0.06103,0.02329 c -0.03356,0.01282 -0.289872,0.113382 -0.56958,0.223489 -0.714628,0.281311 -0.949588,0.348704 -1.559066,0.447175 -1.032565,0.166829 -1.788763,0.220254 -2.042836,0.144331 -0.05562,-0.01663 -0.05346,-0.01794 0.03185,-0.0196 0.337583,-0.0066 0.780883,-0.154493 1.127686,-0.376341 0.112077,-0.07169 0.642081,-0.549142 0.642081,-0.57841 0,-0.02191 -0.459482,0.014 -0.640778,0.05007 -0.346172,0.06885 -0.636164,0.21916 -0.848956,0.440033 l -0.117245,0.121696 -0.239046,0.02772 c -1.82523,0.211674 -2.056938,0.229152 -2.574864,0.194256 -0.203329,-0.01369 -0.754875,-0.06916 -1.225659,-0.123234 l -0.85597,-0.09832 -0.150969,-0.150473 c -0.253874,-0.253041 -0.60528,-0.401313 -1.051187,-0.443543 -0.29155,-0.0276 -0.411895,-0.03387 -0.41163,-0.02141 4.37e-4,0.0256 0.495117,0.474361 0.615589,0.558576 0.296998,0.207614 0.718579,0.360253 1.078768,0.390577 0.140247,0.01178 0.157037,0.01682 0.105706,0.03159 -0.09399,0.02704 -0.545099,0.03581 -0.783175,0.01522 z m -1.050163,-0.519637 c 0.01912,-0.0073 0.0321,-0.0201 0.02883,-0.02832 -0.0033,-0.0083 -0.115793,-0.117817 -0.250053,-0.243508 l -0.244105,-0.228527 -0.325474,0.012 c -0.311819,0.0115 -0.524639,0.03912 -0.722149,0.09378 l -0.09154,0.02532 0.09154,0.03965 c 0.279585,0.121122 0.877025,0.300509 1.137008,0.341401 0.116549,0.01832 0.313533,0.01216 0.375941,-0.01181 z m 8.546253,0.01128 c 0.25712,-0.03658 0.696478,-0.164366 1.116748,-0.324813 0.138977,-0.05306 0.131532,-0.06218 -0.08947,-0.10965 -0.212575,-0.04566 -0.482578,-0.07302 -0.722148,-0.07316 l -0.203423,-8.2e-5 -0.250075,0.236398 c -0.137539,0.130023 -0.245563,0.240914 -0.24005,0.246427 0.01451,0.0145 0.135784,0.04154 0.195166,0.0435 0.02797,9.37e-4 0.114934,-0.0074 0.193251,-0.01857 z m -3.744708,-0.153743 c 1.620976,-0.178587 2.997343,-1.027826 3.450843,-2.129221 0.172484,-0.418901 0.207306,-0.910108 0.0948,-1.33722 -0.290771,-1.103865 -1.484213,-2.015881 -3.04551,-2.327345 -0.463232,-0.09241 -0.593371,-0.103545 -1.210359,-0.103545 -0.614921,0 -0.749803,0.01145 -1.200484,0.10184 -1.902649,0.381633 -3.195275,1.613013 -3.115959,2.968314 0.08013,1.369239 1.499817,2.524856 3.451901,2.809834 0.474476,0.06926 1.046309,0.07556 1.574769,0.01735 z M 22.577903,49.65062 c -0.08586,-0.06791 -0.731662,-0.380298 -0.925569,-0.447716 -0.199877,-0.0695 -0.53198,-0.148544 -0.557585,-0.13272 -0.0088,0.0055 -0.02228,0.09949 -0.02988,0.208952 -0.0076,0.109463 -0.01938,0.247078 -0.02619,0.305816 l -0.01237,0.106797 0.801231,-3.13e-4 0.801231,-3.12e-4 z m 14.626046,0.0055 c 4.3e-5,-0.04873 -0.0461,-0.583527 -0.05092,-0.590181 -0.0022,-0.0028 -0.07437,0.0081 -0.160549,0.02463 -0.320156,0.06126 -0.797364,0.253163 -1.194112,0.480203 -0.09962,0.05701 -0.181137,0.107547 -0.181137,0.112298 0,0.0048 0.357006,0.0087 0.793344,0.0087 0.741992,0 0.793348,-0.0022 0.793373,-0.0356 z m -0.208537,-0.882057 0.127138,-0.02225 -2.47e-4,-0.114879 c -3.12e-4,-0.224239 -0.0054,-0.22533 -0.179919,-0.04004 -0.0855,0.09079 -0.166982,0.181422 -0.181075,0.201406 -0.02369,0.03359 -0.02063,0.03489 0.04068,0.01719 0.03647,-0.01053 0.123525,-0.02916 0.193453,-0.04141 z M 21.323325,48.624825 c -0.174278,-0.186582 -0.179922,-0.190611 -0.192394,-0.137311 -0.0071,0.03019 -0.01394,0.102018 -0.01526,0.159593 l -0.0024,0.104687 0.157653,0.03007 c 0.08671,0.01653 0.174369,0.03122 0.1948,0.03263 0.0245,0.0019 -0.02398,-0.0629 -0.142395,-0.189671 z m 15.972533,-7.59883 c 0.129214,-1.371216 0.226452,-2.166204 0.327164,-2.674727 0.02879,-0.145301 0.05604,-0.270189 0.06057,-0.27753 0.0087,-0.01407 -0.274451,-0.250584 -0.285372,-0.238378 -0.02722,0.03044 -0.118052,1.078406 -0.153983,1.776853 -0.02103,0.409034 -0.04584,2.293293 -0.02919,2.217295 0.0049,-0.02237 0.04126,-0.383956 0.0808,-0.803513 z M 21.012467,40.141103 c -0.01217,-0.358021 -0.03597,-0.856913 -0.05286,-1.108648 -0.0293,-0.436707 -0.10418,-1.180013 -0.120521,-1.196354 -0.0091,-0.0091 -0.261882,0.197623 -0.271384,0.221934 -0.0036,0.0091 0.01687,0.133712 0.04544,0.276837 0.102566,0.513937 0.199775,1.305096 0.330998,2.693899 l 0.07758,0.821074 0.0064,-0.528896 c 0.0036,-0.290892 -0.0035,-0.821825 -0.0157,-1.179846 z m 0.02198,-6.30028 c -0.0943,-0.311554 -0.246685,-1.205759 -0.246657,-1.447361 l 1.1e-5,-0.08409 0.167813,-0.05747 c 0.543716,-0.186193 1.032598,-0.518658 1.17451,-0.798724 0.03963,-0.07821 0.05221,-0.138527 0.05797,-0.277887 l 0.0073,-0.177992 h 6.921996 6.921995 l 0.0086,0.177992 c 0.0071,0.147169 0.01857,0.196374 0.06639,0.28413 0.155499,0.285391 0.640693,0.613918 1.165819,0.789384 l 0.167819,0.05608 -7.8e-5,0.114124 c -2.47e-4,0.327016 -0.246505,1.613575 -0.298846,1.561236 -0.0062,-0.0062 -0.03224,-0.30991 -0.05788,-0.674933 -0.02566,-0.365023 -0.04969,-0.666535 -0.05342,-0.670024 -0.0037,-0.0035 -0.109373,-0.05215 -0.234763,-0.108138 -0.546461,-0.243997 -0.918398,-0.545057 -1.073253,-0.868729 -0.03747,-0.07832 -0.07326,-0.158414 -0.07953,-0.177995 -0.01082,-0.03381 -0.339216,-0.03556 -6.526619,-0.03493 l -6.515218,6.56e-4 -0.08917,0.187492 c -0.07368,0.154916 -0.117861,0.216185 -0.254278,0.352621 -0.230589,0.23062 -0.57511,0.44645 -0.950682,0.595564 l -0.114289,0.04538 -0.01211,0.125862 c -0.0067,0.06923 -0.02759,0.368444 -0.04653,0.66493 -0.01894,0.296488 -0.04065,0.546252 -0.04824,0.555031 -0.0076,0.0088 -0.03399,-0.05072 -0.05866,-0.132224 z"
               id="path293"
               inkscape:label="abilityScore" /><text
               xml:space="preserve"
               style="font-style:normal;font-variant:normal;font-weight:normal;font-stretch:normal;font-size:5.64444px;line-height:1.25;font-family:Monospace;-inkscape-font-specification:'Monospace, Normal';font-variant-ligatures:normal;font-variant-position:normal;font-variant-caps:normal;font-variant-numeric:normal;font-variant-alternates:normal;font-variant-east-asian:normal;font-feature-settings:normal;font-variation-settings:normal;text-indent:0;text-align:start;text-decoration-line:none;text-decoration-style:solid;text-decoration-color:#000000;letter-spacing:normal;word-spacing:normal;text-transform:none;writing-mode:lr-tb;direction:ltr;text-orientation:mixed;dominant-baseline:auto;baseline-shift:baseline;white-space:normal;opacity:1;vector-effect:none;fill:#000000;fill-opacity:1;stroke-width:0.264583;stroke-linecap:butt;stroke-linejoin:miter;stroke-miterlimit:4;stroke-dasharray:none;stroke-dashoffset:0;stroke-opacity:1;-inkscape-stroke:none;stop-color:#000000;stop-opacity:1"
               x="19.509214"
               y="10.059833"
               id="text4"
               inkscape:label="hdr"><tspan
                 sodipodi:role="line"
                 id="tspan4"
                 style="font-style:normal;font-variant:normal;font-weight:normal;font-stretch:normal;font-size:5.64444px;line-height:1.25;font-family:Monospace;-inkscape-font-specification:'Monospace, Normal';font-variant-ligatures:normal;font-variant-position:normal;font-variant-caps:normal;font-variant-numeric:normal;font-variant-alternates:normal;font-variant-east-asian:normal;font-feature-settings:normal;font-variation-settings:normal;text-indent:0;text-align:start;text-decoration-line:none;text-decoration-style:solid;text-decoration-color:#000000;letter-spacing:normal;word-spacing:normal;text-transform:none;writing-mode:lr-tb;direction:ltr;text-orientation:mixed;dominant-baseline:auto;baseline-shift:baseline;white-space:normal;vector-effect:none;fill:#000000;fill-opacity:1;stroke-width:0.264583;stroke-linecap:butt;stroke-linejoin:miter;stroke-miterlimit:4;stroke-dasharray:none;stroke-dashoffset:0;stroke-opacity:1;-inkscape-stroke:none;stop-color:#000000;stop-opacity:1"
                 x="19.509214"
                 y="10.059833">static/assets/engine/dnd</tspan></text></g></g><g
           inkscape:groupmode="layer"
           id="layer6"
           inkscape:label="IMG"
           style="display:inline"><g
             id="g2"
             inkscape:label="siteLogo"
             style="display:inline;stroke-width:0.5"
             transform="matrix(2,0,0,2,43.655144,-41.275244)"
             inkscape:export-filename="../static/assets/img/siteLogo.svg"
             inkscape:export-xdpi="96"
             inkscape:export-ydpi="96"><text
               xml:space="preserve"
               style="font-size:6.35px;line-height:1.25;font-family:Sans;-inkscape-font-specification:'Sans, Normal';font-variant-ligatures:none;stroke-width:0.132291"
               x="14.613276"
               y="36.350918"
               id="text2"><tspan
                 sodipodi:role="line"
                 id="tspan2"
                 style="font-style:normal;font-variant:normal;font-weight:normal;font-stretch:normal;font-family:'a Apple Tea';-inkscape-font-specification:'a Apple Tea';stroke-width:0.132291"
                 x="14.613276"
                 y="36.350918">PYRPS</tspan></text><path
               d="M 11.490477,29.633334 H 5.4428575 c -0.668073,0 -1.209524,0.541451 -1.209524,1.209524 v 6.047619 c 0,0.668073 0.541451,1.209524 1.209524,1.209524 h 6.0476195 c 0.668073,0 1.209524,-0.541451 1.209524,-1.209524 v -6.047619 c 0,-0.668073 -0.541451,-1.209524 -1.209524,-1.209524 z m -4.8380955,6.652381 c -0.333942,0 -0.604762,-0.270819 -0.604762,-0.604762 0,-0.333941 0.27082,-0.604761 0.604762,-0.604761 0.333942,0 0.604762,0.27082 0.604762,0.604761 0,0.333943 -0.27082,0.604762 -0.604762,0.604762 z m 0,-1.814285 c -0.333942,0 -0.604762,-0.27082 -0.604762,-0.604762 0,-0.333942 0.27082,-0.604762 0.604762,-0.604762 0.333942,0 0.604762,0.27082 0.604762,0.604762 0,0.333942 -0.27082,0.604762 -0.604762,0.604762 z m 0,-1.814286 c -0.333942,0 -0.604762,-0.27082 -0.604762,-0.604762 0,-0.333942 0.27082,-0.604762 0.604762,-0.604762 0.333942,0 0.604762,0.27082 0.604762,0.604762 0,0.333942 -0.27082,0.604762 -0.604762,0.604762 z m 3.6285715,3.628571 c -0.3339415,0 -0.6047615,-0.270819 -0.6047615,-0.604762 0,-0.333941 0.27082,-0.604761 0.6047615,-0.604761 0.333942,0 0.604762,0.27082 0.604762,0.604761 0,0.333943 -0.27082,0.604762 -0.604762,0.604762 z m 0,-1.814285 c -0.3339415,0 -0.6047615,-0.27082 -0.6047615,-0.604762 0,-0.333942 0.27082,-0.604762 0.6047615,-0.604762 0.333942,0 0.604762,0.27082 0.604762,0.604762 0,0.333942 -0.27082,0.604762 -0.604762,0.604762 z m 0,-1.814286 c -0.3339415,0 -0.6047615,-0.27082 -0.6047615,-0.604762 0,-0.333942 0.27082,-0.604762 0.6047615,-0.604762 0.333942,0 0.604762,0.27082 0.604762,0.604762 0,0.333942 -0.27082,0.604762 -0.604762,0.604762 z"
               id="path1-6"
               style="stroke-width:0.132291" /></g><path
             d="M 34.583713,17.991424 H 10.393237 c -2.6722913,0 -4.8380953,2.165804 -4.8380953,4.838096 v 24.190477 c 0,2.67229 2.165804,4.83809 4.8380953,4.83809 h 24.190476 c 2.67229,0 4.8381,-2.1658 4.8381,-4.83809 V 22.82952 c 0,-2.672292 -2.16581,-4.838096 -4.8381,-4.838096 z m -19.35238,26.609523 c -1.335768,0 -2.419048,-1.08328 -2.419048,-2.41905 0,-1.33576 1.08328,-2.41904 2.419048,-2.41904 1.335768,0 2.419048,1.08328 2.419048,2.41904 0,1.33577 -1.08328,2.41905 -2.419048,2.41905 z m 0,-7.25714 c -1.335768,0 -2.419048,-1.08328 -2.419048,-2.419048 0,-1.335768 1.08328,-2.419048 2.419048,-2.419048 1.335768,0 2.419048,1.08328 2.419048,2.419048 0,1.335768 -1.08328,2.419048 -2.419048,2.419048 z m 0,-7.257144 c -1.335768,0 -2.419048,-1.08328 -2.419048,-2.419047 0,-1.335768 1.08328,-2.419049 2.419048,-2.419049 1.335768,0 2.419048,1.08328 2.419048,2.419048 0,1.335768 -1.08328,2.419048 -2.419048,2.419048 z m 14.51428,14.514284 c -1.33576,0 -2.41904,-1.08328 -2.41904,-2.41905 0,-1.33576 1.08328,-2.41904 2.41904,-2.41904 1.33577,0 2.41905,1.08328 2.41905,2.41904 0,1.33577 -1.08328,2.41905 -2.41905,2.41905 z m 0,-7.25714 c -1.33576,0 -2.41904,-1.08328 -2.41904,-2.419048 0,-1.335768 1.08328,-2.419048 2.41904,-2.419048 1.33577,0 2.41905,1.08328 2.41905,2.419048 0,1.335768 -1.08328,2.419048 -2.41905,2.419048 z m 0,-7.257144 c -1.33576,0 -2.41904,-1.08328 -2.41904,-2.419047 0,-1.335768 1.08328,-2.419049 2.41904,-2.419049 1.33577,0 2.41905,1.08328 2.41905,2.419048 0,1.335768 -1.08328,2.419048 -2.41905,2.419048 z"
             id="path1-6-5"
             style="display:inline;stroke-width:0.264582"
             inkscape:export-filename="../static/assets/img/siteIcon.png"
             inkscape:export-xdpi="48"
             inkscape:export-ydpi="48"
             inkscape:label="siteIcon" /><text
             xml:space="preserve"
             style="font-style:normal;font-variant:normal;font-weight:normal;font-stretch:normal;font-size:5.64444px;line-height:1.25;font-family:Monospace;-inkscape-font-specification:'Monospace, Normal';font-variant-ligatures:normal;font-variant-position:normal;font-variant-caps:normal;font-variant-numeric:normal;font-variant-alternates:normal;font-variant-east-asian:normal;font-feature-settings:normal;font-variation-settings:normal;text-indent:0;text-align:start;text-decoration-line:none;text-decoration-style:solid;text-decoration-color:#000000;letter-spacing:normal;word-spacing:normal;text-transform:none;writing-mode:lr-tb;direction:ltr;text-orientation:mixed;dominant-baseline:auto;baseline-shift:baseline;white-space:normal;display:inline;opacity:1;vector-effect:none;fill:#000000;fill-opacity:1;stroke-width:0.264583;stroke-linecap:butt;stroke-linejoin:miter;stroke-miterlimit:4;stroke-dasharray:none;stroke-dashoffset:0;stroke-opacity:1;-inkscape-stroke:none;stop-color:#000000;stop-opacity:1"
             x="4.9680958"
             y="9.5798769"
             id="text1"
             inkscape:label="hdr"><tspan
               sodipodi:role="line"
               id="tspan1"
               style="font-style:normal;font-variant:normal;font-weight:normal;font-stretch:normal;font-size:5.64444px;line-height:1.25;font-family:Monospace;-inkscape-font-specification:'Monospace, Normal';font-variant-ligatures:normal;font-variant-position:normal;font-variant-caps:normal;font-variant-numeric:normal;font-variant-alternates:normal;font-variant-east-asian:normal;font-feature-settings:normal;font-variation-settings:normal;text-indent:0;text-align:start;text-decoration-line:none;text-decoration-style:solid;text-decoration-color:#000000;letter-spacing:normal;word-spacing:normal;text-transform:none;writing-mode:lr-tb;direction:ltr;text-orientation:mixed;dominant-baseline:auto;baseline-shift:baseline;white-space:normal;vector-effect:none;fill:#000000;fill-opacity:1;stroke-width:0.264583;stroke-linecap:butt;stroke-linejoin:miter;stroke-miterlimit:4;stroke-dasharray:none;stroke-dashoffset:0;stroke-opacity:1;-inkscape-stroke:none;stop-color:#000000;stop-opacity:1"
               x="4.9680958"
               y="9.5798769">static/assets/img</tspan></text></g></g></g></g></svg>
