<?xml version="1.0" encoding="UTF-8" standalone="no"?>
<!-- Created with Inkscape (http://www.inkscape.org/) -->

<svg
   version="1.1"
   id="svg2"
   width="218.1898"
   height="256"
   viewBox="0 0 218.1898 256"
   sodipodi:docname="abilityScore.svg"
   inkscape:version="1.3 (0e150ed6c4, 2023-07-21)"
   xmlns:inkscape="http://www.inkscape.org/namespaces/inkscape"
   xmlns:sodipodi="http://sodipodi.sourceforge.net/DTD/sodipodi-0.dtd"
   xmlns="http://www.w3.org/2000/svg"
   xmlns:svg="http://www.w3.org/2000/svg">
  <sodipodi:namedview
     id="namedview2481"
     pagecolor="#ffffff"
     bordercolor="#666666"
     borderopacity="1.0"
     inkscape:showpageshadow="2"
     inkscape:pageopacity="0.0"
     inkscape:pagecheckerboard="0"
     inkscape:deskcolor="#d1d1d1"
     showgrid="false"
     inkscape:zoom="1.5394292"
     inkscape:cx="18.18856"
     inkscape:cy="166.945"
     inkscape:window-width="1920"
     inkscape:window-height="1023"
     inkscape:window-x="1775"
     inkscape:window-y="29"
     inkscape:window-maximized="1"
     inkscape:current-layer="svg2" />
  <defs
     id="defs6" />
  <g
     id="g8"
     transform="matrix(2.6666646,0,0,2.6666646,-1073.5713,-1259.6153)">
    <path
       style="fill:#000000;stroke-width:0.0922445"
       d="m 429.70944,568.28619 c -2.44888,-0.21154 -6.45709,-0.80389 -8.07139,-1.19282 -1.54367,-0.37191 -2.50847,-0.70046 -5.19222,-1.76813 -1.76424,-0.70186 -2.30986,-0.95544 -2.23914,-1.04064 0.0514,-0.062 0.50124,-0.3259 0.9996,-0.58651 1.62673,-0.8507 3.69874,-1.40359 5.26013,-1.40359 0.61304,0 0.67398,-0.0155 0.56695,-0.1445 -0.14922,-0.17981 -2.39442,-1.96267 -3.28248,-2.60655 l -0.65859,-0.47751 h -6.23844 -6.23844 l 0.0473,-0.20755 c 0.0461,-0.2025 0.41747,-4.23316 0.41747,-4.53129 0,-0.1228 -0.1059,-0.15012 -0.58196,-0.15012 -0.72692,0 -0.98159,0.1494 -0.82827,0.48588 0.0575,0.12615 0.24162,0.38553 0.4092,0.5764 0.29235,0.33297 0.29545,0.34426 0.0763,0.27851 -0.782,-0.23465 -1.56591,-1.05183 -1.56591,-1.63237 0,-0.3658 0.47283,-0.86278 0.98778,-1.03824 0.23581,-0.0804 0.69039,-0.14609 1.01016,-0.14609 0.70009,0 0.63309,0.18486 0.76462,-2.10946 l 0.0971,-1.69436 -0.32842,-0.54065 c -0.82161,-1.35251 -1.5406,-3.18916 -1.80204,-4.60325 -0.16006,-0.86574 -0.13395,-2.58324 0.0526,-3.45782 0.29861,-1.40024 1.06685,-2.96293 2.05004,-4.17003 0.38867,-0.47717 0.39672,-0.50107 0.39672,-1.17678 0,-1.10855 -0.52123,-9.43183 -0.97367,-15.54793 -0.56247,-7.60356 -1.17121,-13.11323 -1.64476,-14.88659 l -0.20771,-0.77783 0.55981,-0.36837 c 0.30789,-0.2026 0.92099,-0.68517 1.36243,-1.07236 1.90435,-1.67033 2.73993,-3.1904 2.81765,-5.12578 l 0.0389,-0.96856 -0.56122,-1.49137 c -0.30868,-0.82025 -0.56123,-1.5446 -0.56123,-1.60967 0,-0.0724 -0.0307,-0.0843 -0.0792,-0.0307 -0.0435,0.0482 -0.12828,0.6699 -0.18829,1.38156 l -0.1091,1.29393 0.32665,1.13487 c 0.17965,0.62418 0.32665,1.22739 0.32665,1.34047 0,0.43537 -1.30816,2.21717 -1.48024,2.01619 -0.0324,-0.0378 -0.19579,-0.6498 -0.36308,-1.3599 -0.16729,-0.7101 -0.41709,-1.65129 -0.55511,-2.09152 l -0.25095,-0.80043 0.58495,-6.48721 c 0.32172,-3.56797 0.58891,-6.591 0.59374,-6.71783 0.005,-0.12684 0.10773,0.32977 0.22864,1.01469 0.12091,0.68491 0.3674,1.80568 0.54774,2.4906 0.18035,0.68491 0.45692,1.76418 0.6146,2.39836 0.5097,2.04994 1.00816,3.70619 1.52689,5.07345 0.78172,2.06042 0.78373,2.06858 0.78547,3.18243 0.002,1.48479 -0.40409,2.78879 -1.28315,4.11715 -0.21918,0.3312 -0.22634,0.38125 -0.13304,0.9299 0.14767,0.86844 0.36429,3.3642 0.49468,5.69944 0.14952,2.67781 0.14616,16.00554 -0.005,21.17012 -0.19686,6.711 -0.59392,16.95314 -0.71255,18.38027 -0.0306,0.36812 -0.0929,0.64626 -0.13856,0.61807 -0.16026,-0.0991 -0.84753,-1.34086 -1.28634,-2.32424 l -0.44343,-0.99376 0.0889,-2.79458 c 0.0489,-1.53701 0.0764,-2.98959 0.061,-3.22794 l -0.0279,-0.43337 -0.28689,0.55347 c -2.05495,3.96436 -0.43766,8.65057 4.72933,13.70358 1.50128,1.46817 2.86376,2.5616 3.87505,3.10986 2.19798,1.1916 5.71643,3.71214 8.33323,5.96973 l 0.87692,0.75654 1.15246,0.0632 c 0.63386,0.0347 1.52511,0.0894 1.98055,0.12145 l 0.82807,0.0583 -1.07741,-1.03576 c -0.59258,-0.56967 -1.29687,-1.32352 -1.56509,-1.67522 l -0.48766,-0.63945 h -1.72534 -1.72533 l -1.21825,-0.96857 -1.21826,-0.96857 h 1.13157 c 1.12957,0 1.13147,-3.7e-4 1.07221,-0.20755 -0.3444,-1.20418 -0.63093,-2.46208 -0.71817,-3.15278 l -0.10633,-0.84185 -0.6527,0.65263 c -1.05547,1.05534 -2.21128,1.51661 -3.45647,1.37944 -0.44366,-0.0489 -0.55913,-0.0873 -0.42479,-0.1412 0.10147,-0.0407 0.29306,-0.077 0.42577,-0.0806 0.44439,-0.0119 1.55473,-0.65102 2.15603,-1.24095 0.54937,-0.53898 1.3743,-1.70072 1.78383,-2.51217 0.10541,-0.20885 0.27165,-0.76923 0.36944,-1.24531 0.32497,-1.58211 1.00505,-3.02687 1.87482,-3.98287 l 0.43693,-0.48025 -0.36658,0.86065 c -0.78596,1.84525 -1.12224,3.48353 -1.12037,5.4581 0.002,1.85824 0.35097,3.76293 0.77208,4.21118 0.18888,0.20106 0.97134,0.51399 1.10078,0.44024 0.0293,-0.0167 -0.0615,-0.37475 -0.20158,-0.79576 -0.53726,-1.61426 -0.69311,-3.70941 -0.40084,-5.38867 0.30458,-1.75005 1.13204,-3.68928 2.23166,-5.23009 0.6532,-0.91529 2.13299,-2.47164 3.06503,-3.22361 3.36124,-2.71187 7.86927,-4.49251 12.92532,-5.10542 1.68667,-0.20446 5.04765,-0.20175 6.77204,0.005 7.91048,0.95058 14.36323,4.7988 17.05763,10.17267 1.38021,2.75279 1.64567,5.87388 0.7412,8.71487 -0.12444,0.39088 -0.22625,0.74972 -0.22625,0.79743 0,0.11872 0.59261,-0.0223 0.87712,-0.20872 0.34779,-0.22789 0.48363,-0.49565 0.68348,-1.34731 0.65706,-2.8001 0.35136,-5.9427 -0.83332,-8.56664 -0.32551,-0.72096 -0.32679,-0.74455 -0.0252,-0.46454 0.84893,0.78812 1.76284,2.72431 2.06488,4.37463 0.20293,1.10881 1.41201,3.02128 2.42418,3.83445 0.55019,0.44203 1.47877,0.91287 1.81941,0.92256 0.12684,0.004 0.31364,0.0394 0.41511,0.0796 0.13593,0.0538 0.0366,0.0905 -0.37748,0.13925 -1.2335,0.14527 -2.41754,-0.31333 -3.45788,-1.33932 -0.35614,-0.35124 -0.66626,-0.63861 -0.68914,-0.63861 -0.0229,0 -0.0416,0.14318 -0.0416,0.31817 0,0.45175 -0.32886,2.09815 -0.60013,3.00444 -0.12654,0.42276 -0.23007,0.78082 -0.23007,0.79569 0,0.0149 0.4971,0.0387 1.10466,0.0529 l 1.10466,0.0259 -1.18746,0.9455 -1.18745,0.94551 -1.73904,0.004 -1.73903,0.004 -0.4151,0.55795 c -0.2283,0.30687 -0.92917,1.05876 -1.55748,1.67086 l -1.14238,1.11291 0.81952,-0.0576 c 0.45074,-0.0317 1.33611,-0.0859 1.96749,-0.12054 l 1.14797,-0.0629 1.16907,-0.98095 c 2.6918,-2.25868 5.79346,-4.47626 7.97332,-5.70066 1.09165,-0.61317 1.97297,-1.28407 3.38198,-2.57454 3.39855,-3.11261 5.60533,-6.55087 6.0756,-9.46606 0.13979,-0.86655 0.073,-2.48638 -0.13397,-3.24987 -0.16073,-0.59285 -0.85793,-2.13156 -0.93218,-2.0573 -0.0246,0.0246 -0.003,1.48914 0.0476,3.25454 l 0.0923,3.20981 -0.58333,1.21307 c -0.32084,0.66719 -0.73053,1.43164 -0.91043,1.69877 l -0.32709,0.4857 -0.0589,-0.95047 c -0.16487,-2.65849 -0.52119,-12.03471 -0.71444,-18.79978 -0.14319,-5.01268 -0.14493,-17.42724 -0.003,-20.20155 0.13347,-2.60583 0.25341,-4.11236 0.44148,-5.54522 l 0.14062,-1.07136 -0.47056,-0.81965 c -0.2588,-0.45081 -0.58189,-1.15174 -0.71796,-1.55761 -0.22274,-0.66439 -0.24752,-0.87131 -0.24858,-2.07551 l -10e-4,-1.33754 0.5186,-1.33755 c 0.66523,-1.71571 1.19971,-3.39667 1.50028,-4.7184 0.13094,-0.57578 0.40535,-1.64878 0.6098,-2.38443 0.40917,-1.47226 0.91195,-3.8298 0.92462,-4.33549 0.004,-0.17757 0.0252,-0.28134 0.0462,-0.23061 0.021,0.0507 0.30732,3.08752 0.63638,6.74842 l 0.59829,6.65618 -0.18629,0.5389 c -0.22376,0.64725 -0.6706,2.34559 -0.82742,3.1448 -0.0622,0.31709 -0.14539,0.57653 -0.18482,0.57653 -0.13391,0 -0.91185,-0.93362 -1.20527,-1.44646 -0.2865,-0.50076 -0.2899,-0.52054 -0.17709,-1.03102 0.0633,-0.28626 0.21922,-0.85249 0.34657,-1.2583 0.23073,-0.7352 0.23114,-0.74287 0.11449,-2.14957 -0.0644,-0.77646 -0.14563,-1.37841 -0.18054,-1.33767 -0.0541,0.0632 -0.64486,1.60684 -1.08733,2.8414 -0.0947,0.26408 -0.12025,0.63122 -0.0901,1.29142 0.0348,0.75997 0.0958,1.06056 0.34672,1.70653 0.16749,0.43124 0.4627,1.03549 0.65603,1.34276 0.43918,0.69808 2.21206,2.43166 3.10463,3.03582 0.48433,0.32783 0.65589,0.49455 0.61517,0.5978 -0.74938,1.90006 -1.73837,12.37422 -2.63807,27.93912 -0.18494,3.19946 -0.19379,3.65279 -0.0749,3.83898 0.0741,0.11612 0.34791,0.49247 0.60843,0.83635 1.04922,1.38496 1.702,3.01286 1.89139,4.71678 0.0978,0.88029 0.093,1.17885 -0.0337,2.07551 -0.23517,1.66462 -0.83431,3.33271 -1.75716,4.89213 l -0.41929,0.7085 0.084,1.41312 c 0.0462,0.77722 0.10707,1.62597 0.13531,1.88611 l 0.0513,0.47299 0.75579,0.0412 c 1.14326,0.0623 1.8166,0.49977 1.8166,1.1802 0,0.60668 -0.7384,1.3696 -1.56591,1.6179 -0.21911,0.0657 -0.21602,0.0545 0.0763,-0.27851 0.46331,-0.52768 0.55349,-0.77667 0.3383,-0.93402 -0.18365,-0.13429 -1.33965,-0.1853 -1.33892,-0.0591 10e-4,0.21766 0.37497,4.1855 0.42137,4.47386 l 0.0557,0.34592 h -6.23953 -6.23952 l -0.70999,0.52041 c -1.1228,0.82299 -3.24671,2.54321 -3.24671,2.62961 0,0.0432 0.2802,0.0787 0.62265,0.0789 0.87112,5.5e-4 2.17015,0.22668 3.22879,0.56213 0.97797,0.30989 2.40306,0.97474 2.83908,1.32453 l 0.27394,0.21976 -0.27673,0.10564 c -0.1522,0.0581 -1.31448,0.51415 -2.58285,1.01344 -3.24059,1.27565 -4.30605,1.58125 -7.06981,2.02778 -4.68232,0.75651 -8.11141,0.99878 -9.26354,0.65449 -0.25224,-0.0754 -0.24241,-0.0814 0.14444,-0.0889 1.53082,-0.0297 3.54103,-0.70057 5.11366,-1.70657 0.50823,-0.32511 2.91161,-2.49016 2.91161,-2.62288 0,-0.0993 -2.08359,0.0635 -2.9057,0.22702 -1.56977,0.31222 -2.88478,0.99382 -3.84972,1.99539 l -0.53166,0.55185 -1.08399,0.12571 c -8.27677,0.95987 -9.32749,1.03913 -11.6761,0.88088 -0.92202,-0.0621 -3.42309,-0.31359 -5.55793,-0.55882 l -3.88152,-0.44584 -0.68459,-0.68235 c -1.15123,-1.14744 -2.74473,-1.81981 -4.76676,-2.01131 -1.32208,-0.1252 -1.8678,-0.15358 -1.8666,-0.0971 0.002,0.11604 2.24518,2.15106 2.79148,2.53295 1.34678,0.94146 3.2585,1.63362 4.89183,1.77113 0.63597,0.0535 0.71211,0.0763 0.47934,0.14324 -0.4262,0.12257 -2.47183,0.16239 -3.55142,0.0691 z m -4.76212,-2.35637 c 0.0867,-0.0333 0.14556,-0.0911 0.13074,-0.12843 -0.0148,-0.0374 -0.52508,-0.53426 -1.1339,-1.10422 l -1.10693,-1.03629 -1.47591,0.0544 c -1.41399,0.0521 -2.37905,0.17742 -3.27469,0.42527 l -0.4151,0.11487 0.4151,0.17982 c 1.26782,0.54923 3.977,1.36269 5.15593,1.54812 0.52851,0.0831 1.42176,0.0551 1.70476,-0.0535 z m 38.75423,0.0512 c 1.16595,-0.16586 3.15828,-0.74534 5.06406,-1.47291 0.63021,-0.24059 0.59645,-0.28196 -0.40571,-0.49722 -0.96395,-0.20705 -2.18832,-0.3311 -3.27468,-0.33177 l -0.92245,-5.6e-4 -1.134,1.07199 c -0.6237,0.5896 -1.11355,1.09246 -1.08855,1.11745 0.0658,0.0658 0.61573,0.18839 0.88501,0.19728 0.12684,0.004 0.52118,-0.0337 0.87632,-0.0842 z m -16.98092,-0.69717 c 7.35055,-0.80982 13.59189,-4.66082 15.64835,-9.65527 0.78215,-1.89956 0.94006,-4.12702 0.42988,-6.06382 -1.31854,-5.00563 -6.73038,-9.1413 -13.81031,-10.55368 -2.10059,-0.41905 -2.69073,-0.46954 -5.48855,-0.46954 -2.78845,0 -3.40009,0.0519 -5.44377,0.46181 -8.62784,1.73057 -14.48944,7.31444 -14.12977,13.46026 0.36338,6.20901 6.80114,11.44932 15.65315,12.74159 2.15158,0.31409 4.74464,0.34266 7.14102,0.0787 z m -32.87724,-8.34154 c -0.38935,-0.30795 -3.31783,-1.72452 -4.19713,-2.03024 -0.90637,-0.31514 -2.41234,-0.67359 -2.52845,-0.60183 -0.0401,0.0248 -0.10104,0.45115 -0.1355,0.94752 -0.0345,0.49637 -0.0879,1.12041 -0.11878,1.38677 l -0.0561,0.48428 3.6333,-0.002 3.6333,-0.002 z m 66.32394,0.0251 c 1.9e-4,-0.22097 -0.20905,-2.64609 -0.2309,-2.67626 -0.01,-0.0133 -0.33727,0.0369 -0.72804,0.11171 -1.45179,0.27778 -3.61576,1.148 -5.41486,2.17754 -0.45177,0.25853 -0.8214,0.48769 -0.8214,0.50924 0,0.0216 1.61889,0.0392 3.59753,0.0392 3.36468,0 3.59755,-0.0104 3.59767,-0.16142 z m -0.94564,-3.99981 0.57653,-0.10095 -0.001,-0.52094 c -0.002,-1.01685 -0.0246,-1.02179 -0.81587,-0.18159 -0.3877,0.41169 -0.7572,0.82268 -0.82111,0.91331 -0.10742,0.1523 -0.0935,0.1582 0.18448,0.0779 0.16539,-0.0477 0.56014,-0.13225 0.87723,-0.18778 z m -71.06737,-0.67693 c -0.79029,-0.84608 -0.81588,-0.86434 -0.87244,-0.62265 -0.0321,0.13695 -0.0632,0.46262 -0.0692,0.7237 l -0.0109,0.47471 0.7149,0.13639 c 0.39319,0.075 0.7907,0.14159 0.88335,0.14795 0.11111,0.008 -0.10873,-0.28521 -0.64571,-0.8601 z m 72.42979,-34.458 c 0.58593,-6.21798 1.02688,-9.82297 1.48357,-12.12894 0.13049,-0.65889 0.2541,-1.22521 0.27467,-1.2585 0.0394,-0.0638 -1.24454,-1.13631 -1.29406,-1.08096 -0.1235,0.13804 -0.53532,4.89019 -0.69826,8.0574 -0.0954,1.85482 -0.20787,10.39927 -0.13232,10.05465 0.0222,-0.10146 0.18712,-1.74111 0.3664,-3.64365 z M 406.74469,513.82 c -0.0552,-1.6235 -0.16309,-3.8858 -0.23968,-5.02733 -0.13286,-1.98031 -0.47242,-5.35094 -0.54652,-5.42504 -0.0413,-0.0413 -1.18754,0.89615 -1.23063,1.00639 -0.0162,0.0414 0.0765,0.60634 0.20606,1.25536 0.4651,2.33052 0.90591,5.91815 1.50096,12.21588 l 0.3518,3.72328 0.0292,-2.39836 c 0.0161,-1.31909 -0.016,-3.72668 -0.0712,-5.35018 z m 0.0997,-28.56954 c -0.4276,-1.41282 -1.11863,-5.46772 -1.1185,-6.5633 l 5e-5,-0.3813 0.76097,-0.26059 c 2.46556,-0.84432 4.68247,-2.35193 5.32599,-3.62193 0.17971,-0.35466 0.23676,-0.62817 0.26285,-1.26012 l 0.0333,-0.80713 h 31.3888 31.3888 l 0.0388,0.80713 c 0.0321,0.66736 0.0842,0.89049 0.30104,1.28843 0.70513,1.29415 2.90531,2.7839 5.28657,3.57958 l 0.76101,0.25429 -3.6e-4,0.51751 c -10e-4,1.4829 -1.11781,7.31699 -1.35515,7.07965 -0.0281,-0.0281 -0.14619,-1.40533 -0.2625,-3.06058 -0.1163,-1.65525 -0.22531,-3.0225 -0.24223,-3.03832 -0.0169,-0.0158 -0.49597,-0.23649 -1.06456,-0.49037 -2.47801,-1.10644 -4.16462,-2.47164 -4.86683,-3.93938 -0.16991,-0.35514 -0.3322,-0.71835 -0.36063,-0.80714 -0.0491,-0.1533 -1.53823,-0.16127 -29.59591,-0.15838 l -29.54421,0.003 -0.40437,0.85021 c -0.33411,0.70249 -0.53446,0.98032 -1.15306,1.59901 -1.04564,1.04578 -2.60792,2.02449 -4.31101,2.70067 l -0.51826,0.20577 -0.0549,0.57074 c -0.0302,0.31391 -0.12513,1.67076 -0.21102,3.01522 -0.0859,1.34447 -0.18432,2.47706 -0.21876,2.51687 -0.0344,0.0398 -0.15413,-0.23001 -0.26599,-0.59959 z"
       id="path293" />
  </g>
</svg>
