<?xml version="1.0" encoding="UTF-8" standalone="no"?>
<!-- Created with Inkscape (http://www.inkscape.org/) -->

<svg
   version="1.1"
   id="svg2306"
   width="45.354328"
   height="51.984852"
   viewBox="0 0 45.354328 51.984852"
   xmlns="http://www.w3.org/2000/svg"
   xmlns:svg="http://www.w3.org/2000/svg">
  <defs
     id="defs2310" />
  <g
     id="g2312"
     transform="translate(-0.01433465,-433.50757)">
    <path
       style="fill:#000000;stroke-width:0.0566929"
       d="m 21.916804,485.29529 c -1.625588,-0.4995 -2.785503,-0.96266 -4.185934,-1.67146 C 11.840933,480.64277 6.7674992,475.0727 3.065905,467.52332 1.9235473,465.19348 0.90461408,462.64775 0.26793225,460.53279 l -0.2535976,-0.84242 v -5.94701 -5.94702 l 0.15590551,-0.0347 c 1.33931114,-0.29809 2.03474664,-0.62768 2.89081584,-1.37008 1.4666621,-1.27193 2.6728362,-3.9483 3.101459,-6.88182 0.048422,-0.3314 0.08804,-0.69323 0.08804,-0.80405 0,-0.14254 0.029034,-0.2104 0.099213,-0.23189 9.152127,-2.8034 16.27186,-4.96623 16.348085,-4.96623 0.0854,0 2.694015,0.78885 8.52593,2.57827 0.748347,0.22961 1.960158,0.60043 2.692914,0.82403 0.732756,0.2236 1.982834,0.60621 2.777953,0.85024 0.795118,0.24404 1.665265,0.51 1.933662,0.59104 l 0.487992,0.14733 0.03777,0.45292 c 0.0538,0.64511 0.176051,1.32146 0.409656,2.2664 0.504583,2.04107 1.378865,3.77808 2.450436,4.86848 0.925783,0.94206 1.680886,1.33757 3.198591,1.67536 l 0.155905,0.0347 v 5.92905 5.92904 l -0.169915,0.58329 c -0.80922,2.7779 -2.366306,6.4649 -3.926795,9.2982 -3.870854,7.02809 -8.95883,12.06879 -14.783845,14.64647 -1.267392,0.56084 -3.470548,1.31727 -3.815445,1.30998 -0.06759,-10e-4 -0.407731,-0.0901 -0.755861,-0.19708 z m 1.869925,-1.57856 c 2.524535,-0.83344 4.91572,-2.1072 7.125243,-3.79557 2.077425,-1.58742 4.278863,-3.84466 6.028914,-6.18174 2.826165,-3.77416 5.362052,-8.78604 6.804361,-13.448 l 0.26338,-0.85132 -0.01447,-5.26191 -0.01447,-5.26191 -0.425197,-0.15559 c -1.551172,-0.56762 -2.80613,-1.67441 -3.828294,-3.37633 -0.794737,-1.32325 -1.467606,-3.2495 -1.786318,-5.11377 -0.06212,-0.36336 -0.122872,-0.67058 -0.135004,-0.68272 -0.02407,-0.0241 -0.502557,-0.17128 -9.150753,-2.81533 -3.221817,-0.98503 -5.903206,-1.79096 -5.958642,-1.79096 -0.05544,0 -1.845703,0.53354 -3.978371,1.18564 -2.132668,0.6521 -4.757736,1.45454 -5.833484,1.7832 -4.4036623,1.34539 -5.2856742,1.61763 -5.3056392,1.63759 -0.011508,0.0115 -0.086487,0.37654 -0.1666205,0.81119 -0.8118079,4.40326 -2.8577378,7.44569 -5.6395513,8.38638 l -0.368504,0.12462 -0.014469,5.26429 -0.014469,5.26429 0.2538351,0.82777 c 1.4249667,4.64689 4.024745,9.77982 6.8541307,13.53262 3.7361042,4.95543 8.1263102,8.2652 13.1886882,9.94291 0.452126,0.14984 0.905777,0.27388 1.008112,0.27565 0.102335,0.002 0.600751,-0.13368 1.10759,-0.301 z m -1.492051,-0.83357 c -0.287718,-0.12095 -0.623651,-0.56968 -0.623651,-0.83306 0,-0.0808 -0.144475,-0.16003 -0.637795,-0.34958 -2.473675,-0.95048 -4.977585,-2.52877 -7.241672,-4.56465 C 9.5235209,473.29802 5.663733,467.07964 3.446256,460.46888 l -0.370504,-1.10455 v -3.98724 -3.98724 l -0.2613753,-0.21849 c -0.2993483,-0.25022 -0.4194743,-0.49132 -0.4176947,-0.83835 0.00395,-0.77067 0.7714499,-1.27721 1.4427853,-0.95222 l 0.2612393,0.12646 0.4283716,-0.3281 c 2.0124646,-1.54142 3.5087482,-4.1167 4.3139594,-7.42482 l 0.2074904,-0.85245 6.2883,-1.9255 6.288299,-1.9255 0.1039,-0.27559 c 0.12964,-0.34386 0.246933,-0.47751 0.535276,-0.60992 0.584024,-0.26818 1.184643,0.0167 1.410489,0.66905 l 0.07396,0.21363 1.86565,0.57281 c 1.026107,0.31504 3.855571,1.18097 6.287697,1.92428 l 4.422048,1.35147 0.243486,0.99057 c 0.307877,1.25251 0.64219,2.18678 1.178464,3.29332 0.844891,1.74334 1.886318,3.08454 3.110616,4.00602 l 0.425134,0.31998 0.260463,-0.12608 c 0.665233,-0.32204 1.443254,0.19349 1.443254,0.95632 0,0.34437 -0.121128,0.58568 -0.41894,0.83462 l -0.261375,0.21849 v 3.97746 3.97747 l -0.36892,1.11507 c -0.768607,2.32314 -1.818442,4.77166 -2.992094,6.97843 -3.755934,7.06212 -8.636861,11.87041 -14.355522,14.1419 -0.374173,0.14862 -0.72496,0.28583 -0.779527,0.3049 -0.05457,0.0191 -0.09921,0.0875 -0.09921,0.1521 0,0.19543 -0.213367,0.55046 -0.430216,0.71586 -0.156761,0.11956 -0.279286,0.1599 -0.524933,0.17283 -0.176243,0.009 -0.384208,-0.01 -0.462145,-0.0427 z m -0.280391,-1.78563 c 0.132904,-0.16014 0.383049,-0.25138 0.688571,-0.25117 0.285107,2.3e-4 0.387842,0.0411 0.731941,0.29135 0.114526,0.0833 0.83747,-0.18464 2.022239,-0.74946 4.248664,-2.0255 8.006653,-5.54943 11.13595,-10.44238 1.833318,-2.86656 3.505806,-6.37148 4.632814,-9.70866 l 0.344264,-1.01941 -0.0021,-3.94015 -0.0021,-3.94016 -0.214478,-0.14815 c -0.251275,-0.17356 -0.41077,-0.47515 -0.415044,-0.78481 -0.0029,-0.20966 -0.02695,-0.23834 -0.492482,-0.58714 -2.090566,-1.56637 -3.787546,-4.40447 -4.575309,-7.65193 l -0.162065,-0.66809 -0.285483,-0.0837 c -0.157016,-0.046 -2.900444,-0.88348 -6.096507,-1.86099 l -5.811024,-1.77729 -0.183507,0.15976 c -0.379212,0.33015 -0.90484,0.33024 -1.27419,2.3e-4 l -0.177666,-0.15875 -0.514602,0.1559 c -0.283031,0.0857 -1.433027,0.4368 -2.555547,0.78014 -2.341127,0.71608 -8.9133989,2.72356 -9.0464617,2.76322 -0.0579,0.0172 -0.1246206,0.17979 -0.1910114,0.46531 -0.4910837,2.11199 -1.4739512,4.3052 -2.6102971,5.82471 -0.4796963,0.64145 -1.4447401,1.62025 -2.0278199,2.05673 -0.4743859,0.35512 -0.496063,0.38094 -0.496063,0.59102 0,0.29416 -0.1853048,0.64082 -0.4258267,0.79661 l -0.1963916,0.12721 -7.03e-4,3.94809 -7.03e-4,3.9481 0.3736879,1.09757 c 1.6101536,4.72926 4.0645514,9.29191 6.8880485,12.80467 2.951504,3.67201 6.295242,6.26116 10.067651,7.79567 0.683346,0.27796 0.766104,0.29371 0.87214,0.16594 z"
       id="path2433" />
  </g>
</svg>
