<?xml version="1.0" encoding="UTF-8" standalone="no"?>
<!-- Created with Inkscape (http://www.inkscape.org/) -->

<svg
   version="1.1"
   id="svg869"
   width="143.62204"
   height="35.753044"
   viewBox="0 0 143.62204 35.753044"
   xmlns="http://www.w3.org/2000/svg"
   xmlns:svg="http://www.w3.org/2000/svg">
  <defs
     id="defs873" />
  <g
     id="g875"
     transform="translate(-657.86287,17.876514)">
    <path
       style="fill:#000000;stroke-width:0.0762325"
       d="M 657.86287,9.2376749e-6 V -17.876514 l 4.36431,0.0018 4.36431,0.0018 0.2287,0.311783 c 0.32695,0.445735 1.16774,1.204026 1.66799,1.504328 l 0.42803,0.256949 0.81968,-0.305733 c 1.38826,-0.517804 2.63429,-0.791468 4.80264,-1.054799 0.21404,-0.02599 0.35046,-0.08916 0.40248,-0.186357 0.11465,-0.214227 0.47785,-0.377304 0.84033,-0.377304 0.2614,0 0.36387,0.04753 0.59,0.273662 0.26304,0.263036 0.30345,0.27654 1.04058,0.347783 1.48183,0.143217 3.36698,0.611985 4.89684,1.217665 0.2271,0.08991 0.26953,0.07766 0.68609,-0.198108 0.6574,-0.435199 1.11019,-0.83601 1.51597,-1.341916 l 0.36217,-0.451551 h 4.37146 4.37146 v 1.791464 1.791464 h 51.10666 51.10665 l 0.2097,0.362104 c 0.37697,0.650963 1.27912,1.946957 1.88963,2.7146 1.18347,1.488081 2.17341,2.4022079 3.11752,2.878796 l 0.43884,0.2215278 V 9.2376749e-6 8.1165766 l -0.43884,0.2215279 c -1.38571,0.6995042 -3.2712,2.7728325 -4.82335,5.3038635 l -0.39961,0.651637 h -51.1036 -51.1036 v 1.791463 1.791464 h -4.37146 -4.37146 l -0.36217,-0.451551 c -0.59392,-0.740476 -1.81041,-1.666841 -2.07997,-1.583907 -0.0745,0.02292 -0.45466,0.163345 -0.84478,0.31205 -1.04058,0.396645 -2.67399,0.784487 -3.89409,0.924628 -1.05115,0.120735 -1.07585,0.127864 -1.33265,0.384665 -0.21397,0.213975 -0.31929,0.26165 -0.57799,0.26165 -0.36195,0 -0.72564,-0.16301 -0.83986,-0.376432 -0.0578,-0.107974 -0.19281,-0.158025 -0.51683,-0.191586 -1.79984,-0.186423 -3.26148,-0.511892 -4.67054,-1.040012 l -0.84006,-0.314857 -0.42695,0.256293 c -0.4993,0.299726 -1.34022,1.058292 -1.66691,1.503673 l -0.2287,0.311782 -4.36431,0.0018 -4.36431,0.0018 z M 674.93895,16.198297 c 0,-0.149585 0.49448,-0.379471 0.81684,-0.379757 0.24362,-2.29e-4 0.3819,0.05206 0.57175,0.216129 l 0.25041,0.216414 0.72081,-0.0652 c 0.87587,-0.07923 2.32898,-0.369908 3.20127,-0.640387 0.56142,-0.174085 0.62501,-0.210979 0.49551,-0.287467 -0.21974,-0.129785 -9.72956,-0.166728 -10.31719,-0.04008 l -0.4277,0.09218 0.76232,0.243031 c 0.86856,0.276899 2.13793,0.538272 3.08742,0.635723 0.35639,0.03658 0.69086,0.07106 0.74327,0.07663 0.0524,0.0056 0.0953,-0.02468 0.0953,-0.06722 z m -9.1062,-0.847245 c 0.86863,-0.907234 2.43841,-1.806915 3.80804,-2.18248 l 0.76232,-0.209036 5.33628,4.57e-4 5.33628,4.57e-4 0.76232,0.213662 c 1.36407,0.382317 2.57175,1.061201 3.67115,2.063705 l 0.46939,0.428014 h 0.81556 c 1.40187,0 2.31668,-0.350167 3.16332,-1.210836 0.79378,-0.80693 1.19851,-1.768111 1.36798,-3.248766 0.10727,-0.937211 0.10727,-21.475146 0,-22.412357 -0.17,-1.485359 -0.57575,-2.447132 -1.36798,-3.242645 -0.86798,-0.871588 -1.7658,-1.216998 -3.16332,-1.216998 h -0.81556 l -0.46939,0.428013 c -0.97494,0.889009 -2.00214,1.511403 -3.09941,1.877976 -1.21683,0.406518 -1.11184,0.400295 -6.74657,0.399836 l -5.26005,-4.57e-4 -0.76232,-0.208917 c -1.37357,-0.3764 -2.66906,-1.103668 -3.67493,-2.063021 l -0.47317,-0.451282 -1.01337,0.03669 c -0.775,0.02806 -1.11951,0.07506 -1.46461,0.199841 -1.16271,0.4204 -2.06351,1.331401 -2.51947,2.547994 -0.43687,1.165662 -0.42691,0.840275 -0.40395,13.20943143 l 0.0211,11.35325257 0.16898,0.594303 c 0.33431,1.175799 0.8559,1.997686 1.64959,2.599324 0.77589,0.588147 1.48121,0.796501 2.72021,0.803563 l 0.88026,0.005 z m 122.01263,-3.222725 c 1.20093,-0.483549 2.8977,-1.244811 3.00129,-1.346533 0.0448,-0.044 -18.47685,-0.07112 -48.57917,-0.07112 h -48.65159 v 0.91479 0.91479 h 46.60321 46.60321 z m 7.58201,-0.435812 c 1.29802,-1.8773081 2.90228,-3.6585462 3.90526,-4.3360687 l 0.39498,-0.2668138 0.002,-0.9452168 0.002,-0.9452167 -0.36988,0.4878217 c -1.813,2.3911165 -5.08178,4.6521563 -9.76905,6.7573223 -0.14556,0.06538 0.45183,0.08681 2.52901,0.09075 l 2.71959,0.0052 0.58615,-0.847742 z M 695.2168,9.2376749e-6 V -9.7958681 h -0.80045 -0.80044 V 9.2376749e-6 9.7958866 h 0.80044 0.80045 z M 793.48299,9.3751014 c 3.02191,-1.8324046 5.08729,-3.7760515 5.99066,-5.6375487 l 0.25792,-0.5314771 V -0.01907176 -3.2442199 l -0.23934,-0.4742798 c -0.97849,-1.9390684 -3.03676,-3.8677585 -6.10572,-5.7213237 L 792.797,-9.7958681 h -48.33271 -48.3327 V 9.2376749e-6 9.7958866 h 48.32873 48.32873 z m 6.24388,-15.5308672 -0.005,-0.9338482 -0.53271,-0.3811626 c -1.02908,-0.7363191 -2.51381,-2.4109613 -3.83559,-4.3261944 l -0.51296,-0.743267 -2.71943,0.0052 c -2.09459,0.004 -2.67563,0.02506 -2.52884,0.09177 1.03347,0.469676 2.62905,1.254288 3.278,1.611924 2.91802,1.6081184 5.28219,3.4865126 6.50566,5.1689068 0.17443,0.2398633 0.32573,0.437115 0.33621,0.438337 0.0105,0.00122 0.0169,-0.4180096 0.0144,-0.9316261 z m -8.77304,-4.5913072 c -0.0749,-0.07488 -2.1224,-0.984938 -3.10845,-1.381609 l -1.02305,-0.411556 h -46.60321 -46.60321 v 0.91479 0.91479 h 48.68717 c 26.77793,0 48.67077,-0.01639 48.65075,-0.03641 z M 680.99554,-15.25801 c 0.1295,-0.07649 0.0659,-0.113382 -0.49551,-0.287466 -0.87229,-0.270479 -2.3254,-0.561161 -3.20127,-0.640388 l -0.72081,-0.0652 -0.25041,0.216415 c -0.18538,0.160214 -0.32989,0.216414 -0.55647,0.216414 -0.32514,0 -0.70832,-0.158764 -0.80927,-0.335302 -0.12695,-0.22199 -2.61443,0.16231 -4.02506,0.621846 l -0.68609,0.223505 0.34305,0.08142 c 0.49545,0.1176 10.19918,0.08845 10.40184,-0.03125 z"
       id="path1361" />
  </g>
</svg>
